<svg width="115" height="116" viewBox="0 0 115 116" fill="none" xmlns="http://www.w3.org/2000/svg">
<rect width="115" height="116" rx="57.5" fill="#EF6D75"/>
<path fill-rule="evenodd" clip-rule="evenodd" d="M79.1127 25.5662L89.546 35.7132C90.3406 36.486 90.3552 37.7577 89.5785 38.5485L71.0326 57.4302L89.8213 75.8847C90.6228 76.6719 90.6188 77.9646 89.8125 78.7469L79.0527 89.1863C78.27 89.9457 77.0232 89.938 76.2499 89.1691L57.8388 70.863L39.5856 89.4469C38.7984 90.2484 37.5056 90.2444 36.7233 89.4381L26.2839 78.6783C25.5246 77.8956 25.5322 76.6488 26.3011 75.8755L44.486 57.5863L25.9642 39.1702C25.1871 38.3975 25.1765 37.1432 25.9406 36.3576L36.0876 25.9242C36.8604 25.1296 38.1321 25.1151 38.9228 25.8918L57.6807 44.3159L76.3 25.5898C77.0727 24.8127 78.327 24.8022 79.1127 25.5662Z" fill="white"/>
</svg>
