<svg width="82" height="83" viewBox="0 0 82 83" fill="none" xmlns="http://www.w3.org/2000/svg">
<path fill-rule="evenodd" clip-rule="evenodd" d="M20.7918 10.8999L18.1312 11.5577L15.3577 0.628972L17.9769 0L20.7918 10.8999ZM46.5877 75.1975L35.8494 75.2115C35.5652 76.8371 35.9742 78.1334 36.9375 78.7661C37.8336 79.3539 39.1422 79.3222 40.3964 79.2917C40.6715 79.285 40.944 79.2784 41.2089 79.2784C41.3878 79.2784 41.5892 79.2837 41.8066 79.2894C43.9026 79.3446 47.4819 79.4387 46.5877 75.1975ZM46.5884 69.7531L35.8014 69.7619L35.7815 72.4764L46.6733 72.4852L46.5884 69.7531ZM21.7716 48.5376C20.5126 47.0618 18.5971 44.8164 17.8654 42.5471C13.2611 42.6963 10.7378 47.2378 13.3918 51.2088C15.4588 54.3012 21.2664 54.2547 22.7983 49.8098C22.6032 49.5125 22.2311 49.0763 21.7716 48.5376ZM8.36222 36.1688L5.97552 38.5932C6.01582 38.6387 6.14393 38.8561 6.28652 39.098L6.28674 39.0984L6.28676 39.0984L6.28681 39.0985C6.44455 39.3662 6.61995 39.6638 6.71375 39.7921C6.796 39.9048 6.87894 40.0166 6.96146 40.1279L6.96159 40.128L6.96172 40.1282C7.84488 41.3189 8.68138 42.4466 8.14739 43.9608C7.59774 45.5193 5.68592 45.841 3.72651 46.1706C3.41478 46.223 3.10186 46.2757 2.79302 46.3335L2.82329 49.6105C3.11731 49.6651 3.41576 49.715 3.7138 49.7648C5.69435 50.0959 7.65695 50.424 8.18504 52.0969C8.64941 53.5655 7.73922 54.7684 6.91606 55.8562C6.51698 56.3836 6.13835 56.8839 5.94673 57.3744L8.38805 59.7478C8.84872 59.5569 9.32816 59.1974 9.83586 58.8167C10.9358 57.9918 12.1685 57.0675 13.6302 57.5428C15.3033 58.0874 15.6205 60.0147 15.9535 62.0379L15.9535 62.038L15.9535 62.0381L15.9535 62.0381L15.9535 62.0382L15.9535 62.0383L15.9535 62.0384L15.9536 62.0384L15.9536 62.0385C16.0029 62.338 16.0525 62.6396 16.107 62.9392L19.1152 62.9547C19.5479 62.7145 19.6518 61.9945 19.7741 61.1466C19.9638 59.8316 20.1979 58.2089 21.7714 57.59C23.2336 57.0146 24.5886 58.0033 25.7787 58.8718C26.2591 59.2223 26.7125 59.5532 27.1353 59.7538L29.9768 56.8599C29.5973 55.5459 28.7159 54.4555 27.8743 53.8597L24.9125 51.7676C23.721 53.9136 21.7278 55.8456 18.3224 56.1254C12.2401 56.6259 7.48963 50.1243 10.4344 44.3277C11.5905 42.0533 13.5136 40.407 16.6835 39.9021L15.6692 35.4446C15.6286 35.5633 15.5885 35.706 15.544 35.864C15.2379 36.9523 14.7264 38.7704 12.4328 38.5216C11.6088 38.4324 10.6996 37.7621 9.85281 37.1378C9.3188 36.7441 8.80959 36.3687 8.36222 36.1688ZM49.6366 7.42154C49.1961 6.78272 48.8101 6.22297 48.4133 5.9421C47.949 6.29432 47.4748 6.63999 46.9987 6.9871L46.9986 6.98716L46.9986 6.98718C46.0637 7.66874 45.1212 8.35587 44.2305 9.1091C44.4979 9.69656 44.967 10.2813 45.4612 10.8972C46.7037 12.4459 48.104 14.1912 46.849 16.67C45.4996 19.3342 42.9371 18.8916 40.8488 18.5308C40.042 18.3915 39.3061 18.2643 38.7381 18.3333L37.9858 23.65C38.22 23.6775 38.4533 23.7038 38.6849 23.73C41.8656 24.0888 44.7267 24.4115 45.3268 27.4186C45.8651 30.1159 43.9628 31.4502 42.3144 32.6063C41.7995 32.9674 41.3094 33.3112 40.9262 33.6736C40.8743 33.7229 40.8423 33.752 40.8203 33.772L40.82 33.7722C40.8081 33.7831 40.7991 33.7912 40.7915 33.7985C40.7863 33.8034 40.7818 33.8079 40.7775 33.8125C40.7627 33.8282 40.7497 33.8455 40.7188 33.8865L40.6737 33.946L43.8267 38.216C44.4066 37.9409 44.98 37.47 45.5837 36.9742C47.0878 35.739 48.7798 34.3495 51.2289 35.4505C54.0856 36.7351 53.6175 39.5809 53.2515 41.8054C53.1338 42.5211 53.0266 43.1726 53.0442 43.687L58.3912 44.4311C58.4045 44.2924 58.4175 44.154 58.4305 44.0161C58.7459 40.6708 59.0346 37.6086 62.2337 37.0584C64.1065 36.7365 65.4125 37.6697 66.1965 38.5799L68.5891 41.7565C69.2725 41.4161 70.0175 40.8024 70.7645 40.1871C71.4997 39.5815 72.237 38.9742 72.9195 38.6242C72.654 38.0799 72.208 37.5175 71.7336 36.9192L71.7334 36.919L71.7333 36.9188L71.7332 36.9187L71.7331 36.9186C70.4746 35.3317 69.0162 33.4927 70.194 31.0729C71.4659 28.4599 73.8992 28.793 76.7509 29.1833C77.2807 29.2558 77.8248 29.3303 78.3787 29.3882L79.1095 24.1719C78.6507 23.7866 77.5792 23.6867 76.522 23.5882C75.7439 23.5156 74.9736 23.4438 74.4609 23.2595C73.2392 22.8202 72.1126 21.7453 71.7996 20.3006C71.2087 17.5683 73.0454 16.2955 74.695 15.1524C75.3555 14.6947 75.986 14.2577 76.4187 13.7562C76.2135 13.2919 73.6348 9.80377 73.2296 9.476C72.6417 9.73727 72.0646 10.2135 71.4551 10.7165C70.0032 11.9147 68.3674 13.2647 65.9647 12.2222C62.9835 10.9284 63.472 8.01762 63.8941 5.50262C63.9835 4.96966 64.07 4.45446 64.1198 3.9762L58.8267 3.24978C58.585 3.797 58.4987 4.56482 58.4047 5.40083C58.1664 7.52087 57.8788 10.0795 54.8816 10.5915C52.1446 11.0586 50.7244 8.999 49.6366 7.42154ZM41.4751 10.134C41.0988 9.65779 40.9432 9.46097 40.8531 8.52073C24.8646 8.9489 15.413 23.5075 18.5571 36.752C19.491 40.6853 21.9235 45.4845 24.7177 47.8882C24.9959 48.1276 25.2661 48.3888 25.5363 48.6499C25.985 49.0837 26.4335 49.5173 26.9183 49.8504C27.1585 50.0155 27.3948 50.1751 27.6265 50.3317C30.0448 51.966 31.9706 53.2675 32.8241 56.902C33.0984 58.0683 33.0573 59.7141 33.0181 61.2811V61.2812V61.2812C32.979 62.8434 32.9419 64.3273 33.2213 65.1797C33.9019 67.2585 36.4304 67.1624 38.8532 67.0703C39.2714 67.0544 39.6865 67.0386 40.0883 67.0342C40.508 67.0295 41.0693 67.045 41.7042 67.0626C43.9947 67.1259 47.2428 67.2157 48.256 66.4805C49.5682 65.5283 49.4899 63.8026 49.3953 61.7154C49.2462 58.4305 49.0566 54.2501 54.1833 50.7806L56.6438 48.9328C56.6955 49.0033 56.8479 49.1605 57.0431 49.3617C57.4919 49.8246 58.1669 50.5206 58.3624 50.9312C57.5869 51.6199 56.8281 52.1828 56.1214 52.7071C54.0924 54.2124 52.4921 55.3996 52.1576 58.3305C52.0401 59.3623 52.0763 60.4922 52.1124 61.6196V61.6197V61.6197V61.6197V61.6198V61.6198V61.6198V61.6199V61.6199C52.1499 62.7879 52.1872 63.9534 52.0535 65.0048C51.8038 66.9675 50.6533 67.965 49.945 68.5791C49.6441 68.8399 49.4231 69.0316 49.3848 69.1986C49.3848 69.7128 49.4017 70.3397 49.4203 71.0289C49.4939 73.7569 49.5938 77.4609 48.7758 79.0097C47.2351 81.9257 45.1031 82.0025 41.2089 82.0025C37.4041 82.0025 35.1746 81.8098 33.7048 79.1182C32.8629 77.5773 32.9615 73.8217 33.0344 71.0446C33.0526 70.3519 33.0692 69.7201 33.0692 69.1986C33.0255 69.0092 32.8076 68.8324 32.5115 68.592C31.9478 68.1345 31.1005 67.4467 30.6301 66.0036C30.2936 64.9722 30.3123 63.4545 30.3295 62.0621C30.3362 61.524 30.3426 61.0046 30.3282 60.5392C30.045 60.7231 29.7389 61.0528 29.409 61.4081L29.4089 61.4081C28.6303 62.2467 27.7191 63.2281 26.6629 62.7738C26.1045 62.5333 25.4385 62.0262 24.7724 61.5189L24.7723 61.5189C24.0726 60.986 23.3728 60.4531 22.7975 60.2292C22.4971 60.7968 22.3018 61.9285 22.1253 62.9514L22.1253 62.9515C22.0308 63.4996 21.9416 64.0165 21.8445 64.3987C21.483 65.82 20.3468 65.7724 18.8696 65.7106C18.5399 65.6968 18.1932 65.6823 17.8344 65.6832C17.4315 65.6842 17.0573 65.6961 16.7115 65.7071C15.0611 65.7594 14.0604 65.7912 13.6967 64.5234C13.5644 64.0625 13.4496 63.4216 13.3315 62.7625C13.155 61.7771 12.9712 60.7513 12.7111 60.2262C11.8473 60.5377 11.1352 61.1308 10.4803 61.6763L10.4802 61.6764C9.26448 62.689 8.24566 63.5376 6.81932 62.1161C6.53385 61.8316 6.20067 61.5217 5.8512 61.1967C4.31276 59.7659 2.45858 58.0415 2.96872 56.8931C3.22161 56.3236 3.71881 55.6716 4.212 55.0249C4.75826 54.3086 5.2996 53.5987 5.49863 53.0145C5.02557 52.7831 3.73019 52.5375 2.65115 52.3329C2.12208 52.2326 1.64502 52.1421 1.3424 52.0681C-0.0833776 51.7202 -0.0324981 50.5409 0.0315201 49.0569C0.0454963 48.7329 0.0600989 48.3945 0.0600989 48.0469C0.0600989 47.704 0.0442574 47.3616 0.0288409 47.0284C-0.0386096 45.5705 -0.0979273 44.2884 1.21321 43.9062C1.63077 43.7846 2.27746 43.6657 2.95117 43.5419C3.97003 43.3547 5.0507 43.1561 5.49419 42.9192C5.11149 41.9772 4.50301 41.244 3.96467 40.5953C2.95678 39.3808 2.19476 38.4626 3.62057 37.0252C4.22669 36.4139 4.74151 35.8797 5.18619 35.4183C6.71877 33.828 7.41812 33.1022 8.15015 33.0676C8.76456 33.0386 9.40199 33.4964 10.5744 34.3384L10.7519 34.4658C10.8154 34.5114 10.8806 34.5584 10.947 34.6064C11.5097 35.0125 12.1644 35.4852 12.7111 35.7222C12.9476 35.2239 13.1443 34.1657 13.3055 33.2988L13.3056 33.2987L13.3056 33.2983C13.3643 32.9826 13.4183 32.6923 13.4678 32.4637C13.5017 32.3073 13.5314 32.1603 13.5592 32.0222C13.7999 30.8284 13.9049 30.3078 15.444 30.28C15.7172 24.5831 17.9296 19.5344 20.6057 16.0484C25.0609 10.2452 31.6836 6.30531 39.7679 5.85499C41.3716 5.76586 42.24 5.84456 42.8055 5.89581C43.1662 5.9285 43.4037 5.95002 43.6302 5.90971C44.0668 5.83201 44.4625 5.52456 45.621 4.62442L45.6211 4.62435L45.6216 4.62397C46.018 4.31593 46.5038 3.9385 47.1111 3.47715C48.4605 2.45249 49.0688 2.1417 50.2094 3.62628C50.4561 3.94745 50.7251 4.33342 51.0091 4.74091C52.3107 6.60847 53.9272 8.928 55.1592 7.53298C55.6729 6.95085 55.7549 5.68335 55.8397 4.37321C55.9662 2.41859 56.0989 0.369045 57.6803 0.358879L66.0533 1.56367C67.3995 2.04117 66.9995 3.93875 66.6088 5.79233C66.2873 7.31735 65.9721 8.8126 66.6409 9.46271C67.6577 10.4514 69.2456 9.13375 70.793 7.8497C71.3947 7.35041 71.9902 6.8562 72.5437 6.50463C73.9305 5.62391 74.6468 6.66105 75.2396 7.51938C75.3395 7.66398 75.4359 7.80351 75.5314 7.92793C76.2142 8.8175 76.8882 9.72699 77.5866 10.6764C77.8646 11.0546 78.1179 11.3918 78.3453 11.6946L78.346 11.6955L78.346 11.6955L78.3461 11.6956C79.3499 13.0321 79.8507 13.6988 79.7636 14.2769C79.6769 14.8524 79.0079 15.3401 77.6731 16.3131C77.3015 16.584 76.8783 16.8925 76.4017 17.251C76.2464 17.3679 76.0608 17.498 75.8707 17.6311L75.8705 17.6313L75.8697 17.6318L75.8694 17.632C75.5161 17.8795 75.1477 18.1375 74.9304 18.3414C72.6286 20.5012 76.9458 21.019 79.4127 21.3149C79.9729 21.3821 80.4376 21.4378 80.7078 21.4988C82.2304 21.8419 82.0798 22.7994 81.8688 24.1406L81.8687 24.1412L81.8687 24.1414L81.8686 24.1416L81.8686 24.1419L81.8685 24.1426C81.8399 24.3244 81.8102 24.5133 81.7834 24.7086C81.6744 25.502 81.5668 26.2599 81.4587 27.0214L81.4562 27.0395L81.456 27.0407C81.3615 27.7063 81.2666 28.3748 81.17 29.0723C81.1409 29.2817 81.1184 29.498 81.0958 29.7147C80.967 30.951 80.8369 32.2003 79.4838 32.2769C78.7468 32.3186 77.6835 32.1258 76.6228 31.9335C75.1678 31.6696 73.7178 31.4067 73.1218 31.7513C71.6373 32.6099 72.9432 34.1598 74.2745 35.7396C75.4132 37.091 76.5704 38.4643 76.0156 39.4458C75.754 39.9089 72.6919 42.1692 71.1968 43.2729L71.1967 43.273L71.1966 43.2731C70.9114 43.4836 70.6833 43.652 70.5424 43.7578C68.0143 45.6578 67.8566 45.4402 65.8417 42.6591C65.652 42.3973 65.4459 42.1128 65.2198 41.8052C65.1476 41.7071 65.0672 41.5876 64.9787 41.4562C64.4354 40.6488 63.5865 39.3874 62.4559 39.8172C61.4919 40.1835 61.37 41.8496 61.2481 43.5148C61.1264 45.1781 61.0047 46.8405 60.0441 47.2061C59.3494 47.4704 52.5274 46.4169 51.3751 46.1866C49.615 45.836 50.054 43.8668 50.4867 41.9255C50.7893 40.5683 51.0888 39.2246 50.6317 38.4573C49.7664 37.0064 47.6839 38.6786 45.8623 40.1413L45.8622 40.1414L45.8621 40.1414C45.4752 40.4521 45.1001 40.7533 44.7509 41.0131C43.1528 42.2026 42.2638 40.9244 40.6939 38.667C40.3863 38.2247 40.0526 37.7448 39.6823 37.2385C39.3366 36.7662 39.0256 36.3548 38.7515 35.9924C37.7708 34.6953 37.2643 34.0255 37.3422 33.4324C37.4255 32.7989 38.1755 32.2531 39.7266 31.1243C40.328 30.6866 41.0498 30.1613 41.8999 29.5093C42.4137 29.1158 42.8279 28.7674 42.6175 27.9081C42.3534 26.8309 40.4816 26.636 38.5746 26.4374L38.5746 26.4374L38.5745 26.4374L38.5745 26.4374L38.5744 26.4374L38.5744 26.4374L38.5743 26.4374L38.5743 26.4374L38.5743 26.4374C38.0022 26.3778 37.4269 26.3179 36.891 26.2338C34.7359 25.8952 34.9192 24.8381 35.4365 21.8535C35.5758 21.0503 35.7392 20.1074 35.8878 19.0014C35.9176 18.779 35.9397 18.5342 35.9626 18.28C36.0713 17.0753 36.1991 15.6595 37.2616 15.415C37.8602 15.2775 38.9167 15.4777 40.0448 15.6914C42.2893 16.1167 44.8172 16.5957 44.5848 14.5749C44.5276 14.0774 43.3406 12.5727 42.8135 11.9045C42.7422 11.8142 42.6831 11.7392 42.6404 11.684C42.4619 11.453 42.305 11.2393 42.1456 11.0219C41.9799 10.7961 41.8114 10.5664 41.6127 10.3095C41.5638 10.2463 41.518 10.1883 41.4751 10.134ZM56.9373 31.8212C61.6457 32.8171 65.7473 29.3526 66.5136 25.6135C67.5323 20.643 64.1483 16.6757 60.2504 15.8334C55.4446 14.794 51.3792 18.2733 50.5974 22.0176C49.5365 27.0936 52.9819 30.9841 56.9373 31.8212ZM47.7729 25.2931C46.9476 18.5996 51.5371 13.9281 57.2082 13.0437C63.5274 12.0581 68.6773 17.1083 69.3306 22.4612C70.1146 28.8838 65.4904 33.8669 59.9869 34.6191C53.6558 35.4843 48.4403 30.7065 47.7729 25.2931ZM42.5803 57.5056C42.2843 53.1331 40.2608 49.1356 36.3231 47.3314C34.355 46.4285 32.4984 45.567 31.047 44.4346C23.1952 38.3087 22.4459 25.5551 31.3608 18.6409C31.5371 18.5044 31.6196 18.4446 31.7225 18.3701L31.7226 18.37C31.7743 18.3326 31.8312 18.2914 31.9078 18.2348L32.4829 17.7439L31.112 15.541C28.0875 16.9813 24.6673 21.4616 23.4041 24.938C20.1087 34.0049 23.7703 43.5967 31.9056 48.2313C32.4668 48.5509 33.0572 48.84 33.6522 49.1314L33.6523 49.1315C36.5709 50.5606 39.6015 52.0447 39.8511 57.4598L42.5803 57.5056ZM14.7435 14.1273C14.4911 14.7924 13.6849 15.8998 13.191 16.3287L3.78454 9.58938C3.91172 9.26714 4.04636 9.09476 4.23327 8.85547C4.30242 8.76694 4.37872 8.66925 4.46445 8.55143L5.34663 7.45885C5.87822 7.74482 6.4688 8.1848 7.02406 8.59846L7.02408 8.59848L7.0241 8.59849L7.02414 8.59852C7.27156 8.78285 7.51197 8.96195 7.73701 9.11987L14.7435 14.1273ZM12.984 23.4661L12.3491 20.7789L1.45875 23.4764L2.15933 26.1229L12.984 23.4661ZM64.9136 59.9042C65.3491 60.3817 65.8874 60.8129 66.3954 61.2199L66.3957 61.2201L66.3973 61.2214C66.5948 61.3796 66.7877 61.5341 66.9681 61.6863C67.3278 61.9899 67.6531 62.2579 67.9663 62.5159L67.9664 62.516C68.3081 62.7975 68.6355 63.0672 68.9776 63.3584C69.0645 63.4325 69.1701 63.523 69.2903 63.626C70.326 64.5136 72.4487 66.3328 73.1294 66.6708C73.3558 66.2654 73.6107 65.9647 73.8686 65.6604L73.8687 65.6603C74.1523 65.3257 74.4395 64.9868 74.6966 64.4997L66.6691 57.8497C66.2513 58.1406 65.1218 59.4561 64.9136 59.9042ZM76.5841 53.4175L67.0736 53.4204L67.0669 50.6934L76.5967 50.6956L76.5841 53.4175ZM58.9145 71.1252L61.626 71.1112L61.6245 61.5903L58.9101 61.5844L58.9145 71.1252ZM39.8511 61.0303C39.8606 60.727 39.8692 60.4522 39.8714 60.2304L42.5793 60.2437L42.5741 64.2855L39.9777 64.3076C39.7698 63.6223 39.8164 62.1363 39.8511 61.0303Z" fill="white"/>
</svg>
