<svg width="80" height="80" viewBox="0 0 80 80" fill="none" xmlns="http://www.w3.org/2000/svg">
<path fill-rule="evenodd" clip-rule="evenodd" d="M40.0699 10.9388C44.6852 10.9388 48.4264 14.669 48.4264 19.2701C48.4264 23.8719 44.6852 27.6021 40.0699 27.6021C35.4546 27.6021 31.7134 23.8719 31.7134 19.2701C31.7134 14.669 35.4546 10.9388 40.0699 10.9388ZM40.0699 13.2573C43.4005 13.2573 46.1005 15.9493 46.1005 19.2701C46.1005 22.5909 43.4005 25.283 40.0699 25.283C36.7393 25.283 34.0393 22.5909 34.0393 19.2701C34.0393 15.9493 36.7393 13.2573 40.0699 13.2573Z" fill="white"/>
<path fill-rule="evenodd" clip-rule="evenodd" d="M36.0964 25.7571C36.0964 26.365 36.0964 26.9729 36.0964 27.5802C32.9675 29.5413 30.9158 30.3458 30.8257 34.5785C31.579 35.1415 32.3317 35.7045 33.085 36.2675C33.085 35.5079 33.085 34.7484 33.085 33.9888C33.1621 32.9597 33.4526 31.9431 34.7523 30.9856C35.7113 30.4135 36.5292 29.9299 37.4882 29.3578C37.9922 29.1391 38.425 28.5676 38.3558 27.6342C38.3558 27.1962 38.3558 26.7581 38.3558 26.3201C37.6024 26.1326 36.8497 25.9445 36.0964 25.7571ZM44.0436 25.7571C44.0436 26.365 44.0436 26.9729 44.0436 27.5802C47.1725 29.5413 49.2243 30.3458 49.3144 34.5785C48.561 35.1415 47.8083 35.7045 47.055 36.2675C47.055 35.5079 47.055 34.7484 47.055 33.9888C46.978 32.9597 46.6875 31.9431 45.3877 30.9856C44.4288 30.4135 43.6108 29.9299 42.6519 29.3578C42.1479 29.1391 41.7151 28.5676 41.7843 27.6342C41.7843 27.1962 41.7843 26.7581 41.7843 26.3201C42.5376 26.1326 43.2903 25.9445 44.0436 25.7571Z" fill="white"/>
<path fill-rule="evenodd" clip-rule="evenodd" d="M40.07 4C42.9541 4 45.6763 4.6906 48.0799 5.91425C48.5937 6.17591 48.988 6.37441 49.4717 6.68358C50.1291 7.1034 50.0684 8.06345 49.74 8.47025C49.3934 8.89918 48.7843 8.99877 48.3182 8.70131C45.9368 7.18281 43.1069 6.30218 40.07 6.30218C31.6019 6.30218 24.737 13.1462 24.737 21.5894C24.737 30.0327 31.6019 36.8773 40.07 36.8773C48.5382 36.8773 55.4031 30.0327 55.4031 21.5894C55.4031 17.7792 54.0041 14.295 51.6912 11.6179C51.0561 10.8824 51.6906 9.73623 52.5869 9.72061C52.9179 9.7154 53.2051 9.84297 53.4218 10.0929C56.095 13.1761 57.7114 17.1947 57.7114 21.5894C57.7114 31.3038 49.8131 39.1788 40.07 39.1788C30.327 39.1788 22.4287 31.3038 22.4287 21.5894C22.4287 11.875 30.327 4 40.07 4Z" fill="white"/>
<path fill-rule="evenodd" clip-rule="evenodd" d="M17.6459 46.7555C22.2612 46.7555 26.0024 50.4857 26.0024 55.0868C26.0024 59.6885 22.2612 63.4187 17.6459 63.4187C13.0312 63.4187 9.29004 59.6885 9.29004 55.0868C9.29004 50.4857 13.0312 46.7555 17.6459 46.7555ZM17.6459 49.0739C20.9765 49.0739 23.6765 51.766 23.6765 55.0868C23.6765 58.4076 20.9765 61.0996 17.6459 61.0996C14.3153 61.0996 11.6153 58.4076 11.6153 55.0868C11.6153 51.766 14.3153 49.0739 17.6459 49.0739Z" fill="white"/>
<path fill-rule="evenodd" clip-rule="evenodd" d="M13.6726 61.5736C13.6726 62.1815 13.6726 62.7888 13.6726 63.3967C10.543 65.3578 8.49129 66.1623 8.40186 70.395C9.15454 70.958 9.90787 71.521 10.6606 72.084C10.6606 71.3245 10.6606 70.5649 10.6606 69.8053C10.7382 68.7756 11.0287 67.7596 12.3278 66.8021C13.2868 66.23 14.1047 65.7458 15.0637 65.1743C15.5677 64.9556 16.0011 64.3841 15.9313 63.4501C15.9313 63.0127 15.9313 62.5747 15.9313 62.1366C15.1786 61.9492 14.4253 61.7611 13.6726 61.5736ZM21.6191 61.5736C21.6191 62.1815 21.6191 62.7888 21.6191 63.3967C24.7487 65.3578 26.7998 66.1623 26.8899 70.395C26.1365 70.958 25.3839 71.521 24.6312 72.084C24.6312 71.3245 24.6312 70.5649 24.6312 69.8053C24.5535 68.7756 24.263 67.7596 22.9639 66.8021C22.0043 66.23 21.187 65.7458 20.2274 65.1743C19.7234 64.9556 19.2906 64.3841 19.3605 63.4501C19.3605 63.0127 19.3605 62.5747 19.3605 62.1366C20.1131 61.9492 20.8658 61.7611 21.6191 61.5736Z" fill="white"/>
<path fill-rule="evenodd" clip-rule="evenodd" d="M10.3151 73.4053C7.69152 72.2102 5.50333 70.4542 3.82693 68.3453C3.46854 67.8949 3.19306 67.5506 2.88167 67.0689C2.45931 66.4148 2.91431 65.5667 3.38172 65.333C3.87654 65.0863 4.4719 65.2484 4.77219 65.7118C6.30562 68.0797 8.51209 70.0532 11.2741 71.3114C18.9765 74.8196 28.0733 71.4383 31.5919 63.7585C35.1105 56.0788 31.7192 47.0094 24.0168 43.5005C16.3144 39.9923 7.21824 43.3736 3.69898 51.0533C2.11136 54.5193 1.93119 58.2684 2.91953 61.6608C3.1911 62.5935 2.13617 63.3732 1.31429 63.0159C1.01074 62.8838 0.802495 62.6481 0.709797 62.3312C-0.436524 58.42 -0.232197 54.0949 1.59957 50.0972C5.64825 41.2615 16.114 37.3705 24.9764 41.4073C33.8382 45.444 37.74 55.879 33.692 64.7153C29.6433 73.5511 19.1769 77.442 10.3151 73.4053Z" fill="white"/>
<path fill-rule="evenodd" clip-rule="evenodd" d="M62.3858 46.7555C63.8892 46.7555 65.2999 47.1512 66.5187 47.8444C66.821 48.0162 67.0077 48.2929 67.0534 48.6365C67.0997 48.9802 66.9927 49.2959 66.7465 49.5413L66.6238 49.663C66.2765 50.0086 65.7602 50.0789 65.3326 49.84C64.4611 49.3519 63.4564 49.0739 62.3858 49.0739C59.0552 49.0739 56.3552 51.766 56.3552 55.0868C56.3552 58.4076 59.0552 61.0996 62.3858 61.0996C65.7164 61.0996 68.4164 58.4076 68.4164 55.0868C68.4164 54.3357 68.278 53.6158 68.0254 52.9525C67.8707 52.547 67.964 52.1155 68.2721 51.8089L68.4014 51.6801C68.6671 51.4158 69.0183 51.3117 69.3852 51.3885C69.752 51.4653 70.0321 51.7009 70.1692 52.0491C70.5387 52.9903 70.7417 54.0148 70.7417 55.0868C70.7417 59.6885 67.0005 63.4187 62.3858 63.4187C57.7705 63.4187 54.0293 59.6885 54.0293 55.0868C54.0293 50.4857 57.7705 46.7555 62.3858 46.7555Z" fill="white"/>
<path fill-rule="evenodd" clip-rule="evenodd" d="M58.4118 61.5736C58.4118 62.1815 58.4118 62.7888 58.4118 63.3967C55.283 65.3578 53.2312 66.1623 53.1411 70.395C53.8944 70.958 54.6471 71.521 55.4005 72.084C55.4005 71.3245 55.4005 70.5649 55.4005 69.8053C55.4775 68.7756 55.768 67.7596 57.0677 66.8021C58.0267 66.23 58.8446 65.7458 59.8036 65.1743C60.3076 64.9556 60.7404 64.3841 60.6712 63.4501C60.6712 63.0127 60.6712 62.5747 60.6712 62.1366C59.9179 61.9492 59.1652 61.7611 58.4118 61.5736ZM66.3591 61.5736C66.3591 62.1815 66.3591 62.7888 66.3591 63.3967C69.4879 65.3578 71.5397 66.1623 71.6291 70.395C70.8764 70.958 70.1238 71.521 69.3704 72.084C69.3704 71.3245 69.3704 70.5649 69.3704 69.8053C69.2934 68.7756 69.0029 67.7596 67.7032 66.8021C66.7442 66.23 65.9263 65.7458 64.9673 65.1743C64.4633 64.9556 64.0305 64.3841 64.0997 63.4501C64.0997 63.0127 64.0997 62.5747 64.0997 62.1366C64.853 61.9492 65.6057 61.7611 66.3591 61.5736Z" fill="white"/>
<path fill-rule="evenodd" clip-rule="evenodd" d="M62.3625 39.6383C72.1036 39.6383 79.9999 47.512 79.9999 57.2245C79.9999 66.9363 72.1036 74.81 62.3625 74.81C52.6214 74.81 44.7251 66.9363 44.7251 57.2245C44.7251 47.512 52.6214 39.6383 62.3625 39.6383ZM62.3625 41.986C70.8033 41.986 77.6453 48.8086 77.6453 57.2245C77.6453 65.6397 70.8033 72.4623 62.3625 72.4623C53.9218 72.4623 47.0798 65.6397 47.0798 57.2245C47.0798 48.8086 53.9218 41.986 62.3625 41.986Z" fill="white"/>
<path fill-rule="evenodd" clip-rule="evenodd" d="M38.9167 38.2784H41.2296V46.3383L47.5905 50.0002L46.4337 51.9977L40.0826 48.3411L33.7315 51.9977L32.5747 50.0002L38.9167 46.3494V38.2784Z" fill="white"/>
</svg>
