<svg width="20" height="17" viewBox="0 0 20 17" fill="none" xmlns="http://www.w3.org/2000/svg">
<path d="M0 1.41667C0 0.633073 0.637728 0 1.42708 0H18.5521C19.3414 0 19.9792 0.633073 19.9792 1.41667C19.9792 2.20026 19.3414 2.83333 18.5521 2.83333H1.42708C0.637728 2.83333 0 2.20026 0 1.41667ZM0 8.5C0 7.71641 0.637728 7.08333 1.42708 7.08333H18.5521C19.3414 7.08333 19.9792 7.71641 19.9792 8.5C19.9792 9.28359 19.3414 9.91667 18.5521 9.91667H1.42708C0.637728 9.91667 0 9.28359 0 8.5ZM19.9792 15.5833C19.9792 16.3669 19.3414 17 18.5521 17H1.42708C0.637728 17 0 16.3669 0 15.5833C0 14.7997 0.637728 14.1667 1.42708 14.1667H18.5521C19.3414 14.1667 19.9792 14.7997 19.9792 15.5833Z" fill="#808EA7"/>
</svg>
