<svg width="25" height="29" viewBox="0 0 25 29" fill="none" xmlns="http://www.w3.org/2000/svg">
<path fill-rule="evenodd" clip-rule="evenodd" d="M24.6669 8.15625V25.375C24.6669 26.3364 24.306 27.2584 23.6637 27.9383C23.0214 28.6181 22.1503 29 21.2419 29H19.5294V27.1875H21.2419C21.6961 27.1875 22.1317 26.9965 22.4528 26.6566C22.774 26.3167 22.9544 25.8557 22.9544 25.375V8.15625H19.5294C18.8481 8.15625 18.1947 7.86981 17.713 7.35995C17.2313 6.85008 16.9606 6.15856 16.9606 5.4375V1.8125H7.54189C7.08771 1.8125 6.65213 2.00346 6.33097 2.34337C6.00982 2.68328 5.82939 3.14429 5.82939 3.625V19.9375H4.11689V3.625C4.11689 2.66359 4.47774 1.74156 5.12005 1.06174C5.76237 0.381919 6.63353 0 7.54189 0L16.9606 0L24.6669 8.15625ZM3.43189 21.4781H0.691895V28.7263H2.04648V26.2939H3.42162C3.91311 26.2939 4.33096 26.1906 4.67517 25.9804C5.02281 25.7683 5.28824 25.4819 5.46806 25.1213C5.6547 24.7428 5.74945 24.3211 5.74377 23.8942C5.74377 23.4411 5.65301 23.0314 5.47319 22.6671C5.29434 22.305 5.0209 22.0049 4.68544 21.8026C4.34294 21.5851 3.92681 21.4781 3.43189 21.4781ZM4.36521 23.8942C4.37138 24.133 4.32136 24.3697 4.21964 24.5829C4.12839 24.7686 3.98635 24.9209 3.81207 25.0198C3.61271 25.1241 3.39221 25.1752 3.16988 25.1684H2.04134V22.62H3.17159C3.54492 22.62 3.83776 22.7288 4.04839 22.9481C4.25903 23.1692 4.36521 23.4846 4.36521 23.8942ZM6.44932 21.4781V28.7263H8.94957C9.63628 28.7263 10.2065 28.5813 10.6586 28.2968C11.1161 28.007 11.4734 27.5692 11.6776 27.0479C11.9002 26.5042 12.0132 25.8481 12.0132 25.0832C12.0132 24.3219 11.9019 23.6731 11.6776 23.1348C11.4758 22.6195 11.122 22.1871 10.6689 21.9022C10.2168 21.6195 9.64313 21.4781 8.94786 21.4781H6.44932ZM7.80391 22.6472H8.76804C9.19274 22.6472 9.53867 22.7378 9.81096 22.9227C10.0936 23.1183 10.3068 23.4078 10.4172 23.7456C10.5525 24.1099 10.6193 24.5648 10.6193 25.1104C10.6246 25.4719 10.5854 25.8326 10.5028 26.1834C10.4418 26.46 10.3275 26.7204 10.1672 26.9482C10.0182 27.1515 9.82075 27.3091 9.59518 27.405C9.33088 27.5097 9.05017 27.5601 8.76804 27.5536H7.80391V22.6472ZM14.2138 25.8426V28.7263H12.8609V21.4781H17.2244V22.6617H14.2138V24.6863H16.9641V25.8426H14.2138Z" fill="#808EA7"/>
</svg>
