<svg width="80" height="80" viewBox="0 0 80 80" fill="none" xmlns="http://www.w3.org/2000/svg">
<path fill-rule="evenodd" clip-rule="evenodd" d="M37.7284 63.483C35.8265 63.5038 32.4295 63.2812 30.7104 63.8221C29.7444 64.1252 29.2161 65.2473 29.9857 66.077C30.4177 66.5439 30.7825 66.5784 31.3251 66.3435C31.9548 66.0712 32.0376 66.0899 32.7166 65.924C35.6666 65.72 44.6794 65.8737 48.2234 65.8845C58.6834 65.9154 57.5918 65.6216 65.1025 59.5012C67.3464 57.673 70.7741 53.5877 72.5889 51.4211C73.3114 50.5584 75.3983 47.8724 75.8566 46.9221C76.7726 45.4501 77.7714 44.0781 78.6331 42.5243C80.0596 39.9526 80.3852 39.9986 79.5363 36.9879C78.8873 36.549 79.1065 35.9413 76.9568 35.0261C75.8259 34.5441 74.1946 34.3875 72.9702 34.4981C66.1099 35.1209 65.9285 41.2427 63.1327 43.1651C61.4243 44.3389 59.0504 45.5148 57.1527 46.3531C56.1746 45.7727 55.8776 45.295 54.5925 44.9265C52.6013 44.3561 46.6156 44.9602 43.6135 44.6298C39.1635 44.1406 38.2482 40.6824 32.4039 40.6537C27.8175 40.6307 23.3775 40.0223 19.5564 42.984C18.2249 44.0163 16.9184 45.4681 15.6547 46.6218C15.3363 46.912 13.9584 48.2043 13.7899 48.5319C13.1488 49.7761 14.244 50.5246 15.4841 50.4233C16.3565 49.6554 17.1961 48.8523 18.03 48.0678C21.8882 44.4423 22.2537 43.2498 28.173 43.2987C30.7782 43.3202 34.6942 42.831 36.7668 44.5824C37.8277 45.4782 38.421 46.0184 39.7746 46.5974C44.4152 48.5807 50.391 47.0111 53.623 47.6584C56.658 48.2654 56.5259 52.4433 53.6016 52.9641L43.8377 53.0144C42.1677 53.0202 40.4943 53.0115 38.8251 53.008C37.3186 53.0044 35.2782 52.5662 35.5124 54.6508C36.192 55.8505 37.1908 55.5394 38.5116 55.5416C39.7596 55.543 41.0247 55.5502 42.2713 55.5402C44.8286 55.5186 47.3881 55.5358 49.9469 55.5258C52.1337 55.5165 54.6218 55.8699 56.4416 54.4045C58.2465 52.9512 58.572 51.0828 58.4021 48.8156C59.004 48.3458 61.5378 47.2123 62.4552 46.7425C69.2626 43.2541 66.7039 39.7536 71.5394 37.5892C73.058 36.9096 75.1384 36.9843 76.6113 37.7393C78.5539 38.7357 77.2224 40.362 76.4899 41.6328C72.1598 49.1403 66.2776 55.8907 59.5116 61.1268C55.9833 63.8566 54.1577 63.5139 49.7898 63.4888C45.7846 63.4651 41.7315 63.4385 37.7284 63.483ZM42.9031 16.8876C48.5304 16.0608 54.0364 20.3544 54.6489 25.9425C55.2972 31.8596 51.2363 36.9592 45.4398 37.6761C39.7161 38.3837 34.4522 34.1835 33.7689 28.5185C33.0514 22.5691 37.2522 17.7173 42.9031 16.8876ZM42.5204 14.4129C35.3382 15.438 30.095 21.6554 31.2001 29.2146C32.2204 36.1906 38.9671 41.1903 46.0259 40.1365C53.0497 39.087 58.2615 32.7496 57.2363 25.398C56.2631 18.4163 49.5592 13.4079 42.5204 14.4129ZM3.15928 57.6457C3.99673 56.5624 5.61381 55.0826 6.63047 54.0941C8.61309 52.1668 9.13427 52.7213 10.8784 54.3987C13.2159 56.6464 15.4962 59.0486 17.8587 61.2482C20.2654 63.4888 22.5407 65.9003 24.9246 68.1724C26.7773 69.9381 26.8201 70.6407 24.9717 72.4021C23.7844 73.5335 22.6571 74.6455 21.437 75.7647C20.9229 75.5241 17.3046 71.9266 16.807 71.2973C15.6447 69.8275 13.6271 68.097 12.2549 66.7343C10.7278 65.2171 9.14926 63.7589 7.64355 62.228L3.15928 57.6457ZM0.122155 56.9129C-0.119872 58.1772 -0.000648188 57.8087 0.465557 58.8173C1.13095 58.9976 4.95198 63.1267 5.74161 63.9859C8.20328 66.6646 13.278 71.3066 16.2137 74.2619C17.2604 75.3165 20.6702 79.5907 21.9653 78.9312C23.3239 77.445 24.9339 76.0571 26.4239 74.4975C27.2013 73.6837 27.9103 73.262 28.4093 72.0817C28.8877 70.9489 28.9534 69.5818 28.4022 68.4591C27.5647 66.7508 21.3827 61.2554 19.7085 59.5428C18.2985 58.1004 11.9265 51.4276 10.6593 50.8335C7.87344 49.529 6.32061 50.9829 4.58858 52.6696C3.58478 53.6466 1.07099 56.2758 0.122155 56.9129ZM39.1678 2.2914C38.2418 6.17339 38.9771 7.91611 37.2273 8.56766C36.7239 8.75515 35.7587 9.27021 35.3253 9.3284C33.5512 9.56617 31.1066 5.36882 28.1909 5.92411C27.0821 6.13531 23.351 9.46489 23.169 11.6034C22.897 14.8066 27.0992 16.8467 26.5659 18.7827C26.5052 19.0046 25.8841 20.4184 25.757 20.6755C24.7175 22.7789 17.8629 20.4313 17.5374 25.7881C17.4567 27.1077 17.376 29.5307 17.9772 30.693C19.6321 33.8933 24.2506 32.3711 25.5521 33.7884C26.4738 34.7926 26.618 37.4089 26.8972 37.7875C27.831 39.0546 29.6452 38.0216 29.1097 35.7186C28.9398 34.988 27.9146 32.6175 27.3955 32.0916C24.8775 29.5407 20.154 31.3805 19.9113 28.9287C19.7035 26.8318 19.6093 25.2242 21.14 24.8628C24.1385 24.1545 27.0357 24.8901 28.2994 21.3472C29.8151 17.1003 29.3189 17.2217 26.773 13.7923C25.6085 12.2241 25.0517 12.0194 26.5781 10.4641C27.5347 9.48931 28.3993 8.08134 29.8772 9.09853C32.391 10.829 33.7918 13.0495 37.1666 11.6638C41.1375 10.0338 40.7963 9.26805 41.381 5.18636C41.7394 2.68361 41.8351 2.7849 44.3082 2.79711C46.9448 2.81076 46.682 2.97527 47.0861 5.49454C47.805 9.97779 47.4352 9.87363 51.5954 11.6702C54.519 12.9317 56.4766 10.3054 58.6906 8.88804C60.1056 7.9822 60.9345 9.47638 61.9797 10.3628C63.5818 11.7212 62.81 12.2104 61.8134 13.6055C59.0004 17.5442 58.7712 17.1398 60.2041 20.9844C61.5078 24.4828 64.1565 23.9965 67.265 24.5798C68.1817 24.7522 68.5523 24.9591 68.6358 25.9375C69.0249 30.4696 68.0011 29.8259 64.9411 30.323C63.414 30.5709 62.236 30.6183 61.1265 31.8409C60.661 32.3531 59.6265 34.8257 59.4723 35.5246C59.0604 37.3916 59.7593 38.0425 60.7196 39.3915C62.0882 41.3139 63.5275 39.5805 63.1249 38.3966C62.93 37.8219 62.3195 37.2566 62.1218 36.7013C61.8283 35.8766 62.3231 35.465 62.603 34.7503C63.4533 32.5772 63.666 33.1318 65.9821 32.8208C69.9573 32.287 71.2503 31.7403 71.2788 27.3656C71.3081 22.9972 70.2822 22.3392 66.2334 21.6834C64.3143 21.3723 63.5368 21.7768 62.7315 19.8545C61.8262 17.6951 61.944 18.0248 63.2905 16.2009C65.0211 13.8576 67.0266 11.737 64.4835 8.94767C59.9542 3.98097 58.8383 5.51824 54.3741 8.79609C53.6223 9.34851 53.2417 9.33917 52.4057 8.96204C52.0095 8.78389 50.8143 8.33995 50.5609 8.13952C49.9162 7.63021 49.717 4.72302 49.5571 3.80497C49.1537 1.48468 48.7146 1.79357 47.4017 0.346085C46.7434 0.341057 45.9924 0.00918468 44.9343 0.0127765C44.1275 0.0156499 43.0388 -0.0382285 42.2656 0.055876C40.0438 0.325259 39.469 2.07445 39.1678 2.2914Z" fill="#BDC3C7"/>
</svg>
