<svg width="41" height="41" viewBox="0 0 41 41" fill="none" xmlns="http://www.w3.org/2000/svg">
<path fill-rule="evenodd" clip-rule="evenodd" d="M10.3953 5.44967L9.06508 5.77854L7.6784 0.314469L8.98794 0L10.3953 5.44967ZM23.2926 37.5967L17.9237 37.6037C17.7816 38.4164 17.9861 39.0646 18.4678 39.3809C18.9158 39.6748 19.57 39.6589 20.1971 39.6437C20.3347 39.6403 20.4709 39.637 20.6034 39.637C20.6928 39.637 20.7935 39.6397 20.9021 39.6425C21.9501 39.6701 23.7397 39.7172 23.2926 37.5967ZM23.2929 34.8746L17.8997 34.879L17.8898 36.2362L23.3354 36.2406L23.2929 34.8746ZM10.8852 24.2675C10.2558 23.5296 9.29807 22.4069 8.93223 21.2724C6.63019 21.347 5.36863 23.6176 6.69552 25.603C7.72898 27.1491 10.6326 27.1259 11.3985 24.9035C11.301 24.7549 11.115 24.5368 10.8852 24.2675ZM4.18088 18.0834L2.9876 19.2955C3.00776 19.3183 3.07187 19.4271 3.14321 19.5481C3.22208 19.682 3.30979 19.8308 3.35669 19.8949C3.39786 19.9514 3.43937 20.0073 3.48068 20.063C3.92223 20.6583 4.34045 21.2222 4.07347 21.9792C3.79867 22.7584 2.8428 22.9192 1.86315 23.084L1.86312 23.084H1.8631C1.70727 23.1102 1.55083 23.1366 1.39643 23.1655L1.41157 24.8039C1.55857 24.8312 1.70779 24.8561 1.8568 24.881C2.84702 25.0466 3.82827 25.2106 4.0923 26.047C4.32447 26.7813 3.8694 27.3827 3.45784 27.9266C3.25831 28.1902 3.06901 28.4404 2.9732 28.6856L4.1938 29.8723C4.42412 29.7768 4.66383 29.5971 4.91766 29.4067C5.46762 28.9943 6.0839 28.5322 6.81474 28.7698C7.65121 29.0421 7.80981 30.0057 7.97631 31.0173L7.97631 31.0173L7.97632 31.0173L7.97632 31.0174L7.97633 31.0174L7.97634 31.0174L7.97634 31.0175L7.97635 31.0175L7.97635 31.0175C8.001 31.1673 8.02582 31.3181 8.05305 31.4679L9.5571 31.4756C9.77343 31.3555 9.82536 30.9956 9.88652 30.5716C9.98135 29.9142 10.0984 29.1029 10.8851 28.7934C11.6162 28.5057 12.2936 29.0001 12.8887 29.4343C13.1288 29.6095 13.3555 29.775 13.5669 29.8752L14.9876 28.4284C14.7979 27.7714 14.3572 27.2262 13.9364 26.9284L12.4556 25.8824C11.8599 26.9553 10.8633 27.9213 9.1607 28.0611C6.11973 28.3114 3.74461 25.0608 5.21693 22.1626C5.79493 21.0255 6.75642 20.2024 8.34131 19.9499L7.83418 17.7213C7.81387 17.7807 7.79381 17.852 7.77158 17.931C7.61852 18.4751 7.3628 19.3841 6.21606 19.2597C5.8041 19.2151 5.34953 18.88 4.92614 18.5679L4.92613 18.5679C4.65914 18.371 4.40455 18.1833 4.18088 18.0834ZM24.817 3.71055C24.5967 3.39116 24.4037 3.1113 24.2053 2.97087C23.9732 3.14697 23.7361 3.3198 23.4981 3.49334C23.0306 3.83412 22.5594 4.17767 22.1141 4.55428C22.2477 4.848 22.4823 5.14037 22.7293 5.44828C23.3506 6.22261 24.0507 7.0952 23.4232 8.33454C22.7486 9.66656 21.4674 9.44525 20.4233 9.26489C20.0199 9.19522 19.652 9.13166 19.368 9.16611L18.9919 11.8243C19.1089 11.8381 19.2255 11.8512 19.3412 11.8643L19.3414 11.8643C20.9317 12.0437 22.3622 12.2051 22.6622 13.7086C22.9313 15.0571 21.9802 15.7242 21.1561 16.3022C20.8986 16.4828 20.6536 16.6547 20.462 16.8359C20.436 16.8605 20.42 16.8751 20.409 16.8851C20.3989 16.8943 20.393 16.8996 20.3876 16.9053C20.3803 16.9132 20.3737 16.9218 20.3583 16.9423L20.3583 16.9423L20.3358 16.9721L21.9122 19.1069C22.2021 18.9694 22.4888 18.734 22.7906 18.4861C23.5426 17.8685 24.3886 17.1738 25.6131 17.7243C27.0414 18.3665 26.8073 19.7894 26.6243 20.9015C26.5654 21.2594 26.5119 21.5851 26.5207 21.8423L29.194 22.2143L29.2137 22.0069C29.3714 20.3343 29.5157 18.8033 31.1152 18.5282C32.0515 18.3673 32.7045 18.8338 33.0964 19.2889L34.2927 20.8771C34.6344 20.7069 35.0068 20.4001 35.3803 20.0925L35.3804 20.0924L35.3804 20.0924C35.748 19.7896 36.1165 19.486 36.4578 19.311C36.325 19.0389 36.102 18.7576 35.8647 18.4585L35.8646 18.4583L35.8646 18.4583C35.2354 17.6649 34.5063 16.7454 35.0951 15.5356C35.731 14.2292 36.9476 14.3957 38.3734 14.5908C38.6382 14.6271 38.9103 14.6643 39.1872 14.6933L39.5526 12.0853C39.3232 11.8927 38.7875 11.8427 38.259 11.7934C37.8699 11.7572 37.4848 11.7212 37.2285 11.6291C36.6176 11.4095 36.0544 10.8721 35.8979 10.1497C35.6024 8.78368 36.5207 8.1473 37.3455 7.57575C37.6757 7.34691 37.991 7.12846 38.2073 6.87773C38.1047 6.64557 36.8154 4.9016 36.6128 4.73772C36.3189 4.86835 36.0304 5.10647 35.7256 5.35795C34.9997 5.95702 34.1818 6.63198 32.9805 6.11075C31.4901 5.46388 31.7343 4.00857 31.9453 2.75114C31.99 2.48467 32.0333 2.22709 32.0582 1.98797L29.4118 1.62478C29.2909 1.89838 29.2478 2.28226 29.2008 2.70025C29.0816 3.76021 28.9379 5.03945 27.4393 5.29542C26.0709 5.52897 25.3608 4.49924 24.817 3.71055ZM20.7364 5.0667C20.5483 4.82862 20.4705 4.73021 20.4254 4.26011C12.4316 4.47419 7.7061 11.7531 9.27807 18.375C9.74498 20.3415 10.9611 22.741 12.3582 23.9428C12.4973 24.0625 12.6324 24.1931 12.7675 24.3236C12.9918 24.5405 13.2161 24.7573 13.4584 24.9238C13.5779 25.0059 13.6954 25.0853 13.8107 25.1632L13.8124 25.1644L13.8125 25.1645C15.0216 25.9816 15.9844 26.6323 16.4112 28.4494C16.5483 29.0326 16.5278 29.8554 16.5082 30.6389C16.4886 31.42 16.4701 32.1619 16.6098 32.5881C16.95 33.6274 18.2142 33.5794 19.4256 33.5333C19.6346 33.5254 19.8422 33.5175 20.0431 33.5152C20.2529 33.5129 20.5336 33.5207 20.851 33.5295H20.851C21.9962 33.5611 23.6201 33.606 24.1267 33.2384C24.7828 32.7623 24.7436 31.8995 24.6963 30.856C24.6218 29.2136 24.527 27.1236 27.0902 25.3889L28.3204 24.4651C28.3462 24.5003 28.4224 24.5788 28.5199 24.6794L28.5199 24.6794L28.5199 24.6795L28.52 24.6795L28.52 24.6795L28.52 24.6795C28.7444 24.9109 29.0819 25.2589 29.1796 25.4642C28.7919 25.8085 28.4126 26.09 28.0592 26.3521L28.0592 26.3521C27.0447 27.1047 26.2446 27.6983 26.0774 29.1636C26.0187 29.6795 26.0368 30.2444 26.0548 30.8081C26.0735 31.3922 26.0922 31.9749 26.0253 32.5006C25.9005 33.4819 25.3253 33.9806 24.9712 34.2877C24.8207 34.4181 24.7102 34.5139 24.6911 34.5974C24.6911 34.8544 24.6995 35.1676 24.7088 35.512L24.7088 35.5122V35.5123V35.5123V35.5124V35.5125C24.7456 36.8765 24.7955 38.7283 24.3866 39.5027C23.6163 40.9606 22.5503 40.999 20.6034 40.999C18.701 40.999 17.5864 40.9027 16.8515 39.5569C16.4305 38.7865 16.4799 36.9089 16.5163 35.5204C16.5254 35.174 16.5337 34.8581 16.5337 34.5974C16.5119 34.5027 16.4029 34.4143 16.2549 34.2941C15.9731 34.0654 15.5494 33.7215 15.3142 33C15.146 32.4843 15.1553 31.7255 15.1639 31.0293C15.1673 30.7603 15.1705 30.5006 15.1633 30.268C15.0217 30.3599 14.8686 30.5247 14.7037 30.7024C14.3144 31.1216 13.8588 31.6123 13.3307 31.3852C13.0515 31.265 12.7185 31.0114 12.3855 30.7578C12.0357 30.4913 11.6858 30.2249 11.3981 30.1129C11.2479 30.3968 11.1503 30.9625 11.0621 31.474C11.0148 31.748 10.9702 32.0065 10.9216 32.1976C10.7409 32.9082 10.1728 32.8844 9.43428 32.8535L9.43409 32.8535C9.26932 32.8466 9.09606 32.8393 8.91673 32.8398C8.71529 32.8403 8.52817 32.8462 8.35531 32.8517C7.53013 32.8779 7.02984 32.8938 6.84796 32.26C6.78184 32.0295 6.72443 31.709 6.6654 31.3796C6.57714 30.8869 6.48526 30.374 6.35521 30.1115C5.92334 30.2672 5.5673 30.5637 5.23983 30.8365C4.63199 31.3428 4.1226 31.7671 3.40948 31.0563C3.26675 30.9141 3.10017 30.7592 2.92544 30.5967C2.15626 29.8813 1.22923 29.0192 1.48428 28.445C1.61072 28.1602 1.8593 27.8343 2.10588 27.5109C2.379 27.1528 2.64966 26.7979 2.74917 26.5058C2.51265 26.3901 1.865 26.2673 1.32551 26.165C1.06099 26.1149 0.82247 26.0696 0.671164 26.0326C-0.0416866 25.8587 -0.0162482 25.269 0.0157592 24.5271C0.0227469 24.3651 0.0300478 24.1959 0.0300478 24.0221C0.0300478 23.8507 0.0221275 23.6795 0.0144196 23.5129C-0.0193038 22.784 -0.0489609 22.143 0.606573 21.9519C0.815338 21.8911 1.13866 21.8317 1.4755 21.7698C1.9849 21.6761 2.52521 21.5768 2.74695 21.4584C2.55561 20.9875 2.25138 20.6209 1.98223 20.2965C1.47831 19.6893 1.09732 19.2302 1.81019 18.5116C2.11294 18.2063 2.37014 17.9394 2.59232 17.7088L2.59255 17.7086L2.5928 17.7083L2.59288 17.7082L2.59296 17.7082C3.3592 16.913 3.70886 16.5502 4.07486 16.5329C4.38204 16.5184 4.70074 16.7473 5.28693 17.1682L5.37564 17.2319L5.47322 17.3022C5.75453 17.5053 6.08188 17.7416 6.35521 17.8601C6.47343 17.611 6.57182 17.0819 6.65241 16.6485L6.65242 16.6484C6.68179 16.4905 6.70879 16.3453 6.73353 16.2309C6.75048 16.1528 6.76531 16.0792 6.77923 16.0102C6.89959 15.4134 6.95209 15.1531 7.7216 15.1392C7.85816 12.2909 8.96434 9.76663 10.3023 8.02377C12.5298 5.12232 15.8409 3.15246 19.8829 2.92732C20.6847 2.88275 21.1189 2.9221 21.4016 2.94773C21.5819 2.96407 21.7007 2.97483 21.8139 2.95468C22.0322 2.91583 22.23 2.76211 22.8093 2.31206L22.8094 2.31194L22.8097 2.31171L22.8099 2.31154C23.0081 2.15759 23.2508 1.96898 23.5543 1.73846C24.229 1.22616 24.5331 1.07077 25.1033 1.81302C25.2267 1.97359 25.3612 2.16655 25.5032 2.37028L25.5032 2.37029L25.5032 2.37031C26.1539 3.30404 26.9622 4.46374 27.5781 3.76627C27.835 3.47522 27.876 2.8415 27.9184 2.18647C27.9816 1.20921 28.0479 0.184493 28.8386 0.179411L33.0248 0.781772C33.6979 1.02051 33.4979 1.96925 33.3026 2.89599C33.1419 3.65846 32.9843 4.40604 33.3186 4.73108C33.827 5.22539 34.6209 4.56661 35.3946 3.92462C35.6954 3.67499 35.9932 3.42789 36.2699 3.25212C36.9633 2.81178 37.3214 3.33033 37.6178 3.75947L37.6178 3.75956L37.6179 3.75966L37.618 3.75976L37.6181 3.75989L37.6181 3.76L37.6182 3.76012L37.6183 3.76024L37.6184 3.76036C37.6681 3.83234 37.7161 3.90178 37.7636 3.96373C38.105 4.40849 38.442 4.86321 38.7912 5.33787C38.9297 5.52634 39.056 5.6944 39.1694 5.84538L39.1701 5.84639L39.1703 5.84668L39.1705 5.84697L39.1708 5.84726L39.1709 5.84742C39.6728 6.51568 39.9232 6.84901 39.8796 7.13807C39.8363 7.42576 39.5018 7.66959 38.8345 8.1561C38.6487 8.29154 38.4371 8.44578 38.1988 8.62502C38.121 8.68359 38.0279 8.74878 37.9327 8.8155L37.9326 8.81552L37.9325 8.81557L37.9325 8.8156C37.7559 8.93931 37.5718 9.06829 37.4632 9.17017C36.3124 10.25 38.4708 10.5089 39.7042 10.6569C39.9843 10.6905 40.2166 10.7183 40.3517 10.7488C41.113 10.9203 41.0377 11.399 40.9322 12.0696L40.9321 12.0699C40.9178 12.161 40.9029 12.2557 40.8895 12.3536C40.8345 12.7537 40.7803 13.1358 40.7257 13.5199L40.7253 13.5228L40.725 13.5253L40.7246 13.5281L40.7242 13.5306C40.6775 13.8597 40.6306 14.1904 40.5828 14.5353C40.5683 14.6401 40.557 14.7482 40.5457 14.8565C40.4813 15.4746 40.4162 16.0992 39.7398 16.1376C39.3713 16.1584 38.8396 16.062 38.3093 15.9659C37.5819 15.8339 36.8569 15.7025 36.5589 15.8748C35.8167 16.3041 36.4696 17.0789 37.1352 17.8688C37.7045 18.5445 38.2831 19.2311 38.0058 19.7218C37.875 19.9534 36.344 21.0835 35.5964 21.6353C35.4538 21.7406 35.3397 21.8248 35.2693 21.8777C34.0053 22.8277 33.9264 22.7188 32.919 21.3284C32.8242 21.1975 32.7212 21.0552 32.6081 20.9015C32.572 20.8524 32.5319 20.7927 32.4876 20.7269C32.216 20.3233 31.7915 19.6926 31.2262 19.9075C30.7443 20.0907 30.6833 20.9237 30.6224 21.7562C30.5615 22.5878 30.5007 23.419 30.0204 23.6017C29.6731 23.7339 26.2623 23.2072 25.6861 23.092C24.8062 22.9167 25.0256 21.9322 25.242 20.9616C25.3933 20.283 25.543 19.6112 25.3145 19.2276C24.8819 18.5022 23.8406 19.3382 22.9299 20.0695L22.9298 20.0696L22.9298 20.0696L22.9297 20.0697C22.7363 20.225 22.5488 20.3755 22.3743 20.5054C21.5752 21.1001 21.1308 20.4611 20.3459 19.3324L20.3458 19.3324L20.3455 19.3319C20.1918 19.1109 20.0251 18.8712 19.8401 18.6182C19.6672 18.3821 19.5117 18.1764 19.3747 17.9952C18.8844 17.3467 18.6311 17.0118 18.6701 16.7153C18.7117 16.3986 19.0867 16.1257 19.8622 15.5613C20.1629 15.3425 20.5238 15.0798 20.9488 14.7538C21.2057 14.5571 21.4128 14.3829 21.3076 13.9533C21.1756 13.4147 20.2397 13.3172 19.2863 13.218C19.0002 13.1882 18.7125 13.1582 18.4445 13.1162C17.367 12.9469 17.4586 12.4183 17.7173 10.9261L17.7173 10.9261L17.7173 10.926C17.7869 10.5245 17.8686 10.0531 17.9429 9.50014C17.9578 9.38895 17.9689 9.26656 17.9804 9.13947C18.0347 8.53717 18.0986 7.8293 18.6298 7.70708C18.9291 7.63832 19.4573 7.7384 20.0213 7.84527C21.1435 8.0579 22.4074 8.29737 22.2912 7.28705C22.2626 7.03832 21.6692 6.28605 21.4056 5.95196L21.4056 5.95195C21.37 5.9068 21.3404 5.86928 21.319 5.84168C21.2298 5.7262 21.1514 5.61932 21.0717 5.51066C20.9888 5.39774 20.9046 5.28289 20.8052 5.15443C20.7808 5.12286 20.7579 5.09387 20.7364 5.0667ZM28.467 15.9094C30.8211 16.4073 32.8718 14.6752 33.2549 12.8057C33.7642 10.3206 32.0723 8.3371 30.1235 7.91597C27.7207 7.39628 25.6881 9.13582 25.2972 11.0079C24.7668 13.5458 26.4894 15.4909 28.467 15.9094ZM23.8851 12.6455C23.4724 9.29896 25.7671 6.96334 28.6024 6.52116C31.7619 6.02842 34.3367 8.55339 34.6633 11.2297C35.0553 14.4408 32.7433 16.9322 29.9917 17.3083C26.8264 17.7409 24.2187 15.3521 23.8851 12.6455ZM21.2889 28.7513C21.1409 26.5652 20.1292 24.5665 18.1605 23.6645C17.1765 23.2131 16.2482 22.7823 15.5226 22.2162C11.5969 19.1534 11.2222 12.7769 15.6794 9.32001C15.7676 9.25175 15.8088 9.22188 15.8603 9.18465C15.8861 9.16591 15.9146 9.1453 15.9529 9.117L16.2404 8.87156L15.555 7.77018C14.0429 8.49028 12.3328 10.7303 11.7013 12.4684C10.0537 17.0016 11.8844 21.7972 15.9518 24.1144C16.2324 24.2742 16.5276 24.4188 16.8251 24.5645C18.2844 25.279 19.7996 26.021 19.9244 28.7284L21.2889 28.7513ZM7.37132 7.06312C7.24509 7.39568 6.84204 7.94932 6.59511 8.16376L1.89212 4.7943C1.9557 4.63319 2.02302 4.547 2.11647 4.42737C2.15105 4.3831 2.1892 4.33426 2.23206 4.27536L2.67312 3.7291C2.93891 3.87208 3.23419 4.09206 3.51181 4.29889L3.51182 4.29889L3.51184 4.29891C3.63554 4.39106 3.75573 4.48061 3.86825 4.55956L7.37132 7.06312ZM6.49165 11.7323L6.17423 10.3888L0.729351 11.7375L1.07962 13.0607L6.49165 11.7323ZM32.455 29.9504C32.6728 30.1892 32.9419 30.4048 33.1959 30.6083C33.2949 30.6876 33.3917 30.7651 33.4822 30.8414C33.662 30.9932 33.8247 31.1272 33.9813 31.2562C34.1521 31.397 34.3158 31.5318 34.4869 31.6774C34.5298 31.714 34.5817 31.7585 34.6408 31.8092L34.6432 31.8112C35.161 32.255 36.2223 33.1646 36.5627 33.3336C36.6759 33.1309 36.8033 32.9805 36.9323 32.8284C37.0741 32.6611 37.2177 32.4916 37.3462 32.2481L33.3327 28.9233C33.1238 29.0687 32.5591 29.7264 32.455 29.9504ZM38.29 26.7072L33.535 26.7087L33.5317 25.3452L38.2963 25.3464L38.29 26.7072ZM29.4558 35.5608L30.8115 35.5538L30.8107 30.7936L29.4536 30.7906L29.4558 35.5608ZM19.9245 30.5133C19.9292 30.3617 19.9335 30.2243 19.9346 30.1134L21.2885 30.1201L21.2859 32.1408L19.9878 32.1519C19.8838 31.8093 19.9071 31.0663 19.9245 30.5133Z" fill="#F66D9B"/>
</svg>
