<svg width="80" height="80" viewBox="0 0 80 80" fill="none" xmlns="http://www.w3.org/2000/svg">
<path fill-rule="evenodd" clip-rule="evenodd" d="M17.9919 19.1173C24.7567 17.6782 26.9964 28.1471 20.1775 29.6108C13.243 31.0996 10.8381 20.6386 17.9919 19.1173ZM37.1508 7.77886L35.5676 7.78152H33.6707H31.9026H30.0063H28.2375H26.3412L24.6312 7.78019C21.8789 7.77024 19.6299 7.66281 18.4153 9.46997C17.1128 11.4098 17.7561 13.8211 17.5659 16.3239C12.031 17.4673 9.04619 23.4379 12.0455 28.5908C12.4755 29.3296 12.9028 29.6094 13.235 30.195C12.1994 30.7242 10.4246 30.8456 9.31633 31.3463C4.49143 33.5248 5.05153 37.6611 5.04625 42.1024C5.04229 45.3938 4.95048 48.8111 5.037 52.0866C5.08192 53.7877 5.66381 54.935 6.64728 55.5471C7.69879 56.2016 9.12082 56.5757 10.562 56.1718C10.8381 58.2316 10.5145 67.044 10.6307 70.3022C10.7093 72.4986 11.9669 73.8608 13.5534 74.5346C16.0672 75.603 17.7522 74.3084 18.9992 73.6386C19.556 73.9417 19.9423 74.3323 20.7898 74.6268C21.5691 74.8973 22.4866 74.967 23.3578 74.8211C27.7097 74.0896 27.3643 70.403 27.3669 67.6687C27.3696 65.6864 27.8577 63.9821 26.3293 63.1697C25.0248 63.0835 24.6153 63.7175 24.5836 64.9841L24.5823 66.8901V68.6223C24.577 69.7511 24.7144 71.0721 24.0017 71.6352C23.2884 72.1982 21.8822 72.1962 21.0929 71.6935C19.9456 70.9627 20.412 66.5811 20.3928 64.8674L20.3948 63.1319V61.3486V59.4545V57.6712V55.7772L20.3941 53.97C20.3538 52.3731 20.659 51.1402 19.011 50.8624C17.3737 51.125 17.5652 52.391 17.6035 54.0098V55.748V57.7004V59.4254V61.3778L17.6055 62.9415C17.5837 64.6247 17.591 66.3344 17.5969 68.0188C17.6035 69.8108 17.9272 71.3885 16.4345 71.9236C14.77 72.5212 13.5052 71.6736 13.4226 70.1277C13.3321 68.4313 13.4352 66.5864 13.4114 64.8674L13.414 63.1272V61.3532V59.4499V57.6759V55.7726V53.9985V52.0952V50.3212V48.4179V46.6439V44.7405V42.9665L13.4134 41.0924C13.4305 40.2535 13.5415 39.083 13.1564 38.5073C12.739 37.8846 11.7886 37.7513 11.2258 38.1532C10.2859 38.825 10.5931 41.5931 10.6208 42.9035C10.6499 44.779 10.6393 46.7049 10.6208 48.5817C10.595 51.2603 11.0191 52.2922 9.95173 53.5118C8.39626 53.4508 7.81966 53.7439 7.82032 51.3843L7.83022 42.9035L7.8289 41.036C7.75294 37.5669 7.68689 34.9845 10.488 33.9115C12.7139 33.0586 16.3004 32.4611 18.9642 32.6103C20.4225 32.6528 21.4919 32.7032 22.873 32.9625C24.4562 33.2589 26.4938 31.8218 27.9977 31.1712L33.606 28.5616C34.7123 28.0854 36.4078 27.1106 37.4315 26.7962C38.9203 26.3386 39.9632 28.5158 38.4196 29.37L27.2586 34.633C24.8749 35.6915 24.575 35.4461 24.5823 37.4714V39.2043V41.1488L24.5843 42.9898V44.7173V46.6671V48.3947V50.3444L24.5856 52.0256C24.5962 55.9582 26.7811 54.4939 27.0341 54.1876C27.645 53.4481 27.3736 50.2575 27.3736 49.1089L37.2994 49.1069L42.9229 49.099L42.913 52.1536L42.915 54.0218V55.7493V57.6991L42.9156 59.3982C42.8998 61.9759 43.4222 61.2703 40.3813 63.736L32.7777 70.4573C30.9409 71.9336 30.1404 72.3547 29.7626 73.9802C30.2295 74.5001 30.6311 75.221 31.6542 74.9351C32.3081 74.7528 34.1766 72.8402 34.9137 72.2566C36.1779 71.2545 42.2829 65.6778 42.907 65.3635C42.9341 67.5473 42.1884 70.9488 44.6679 70.779C44.9612 70.6371 44.6428 70.7432 44.9777 70.6298C45.3456 70.5044 44.9321 70.6172 45.3291 70.5449C45.9096 69.0368 45.7022 67.221 45.7128 65.3548C46.4704 65.8118 51.0919 70.0575 52.4161 71.0927C53.5145 71.9515 56.4379 75.2329 57.6928 74.9703C58.3929 74.8237 58.9808 74.0471 58.6948 73.191C58.5422 72.7347 49.3884 64.7222 48.1434 63.6478L45.7036 61.6145L45.6989 49.1043C51.8937 49.0366 58.1783 49.0612 64.3764 49.099C66.7574 49.1129 71.2527 49.5101 72.9436 48.4245C75.295 46.9151 74.7851 44.4109 74.8478 41.0327C74.8723 39.8251 74.9687 38.6174 74.1199 38.0981C73.0526 37.4456 72.2289 38.3196 72.0605 39.3409L72.0559 41.0274L72.0526 42.8041C72.0335 45.917 72.3419 46.2838 69.0883 46.299C67.0091 46.309 64.9239 46.3163 62.8447 46.3076L61.2463 46.3057H59.3031H57.5812H55.638H53.9161H51.973H50.251H48.3079H46.586H44.6428H42.9209H40.9777H39.2558H37.3126L35.7526 46.309L27.3729 46.3129L27.3689 37.8998C27.7474 37.2121 28.892 36.925 29.5961 36.6179C30.4197 36.2591 31.1007 35.8513 31.9171 35.5794C33.8424 34.4705 36.4342 33.4366 38.5095 32.4452C39.7611 31.847 40.6924 31.5075 41.3932 30.4298C41.8192 29.7746 41.9612 29.2586 41.9784 28.7791C42.0405 27.0701 41.4691 25.8134 40.2102 24.6747C39.3952 23.9366 38.1779 23.546 35.5954 24.4956L31.9382 26.2219L25.6312 29.1512C26.1767 27.9959 26.9423 26.8493 27.114 25.2179C27.3075 23.3895 26.8452 22.2044 26.361 20.7401C25.7124 20.0159 25.3597 18.8785 24.0367 17.962C23.0044 17.2464 22.0097 16.5759 20.4265 16.3299C20.3393 15.1813 20.3736 13.6792 20.3869 12.504C20.4027 11.1226 20.9258 10.5801 22.3102 10.5768L67.5177 10.5914C71.12 10.5954 72.0698 9.79957 72.0572 13.6387L72.0559 15.2861V17.2623V18.9634V20.939V22.6407V24.6163V26.3181L72.0737 28.2691C72.328 29.1193 73.2269 29.9258 74.221 29.2235C74.9825 28.6856 74.8214 27.5277 74.8465 26.401C74.9185 22.2826 74.8868 18.0343 74.8537 13.91C74.8372 11.7818 74.7527 9.98858 73.5638 8.89632C72.2765 7.71321 70.6497 7.79014 68.4859 7.78284L66.6564 7.78152H64.8882L63.1538 7.78417L47.6157 7.78682C47.6157 6.46776 47.7101 4.98356 46.226 5.00014C44.7696 5.01605 44.8238 6.46444 44.8238 7.78417L37.1508 7.77886Z" fill="white"/>
<path fill-rule="evenodd" clip-rule="evenodd" d="M31.8675 21.5645C31.7552 22.8955 32.6383 23.2318 33.8959 23.2357L35.7803 23.2371H37.6204H39.4454H41.2855L43.1692 23.2357L44.8238 23.2344H46.9017H48.4888H50.5667H52.1539H54.2318H55.819H57.8969H59.4841C60.9246 23.1343 61.7271 21.9153 60.6928 20.8775C59.9576 20.14 57.9299 20.4398 56.7707 20.4384H34.9547C33.2803 20.4398 32.421 20.1042 31.8675 21.5645Z" fill="white"/>
<path fill-rule="evenodd" clip-rule="evenodd" d="M43.1882 39.9704L44.9147 40.046H46.8117H48.5798H50.4767H52.2449H54.1418H55.91H57.8069L59.3901 40.05C60.8445 40.0599 62.2969 40.044 63.752 40.0539C65.0631 40.0632 66.565 40.1726 66.7031 38.8018C66.7704 38.1334 66.3623 37.6725 65.9884 37.4503C65.5063 37.1631 64.7209 37.2334 64.1014 37.2361C60.402 37.2507 44.9405 37.0935 43.1506 37.323C42.0422 38.1984 41.9121 39.0413 43.1882 39.9704Z" fill="white"/>
<path fill-rule="evenodd" clip-rule="evenodd" d="M44.9822 28.8349L46.7444 28.8376H48.6473H50.4095H52.3124H54.0746H55.9775H57.7397H59.6425H61.4047L63.2865 28.8389H65.0909C66.3016 28.7334 67.2706 27.7851 66.4456 26.669C65.799 25.7936 64.3287 26.0257 63.054 26.0383L47.1724 26.0403C45.9433 26.0303 44.3825 25.8141 43.763 26.6491C42.9552 27.7373 43.8561 28.681 44.9822 28.8349Z" fill="white"/>
<path fill-rule="evenodd" clip-rule="evenodd" d="M46.902 34.4415H48.4892H50.5671H52.1542H54.2321H55.8193H57.8972H59.4844H61.5623H63.1495L65.2062 34.4422C66.2908 34.3268 67.1864 33.3234 66.4493 32.2689C65.8429 31.4008 64.5107 31.6707 63.2862 31.6429C59.4989 31.5766 55.6773 31.6661 51.8841 31.6349C50.5162 31.6243 47.5017 31.4817 46.3082 31.6668C44.7712 31.9048 44.2607 34.3487 46.902 34.4415Z" fill="white"/>
<path fill-rule="evenodd" clip-rule="evenodd" d="M24.3393 59.2348C25.7653 61.7436 28.6279 58.4536 25.943 57.427C24.7653 57.3408 24.1649 58.0358 24.3393 59.2348Z" fill="white"/>
<path fill-rule="evenodd" clip-rule="evenodd" d="M72.2261 33.6565C72.5636 35.6102 74.6818 35.5174 75.0001 33.6565C74.6679 31.7571 72.5292 31.9057 72.2261 33.6565Z" fill="white"/>
</svg>
