<svg width="80" height="80" viewBox="0 0 80 80" fill="none" xmlns="http://www.w3.org/2000/svg">
<path fill-rule="evenodd" clip-rule="evenodd" d="M11.1861 13.3823H17.4483C17.7216 8.61939 19.2014 5 23.1498 5C27.0975 5 28.5774 8.61939 28.8506 13.3823H48.8467C49.12 8.61939 50.5998 5 54.5482 5C58.4959 5 59.9757 8.61939 60.249 13.3823H69.5639C71.3184 13.3823 72.75 14.8042 72.75 16.5469V45.6839C72.75 46.3974 72.5442 47.01 72.1133 47.581L52.3905 73.7331C51.7688 74.5566 50.8773 75 49.8404 75H11.1861C9.43158 75 8 73.5787 8 71.836V16.5469C8 14.8042 9.43158 13.3823 11.1861 13.3823ZM20.6451 13.3823H25.6539C25.4835 10.305 24.8071 8.02932 23.1498 8.02932C21.4925 8.02932 20.8154 10.305 20.6451 13.3823ZM28.6065 18.8121C29.3624 19.388 29.8493 20.2946 29.8493 21.314C29.8493 23.0554 28.4276 24.4674 26.6745 24.4674C24.9207 24.4674 23.4997 23.0554 23.4997 21.314C23.4997 19.9908 24.3202 18.8579 25.4835 18.3898C25.585 17.7088 25.6503 16.9643 25.6801 16.1789H11.1861C10.9852 16.1789 10.8156 16.3474 10.8156 16.5469V25.3374H69.9344V16.5469C69.9344 16.3474 69.7648 16.1789 69.5639 16.1789H60.2767C60.2391 17.0982 60.1489 17.9816 60.0048 18.8121C60.7607 19.388 61.2476 20.2946 61.2476 21.314C61.2476 23.0554 59.826 24.4674 58.0729 24.4674C56.3191 24.4674 54.8981 23.0554 54.8981 21.314C54.8981 19.9908 55.7186 18.8579 56.8819 18.3898C56.9841 17.7088 57.0487 16.9643 57.0792 16.1789H28.8783C28.8407 17.0982 28.7505 17.9816 28.6065 18.8121ZM52.0435 13.3823H57.0522C56.8819 10.305 56.2055 8.02932 54.5482 8.02932C52.8909 8.02932 52.2145 10.305 52.0435 13.3823ZM39.7376 54.5569H41.7037C43.6576 54.5569 45.2567 56.1452 45.2567 58.0867V60.0388C45.2567 61.9804 43.6576 63.5687 41.7037 63.5687H39.7376C37.783 63.5687 36.1846 61.9804 36.1846 60.0388V58.0867C36.1846 56.1452 37.783 54.5569 39.7376 54.5569ZM39.8973 57.711H41.5433C41.8392 57.711 42.0813 57.9514 42.0813 58.2453V59.8802C42.0813 60.1742 41.8392 60.4146 41.5433 60.4146H39.8973C39.6014 60.4146 39.3593 60.1742 39.3593 59.8802V58.2453C39.3593 57.9514 39.6014 57.711 39.8973 57.711ZM39.7376 44.0589H41.7037C43.6576 44.0589 45.2567 45.6473 45.2567 47.5881V49.5409C45.2567 51.4817 43.6576 53.0701 41.7037 53.0701H39.7376C37.783 53.0701 36.1846 51.4817 36.1846 49.5409V47.5881C36.1846 45.6473 37.783 44.0589 39.7376 44.0589ZM39.8973 47.213H41.5433C41.8392 47.213 42.0813 47.4534 42.0813 47.7474V49.3816C42.0813 49.6756 41.8392 49.916 41.5433 49.916H39.8973C39.6014 49.916 39.3593 49.6756 39.3593 49.3816V47.7474C39.3593 47.4534 39.6014 47.213 39.8973 47.213ZM28.5603 54.5569H30.5257C32.4803 54.5569 34.0787 56.1452 34.0787 58.0867V60.0388C34.0787 61.9804 32.4803 63.5687 30.5257 63.5687H28.5603C26.6057 63.5687 25.0066 61.9804 25.0066 60.0388V58.0867C25.0066 56.1452 26.6057 54.5569 28.5603 54.5569ZM28.72 57.711H30.366C30.6619 57.711 30.904 57.9514 30.904 58.2453V59.8802C30.904 60.1742 30.6619 60.4146 30.366 60.4146H28.72C28.4241 60.4146 28.182 60.1742 28.182 59.8802V58.2453C28.182 57.9514 28.4241 57.711 28.72 57.711ZM28.5603 44.0589H30.5257C32.4803 44.0589 34.0787 45.6473 34.0787 47.5881V49.5409C34.0787 51.4817 32.4803 53.0701 30.5257 53.0701H28.5603C26.6057 53.0701 25.0066 51.4817 25.0066 49.5409V47.5881C25.0066 45.6473 26.6057 44.0589 28.5603 44.0589ZM28.72 47.213H30.366C30.6619 47.213 30.904 47.4534 30.904 47.7474V49.3816C30.904 49.6756 30.6619 49.916 30.366 49.916H28.72C28.4241 49.916 28.182 49.6756 28.182 49.3816V47.7474C28.182 47.4534 28.4241 47.213 28.72 47.213ZM17.3823 54.5569H19.3484C21.3023 54.5569 22.9014 56.1452 22.9014 58.0867V60.0388C22.9014 61.9804 21.3023 63.5687 19.3484 63.5687H17.3823C15.4276 63.5687 13.8293 61.9804 13.8293 60.0388V58.0867C13.8293 56.1452 15.4276 54.5569 17.3823 54.5569ZM17.542 57.711H19.1879C19.4839 57.711 19.7259 57.9514 19.7259 58.2453V59.8802C19.7259 60.1742 19.4839 60.4146 19.1879 60.4146H17.542C17.2468 60.4146 17.0047 60.1742 17.0047 59.8802V58.2453C17.0047 57.9514 17.2468 57.711 17.542 57.711ZM17.3823 44.0589H19.3484C21.3023 44.0589 22.9014 45.6473 22.9014 47.5881V49.5409C22.9014 51.4817 21.3023 53.0701 19.3484 53.0701H17.3823C15.4276 53.0701 13.8293 51.4817 13.8293 49.5409V47.5881C13.8293 45.6473 15.4276 44.0589 17.3823 44.0589ZM17.542 47.213H19.1879C19.4839 47.213 19.7259 47.4534 19.7259 47.7474V49.3816C19.7259 49.6756 19.4839 49.916 19.1879 49.916H17.542C17.2468 49.916 17.0047 49.6756 17.0047 49.3816V47.7474C17.0047 47.4534 17.2468 47.213 17.542 47.213ZM62.093 33.5603H64.0583C66.013 33.5603 67.6121 35.1487 67.6121 37.0902V39.0423C67.6121 40.9838 66.013 42.5721 64.0583 42.5721H62.093C60.1383 42.5721 58.5392 40.9838 58.5392 39.0423V37.0902C58.5392 35.1487 60.1383 33.5603 62.093 33.5603ZM62.2527 36.7144H63.8986C64.1946 36.7144 64.4366 36.9548 64.4366 37.2488V38.8837C64.4366 39.1776 64.1946 39.418 63.8986 39.418H62.2527C61.9567 39.418 61.7146 39.1776 61.7146 38.8837V37.2488C61.7146 36.9548 61.9567 36.7144 62.2527 36.7144ZM50.9149 33.5603H52.881C54.8357 33.5603 56.434 35.1487 56.434 37.0902V39.0423C56.434 40.9838 54.8357 42.5721 52.881 42.5721H50.9149C48.961 42.5721 47.3619 40.9838 47.3619 39.0423V37.0902C47.3619 35.1487 48.961 33.5603 50.9149 33.5603ZM51.0753 36.7144H52.7213C53.0172 36.7144 53.2593 36.9548 53.2593 37.2488V38.8837C53.2593 39.1776 53.0172 39.418 52.7213 39.418H51.0753C50.7794 39.418 50.5373 39.1776 50.5373 38.8837V37.2488C50.5373 36.9548 50.7794 36.7144 51.0753 36.7144ZM39.7376 33.5603H41.7037C43.6576 33.5603 45.2567 35.1487 45.2567 37.0902V39.0423C45.2567 40.9838 43.6576 42.5721 41.7037 42.5721H39.7376C37.783 42.5721 36.1846 40.9838 36.1846 39.0423V37.0902C36.1846 35.1487 37.783 33.5603 39.7376 33.5603ZM39.8973 36.7144H41.5433C41.8392 36.7144 42.0813 36.9548 42.0813 37.2488V38.8837C42.0813 39.1776 41.8392 39.418 41.5433 39.418H39.8973C39.6014 39.418 39.3593 39.1776 39.3593 38.8837V37.2488C39.3593 36.9548 39.6014 36.7144 39.8973 36.7144ZM28.5603 33.5603H30.5257C32.4803 33.5603 34.0787 35.1487 34.0787 37.0902V39.0423C34.0787 40.9838 32.4803 42.5721 30.5257 42.5721H28.5603C26.6057 42.5721 25.0066 40.9838 25.0066 39.0423V37.0902C25.0066 35.1487 26.6057 33.5603 28.5603 33.5603ZM28.72 36.7144H30.366C30.6619 36.7144 30.904 36.9548 30.904 37.2488V38.8837C30.904 39.1776 30.6619 39.418 30.366 39.418H28.72C28.4241 39.418 28.182 39.1776 28.182 38.8837V37.2488C28.182 36.9548 28.4241 36.7144 28.72 36.7144ZM17.3823 33.5603H19.3484C21.3023 33.5603 22.9014 35.1487 22.9014 37.0902V39.0423C22.9014 40.9838 21.3023 42.5721 19.3484 42.5721H17.3823C15.4276 42.5721 13.8293 40.9838 13.8293 39.0423V37.0902C13.8293 35.1487 15.4276 33.5603 17.3823 33.5603ZM17.542 36.7144H19.1879C19.4839 36.7144 19.7259 36.9548 19.7259 37.2488V38.8837C19.7259 39.1776 19.4839 39.418 19.1879 39.418H17.542C17.2468 39.418 17.0047 39.1776 17.0047 38.8837V37.2488C17.0047 36.9548 17.2468 36.7144 17.542 36.7144ZM52.5062 45.0121H69.9344V28.5845H10.8156V71.836C10.8156 72.0348 10.9852 72.204 11.1861 72.204H49.3208V48.1768C49.3208 46.4333 50.7517 45.0121 52.5062 45.0121ZM68.4247 47.8088H52.5062C52.3061 47.8088 52.1364 47.9772 52.1364 48.1768V69.4059L68.4247 47.8088Z" fill="#F6993F"/>
</svg>
