<svg width="115" height="116" viewBox="0 0 115 116" fill="none" xmlns="http://www.w3.org/2000/svg">
<rect width="115" height="116" rx="57.5" fill="#FF8049"/>
<path fill-rule="evenodd" clip-rule="evenodd" d="M65.987 29.1493C65.987 29.1493 62.8791 65.7895 62.1619 70.4812C61.4446 75.1729 53.5553 75.1729 52.8381 70.4812C52.121 65.7895 49.013 29.1493 49.013 29.1493C49.013 29.1493 48.2958 22 57.5 22C66.7042 22 65.987 29.1493 65.987 29.1493ZM57.5 93C61.0899 93 64 90.0899 64 86.5C64 82.9101 61.0899 80 57.5 80C53.9101 80 51 82.9101 51 86.5C51 90.0899 53.9101 93 57.5 93Z" fill="white"/>
</svg>
