<svg width="80" height="80" viewBox="0 0 80 80" fill="none" xmlns="http://www.w3.org/2000/svg">
<path fill-rule="evenodd" clip-rule="evenodd" d="M57.6588 37.4381C57.9815 37.5143 58.3658 37.65 58.8028 37.6633C59.793 37.6941 61.9734 37.4976 62.4919 37.7956C62.562 38.3041 62.5821 42.0239 62.4504 42.2445C62.3302 42.3587 62.6115 42.2739 62.2333 42.3674L58.3784 42.3781C56.3144 42.4776 56.8743 45.1324 54.9599 48.4012C54.2637 49.5906 53.677 50.4472 54.9559 51.7301C57.729 54.5125 57.7898 54.0347 56.6552 55.1639C56.3759 55.4426 56.156 55.6671 55.8767 55.9444C55.5967 56.2217 55.3756 56.4455 55.0976 56.7235C54.1434 57.6777 54.4581 57.8461 52.7509 56.0446C52.2517 55.5181 51.7419 54.9555 51.2414 54.5906C50.5204 54.0654 49.9324 54.1463 49.1226 54.5612C47.6906 55.2956 46.8467 55.8736 45.0994 56.3928C42.9244 57.0389 42.3337 56.932 42.335 59.4965C42.335 59.9903 42.335 60.4834 42.335 60.9772L42.321 62.1967C42.2782 62.4178 42.3343 62.2488 42.2715 62.329L42.2395 62.4252C42.1105 62.7312 41.4984 62.5996 41.1951 62.5962L38.702 62.5943C38.1554 62.5963 38.0358 62.6657 37.6583 62.4185C37.5641 61.6762 37.6316 60.5168 37.6316 59.7304C37.6316 59.3108 37.665 58.7354 37.6008 58.3345C37.5327 57.9096 37.3001 57.669 37.1438 57.3169C36.6152 56.636 35.4078 56.5986 34.5933 56.2838C33.6471 55.9183 32.8339 55.6377 32.0114 55.1967C31.2449 54.7864 30.4966 54.0768 29.4261 54.2913C28.4552 54.4864 27.9367 55.6076 27.3807 55.8562C27.191 56.1876 26.8575 56.4302 26.611 56.6761C25.7249 57.5594 25.9147 57.7298 24.891 56.7095L22.9493 54.7577C22.3345 54.1276 22.8323 53.9659 23.6796 53.1213C24.9017 51.9025 26.3551 50.8668 25.5746 49.3186C25.1156 48.4072 24.6565 47.7423 24.1901 46.6565L23.1758 43.4766L23.0408 43.1258C22.5797 42.93 22.6927 42.6587 22.0345 42.475C20.7308 42.1101 17.9779 42.5986 17.619 42.2404C17.438 42.06 17.5128 38.119 17.5596 37.7983L21.9931 37.6399C22.3191 37.5999 22.3873 37.3707 22.6492 37.3593C22.8009 36.9758 22.968 37.0032 23.1337 36.5815L23.9188 34.0952C25.2485 30.5598 26.9063 30.1154 24.7781 28.0607C24.3605 27.6585 22.7481 26.119 22.5904 25.8243C22.5423 25.547 23.9482 24.2761 24.1239 24.1004C24.3538 23.8718 25.4617 22.5495 25.8459 22.641C25.9154 22.6577 27.3326 24.0335 27.483 24.3082C28.0282 24.5207 28.4512 25.6345 29.5831 25.7729C30.5848 25.8958 31.5222 25.114 32.2559 24.7478C34.2405 23.7569 34.4817 23.8311 36.2578 23.2905C36.4181 23.2424 36.7516 23.1154 36.8959 23.0025C37.0402 22.8889 37.1478 22.6698 37.3549 22.6277C37.5066 22.0918 37.6616 22.1506 37.689 21.463C37.7064 21.0287 37.6937 20.571 37.6937 20.134C37.6937 19.6495 37.5126 17.8193 37.804 17.663C37.9356 17.4211 37.9536 17.4906 38.3085 17.4926L40.1046 17.498C40.595 17.498 41.9715 17.3483 42.2862 17.6276C42.4593 17.9623 42.3851 21.169 42.3818 21.8145C42.5094 23.7636 45.5571 23.2337 48.5058 25.1381C50.7904 26.6134 51.3537 25.4174 53.6302 23.1435C54.5009 22.2742 54.1655 22.4145 56.6324 24.8775C57.469 25.712 57.6301 25.6786 56.893 26.4083C52.2838 30.972 54.4768 28.4703 56.7046 36.1044C56.8663 36.6597 57.1109 37.2718 57.6588 37.4381ZM68.2845 62.2154C69.9603 63.8912 69.9603 66.6081 68.2845 68.2839C66.6086 69.9597 63.8911 69.9597 62.2152 68.2839C60.8194 66.8881 60.5862 64.7692 61.517 63.1315C60.8969 62.4827 60.2354 61.8412 59.5979 61.2091C57.8245 59.4491 59.4375 58.6833 60.1104 58.7415C60.5033 58.7755 60.7338 59.0308 61.0893 59.3869C61.7689 60.0665 62.4478 60.7467 63.1273 61.4262C63.1514 61.4423 63.1801 61.4523 63.2115 61.4577L63.1795 61.4897C64.8099 60.591 66.9013 60.8329 68.2845 62.2154ZM66.6026 63.8966C67.3497 64.6443 67.3497 65.8557 66.6026 66.6027C65.8556 67.3498 64.6441 67.3498 63.8971 66.6027C63.1501 65.8557 63.1501 64.6443 63.8971 63.8966C64.6441 63.1495 65.8556 63.1495 66.6026 63.8966ZM17.7848 11.7161C19.1646 13.0959 19.4078 15.1827 18.5144 16.8117C19.1853 17.4913 19.8642 18.1641 20.5397 18.8383C20.9072 19.2045 21.2193 19.3889 21.244 19.8687C21.2667 20.2997 21.2848 20.567 20.8925 20.9298C19.5702 22.1526 18.0868 19.395 16.858 18.4889C15.2222 19.413 13.1087 19.1785 11.7155 17.7846C10.0397 16.1088 10.0397 13.3919 11.7155 11.7161C13.3914 10.0403 16.1089 10.0403 17.7848 11.7161ZM16.1029 13.3973C16.8499 14.145 16.8499 15.3557 16.1029 16.1028C15.3559 16.8505 14.1444 16.8505 13.3974 16.1028C12.6503 15.3557 12.6503 14.145 13.3974 13.3973C14.1444 12.6502 15.3559 12.6502 16.1029 13.3973ZM62.2152 11.7161C63.8911 10.0403 66.6086 10.0403 68.2845 11.7161C69.9603 13.3919 69.9603 16.1088 68.2845 17.7846C66.8879 19.1811 64.7691 19.4137 63.132 18.4835C62.4825 19.1029 61.8417 19.7645 61.2089 20.4019C59.4489 22.1753 58.6838 20.563 58.7419 19.8894C58.7754 19.4972 59.0313 19.2667 59.3868 18.9105C60.067 18.2316 60.7465 17.5521 61.4261 16.8725C61.4421 16.8485 61.4522 16.8204 61.4575 16.7883L61.4902 16.8211C60.5909 15.19 60.8327 13.0986 62.2152 11.7161ZM63.8971 13.3973C64.6441 12.6502 65.8556 12.6502 66.6026 13.3973C67.3497 14.145 67.3497 15.3557 66.6026 16.1028C65.8556 16.8505 64.6441 16.8505 63.8971 16.1028C63.1501 15.3557 63.1501 14.1443 63.8971 13.3973ZM11.7155 62.2154C13.096 60.8349 15.1821 60.5917 16.8119 61.4851C17.4907 60.8149 18.1643 60.136 18.8378 59.4598C19.2047 59.0923 19.3891 58.7809 19.8682 58.7555C20.2992 58.7328 20.5671 58.7154 20.93 59.1076C22.1528 60.43 19.3951 61.9127 18.489 63.1415C19.4125 64.7779 19.1779 66.8907 17.7848 68.2839C16.1089 69.9597 13.3914 69.9597 11.7155 68.2839C10.0397 66.6081 10.0397 63.8912 11.7155 62.2154ZM13.3974 63.8966C14.1444 63.1495 15.3559 63.1495 16.1029 63.8966C16.8499 64.6443 16.8499 65.8557 16.1029 66.6027C15.3559 67.3498 14.1444 67.3498 13.3974 66.6027C12.6503 65.8557 12.6503 64.6443 13.3974 63.8966ZM35.7085 4.2918C35.7085 1.92172 37.6302 0 39.9997 0C42.3698 0 44.2915 1.92172 44.2915 4.2918C44.2915 6.26631 42.9578 7.92877 41.1416 8.42858C41.1216 9.32596 41.1356 10.2474 41.1389 11.1448C41.149 13.6438 39.4671 13.0444 39.0321 12.5273C38.7782 12.2259 38.7962 11.8825 38.7962 11.3793C38.7962 10.4178 38.7969 9.45693 38.7969 8.49607C38.7916 8.468 38.7782 8.44061 38.7595 8.41388H38.8056C37.0168 7.8967 35.7085 6.24693 35.7085 4.2918ZM38.0866 4.2918C38.0866 3.23472 38.9432 2.37809 39.9997 2.37809C41.0567 2.37809 41.9134 3.23472 41.9134 4.2918C41.9134 5.34821 41.0567 6.20483 39.9997 6.20483C38.9432 6.20483 38.0866 5.34821 38.0866 4.2918ZM35.7085 75.7082C35.7085 73.7564 37.0121 72.1093 38.7956 71.5888C38.8016 70.6339 38.7976 69.6784 38.7969 68.7236C38.7962 68.2051 38.706 67.8543 39.0268 67.4974C39.3154 67.1767 39.4925 66.9749 40.0264 66.9956C41.8265 67.0658 40.9251 70.0646 41.153 71.5741C42.9631 72.0779 44.2915 73.7377 44.2915 75.7082C44.2915 78.0783 42.3698 80 39.9997 80C37.6302 80 35.7085 78.0783 35.7085 75.7082ZM38.0866 75.7082C38.0866 74.6518 38.9432 73.7952 39.9997 73.7952C41.0567 73.7952 41.9134 74.6518 41.9134 75.7082C41.9134 76.7653 41.0567 77.6212 39.9997 77.6212C38.9432 77.6212 38.0866 76.7653 38.0866 75.7082ZM75.7088 35.7703C78.0789 35.7703 80 37.6914 80 40.0615C80 42.4315 78.0789 44.3533 75.7088 44.3533C73.7343 44.3533 72.0712 43.0196 71.5713 41.2034C70.674 41.1827 69.7532 41.1974 68.8551 41.2007C66.3567 41.2108 66.9554 39.5289 67.4726 39.0939C67.7747 38.84 68.1181 38.8581 68.6213 38.8581C69.5821 38.8581 70.543 38.8587 71.5045 38.8587C71.5326 38.8534 71.5593 38.84 71.586 38.8213V38.8674C72.1032 37.0787 73.753 35.7703 75.7088 35.7703ZM75.7088 38.1484C76.7653 38.1484 77.6219 39.0051 77.6219 40.0615C77.6219 41.1186 76.7653 41.9752 75.7088 41.9752C74.6524 41.9752 73.7958 41.1186 73.7958 40.0615C73.7958 39.0051 74.6524 38.1484 75.7088 38.1484ZM4.29117 35.7703C6.24298 35.7703 7.89008 37.074 8.41128 38.8574C9.36546 38.8634 10.3217 38.8594 11.2758 38.8581C11.795 38.8574 12.1458 38.7678 12.5026 39.0886C12.8234 39.3772 13.0252 39.5543 13.0045 40.0882C12.9336 41.8883 9.93477 40.9869 8.42531 41.2148C7.92149 43.0249 6.26169 44.3533 4.29117 44.3533C1.92107 44.3533 0 42.4315 0 40.0615C0 37.6914 1.92107 35.7703 4.29117 35.7703ZM4.29117 38.1484C5.34759 38.1484 6.20422 39.0051 6.20422 40.0615C6.20422 41.1186 5.34759 41.9752 4.29117 41.9752C3.23475 41.9752 2.37812 41.1186 2.37812 40.0615C2.37812 39.0051 3.23475 38.1484 4.29117 38.1484ZM39.6489 39.2262C40.6344 38.6763 41.4964 40.304 40.4246 40.8105C39.3943 41.297 38.4675 39.8857 39.6489 39.2262ZM40.2596 43.2554C41.8345 43.2093 43.1642 41.7246 43.2671 40.2365C43.3313 39.3098 42.9417 38.5346 42.5134 37.9927C41.9822 37.3212 41.4677 37.1167 40.6906 36.8515C39.2733 36.776 38.831 36.8388 37.9102 37.5771C35.8535 39.2269 36.5351 43.2427 40.2596 43.2554ZM41.5806 33.8085C41.6347 34.2709 41.7991 34.2716 41.9074 34.6712C42.0129 34.6885 42.4319 34.879 42.6671 34.9511C43.0233 35.0607 43.042 35.171 43.2304 35.479L44.796 38.2059C45.9039 40.1557 46.0776 39.8116 45.2998 40.9956C44.7392 41.8496 43.938 43.3904 43.356 44.3539C43.0146 44.9206 43.183 44.8551 42.9531 44.8985C42.8449 45.1437 42.9504 45.0295 42.6785 45.1057L40.0264 45.0996C36.5404 45.0976 37.2988 45.5467 35.925 43.0971C33.746 39.2122 33.7747 40.8359 35.7947 37.1729C36.1435 36.5401 36.5277 35.8311 36.9059 35.2478C37.3803 34.5161 37.9984 35.4249 38.4247 33.85C38.2122 32.2844 36.8605 32.5022 35.9337 32.9639C35.2381 33.3107 34.6761 34.3818 34.2859 35.1349C34.0286 35.6307 33.8636 35.8772 33.5522 36.3336C33.4099 36.5428 33.3417 36.7065 33.2228 36.935C33.1179 37.1368 32.9976 37.3453 32.8827 37.5397C32.4056 38.3469 31.8096 39.144 31.8931 40.3261C31.9485 41.1145 32.7818 42.3347 33.1266 42.9367L34.5291 45.3542C35.0309 46.1253 35.3336 46.9599 36.4121 47.2913C37.2246 47.5412 39.0421 47.4396 40.0264 47.4396C41.0541 47.4396 42.8515 47.578 43.6721 47.2546C45.0265 46.7213 45.4548 45.3963 46.2373 44.0325C46.4778 43.6136 46.711 43.2347 46.9342 42.8692C48.7805 39.8456 48.2446 39.6599 47.0558 37.4275C46.6422 36.651 46.0736 35.7784 45.6834 35.0587C45.2203 34.2048 44.8174 33.3501 43.9875 32.9299C42.9504 32.404 41.6708 32.5416 41.5806 33.8085ZM30.5032 29.0978C30.2934 29.4292 29.3553 30.2283 28.9463 30.7181C28.4993 31.254 28.079 31.8501 27.6841 32.4962C27.3193 33.0942 26.9304 33.8941 26.6324 34.5696C26.0738 35.8358 26.166 35.9842 25.9308 36.647C25.9227 36.6704 25.908 36.6971 25.9007 36.7165C25.8927 36.7359 25.87 36.796 25.8639 36.784C25.8579 36.772 25.8406 36.8314 25.8238 36.8508C25.8439 37.2704 25.6875 37.8905 25.6394 38.3863C25.5866 38.9316 25.5385 39.4601 25.5379 40.01C25.5379 41.1439 25.8339 42.8538 25.7965 43.1432L26.5014 45.1103C26.9598 46.3311 27.5525 47.5706 28.3563 48.5649L29.5664 50.065C29.6854 50.1131 30.7264 51.1134 30.9416 51.2824C38.815 57.4752 49.885 54.2392 53.4899 45.3021C53.7592 44.6339 54.4207 42.8999 54.0352 42.203C53.7612 41.7092 53.4064 41.7547 53.3496 41.6077C50.7824 41.4827 52.7435 44.7181 48.3528 48.8068C45.8217 51.1628 43.0466 52.1016 39.5199 52.131C37.8728 52.1223 35.7419 51.4254 34.5151 50.8254C30.2513 48.7433 27.4983 43.9009 27.946 38.9944C27.9982 38.4177 27.9781 38.0983 28.1164 37.5872C28.232 37.1608 28.3363 36.7051 28.4338 36.3376L29.3787 34.1807C29.974 33.0054 31.1941 31.6917 32.147 30.8003C32.5867 30.3894 33.4406 29.8395 34.0019 29.5288C34.7576 29.1098 35.2548 28.91 36.084 28.5752C37.2126 28.1202 38.8216 27.901 40.1046 27.9124C40.4413 27.9151 41.2599 27.8416 41.5138 28.0841C42.5188 27.8429 44.9677 28.9708 45.6506 29.3203C48.4129 30.7342 51.0035 33.7838 51.7038 36.8121C51.8782 37.5671 52.0025 38.2961 52.8043 38.4297C53.538 38.5433 54.1614 38.0622 54.1594 37.2831C54.1541 35.7977 52.658 32.9078 51.8882 31.8066C50.4396 29.7332 48.58 28.1456 46.3021 27.0304C41.8225 24.8367 36.3152 25.1641 31.9947 27.9993C31.4781 28.338 30.963 28.8525 30.5032 29.0978ZM35.3437 21.0681C34.8612 21.31 33.9812 21.5211 33.4139 21.7029C32.4991 21.9956 30.0515 23.2771 29.9092 23.2564C29.0826 23.1355 27.8144 20.0124 25.2986 20.297C24.2937 20.4106 23.2286 21.7102 22.4368 22.4907C21.975 22.9457 21.6342 23.2718 21.1551 23.7796C20.678 24.2848 20.4255 24.518 20.2651 25.386C19.9825 26.9208 21.2133 27.7788 22.0432 28.614C23.8126 30.3941 23.3542 29.5207 22.4388 31.6115C21.6282 33.4651 21.655 33.3782 21.093 35.3414C19.772 35.4583 17.1132 35.0874 16.286 35.8245C14.9315 37.0319 15.1915 37.8277 15.1915 40.01C15.1915 41.6217 14.838 43.2334 16.2633 44.2123C17.4219 45.0081 19.218 44.5297 21.0877 44.692C21.4311 46.1287 21.9984 47.6214 22.6532 48.895C23.4771 50.4986 23.729 49.7215 21.6951 51.7595C20.4709 52.9856 19.51 54.2278 20.8852 55.9564C21.3349 56.5211 21.9216 57.0369 22.4254 57.54C22.9379 58.0532 23.4658 58.5998 24.0324 59.1297C24.4988 59.566 25.4069 60.0057 26.3784 59.7184C27.2591 59.4584 27.6614 58.966 28.2347 58.38C30.2667 56.3032 29.5818 56.642 31.1988 57.4144C31.6225 57.6162 32.0461 57.8147 32.4831 58.0031C33.2676 58.3405 35.206 58.9038 35.327 58.9686C35.5301 60.6258 34.9835 62.5522 35.8401 63.7603C36.787 65.0946 38.1033 64.8187 40.0264 64.8187C41.8679 64.8187 43.2999 65.1167 44.2307 63.7061C45.1328 62.3403 44.3804 60.5957 44.7205 58.9506C44.9797 58.8083 45.8477 58.6252 46.1952 58.5016C46.6168 58.3519 47.132 58.1722 47.5597 57.9911C48.1704 57.7318 49.9531 56.7629 50.1556 56.8124C50.6648 56.9353 52.1495 59.2687 53.657 59.7297C55.3508 60.2476 56.5162 58.6045 57.618 57.5287C58.921 56.2571 60.1993 55.3163 59.6534 53.5035C59.4289 52.7578 58.8054 52.284 58.2415 51.7181C55.8794 49.348 56.7133 50.8541 57.9969 47.5532C58.3384 46.6752 58.7693 45.5634 58.9504 44.6867C60.5461 44.6092 62.6369 44.9981 63.7588 44.1902C65.0571 43.2554 64.8199 41.8202 64.8199 40.01C64.8199 38.1164 65.0724 36.8027 63.6853 35.8251C62.5961 35.0574 60.508 35.4229 58.9417 35.3514C58.5041 34.0644 58.0778 32.3699 57.3661 31.1625C57.2098 30.8959 56.8048 30.2277 56.7173 29.9551C56.738 29.5815 59.0754 27.9505 59.6647 26.5239C60.3563 24.8481 58.5863 23.5137 57.6307 22.5568C56.3992 21.324 55.3629 19.8206 53.5607 20.3518C52.817 20.571 52.3419 21.1336 51.7473 21.7276C49.7687 23.7055 50.485 23.4883 48.8165 22.645L46.0555 21.5044C45.6279 21.3728 44.9737 21.2646 44.6637 21.0694C44.5254 19.4711 45.0031 17.3436 44.1418 16.2524C43.066 14.8907 41.9027 15.1807 39.9489 15.1807C38.0799 15.1807 36.7536 14.9602 35.8127 16.3032C35.3022 17.0322 35.3524 17.4953 35.3537 18.4969C35.3544 19.3395 35.3817 20.2322 35.3437 21.0681Z" fill="#3490DC"/>
</svg>
