<svg width="26" height="23" viewBox="0 0 26 23" fill="none" xmlns="http://www.w3.org/2000/svg">
<path d="M8.30793 18.1136C7.5767 17.8364 6.7626 17.9545 6.13374 18.4421C5.734 18.7501 5.04664 19.2017 4.21304 19.6072C4.48603 18.8527 4.69565 18.0007 4.7639 17.0716C4.81265 16.4095 4.60303 15.7525 4.18866 15.2495C3.05282 13.8996 2.44834 12.3187 2.44834 10.6762C2.44834 6.59563 6.5091 2.46374 12.5881 2.46374C18.667 2.46374 22.7278 6.59563 22.7278 10.6762C22.7278 14.7568 18.667 18.8886 12.5881 18.8886C11.0476 18.8886 9.59977 18.6063 8.30793 18.1136ZM1.39049 20.1102C1.31249 20.2488 1.22962 20.3874 1.14187 20.526L1.12725 20.5517C1.04925 20.6697 0.97125 20.7878 0.893253 20.9058C0.722632 21.1471 0.537387 21.3832 0.342392 21.5987C0.118148 21.8349 0.0547749 22.1839 0.176647 22.4919C0.298518 22.7998 0.581261 23 0.898127 23C1.14675 23 1.39536 22.9846 1.64398 22.9589L1.67811 22.9538C1.8926 22.9281 2.1071 22.8973 2.32159 22.8563C2.36059 22.8511 2.39959 22.8409 2.43859 22.8306C3.30631 22.651 4.13992 22.343 4.8809 22.0042C5.99724 21.491 6.94784 20.8802 7.52795 20.4336C9.07816 21.0239 10.7941 21.3524 12.6027 21.3524C19.4958 21.3524 25.0824 16.5738 25.0824 10.6762C25.0824 4.77862 19.4811 0 12.5881 0C5.695 0 0.108398 4.77862 0.108398 10.6762C0.108398 12.9911 0.97125 15.1314 2.43371 16.8817C2.34109 18.1393 1.87798 19.2582 1.39049 20.1102ZM7.12821 12.3187C7.54194 12.3187 7.93872 12.1456 8.23127 11.8376C8.52382 11.5296 8.68817 11.1118 8.68817 10.6762C8.68817 10.2406 8.52382 9.8228 8.23127 9.51477C7.93872 9.20675 7.54194 9.0337 7.12821 9.0337C6.71448 9.0337 6.3177 9.20675 6.02515 9.51477C5.73261 9.8228 5.56825 10.2406 5.56825 10.6762C5.56825 11.1118 5.73261 11.5296 6.02515 11.8376C6.3177 12.1456 6.71448 12.3187 7.12821 12.3187ZM14.148 10.6762C14.148 10.2406 13.9837 9.8228 13.6911 9.51477C13.3986 9.20675 13.0018 9.0337 12.5881 9.0337C12.1743 9.0337 11.7776 9.20675 11.485 9.51477C11.1925 9.8228 11.0281 10.2406 11.0281 10.6762C11.0281 11.1118 11.1925 11.5296 11.485 11.8376C11.7776 12.1456 12.1743 12.3187 12.5881 12.3187C13.0018 12.3187 13.3986 12.1456 13.6911 11.8376C13.9837 11.5296 14.148 11.1118 14.148 10.6762ZM18.0479 12.3187C18.4616 12.3187 18.8584 12.1456 19.151 11.8376C19.4435 11.5296 19.6079 11.1118 19.6079 10.6762C19.6079 10.2406 19.4435 9.8228 19.151 9.51477C18.8584 9.20675 18.4616 9.0337 18.0479 9.0337C17.6342 9.0337 17.2374 9.20675 16.9449 9.51477C16.6523 9.8228 16.488 10.2406 16.488 10.6762C16.488 11.1118 16.6523 11.5296 16.9449 11.8376C17.2374 12.1456 17.6342 12.3187 18.0479 12.3187Z" fill="#FF8049"/>
</svg>
