<svg width="18" height="23" viewBox="0 0 18 23" fill="none" xmlns="http://www.w3.org/2000/svg">
<path fill-rule="evenodd" clip-rule="evenodd" d="M4.24241 1H12.1106C13.3582 1 13.9679 1.92887 14.9082 2.81963C16.0389 3.8912 17 4.72301 17 6.02503V12.2497C17 12.711 16.6322 13.0877 16.1817 13.0877H15.9844C15.5339 13.0877 15.1661 12.711 15.1661 12.2497V6.51073H11.8523C11.3296 6.51073 10.9025 6.07289 10.9025 5.53799V2.87768H4.24241C3.47129 2.87768 2.83389 3.53046 2.83389 4.32018V18.36C2.83389 19.1497 3.47129 19.8025 4.24241 19.8025H7.0205C7.47097 19.8025 7.83878 20.1792 7.83878 20.6405V20.8426C7.83878 21.304 7.47097 21.6806 7.0205 21.6806H4.24241C2.45915 21.6806 1 20.1863 1 18.36V4.32018C1 2.4939 2.45915 1 4.24241 1ZM11.8281 13.5561C12.0366 13.5584 12.2431 13.5796 12.4451 13.6191C12.6697 13.6634 12.8869 13.5561 12.9938 13.3492L13.2803 12.7926C13.4118 12.5373 13.7221 12.4389 13.9714 12.5736L14.2639 12.7314C14.5131 12.8661 14.6092 13.1839 14.4776 13.4391L14.1869 14.0046C14.0808 14.2102 14.1159 14.4527 14.276 14.6175C14.4188 14.7651 14.5495 14.9264 14.6668 15.0997C14.7957 15.2911 15.0216 15.3713 15.2388 15.3026L15.8347 15.1139C16.1038 15.0283 16.3916 15.1834 16.4751 15.4591L16.5725 15.7826C16.656 16.0582 16.5041 16.3529 16.2349 16.438L15.6464 16.6246C15.4283 16.6937 15.2855 16.8927 15.286 17.1263C15.2864 17.3394 15.2682 17.5508 15.2323 17.7573C15.1925 17.9856 15.2972 18.2045 15.4976 18.3126L16.0385 18.6051C16.2877 18.7394 16.3838 19.0576 16.2527 19.3128L16.0982 19.612C15.9671 19.8672 15.6564 19.9656 15.4071 19.8313L14.8844 19.5486C14.6815 19.4391 14.4417 19.4772 14.2808 19.6448C14.1328 19.799 13.9709 19.9399 13.7952 20.0658C13.61 20.1987 13.533 20.4287 13.5996 20.6498L13.7723 21.2211C13.8554 21.4967 13.7039 21.7914 13.4348 21.8765L13.1189 21.9767C12.8497 22.0618 12.5624 21.9067 12.4789 21.631L12.3127 21.081C12.2448 20.8564 12.0492 20.7101 11.8199 20.7119C11.5992 20.7137 11.3811 20.6942 11.1677 20.6543C10.944 20.6122 10.7289 20.7194 10.6229 20.9251L10.3633 21.4298C10.2317 21.6851 9.92148 21.7835 9.67223 21.6487L9.37971 21.491C9.13046 21.3562 9.0344 21.0385 9.16595 20.7832L9.42126 20.2869C9.52771 20.0799 9.49136 19.8358 9.32909 19.6709C9.17331 19.5122 9.03094 19.3376 8.90545 19.1484C8.77649 18.9552 8.54932 18.8741 8.33123 18.9432L7.80849 19.1085C7.53934 19.1941 7.25201 19.0385 7.16849 18.7629L7.07113 18.4398C6.98762 18.1641 7.13907 17.8694 7.40822 17.7844L7.93831 17.6164C8.1551 17.5477 8.29747 17.3505 8.29877 17.1178C8.29964 16.8918 8.32171 16.6676 8.36368 16.4491C8.40782 16.2187 8.30309 15.9944 8.10015 15.885L7.60468 15.6173C7.35543 15.4826 7.25936 15.1648 7.39091 14.9096L7.54496 14.61C7.67651 14.3552 7.98721 14.2563 8.23646 14.3911L8.75011 14.6685C8.95002 14.7766 9.18542 14.7412 9.34726 14.579C9.49785 14.427 9.66315 14.2887 9.84187 14.1655C10.0323 14.0348 10.1128 13.8003 10.0448 13.5761L9.87129 13.0013C9.78778 12.7257 9.93966 12.4309 10.2088 12.3459L10.5247 12.2457C10.7939 12.1606 11.0812 12.3157 11.1647 12.5914L11.3447 13.187C11.4114 13.4086 11.6022 13.5539 11.8281 13.5561ZM11.3486 15.6665C12.1401 15.4157 12.9804 15.8694 13.2253 16.68C13.4703 17.4905 13.0271 18.3507 12.2357 18.6015C11.4442 18.8524 10.6043 18.3986 10.3594 17.588C10.1145 16.7775 10.5572 15.9173 11.3486 15.6665ZM4.55916 9.5402H11.0241C11.5468 9.5402 11.9739 9.10235 11.9739 8.56745C11.9739 8.03211 11.5468 7.59427 11.0241 7.59427H4.55916C4.03686 7.59427 3.60933 8.03211 3.60933 8.56745C3.60933 9.10235 4.03686 9.5402 4.55916 9.5402ZM4.55916 13.3372H8.31305C8.83535 13.3372 9.26288 12.8994 9.26288 12.364C9.26288 11.8291 8.83535 11.3913 8.31305 11.3913H4.55916C4.03686 11.3913 3.60933 11.8291 3.60933 12.364C3.60933 12.8994 4.03686 13.3372 4.55916 13.3372ZM12.8026 4.5648V3.32129C13.1505 3.64347 13.5057 4.04896 13.6633 4.19831C13.752 4.28206 13.8965 4.41103 14.0622 4.5648H12.8026Z" fill="white"/>
</svg>
