<svg width="18" height="23" viewBox="0 0 18 23" fill="none" xmlns="http://www.w3.org/2000/svg">
<path fill-rule="evenodd" clip-rule="evenodd" d="M8.80056 1C11.3965 1 13.501 3.04581 13.501 5.56934C13.501 7.96164 11.6098 9.92466 9.20127 10.1221H12.1617C12.4517 10.1221 12.7358 10.1523 13.0104 10.2091C13.274 10.2641 13.4754 10.4247 13.5819 10.6652C13.6884 10.9053 13.67 11.1583 13.5299 11.3818L13.4673 11.482C13.2889 11.7672 12.9627 11.9071 12.6255 11.843C12.4764 11.8148 12.3218 11.7999 12.1617 11.7999H5.43939C3.92084 11.7999 2.87711 13.1407 2.74126 14.5242C2.73786 14.5242 2.72593 17.6397 2.72593 17.9245H6.16204C6.60534 17.9245 6.96731 18.276 6.96731 18.7073V18.8195C6.96731 19.2505 6.60534 19.6023 6.16204 19.6023H1V14.8297C1 12.2404 2.99762 10.1221 5.43939 10.1221H8.39984C5.99128 9.92466 4.10012 7.96164 4.10012 5.56934C4.10012 3.04581 6.20463 1 8.80056 1ZM13.8225 14.0316C14.2692 14.1214 14.684 14.2957 15.0489 14.5362L16.1101 13.5042L17.0525 14.4199L15.9866 15.4561C16.2289 15.81 16.4035 16.2119 16.4925 16.6441H18V17.939H16.4972C16.4112 18.3741 16.2379 18.7794 15.9964 19.1366L17.0525 20.1632L16.1105 21.0789L15.0634 20.0614C14.695 20.3069 14.2752 20.4845 13.8225 20.5755V22H12.49V20.5888C12.028 20.5052 11.5988 20.3317 11.2215 20.0879L10.2024 21.0789L9.26046 20.1632L10.2752 19.1764C10.0193 18.8092 9.83662 18.3902 9.7472 17.939H8.31254V16.6441H9.75189C9.84429 16.1958 10.0287 15.7802 10.2855 15.4163L9.26046 14.4199L10.2024 13.5042L11.2368 14.5097C11.6103 14.2709 12.0344 14.1011 12.49 14.0188V12.5827H13.8225V14.0316ZM13.122 15.8684C13.9375 15.8684 14.5984 16.5108 14.5984 17.3036C14.5984 18.0959 13.9375 18.7388 13.122 18.7388C12.3069 18.7388 11.646 18.0959 11.646 17.3036C11.646 16.5108 12.3069 15.8684 13.122 15.8684ZM8.80056 2.57845C10.4997 2.57845 11.8773 3.91762 11.8773 5.56934C11.8773 7.22106 10.4997 8.56023 8.80056 8.56023C7.10145 8.56023 5.72385 7.22106 5.72385 5.56934C5.72385 3.91762 7.10145 2.57845 8.80056 2.57845Z" fill="white"/>
</svg>
