<svg width="18" height="23" viewBox="0 0 18 23" fill="none" xmlns="http://www.w3.org/2000/svg">
<path fill-rule="evenodd" clip-rule="evenodd" d="M13.5532 6.49538C13.5532 4.01265 11.5406 2 9.05786 2C6.57513 2 4.56248 4.01265 4.56248 6.49538C4.56248 7.9247 5.22987 9.19836 6.27005 10.0218V13.5879H3.24874C2.26421 13.5723 1.91982 13.7148 1.44117 14.3701L0.502953 15.655C-0.0319483 16.3876 -0.00972605 16.7959 0.00570565 17.0795C0.00807936 17.1231 0.0102924 17.1638 0.0102924 17.2022V18.6191C0.0102924 19.6321 0.836443 20.4578 1.84938 20.4578H16.155C17.168 20.4578 17.9941 19.6321 17.9941 18.6191V17.0213C17.9941 16.9992 17.9953 16.9747 17.9966 16.9474C18.0068 16.7316 18.025 16.3467 17.5392 15.7044L16.6259 14.4969C16.0192 13.6945 15.4795 13.5879 14.8183 13.5879H11.8457V10.0218C12.8859 9.19836 13.5532 7.9247 13.5532 6.49538ZM9.05786 16.0811C9.9992 16.0811 10.8479 15.6468 11.3585 15.2807H15.4499C15.511 15.2807 15.5636 15.3075 15.5994 15.3569L16.0733 16.0138C16.115 16.0714 16.1204 16.1422 16.0881 16.2057C16.0558 16.2687 15.9947 16.3061 15.9239 16.3061H2.08015C2.00933 16.3061 1.94861 16.2687 1.91631 16.2057C1.88401 16.1422 1.88947 16.0714 1.93072 16.0138L2.40469 15.3569C2.44049 15.3075 2.49303 15.2807 2.55412 15.2807H6.69732C7.19854 15.662 8.06749 16.0811 9.05786 16.0811ZM16.3014 18.3666V18.3973C16.3014 18.6 16.136 19.0382 15.9332 19.0382H2.07081C1.86807 19.0382 1.70267 18.6 1.70267 18.3973V18.3666C1.70267 18.1638 1.86807 17.7435 2.07081 17.7435H15.9332C16.136 17.7435 16.3014 18.1638 16.3014 18.3666ZM9.05786 10.9904C9.5295 10.9904 9.98363 10.9176 10.4109 10.783V14.4942H10.4C9.99764 14.7008 9.54156 14.8176 9.05786 14.8176C8.57416 14.8176 8.11808 14.7008 7.71532 14.4942H7.70481V10.783C8.1317 10.9176 8.58622 10.9904 9.05786 10.9904ZM12.1539 6.49538C12.1539 4.78548 10.7678 3.39897 9.05786 3.39897C7.34797 3.39897 5.96185 4.78548 5.96185 6.49538C5.96185 8.20527 7.34797 9.5914 9.05786 9.5914C10.7678 9.5914 12.1539 8.20527 12.1539 6.49538ZM6.4458 6.82847C6.4458 6.85921 6.44619 6.88957 6.44736 6.91992C6.45125 7.05379 6.50962 7.16703 6.61624 7.24836C6.72248 7.3293 6.847 7.35537 6.97737 7.32424L6.98243 7.32268C7.18206 7.27443 7.31709 7.09776 7.31086 6.89229C7.31009 6.87128 7.3097 6.84987 7.3097 6.82847C7.3097 5.87079 7.9584 5.06449 8.8402 4.82478C9.05656 4.76563 9.19081 4.55199 9.14956 4.33173L9.14878 4.32628C9.12582 4.20409 9.06006 4.10759 8.95499 4.04143C8.84953 3.97528 8.73396 3.95816 8.6141 3.99045C7.36457 4.32979 6.4458 5.47192 6.4458 6.82847Z" fill="white"/>
</svg>
