<svg width="18" height="23" viewBox="0 0 18 23" fill="none" xmlns="http://www.w3.org/2000/svg">
<path fill-rule="evenodd" clip-rule="evenodd" d="M4.06846 4.42963C4.63062 4.42963 5.08467 4.859 5.08467 5.39396C5.08467 5.92552 4.63062 6.35481 4.06846 6.35481C3.50631 6.35481 3.04863 5.92552 3.04863 5.39396C3.04863 4.859 3.50631 4.42963 4.06846 4.42963ZM11.8594 19.1463L14.8036 16.3658C15.0739 16.1102 15.0739 15.6877 14.8036 15.4321C14.5297 15.1732 14.0865 15.1732 13.8126 15.4321L11.3621 17.7526L10.1117 16.5702C9.83785 16.3113 9.39461 16.3113 9.12074 16.5702C8.85047 16.8258 8.85047 17.2483 9.12074 17.5039L10.8612 19.1463C10.9982 19.2791 11.1784 19.3404 11.3621 19.3404C11.5423 19.3404 11.7225 19.2791 11.8594 19.1463ZM6.94773 10.4165H12.9946C13.5532 10.4165 14.0072 9.9837 14.0072 9.45556C14.0072 8.92741 13.5532 8.4947 12.9946 8.4947H6.94773C6.38918 8.4947 5.93512 8.92741 5.93512 9.45556C5.93512 9.9837 6.38918 10.4165 6.94773 10.4165ZM11.964 11.5818C15.2973 11.5818 18 14.1373 18 17.2892C18 20.441 15.2973 23 11.964 23C8.62705 23 5.92435 20.441 5.92435 17.2892C5.92435 14.1373 8.62705 11.5818 11.964 11.5818ZM11.964 13.323C14.2811 13.323 16.1585 15.0982 16.1585 17.2892C16.1585 19.4801 14.2811 21.2588 11.964 21.2588C9.64326 21.2588 7.76575 19.4801 7.76575 17.2892C7.76575 15.0982 9.64326 13.323 11.964 13.323ZM3.41259 0H13.6468C15.5243 0 17.0594 1.45155 17.0594 3.2268V10.4948C17.0594 10.948 16.6666 11.3194 16.1838 11.3194H16.0252C15.5459 11.3194 15.1531 10.948 15.1531 10.4948V3.2268C15.1531 2.4431 14.4756 1.80253 13.6468 1.80253H3.41259C2.58377 1.80253 1.90632 2.4431 1.90632 3.2268V15.623C1.90632 16.4067 2.58377 17.0473 3.41259 17.0473H3.89552C4.3748 17.0473 4.76756 17.4187 4.76756 17.8753V17.9366C4.76756 18.7067 4.09729 18.8498 3.41259 18.8498C1.53512 18.8498 0 17.3982 0 15.623V3.2268C0 1.45155 1.53512 0 3.41259 0ZM4.06846 12.5563C4.63062 12.5563 5.08467 12.9856 5.08467 13.5172C5.08467 14.0487 4.63062 14.4815 4.06846 14.4815C3.50631 14.4815 3.04863 14.0487 3.04863 13.5172C3.04863 12.9856 3.50631 12.5563 4.06846 12.5563ZM4.06846 8.49126C4.63062 8.49126 5.08467 8.924 5.08467 9.45556C5.08467 9.98711 4.63062 10.4199 4.06846 10.4199C3.50631 10.4199 3.04863 9.98711 3.04863 9.45556C3.04863 8.924 3.50631 8.49126 4.06846 8.49126ZM6.94773 6.35822H12.9946C13.5532 6.35822 14.0072 5.92552 14.0072 5.39737C14.0072 4.86922 13.5532 4.43644 12.9946 4.43644H6.94773C6.38918 4.43644 5.93512 4.86922 5.93512 5.39737C5.93512 5.92552 6.38918 6.35822 6.94773 6.35822Z" fill="white"/>
</svg>
