<svg width="18" height="23" viewBox="0 0 18 23" fill="none" xmlns="http://www.w3.org/2000/svg">
<path fill-rule="evenodd" clip-rule="evenodd" d="M2.50334 3H6.72151C7.54933 3 8.22485 3.67864 8.22485 4.51028V10.3252C8.22485 11.1568 7.54933 11.8355 6.72151 11.8355H2.50334C1.67517 11.8355 1 11.1568 1 10.3252V4.51028C1 3.67864 1.67517 3 2.50334 3ZM2.59382 4.60153H6.63068V10.2339H2.59382V4.60153ZM6.63068 14.9816H2.59416V17.3988H6.63068V14.9816ZM15.4058 11.7661H11.3693V17.3988H15.4058V11.7661ZM11.369 4.60153H15.4058V7.01874H11.369V4.60153ZM8.22485 14.8904V17.4901C8.22485 18.3217 7.54933 19 6.72151 19H2.50334C1.67517 19 1 18.3217 1 17.4901V14.8904C1 14.0587 1.67517 13.3804 2.50334 13.3804H6.72151C7.54933 13.3804 8.22485 14.0587 8.22485 14.8904ZM17 11.6748V17.4901C17 18.3217 16.3248 19 15.4967 19H11.2785C10.4503 19 9.77515 18.3217 9.77515 17.4901V11.6748C9.77515 10.8432 10.4503 10.1649 11.2785 10.1649H15.4967C16.3248 10.1649 17 10.8432 17 11.6748ZM11.2785 3H15.4967C16.3245 3 17 3.67864 17 4.51028V7.10998C17 7.94163 16.3245 8.61991 15.4967 8.61991H11.2785C10.4503 8.61991 9.77515 7.94163 9.77515 7.10998V4.51028C9.77515 3.67864 10.4503 3 11.2785 3Z" fill="white"/>
</svg>
