<svg width="18" height="23" viewBox="0 0 18 23" fill="none" xmlns="http://www.w3.org/2000/svg">
<path fill-rule="evenodd" clip-rule="evenodd" d="M4.24206 1H12.1105C13.3585 1 13.9678 1.8983 14.9086 2.76017C16.0393 3.79604 17 4.60091 17 5.86007V17.7891C17 19.5553 15.5408 21 13.7575 21H4.24206C2.45876 21 1 19.5553 1 17.7891V4.21133C1 2.44516 2.45876 1 4.24206 1ZM12.8025 4.44791V3.24489C13.1504 3.55689 13.5057 3.94904 13.6632 4.09304C13.7519 4.17447 13.8968 4.29919 14.0622 4.44791H12.8025ZM10.9023 2.81631V5.38906C10.9023 5.90636 11.3299 6.32979 11.8522 6.32979H15.1665V17.7891C15.1665 18.5528 14.5286 19.1841 13.7575 19.1841H4.24206C3.47093 19.1841 2.8335 18.5528 2.8335 17.7891V4.21133C2.8335 3.44761 3.47093 2.81631 4.24206 2.81631H10.9023ZM4.55926 9.25955H11.0239C11.5467 9.25955 11.9742 8.83611 11.9742 8.31839C11.9742 7.8011 11.5467 7.37766 11.0239 7.37766H4.55926C4.03651 7.37766 3.60897 7.8011 3.60897 8.31839C3.60897 8.83611 4.03651 9.25955 4.55926 9.25955ZM4.55926 12.9312H8.31281C8.83556 12.9312 9.2631 12.5082 9.2631 11.9904C9.2631 11.4727 8.83556 11.0493 8.31281 11.0493H4.55926C4.03651 11.0493 3.60897 11.4727 3.60897 11.9904C3.60897 12.5082 4.03651 12.9312 4.55926 12.9312ZM4.55926 16.6032H11.0239C11.5467 16.6032 11.9742 16.1798 11.9742 15.6625C11.9742 15.1448 11.5467 14.7213 11.0239 14.7213H4.55926C4.03651 14.7213 3.60897 15.1448 3.60897 15.6625C3.60897 16.1798 4.03651 16.6032 4.55926 16.6032Z" fill="white"/>
</svg>
