<svg width="18" height="23" viewBox="0 0 18 23" fill="none" xmlns="http://www.w3.org/2000/svg">
<path fill-rule="evenodd" clip-rule="evenodd" d="M4.11051 1H13.4416C15.1523 1 16.5517 2.39203 16.5517 4.0933V11.6468C16.5517 12.0834 16.1939 12.4392 15.7549 12.4392H15.6103C15.1717 12.4392 14.8136 12.0834 14.8136 11.6468V4.0933C14.8136 3.34239 14.1963 2.72851 13.4416 2.72851H4.11051C3.35584 2.72851 2.73812 3.34239 2.73812 4.0933V15.9804C2.73812 16.7309 3.35584 17.3452 4.11051 17.3452H6.78784C7.22648 17.3452 7.58464 17.701 7.58464 18.1376V18.2813C7.58464 18.7175 7.22648 19.0737 6.78784 19.0737H4.11051C2.39977 19.0737 1 17.6817 1 15.9804V4.0933C1 2.39203 2.39977 1 4.11051 1ZM4.70884 13.0375C5.22164 13.0375 5.63753 13.4511 5.63753 13.9611C5.63753 14.4711 5.22164 14.8846 4.70884 14.8846C4.19604 14.8846 3.78015 14.4711 3.78015 13.9611C3.78015 13.4511 4.19604 13.0375 4.70884 13.0375ZM11.1216 17.0691H12.0789V18.0211C12.0789 18.2859 12.2967 18.5026 12.563 18.5026C12.8289 18.5026 13.0468 18.2859 13.0468 18.0211V17.0691H14.0045C14.2704 17.0691 14.4883 16.8524 14.4883 16.5876C14.4883 16.3228 14.2704 16.1065 14.0045 16.1065H13.0468V15.1541C13.0468 14.8892 12.8289 14.6726 12.563 14.6726C12.2967 14.6726 12.0789 14.8892 12.0789 15.1541V16.1065H11.1216C10.8553 16.1065 10.6374 16.3228 10.6374 16.5876C10.6374 16.8524 10.8553 17.0691 11.1216 17.0691ZM12.563 12.1752C15.0133 12.1752 17 14.1505 17 16.5876C17 19.0247 15.0133 21 12.563 21C10.1124 21 8.12567 19.0247 8.12567 16.5876C8.12567 14.1505 10.1124 12.1752 12.563 12.1752ZM12.563 13.6669C14.1849 13.6669 15.4999 14.9743 15.4999 16.5876C15.4999 18.2009 14.1849 19.5087 12.563 19.5087C10.9408 19.5087 9.62572 18.2009 9.62572 16.5876C9.62572 14.9743 10.9408 13.6669 12.563 13.6669ZM7.33519 10.7593H12.8466C13.3552 10.7593 13.7715 10.3453 13.7715 9.83949C13.7715 9.3333 13.3552 8.9193 12.8466 8.9193H7.33519C6.82661 8.9193 6.4103 9.3333 6.4103 9.83949C6.4103 10.3453 6.82661 10.7593 7.33519 10.7593ZM4.70884 8.91133C5.22164 8.91133 5.63753 9.32492 5.63753 9.83488C5.63753 10.3448 5.22164 10.7584 4.70884 10.7584C4.19604 10.7584 3.78015 10.3448 3.78015 9.83488C3.78015 9.32492 4.19604 8.91133 4.70884 8.91133ZM7.33519 7.09525H12.8466C13.3552 7.09525 13.7715 6.68124 13.7715 6.17505C13.7715 5.66928 13.3552 5.25527 12.8466 5.25527H7.33519C6.82661 5.25527 6.4103 5.66928 6.4103 6.17505C6.4103 6.68124 6.82661 7.09525 7.33519 7.09525ZM4.70884 5.24731C5.22164 5.24731 5.63753 5.6609 5.63753 6.17086C5.63753 6.68082 5.22164 7.09441 4.70884 7.09441C4.19604 7.09441 3.78015 6.68082 3.78015 6.17086C3.78015 5.6609 4.19604 5.24731 4.70884 5.24731Z" fill="white"/>
</svg>
