<svg width="18" height="23" viewBox="0 0 18 23" fill="none" xmlns="http://www.w3.org/2000/svg">
<path fill-rule="evenodd" clip-rule="evenodd" d="M13.6412 6.91259C13.6412 4.19949 11.4829 2 8.82061 2C6.15831 2 4 4.19949 4 6.91259C4 9.48354 5.93745 11.593 8.40534 11.8076H5.5529C3.0487 11.8076 1 14.085 1 16.8689V22H17V16.8689C17 14.0855 14.9513 11.8076 12.4471 11.8076H9.23588C11.7038 11.593 13.6412 9.48354 13.6412 6.91259ZM11.976 6.91259C11.976 5.13679 10.5632 3.69702 8.82061 3.69702C7.07807 3.69702 5.66525 5.13679 5.66525 6.91259C5.66525 8.68883 7.07807 10.1282 8.82061 10.1282C10.5632 10.1282 11.976 8.68883 11.976 6.91259ZM2.77006 18.3808L2.78316 16.5649C2.91331 15.0691 3.98723 13.6115 5.5529 13.6115H12.4471C14.0128 13.6115 15.0867 15.0691 15.2168 16.5649L15.2299 18.3808V20.1962H2.77006V18.3808Z" fill="white"/>
</svg>
