<svg width="17" height="22" viewBox="0 0 17 22" fill="none" xmlns="http://www.w3.org/2000/svg">
<path fill-rule="evenodd" clip-rule="evenodd" d="M7.36596 0C9.81712 0 11.8042 1.98708 11.8042 4.43824C11.8042 6.76192 10.0182 8.66855 7.74439 8.86038H10.5398C10.8137 8.86038 11.0815 8.86159 11.3409 8.91709C11.5894 8.97018 11.7801 9.12661 11.8806 9.35986C11.9811 9.59352 11.9586 9.83602 11.8315 10.056C11.5488 10.5458 11.1205 10.4903 10.5398 10.4903H4.19211C2.75841 10.4903 1.77272 11.7925 1.64443 13.1361C1.64121 13.1361 1.62995 16.1624 1.62995 16.4391H8C8.41865 16.4391 8.76048 16.7805 8.76048 17.1996V17.3086C8.76048 17.7272 8.41865 18.0686 8 18.0686H0V13.4329C0 10.9182 1.88653 8.86038 4.19211 8.86038H6.98752C4.71331 8.66855 2.92732 6.76192 2.92732 4.43824C2.92732 1.98708 4.91439 0 7.36596 0ZM7.36596 1.53303C8.97017 1.53303 10.2712 2.83402 10.2712 4.43824C10.2712 6.04286 8.97017 7.34344 7.36596 7.34344C5.76134 7.34344 4.46076 6.04286 4.46076 4.43824C4.46076 2.83402 5.76134 1.53303 7.36596 1.53303Z" fill="white"/>
<path fill-rule="evenodd" clip-rule="evenodd" d="M15.999 16.6506V20.4574C15.999 20.8443 15.6833 21.16 15.2968 21.16H14.9248C14.7929 21.16 14.6791 21.1234 14.5722 21.0458L13.7638 20.4618C13.5527 20.3098 13.2816 20.3074 13.0677 20.4558L12.2095 21.0522C12.1041 21.1254 11.9939 21.16 11.866 21.16H11.488C11.1011 21.16 10.7854 20.8443 10.7854 20.4574V18.3288C10.7854 17.9974 11.0561 17.7267 11.3875 17.7267H11.4526C11.784 17.7267 12.0546 17.9974 12.0546 18.3288V19.23C12.0546 19.3064 12.0944 19.3724 12.162 19.4078C12.23 19.4436 12.3064 19.4387 12.3695 19.3949L13.3037 18.7478C13.3737 18.6992 13.4622 18.6996 13.5322 18.7478L14.4153 19.3595C14.478 19.4029 14.5549 19.4078 14.6224 19.3724C14.6904 19.3366 14.7302 19.271 14.7302 19.1946V17.5981C14.3196 17.7742 13.8676 17.8723 13.3922 17.8723C11.519 17.8723 10 16.3534 10 14.4801C10 12.6064 11.519 11.0879 13.3922 11.0879C15.2659 11.0879 16.7844 12.6064 16.7844 14.4801C16.7844 15.3057 16.4892 16.0622 15.999 16.6506ZM13.3922 12.5276C14.4708 12.5276 15.3447 13.4015 15.3447 14.4801C15.3447 15.5583 14.4708 16.4326 13.3922 16.4326C12.314 16.4326 11.4397 15.5583 11.4397 14.4801C11.4397 13.4015 12.314 12.5276 13.3922 12.5276Z" fill="white"/>
</svg>
