<svg width="17" height="21" viewBox="0 0 17 21" fill="none" xmlns="http://www.w3.org/2000/svg">
<path fill-rule="evenodd" clip-rule="evenodd" d="M7.46056 0C9.9432 0 11.9558 1.97205 11.9558 4.40468C11.9558 6.71079 10.1469 8.60302 7.84385 8.7934H10.6752C10.9526 8.7934 11.2238 8.7946 11.4866 8.84967C11.7383 8.90236 11.9314 9.05761 12.0332 9.2891C12.135 9.52099 12.1122 9.76166 11.9835 9.97998C11.6971 10.4661 11.2633 10.411 10.6752 10.411H4.24595C2.79384 10.411 1.79549 11.7034 1.66555 13.0368C1.66229 13.0368 1.65089 16.0402 1.65089 16.3148H8.10275C8.52677 16.3148 8.873 16.6536 8.873 17.0695V17.1777C8.873 17.5932 8.52677 17.932 8.10275 17.932H0V13.3314C0 10.8357 1.91076 8.7934 4.24595 8.7934H7.07727C4.77385 8.60302 2.96492 6.71079 2.96492 4.40468C2.96492 1.97205 4.97751 0 7.46056 0ZM7.46056 1.52144C9.08538 1.52144 10.4031 2.8126 10.4031 4.40468C10.4031 5.99717 9.08538 7.28792 7.46056 7.28792C5.83533 7.28792 4.51805 5.99717 4.51805 4.40468C4.51805 2.8126 5.83533 1.52144 7.46056 1.52144Z" fill="white"/>
<path fill-rule="evenodd" clip-rule="evenodd" d="M16.2045 16.5245V20.3026C16.2045 20.6865 15.8847 20.9998 15.4933 20.9998H15.1165C14.9829 20.9998 14.8676 20.9635 14.7593 20.8865L13.9406 20.307C13.7267 20.1561 13.4522 20.1537 13.2355 20.301L12.3663 20.8929C12.2595 20.9655 12.1479 20.9998 12.0184 20.9998H11.6355C11.2437 20.9998 10.9239 20.6865 10.9239 20.3026V18.19C10.9239 17.8612 11.1981 17.5926 11.5337 17.5926H11.5997C11.9353 17.5926 12.2094 17.8612 12.2094 18.19V19.0845C12.2094 19.1603 12.2498 19.2258 12.3182 19.2609C12.387 19.2964 12.4644 19.2916 12.5284 19.2481L13.4746 18.6059C13.5455 18.5576 13.6351 18.558 13.7059 18.6059L14.6004 19.213C14.664 19.2561 14.7418 19.2609 14.8102 19.2258C14.879 19.1902 14.9194 19.1252 14.9194 19.0493V17.4648C14.5035 17.6397 14.0457 17.737 13.5642 17.737C11.6669 17.737 10.1284 16.2296 10.1284 14.3705C10.1284 12.511 11.6669 11.0039 13.5642 11.0039C15.4619 11.0039 17 12.511 17 14.3705C17 15.1899 16.701 15.9406 16.2045 16.5245ZM13.5642 12.4328C14.6566 12.4328 15.5418 13.3 15.5418 14.3705C15.5418 15.4405 14.6566 16.3082 13.5642 16.3082C12.4722 16.3082 11.5866 15.4405 11.5866 14.3705C11.5866 13.3 12.4722 12.4328 13.5642 12.4328Z" fill="white"/>
</svg>
