<svg width="18" height="23" viewBox="0 0 18 23" fill="none" xmlns="http://www.w3.org/2000/svg">
<path fill-rule="evenodd" clip-rule="evenodd" d="M9 2C13.9707 2 18 6.08622 18 11.1268C18 12.63 17.6413 14.0484 17.0065 15.2987C16.8934 15.5212 16.9102 15.7714 17.0522 15.9765C17.4113 16.4949 17.6225 17.1268 17.6225 17.8086C17.6225 19.5713 16.2132 21 14.4753 21C13.5945 21 12.7985 20.6331 12.227 20.0417C12.0545 19.8632 11.8155 19.8006 11.5792 19.8723C10.7621 20.1199 9.89652 20.2531 9 20.2531C4.02925 20.2531 0 16.1669 0 11.1268C0 6.08622 4.02925 2 9 2ZM11.4967 11.9101C11.345 12.1279 11.264 12.2576 11.1924 12.5598C10.989 13.4225 10.9933 14.5704 11.0234 15.6358C11.0332 15.988 10.9155 16.295 10.673 16.5477C10.4308 16.8003 10.132 16.9285 9.78426 16.9285H8.13282C7.78548 16.9285 7.48624 16.8003 7.24412 16.5477C7.00199 16.295 6.88387 15.988 6.89404 15.6358C6.92494 14.5272 6.92885 13.302 6.7016 12.471C6.60498 12.1168 6.43483 11.9438 6.23886 11.6468C5.76674 10.9316 5.57978 10.4009 5.57978 9.53979C5.57978 7.6248 7.11152 6.07194 9 6.07194C10.8885 6.07194 12.4202 7.62519 12.4202 9.53979C12.4202 10.4239 12.0901 11.268 11.4967 11.9101ZM8.09487 12.4829H9.8222C9.96888 11.6813 10.2044 11.379 10.45 11.028C10.8286 10.6484 11.0629 10.1221 11.0629 9.53979C11.0629 8.38437 10.1394 7.44789 9 7.44789C7.86058 7.44789 6.93707 8.38437 6.93707 9.53979C6.93707 10.0872 7.01843 10.3537 7.36655 10.8812C7.6474 11.3064 7.92785 11.573 8.09487 12.4829ZM9.68765 13.8398H8.22943C8.24938 14.3106 8.25447 14.8734 8.24039 15.5521H8.95854H9.6763C9.66261 14.8734 9.66731 14.3106 9.68765 13.8398ZM15.348 14.7418C15.941 13.6732 16.2797 12.44 16.2797 11.1268C16.2797 7.04967 13.0203 3.74483 9 3.74483C4.97975 3.74483 1.72028 7.04967 1.72028 11.1268C1.72028 15.2035 4.97975 18.5087 9 18.5087C9.81985 18.5087 10.6076 18.3711 11.343 18.1176L11.3418 18.1085C11.5781 18.0272 11.8089 17.9336 12.0334 17.8288C12.2117 17.7459 12.3975 17.7459 12.5755 17.8296C12.7539 17.9133 12.8743 18.0569 12.9272 18.2485C13.1165 18.9351 13.7376 19.4388 14.4753 19.4388C15.3629 19.4388 16.0826 18.709 16.0826 17.8086C16.0826 17.1664 15.7161 16.6107 15.1837 16.3454C15.0077 16.2573 14.8903 16.111 14.8422 15.9182C14.7937 15.7254 14.8274 15.5402 14.9408 15.3776C15.084 15.1721 15.217 14.9591 15.339 14.739L15.348 14.7418Z" fill="white"/>
</svg>
