<svg width="192" height="64" viewBox="0 0 192 64" fill="none" xmlns="http://www.w3.org/2000/svg">
<path d="M23.5 32.45C19.72 32.45 16.045 31.925 12.475 30.875L13.195 27.275C16.945 28.175 20.38 28.625 23.5 28.625C25.63 28.625 27.25 28.16 28.36 27.23C29.47 26.3 30.025 25.16 30.025 23.81C30.025 23 29.83 22.295 29.44 21.695C29.05 21.065 28.45 20.54 27.64 20.12C26.86 19.7 26.155 19.4 25.525 19.22C24.925 19.01 24.1 18.755 23.05 18.455C22.96 18.425 22.885 18.41 22.825 18.41C22.765 18.38 22.69 18.365 22.6 18.365C22.51 18.335 22.435 18.305 22.375 18.275C19.585 17.555 17.305 16.445 15.535 14.945C13.795 13.415 12.925 11.45 12.925 9.05C12.925 6.29 13.9 4.25 15.85 2.93C17.8 1.61 20.35 0.949997 23.5 0.949997C26.83 0.949997 30.28 1.475 33.85 2.525L32.86 6.125C29.14 5.225 26.02 4.775 23.5 4.775C21.4 4.775 19.855 5.18 18.865 5.99C17.905 6.8 17.425 7.865 17.425 9.185C17.425 9.995 17.65 10.73 18.1 11.39C18.58 12.02 19.255 12.545 20.125 12.965C21.025 13.385 21.835 13.715 22.555 13.955C23.275 14.165 24.19 14.405 25.3 14.675C31.45 16.085 34.525 19.01 34.525 23.45C34.525 26.39 33.505 28.625 31.465 30.155C29.455 31.685 26.8 32.45 23.5 32.45ZM43.0838 32H38.8088V1.4H43.0838V32ZM60.9889 32.45C58.9489 32.45 57.1489 32.18 55.5889 31.64C54.0589 31.07 52.8139 30.32 51.8539 29.39C50.8939 28.43 50.1139 27.26 49.5139 25.88C48.9139 24.47 48.4939 23.015 48.2539 21.515C48.0439 20.015 47.9389 18.335 47.9389 16.475C47.9389 14.195 48.1339 12.185 48.5239 10.445C48.9139 8.675 49.5739 7.055 50.5039 5.585C51.4339 4.085 52.7839 2.945 54.5539 2.165C56.3239 1.355 58.4689 0.949997 60.9889 0.949997C64.3189 0.949997 67.7689 1.475 71.3389 2.525L70.3489 6.125C66.6289 5.225 63.6139 4.775 61.3039 4.775C59.5939 4.775 58.1389 5.075 56.9389 5.675C55.7689 6.245 54.8539 7.085 54.1939 8.195C53.5639 9.305 53.1139 10.535 52.8439 11.885C52.5739 13.205 52.4389 14.735 52.4389 16.475C52.4389 20.345 53.0839 23.345 54.3739 25.475C55.6939 27.575 58.0039 28.625 61.3039 28.625C63.3139 28.625 65.2339 28.13 67.0639 27.14V20.075H61.2139V16.25H71.3389V30.02C69.4189 30.83 67.6939 31.445 66.1639 31.865C64.6639 32.255 62.9389 32.45 60.9889 32.45ZM97.153 32L94.633 24.26H82.933L80.323 32H75.823L86.353 1.175H91.618L101.923 32H97.153ZM88.918 6.53H88.828L83.833 20.66H93.733L88.918 6.53ZM126.556 1.4V6.935H112.066V13.46H124.531V18.95H112.066V26.51H126.781V32H105.856V1.4H126.556ZM149.486 32L142.871 21.2H142.781L136.661 32H129.776L139.001 16.115L130.271 1.4H137.516L143.186 11.03H143.276L148.811 1.4H156.011L147.281 16.115L156.866 32H149.486ZM181.679 6.935H173.669V32H167.459V6.935H159.404V1.4H181.679V6.935Z" fill="#001A35"/>
<path d="M15.101 50.09C14.579 50.09 14.141 50.012 13.787 49.856C13.433 49.694 13.16 49.487 12.968 49.235C12.782 48.977 12.683 48.704 12.671 48.416C12.671 48.368 12.689 48.326 12.725 48.29C12.767 48.248 12.815 48.227 12.869 48.227H13.328C13.4 48.227 13.454 48.245 13.49 48.281C13.526 48.317 13.55 48.359 13.562 48.407C13.592 48.551 13.664 48.695 13.778 48.839C13.898 48.977 14.063 49.094 14.273 49.19C14.489 49.28 14.765 49.325 15.101 49.325C15.617 49.325 15.995 49.235 16.235 49.055C16.481 48.869 16.604 48.623 16.604 48.317C16.604 48.107 16.538 47.939 16.406 47.813C16.28 47.681 16.085 47.564 15.821 47.462C15.557 47.36 15.215 47.249 14.795 47.129C14.357 47.003 13.994 46.865 13.706 46.715C13.418 46.565 13.202 46.379 13.058 46.157C12.92 45.935 12.851 45.653 12.851 45.311C12.851 44.987 12.938 44.699 13.112 44.447C13.286 44.189 13.535 43.985 13.859 43.835C14.189 43.685 14.588 43.61 15.056 43.61C15.428 43.61 15.752 43.661 16.028 43.763C16.31 43.859 16.544 43.991 16.73 44.159C16.916 44.321 17.057 44.498 17.153 44.69C17.249 44.876 17.3 45.059 17.306 45.239C17.306 45.281 17.291 45.323 17.261 45.365C17.231 45.401 17.183 45.419 17.117 45.419H16.64C16.598 45.419 16.553 45.407 16.505 45.383C16.463 45.359 16.43 45.314 16.406 45.248C16.37 45.002 16.232 44.795 15.992 44.627C15.752 44.459 15.44 44.375 15.056 44.375C14.666 44.375 14.348 44.45 14.102 44.6C13.862 44.75 13.742 44.984 13.742 45.302C13.742 45.506 13.799 45.677 13.913 45.815C14.027 45.947 14.207 46.064 14.453 46.166C14.699 46.268 15.02 46.376 15.416 46.49C15.896 46.622 16.289 46.763 16.595 46.913C16.901 47.057 17.126 47.24 17.27 47.462C17.42 47.678 17.495 47.957 17.495 48.299C17.495 48.677 17.396 49.001 17.198 49.271C17 49.535 16.721 49.739 16.361 49.883C16.007 50.021 15.587 50.09 15.101 50.09ZM18.8816 50C18.8156 50 18.7646 49.982 18.7286 49.946C18.6926 49.904 18.6746 49.853 18.6746 49.793V43.907C18.6746 43.847 18.6926 43.799 18.7286 43.763C18.7646 43.721 18.8156 43.7 18.8816 43.7H19.3586C19.4186 43.7 19.4666 43.721 19.5026 43.763C19.5446 43.799 19.5656 43.847 19.5656 43.907V49.793C19.5656 49.853 19.5446 49.904 19.5026 49.946C19.4666 49.982 19.4186 50 19.3586 50H18.8816ZM23.1605 50.09C22.6385 50.09 22.2005 50.012 21.8465 49.856C21.4925 49.694 21.2195 49.487 21.0275 49.235C20.8415 48.977 20.7425 48.704 20.7305 48.416C20.7305 48.368 20.7485 48.326 20.7845 48.29C20.8265 48.248 20.8745 48.227 20.9285 48.227H21.3875C21.4595 48.227 21.5135 48.245 21.5495 48.281C21.5855 48.317 21.6095 48.359 21.6215 48.407C21.6515 48.551 21.7235 48.695 21.8375 48.839C21.9575 48.977 22.1225 49.094 22.3325 49.19C22.5485 49.28 22.8245 49.325 23.1605 49.325C23.6765 49.325 24.0545 49.235 24.2945 49.055C24.5405 48.869 24.6635 48.623 24.6635 48.317C24.6635 48.107 24.5975 47.939 24.4655 47.813C24.3395 47.681 24.1445 47.564 23.8805 47.462C23.6165 47.36 23.2745 47.249 22.8545 47.129C22.4165 47.003 22.0535 46.865 21.7655 46.715C21.4775 46.565 21.2615 46.379 21.1175 46.157C20.9795 45.935 20.9105 45.653 20.9105 45.311C20.9105 44.987 20.9975 44.699 21.1715 44.447C21.3455 44.189 21.5945 43.985 21.9185 43.835C22.2485 43.685 22.6475 43.61 23.1155 43.61C23.4875 43.61 23.8115 43.661 24.0875 43.763C24.3695 43.859 24.6035 43.991 24.7895 44.159C24.9755 44.321 25.1165 44.498 25.2125 44.69C25.3085 44.876 25.3595 45.059 25.3655 45.239C25.3655 45.281 25.3505 45.323 25.3205 45.365C25.2905 45.401 25.2425 45.419 25.1765 45.419H24.6995C24.6575 45.419 24.6125 45.407 24.5645 45.383C24.5225 45.359 24.4895 45.314 24.4655 45.248C24.4295 45.002 24.2915 44.795 24.0515 44.627C23.8115 44.459 23.4995 44.375 23.1155 44.375C22.7255 44.375 22.4075 44.45 22.1615 44.6C21.9215 44.75 21.8015 44.984 21.8015 45.302C21.8015 45.506 21.8585 45.677 21.9725 45.815C22.0865 45.947 22.2665 46.064 22.5125 46.166C22.7585 46.268 23.0795 46.376 23.4755 46.49C23.9555 46.622 24.3485 46.763 24.6545 46.913C24.9605 47.057 25.1855 47.24 25.3295 47.462C25.4795 47.678 25.5545 47.957 25.5545 48.299C25.5545 48.677 25.4555 49.001 25.2575 49.271C25.0595 49.535 24.7805 49.739 24.4205 49.883C24.0665 50.021 23.6465 50.09 23.1605 50.09ZM28.2479 50C28.1879 50 28.1369 49.982 28.0949 49.946C28.0589 49.904 28.0409 49.853 28.0409 49.793V44.501H26.3129C26.2529 44.501 26.2019 44.483 26.1599 44.447C26.1239 44.405 26.1059 44.354 26.1059 44.294V43.916C26.1059 43.85 26.1239 43.799 26.1599 43.763C26.2019 43.721 26.2529 43.7 26.3129 43.7H30.6509C30.7169 43.7 30.7679 43.721 30.8039 43.763C30.8459 43.799 30.8669 43.85 30.8669 43.916V44.294C30.8669 44.354 30.8459 44.405 30.8039 44.447C30.7679 44.483 30.7169 44.501 30.6509 44.501H28.9319V49.793C28.9319 49.853 28.9109 49.904 28.8689 49.946C28.8329 49.982 28.7819 50 28.7159 50H28.2479ZM32.0828 50C32.0168 50 31.9658 49.982 31.9298 49.946C31.8938 49.904 31.8758 49.853 31.8758 49.793V43.916C31.8758 43.85 31.8938 43.799 31.9298 43.763C31.9658 43.721 32.0168 43.7 32.0828 43.7H35.7998C35.8658 43.7 35.9168 43.721 35.9528 43.763C35.9888 43.799 36.0068 43.85 36.0068 43.916V44.258C36.0068 44.324 35.9888 44.375 35.9528 44.411C35.9168 44.447 35.8658 44.465 35.7998 44.465H32.7398V46.436H35.6018C35.6678 46.436 35.7188 46.457 35.7548 46.499C35.7908 46.535 35.8088 46.586 35.8088 46.652V46.985C35.8088 47.045 35.7908 47.096 35.7548 47.138C35.7188 47.174 35.6678 47.192 35.6018 47.192H32.7398V49.235H35.8718C35.9378 49.235 35.9888 49.253 36.0248 49.289C36.0608 49.325 36.0788 49.376 36.0788 49.442V49.793C36.0788 49.853 36.0608 49.904 36.0248 49.946C35.9888 49.982 35.9378 50 35.8718 50H32.0828ZM37.5408 50C37.4808 50 37.4298 49.982 37.3878 49.946C37.3518 49.904 37.3338 49.853 37.3338 49.793V43.916C37.3338 43.85 37.3518 43.799 37.3878 43.763C37.4298 43.721 37.4808 43.7 37.5408 43.7H37.9908C38.0628 43.7 38.1168 43.718 38.1528 43.754C38.1888 43.79 38.2098 43.82 38.2158 43.844L40.1238 47.48L42.0408 43.844C42.0528 43.82 42.0738 43.79 42.1038 43.754C42.1398 43.718 42.1938 43.7 42.2658 43.7H42.7068C42.7728 43.7 42.8238 43.721 42.8598 43.763C42.9018 43.799 42.9228 43.85 42.9228 43.916V49.793C42.9228 49.853 42.9018 49.904 42.8598 49.946C42.8238 49.982 42.7728 50 42.7068 50H42.2658C42.2058 50 42.1548 49.982 42.1128 49.946C42.0768 49.904 42.0588 49.853 42.0588 49.793V45.365L40.5558 48.299C40.5318 48.359 40.4958 48.407 40.4478 48.443C40.3998 48.473 40.3398 48.488 40.2678 48.488H39.9888C39.9108 48.488 39.8478 48.473 39.7998 48.443C39.7578 48.407 39.7218 48.359 39.6918 48.299L38.1888 45.365V49.793C38.1888 49.853 38.1678 49.904 38.1258 49.946C38.0898 49.982 38.0418 50 37.9818 50H37.5408ZM44.0563 50C44.0083 50 43.9663 49.982 43.9303 49.946C43.8943 49.91 43.8763 49.868 43.8763 49.82C43.8763 49.79 43.8793 49.757 43.8853 49.721L46.1173 43.898C46.1413 43.838 46.1743 43.79 46.2163 43.754C46.2583 43.718 46.3213 43.7 46.4053 43.7H47.0173C47.0953 43.7 47.1553 43.718 47.1973 43.754C47.2453 43.79 47.2813 43.838 47.3053 43.898L49.5283 49.721C49.5403 49.757 49.5463 49.79 49.5463 49.82C49.5463 49.868 49.5283 49.91 49.4923 49.946C49.4563 49.982 49.4143 50 49.3663 50H48.9073C48.8353 50 48.7813 49.982 48.7453 49.946C48.7153 49.91 48.6943 49.877 48.6823 49.847L48.1873 48.569H45.2353L44.7403 49.847C44.7343 49.877 44.7133 49.91 44.6773 49.946C44.6413 49.982 44.5873 50 44.5153 50H44.0563ZM45.4963 47.795H47.9263L46.7113 44.6L45.4963 47.795ZM52.6843 50C52.6183 50 52.5673 49.982 52.5313 49.946C52.4953 49.904 52.4773 49.853 52.4773 49.793V43.916C52.4773 43.85 52.4953 43.799 52.5313 43.763C52.5673 43.721 52.6183 43.7 52.6843 43.7H54.7273C55.3453 43.7 55.8433 43.793 56.2213 43.979C56.5993 44.165 56.8753 44.441 57.0493 44.807C57.2233 45.167 57.3133 45.611 57.3193 46.139C57.3253 46.409 57.3283 46.646 57.3283 46.85C57.3283 47.054 57.3253 47.288 57.3193 47.552C57.3073 48.104 57.2143 48.563 57.0403 48.929C56.8723 49.289 56.6023 49.559 56.2303 49.739C55.8643 49.913 55.3783 50 54.7723 50H52.6843ZM53.3593 49.235H54.7273C55.1413 49.235 55.4713 49.178 55.7173 49.064C55.9633 48.95 56.1403 48.767 56.2483 48.515C56.3623 48.263 56.4223 47.93 56.4283 47.516C56.4403 47.336 56.4463 47.18 56.4463 47.048C56.4463 46.91 56.4463 46.775 56.4463 46.643C56.4463 46.505 56.4403 46.349 56.4283 46.175C56.4163 45.593 56.2783 45.164 56.0143 44.888C55.7503 44.606 55.3063 44.465 54.6823 44.465H53.3593V49.235ZM58.8894 50C58.8234 50 58.7724 49.982 58.7364 49.946C58.7004 49.904 58.6824 49.853 58.6824 49.793V43.916C58.6824 43.85 58.7004 43.799 58.7364 43.763C58.7724 43.721 58.8234 43.7 58.8894 43.7H62.6064C62.6724 43.7 62.7234 43.721 62.7594 43.763C62.7954 43.799 62.8134 43.85 62.8134 43.916V44.258C62.8134 44.324 62.7954 44.375 62.7594 44.411C62.7234 44.447 62.6724 44.465 62.6064 44.465H59.5464V46.436H62.4084C62.4744 46.436 62.5254 46.457 62.5614 46.499C62.5974 46.535 62.6154 46.586 62.6154 46.652V46.985C62.6154 47.045 62.5974 47.096 62.5614 47.138C62.5254 47.174 62.4744 47.192 62.4084 47.192H59.5464V49.235H62.6784C62.7444 49.235 62.7954 49.253 62.8314 49.289C62.8674 49.325 62.8854 49.376 62.8854 49.442V49.793C62.8854 49.853 62.8674 49.904 62.8314 49.946C62.7954 49.982 62.7444 50 62.6784 50H58.8894ZM68.6325 50.09C68.1045 50.09 67.6545 49.991 67.2825 49.793C66.9165 49.595 66.6345 49.316 66.4365 48.956C66.2445 48.596 66.1365 48.173 66.1125 47.687C66.1065 47.423 66.1035 47.144 66.1035 46.85C66.1035 46.55 66.1065 46.265 66.1125 45.995C66.1365 45.509 66.2445 45.089 66.4365 44.735C66.6345 44.381 66.9195 44.105 67.2915 43.907C67.6635 43.709 68.1105 43.61 68.6325 43.61C69.0585 43.61 69.4275 43.67 69.7395 43.79C70.0515 43.91 70.3065 44.063 70.5045 44.249C70.7085 44.429 70.8585 44.618 70.9545 44.816C71.0565 45.014 71.1105 45.188 71.1165 45.338C71.1225 45.392 71.1075 45.437 71.0715 45.473C71.0355 45.503 70.9875 45.518 70.9275 45.518H70.3965C70.3365 45.518 70.2915 45.506 70.2615 45.482C70.2375 45.458 70.2135 45.416 70.1895 45.356C70.1355 45.2 70.0455 45.047 69.9195 44.897C69.7995 44.747 69.6345 44.624 69.4245 44.528C69.2205 44.426 68.9565 44.375 68.6325 44.375C68.1585 44.375 67.7745 44.504 67.4805 44.762C67.1925 45.02 67.0365 45.446 67.0125 46.04C66.9945 46.574 66.9945 47.108 67.0125 47.642C67.0365 48.242 67.1955 48.674 67.4895 48.938C67.7835 49.196 68.1675 49.325 68.6415 49.325C68.9595 49.325 69.2415 49.268 69.4875 49.154C69.7395 49.034 69.9375 48.851 70.0815 48.605C70.2255 48.359 70.2975 48.047 70.2975 47.669V47.291H68.9475C68.8875 47.291 68.8365 47.273 68.7945 47.237C68.7585 47.195 68.7405 47.141 68.7405 47.075V46.787C68.7405 46.721 68.7585 46.67 68.7945 46.634C68.8365 46.592 68.8875 46.571 68.9475 46.571H70.9815C71.0475 46.571 71.0985 46.592 71.1345 46.634C71.1705 46.67 71.1885 46.721 71.1885 46.787V47.651C71.1885 48.143 71.0865 48.572 70.8825 48.938C70.6845 49.304 70.3935 49.589 70.0095 49.793C69.6255 49.991 69.1665 50.09 68.6325 50.09ZM72.6795 50C72.6135 50 72.5625 49.982 72.5265 49.946C72.4905 49.904 72.4725 49.853 72.4725 49.793V43.916C72.4725 43.85 72.4905 43.799 72.5265 43.763C72.5625 43.721 72.6135 43.7 72.6795 43.7H76.3965C76.4625 43.7 76.5135 43.721 76.5495 43.763C76.5855 43.799 76.6035 43.85 76.6035 43.916V44.258C76.6035 44.324 76.5855 44.375 76.5495 44.411C76.5135 44.447 76.4625 44.465 76.3965 44.465H73.3365V46.436H76.1985C76.2645 46.436 76.3155 46.457 76.3515 46.499C76.3875 46.535 76.4055 46.586 76.4055 46.652V46.985C76.4055 47.045 76.3875 47.096 76.3515 47.138C76.3155 47.174 76.2645 47.192 76.1985 47.192H73.3365V49.235H76.4685C76.5345 49.235 76.5855 49.253 76.6215 49.289C76.6575 49.325 76.6755 49.376 76.6755 49.442V49.793C76.6755 49.853 76.6575 49.904 76.6215 49.946C76.5855 49.982 76.5345 50 76.4685 50H72.6795ZM79.9555 50.09C79.4335 50.09 78.9955 50.012 78.6415 49.856C78.2875 49.694 78.0145 49.487 77.8225 49.235C77.6365 48.977 77.5375 48.704 77.5255 48.416C77.5255 48.368 77.5435 48.326 77.5795 48.29C77.6215 48.248 77.6695 48.227 77.7235 48.227H78.1825C78.2545 48.227 78.3085 48.245 78.3445 48.281C78.3805 48.317 78.4045 48.359 78.4165 48.407C78.4465 48.551 78.5185 48.695 78.6325 48.839C78.7525 48.977 78.9175 49.094 79.1275 49.19C79.3435 49.28 79.6195 49.325 79.9555 49.325C80.4715 49.325 80.8495 49.235 81.0895 49.055C81.3355 48.869 81.4585 48.623 81.4585 48.317C81.4585 48.107 81.3925 47.939 81.2605 47.813C81.1345 47.681 80.9395 47.564 80.6755 47.462C80.4115 47.36 80.0695 47.249 79.6495 47.129C79.2115 47.003 78.8485 46.865 78.5605 46.715C78.2725 46.565 78.0565 46.379 77.9125 46.157C77.7745 45.935 77.7055 45.653 77.7055 45.311C77.7055 44.987 77.7925 44.699 77.9665 44.447C78.1405 44.189 78.3895 43.985 78.7135 43.835C79.0435 43.685 79.4425 43.61 79.9105 43.61C80.2825 43.61 80.6065 43.661 80.8825 43.763C81.1645 43.859 81.3985 43.991 81.5845 44.159C81.7705 44.321 81.9115 44.498 82.0075 44.69C82.1035 44.876 82.1545 45.059 82.1605 45.239C82.1605 45.281 82.1455 45.323 82.1155 45.365C82.0855 45.401 82.0375 45.419 81.9715 45.419H81.4945C81.4525 45.419 81.4075 45.407 81.3595 45.383C81.3175 45.359 81.2845 45.314 81.2605 45.248C81.2245 45.002 81.0865 44.795 80.8465 44.627C80.6065 44.459 80.2945 44.375 79.9105 44.375C79.5205 44.375 79.2025 44.45 78.9565 44.6C78.7165 44.75 78.5965 44.984 78.5965 45.302C78.5965 45.506 78.6535 45.677 78.7675 45.815C78.8815 45.947 79.0615 46.064 79.3075 46.166C79.5535 46.268 79.8745 46.376 80.2705 46.49C80.7505 46.622 81.1435 46.763 81.4495 46.913C81.7555 47.057 81.9805 47.24 82.1245 47.462C82.2745 47.678 82.3495 47.957 82.3495 48.299C82.3495 48.677 82.2505 49.001 82.0525 49.271C81.8545 49.535 81.5755 49.739 81.2155 49.883C80.8615 50.021 80.4415 50.09 79.9555 50.09ZM85.0428 50C84.9828 50 84.9318 49.982 84.8898 49.946C84.8538 49.904 84.8358 49.853 84.8358 49.793V44.501H83.1078C83.0478 44.501 82.9968 44.483 82.9548 44.447C82.9188 44.405 82.9008 44.354 82.9008 44.294V43.916C82.9008 43.85 82.9188 43.799 82.9548 43.763C82.9968 43.721 83.0478 43.7 83.1078 43.7H87.4458C87.5118 43.7 87.5628 43.721 87.5988 43.763C87.6408 43.799 87.6618 43.85 87.6618 43.916V44.294C87.6618 44.354 87.6408 44.405 87.5988 44.447C87.5628 44.483 87.5118 44.501 87.4458 44.501H85.7268V49.793C85.7268 49.853 85.7058 49.904 85.6638 49.946C85.6278 49.982 85.5768 50 85.5108 50H85.0428ZM87.5797 50C87.5317 50 87.4897 49.982 87.4537 49.946C87.4177 49.91 87.3997 49.868 87.3997 49.82C87.3997 49.79 87.4027 49.757 87.4087 49.721L89.6407 43.898C89.6647 43.838 89.6977 43.79 89.7397 43.754C89.7817 43.718 89.8447 43.7 89.9287 43.7H90.5407C90.6187 43.7 90.6787 43.718 90.7207 43.754C90.7687 43.79 90.8047 43.838 90.8287 43.898L93.0517 49.721C93.0637 49.757 93.0697 49.79 93.0697 49.82C93.0697 49.868 93.0517 49.91 93.0157 49.946C92.9797 49.982 92.9377 50 92.8897 50H92.4307C92.3587 50 92.3047 49.982 92.2687 49.946C92.2387 49.91 92.2177 49.877 92.2057 49.847L91.7107 48.569H88.7587L88.2637 49.847C88.2577 49.877 88.2367 49.91 88.2007 49.946C88.1647 49.982 88.1107 50 88.0387 50H87.5797ZM89.0197 47.795H91.4497L90.2347 44.6L89.0197 47.795ZM90.7027 43.295C90.5587 43.295 90.4357 43.271 90.3337 43.223C90.2317 43.169 90.1387 43.118 90.0547 43.07C89.9767 43.016 89.8897 42.989 89.7937 42.989C89.7277 42.989 89.6767 43.01 89.6407 43.052C89.6107 43.094 89.5807 43.139 89.5507 43.187C89.5267 43.229 89.4817 43.25 89.4157 43.25H89.1277C89.0857 43.25 89.0497 43.235 89.0197 43.205C88.9897 43.175 88.9747 43.142 88.9747 43.106C88.9747 43.016 88.9897 42.923 89.0197 42.827C89.0557 42.725 89.1067 42.632 89.1727 42.548C89.2447 42.464 89.3287 42.398 89.4247 42.35C89.5207 42.296 89.6287 42.269 89.7487 42.269C89.8987 42.269 90.0247 42.296 90.1267 42.35C90.2287 42.398 90.3217 42.449 90.4057 42.503C90.4897 42.551 90.5767 42.575 90.6667 42.575C90.7387 42.575 90.7897 42.554 90.8197 42.512C90.8497 42.464 90.8767 42.419 90.9007 42.377C90.9307 42.329 90.9787 42.305 91.0447 42.305H91.3327C91.3807 42.305 91.4167 42.32 91.4407 42.35C91.4707 42.38 91.4857 42.416 91.4857 42.458C91.4857 42.542 91.4677 42.635 91.4317 42.737C91.3957 42.833 91.3417 42.923 91.2697 43.007C91.2037 43.091 91.1227 43.16 91.0267 43.214C90.9307 43.268 90.8227 43.295 90.7027 43.295ZM96.1768 50.09C95.6668 50.09 95.2288 50.003 94.8628 49.829C94.4968 49.649 94.2148 49.376 94.0168 49.01C93.8188 48.638 93.7078 48.173 93.6838 47.615C93.6778 47.351 93.6748 47.099 93.6748 46.859C93.6748 46.613 93.6778 46.358 93.6838 46.094C93.7078 45.542 93.8218 45.083 94.0258 44.717C94.2358 44.345 94.5238 44.069 94.8898 43.889C95.2618 43.703 95.6908 43.61 96.1768 43.61C96.6688 43.61 97.0978 43.703 97.4638 43.889C97.8358 44.069 98.1268 44.345 98.3368 44.717C98.5468 45.083 98.6608 45.542 98.6788 46.094C98.6908 46.358 98.6968 46.613 98.6968 46.859C98.6968 47.099 98.6908 47.351 98.6788 47.615C98.6608 48.173 98.5498 48.638 98.3458 49.01C98.1478 49.376 97.8658 49.649 97.4998 49.829C97.1338 50.003 96.6928 50.09 96.1768 50.09ZM96.1768 49.325C96.6388 49.325 97.0138 49.187 97.3018 48.911C97.5958 48.635 97.7548 48.188 97.7788 47.57C97.7908 47.3 97.7968 47.06 97.7968 46.85C97.7968 46.634 97.7908 46.394 97.7788 46.13C97.7668 45.716 97.6888 45.38 97.5448 45.122C97.4068 44.864 97.2208 44.675 96.9868 44.555C96.7528 44.435 96.4828 44.375 96.1768 44.375C95.8828 44.375 95.6188 44.435 95.3848 44.555C95.1508 44.675 94.9618 44.864 94.8178 45.122C94.6798 45.38 94.6018 45.716 94.5838 46.13C94.5778 46.394 94.5748 46.634 94.5748 46.85C94.5748 47.06 94.5778 47.3 94.5838 47.57C94.6078 48.188 94.7668 48.635 95.0608 48.911C95.3548 49.187 95.7268 49.325 96.1768 49.325ZM102.422 50C102.356 50 102.305 49.982 102.269 49.946C102.233 49.904 102.215 49.853 102.215 49.793V43.916C102.215 43.85 102.233 43.799 102.269 43.763C102.305 43.721 102.356 43.7 102.422 43.7H104.465C105.083 43.7 105.581 43.793 105.959 43.979C106.337 44.165 106.613 44.441 106.787 44.807C106.961 45.167 107.051 45.611 107.057 46.139C107.063 46.409 107.066 46.646 107.066 46.85C107.066 47.054 107.063 47.288 107.057 47.552C107.045 48.104 106.952 48.563 106.778 48.929C106.61 49.289 106.34 49.559 105.968 49.739C105.602 49.913 105.116 50 104.51 50H102.422ZM103.097 49.235H104.465C104.879 49.235 105.209 49.178 105.455 49.064C105.701 48.95 105.878 48.767 105.986 48.515C106.1 48.263 106.16 47.93 106.166 47.516C106.178 47.336 106.184 47.18 106.184 47.048C106.184 46.91 106.184 46.775 106.184 46.643C106.184 46.505 106.178 46.349 106.166 46.175C106.154 45.593 106.016 45.164 105.752 44.888C105.488 44.606 105.044 44.465 104.42 44.465H103.097V49.235ZM108.627 50C108.561 50 108.51 49.982 108.474 49.946C108.438 49.904 108.42 49.853 108.42 49.793V43.916C108.42 43.85 108.438 43.799 108.474 43.763C108.51 43.721 108.561 43.7 108.627 43.7H112.344C112.41 43.7 112.461 43.721 112.497 43.763C112.533 43.799 112.551 43.85 112.551 43.916V44.258C112.551 44.324 112.533 44.375 112.497 44.411C112.461 44.447 112.41 44.465 112.344 44.465H109.284V46.436H112.146C112.212 46.436 112.263 46.457 112.299 46.499C112.335 46.535 112.353 46.586 112.353 46.652V46.985C112.353 47.045 112.335 47.096 112.299 47.138C112.263 47.174 112.212 47.192 112.146 47.192H109.284V49.235H112.416C112.482 49.235 112.533 49.253 112.569 49.289C112.605 49.325 112.623 49.376 112.623 49.442V49.793C112.623 49.853 112.605 49.904 112.569 49.946C112.533 49.982 112.482 50 112.416 50H108.627ZM115.423 50C115.375 50 115.333 49.982 115.297 49.946C115.261 49.91 115.243 49.868 115.243 49.82C115.243 49.79 115.246 49.757 115.252 49.721L117.484 43.898C117.508 43.838 117.541 43.79 117.583 43.754C117.625 43.718 117.688 43.7 117.772 43.7H118.384C118.462 43.7 118.522 43.718 118.564 43.754C118.612 43.79 118.648 43.838 118.672 43.898L120.895 49.721C120.907 49.757 120.913 49.79 120.913 49.82C120.913 49.868 120.895 49.91 120.859 49.946C120.823 49.982 120.781 50 120.733 50H120.274C120.202 50 120.148 49.982 120.112 49.946C120.082 49.91 120.061 49.877 120.049 49.847L119.554 48.569H116.602L116.107 49.847C116.101 49.877 116.08 49.91 116.044 49.946C116.008 49.982 115.954 50 115.882 50H115.423ZM116.863 47.795H119.293L118.078 44.6L116.863 47.795ZM122.792 50C122.732 50 122.681 49.982 122.639 49.946C122.603 49.904 122.585 49.853 122.585 49.793V44.501H120.857C120.797 44.501 120.746 44.483 120.704 44.447C120.668 44.405 120.65 44.354 120.65 44.294V43.916C120.65 43.85 120.668 43.799 120.704 43.763C120.746 43.721 120.797 43.7 120.857 43.7H125.195C125.261 43.7 125.312 43.721 125.348 43.763C125.39 43.799 125.411 43.85 125.411 43.916V44.294C125.411 44.354 125.39 44.405 125.348 44.447C125.312 44.483 125.261 44.501 125.195 44.501H123.476V49.793C123.476 49.853 123.455 49.904 123.413 49.946C123.377 49.982 123.326 50 123.26 50H122.792ZM126.627 50C126.561 50 126.51 49.982 126.474 49.946C126.438 49.904 126.42 49.853 126.42 49.793V43.907C126.42 43.847 126.438 43.799 126.474 43.763C126.51 43.721 126.561 43.7 126.627 43.7H127.104C127.164 43.7 127.212 43.721 127.248 43.763C127.29 43.799 127.311 43.847 127.311 43.907V49.793C127.311 49.853 127.29 49.904 127.248 49.946C127.212 49.982 127.164 50 127.104 50H126.627ZM130.753 50C130.663 50 130.591 49.979 130.537 49.937C130.489 49.895 130.45 49.838 130.42 49.766L128.413 43.979C128.401 43.943 128.395 43.91 128.395 43.88C128.395 43.832 128.413 43.79 128.449 43.754C128.485 43.718 128.527 43.7 128.575 43.7H129.043C129.115 43.7 129.169 43.721 129.205 43.763C129.247 43.799 129.271 43.832 129.277 43.862L131.041 48.965L132.805 43.862C132.817 43.832 132.841 43.799 132.877 43.763C132.913 43.721 132.967 43.7 133.039 43.7H133.507C133.555 43.7 133.597 43.718 133.633 43.754C133.675 43.79 133.696 43.832 133.696 43.88C133.696 43.91 133.69 43.943 133.678 43.979L131.662 49.766C131.638 49.838 131.599 49.895 131.545 49.937C131.497 49.979 131.428 50 131.338 50H130.753ZM134.976 50C134.91 50 134.859 49.982 134.823 49.946C134.787 49.904 134.769 49.853 134.769 49.793V43.907C134.769 43.847 134.787 43.799 134.823 43.763C134.859 43.721 134.91 43.7 134.976 43.7H135.453C135.513 43.7 135.561 43.721 135.597 43.763C135.639 43.799 135.66 43.847 135.66 43.907V49.793C135.66 49.853 135.639 49.904 135.597 49.946C135.561 49.982 135.513 50 135.453 50H134.976ZM137.437 50C137.371 50 137.32 49.982 137.284 49.946C137.248 49.904 137.23 49.853 137.23 49.793V43.916C137.23 43.85 137.248 43.799 137.284 43.763C137.32 43.721 137.371 43.7 137.437 43.7H139.48C140.098 43.7 140.596 43.793 140.974 43.979C141.352 44.165 141.628 44.441 141.802 44.807C141.976 45.167 142.066 45.611 142.072 46.139C142.078 46.409 142.081 46.646 142.081 46.85C142.081 47.054 142.078 47.288 142.072 47.552C142.06 48.104 141.967 48.563 141.793 48.929C141.625 49.289 141.355 49.559 140.983 49.739C140.617 49.913 140.131 50 139.525 50H137.437ZM138.112 49.235H139.48C139.894 49.235 140.224 49.178 140.47 49.064C140.716 48.95 140.893 48.767 141.001 48.515C141.115 48.263 141.175 47.93 141.181 47.516C141.193 47.336 141.199 47.18 141.199 47.048C141.199 46.91 141.199 46.775 141.199 46.643C141.199 46.505 141.193 46.349 141.181 46.175C141.169 45.593 141.031 45.164 140.767 44.888C140.503 44.606 140.059 44.465 139.435 44.465H138.112V49.235ZM142.907 50C142.859 50 142.817 49.982 142.781 49.946C142.745 49.91 142.727 49.868 142.727 49.82C142.727 49.79 142.73 49.757 142.736 49.721L144.968 43.898C144.992 43.838 145.025 43.79 145.067 43.754C145.109 43.718 145.172 43.7 145.256 43.7H145.868C145.946 43.7 146.006 43.718 146.048 43.754C146.096 43.79 146.132 43.838 146.156 43.898L148.379 49.721C148.391 49.757 148.397 49.79 148.397 49.82C148.397 49.868 148.379 49.91 148.343 49.946C148.307 49.982 148.265 50 148.217 50H147.758C147.686 50 147.632 49.982 147.596 49.946C147.566 49.91 147.545 49.877 147.533 49.847L147.038 48.569H144.086L143.591 49.847C143.585 49.877 143.564 49.91 143.528 49.946C143.492 49.982 143.438 50 143.366 50H142.907ZM144.347 47.795H146.777L145.562 44.6L144.347 47.795ZM149.566 50C149.5 50 149.449 49.982 149.413 49.946C149.377 49.904 149.359 49.853 149.359 49.793V43.916C149.359 43.85 149.377 43.799 149.413 43.763C149.449 43.721 149.5 43.7 149.566 43.7H151.609C152.227 43.7 152.725 43.793 153.103 43.979C153.481 44.165 153.757 44.441 153.931 44.807C154.105 45.167 154.195 45.611 154.201 46.139C154.207 46.409 154.21 46.646 154.21 46.85C154.21 47.054 154.207 47.288 154.201 47.552C154.189 48.104 154.096 48.563 153.922 48.929C153.754 49.289 153.484 49.559 153.112 49.739C152.746 49.913 152.26 50 151.654 50H149.566ZM150.241 49.235H151.609C152.023 49.235 152.353 49.178 152.599 49.064C152.845 48.95 153.022 48.767 153.13 48.515C153.244 48.263 153.304 47.93 153.31 47.516C153.322 47.336 153.328 47.18 153.328 47.048C153.328 46.91 153.328 46.775 153.328 46.643C153.328 46.505 153.322 46.349 153.31 46.175C153.298 45.593 153.16 45.164 152.896 44.888C152.632 44.606 152.188 44.465 151.564 44.465H150.241V49.235ZM155.771 50C155.705 50 155.654 49.982 155.618 49.946C155.582 49.904 155.564 49.853 155.564 49.793V43.916C155.564 43.85 155.582 43.799 155.618 43.763C155.654 43.721 155.705 43.7 155.771 43.7H159.488C159.554 43.7 159.605 43.721 159.641 43.763C159.677 43.799 159.695 43.85 159.695 43.916V44.258C159.695 44.324 159.677 44.375 159.641 44.411C159.605 44.447 159.554 44.465 159.488 44.465H156.428V46.436H159.29C159.356 46.436 159.407 46.457 159.443 46.499C159.479 46.535 159.497 46.586 159.497 46.652V46.985C159.497 47.045 159.479 47.096 159.443 47.138C159.407 47.174 159.356 47.192 159.29 47.192H156.428V49.235H159.56C159.626 49.235 159.677 49.253 159.713 49.289C159.749 49.325 159.767 49.376 159.767 49.442V49.793C159.767 49.853 159.749 49.904 159.713 49.946C159.677 49.982 159.626 50 159.56 50H155.771ZM163.047 50.09C162.525 50.09 162.087 50.012 161.733 49.856C161.379 49.694 161.106 49.487 160.914 49.235C160.728 48.977 160.629 48.704 160.617 48.416C160.617 48.368 160.635 48.326 160.671 48.29C160.713 48.248 160.761 48.227 160.815 48.227H161.274C161.346 48.227 161.4 48.245 161.436 48.281C161.472 48.317 161.496 48.359 161.508 48.407C161.538 48.551 161.61 48.695 161.724 48.839C161.844 48.977 162.009 49.094 162.219 49.19C162.435 49.28 162.711 49.325 163.047 49.325C163.563 49.325 163.941 49.235 164.181 49.055C164.427 48.869 164.55 48.623 164.55 48.317C164.55 48.107 164.484 47.939 164.352 47.813C164.226 47.681 164.031 47.564 163.767 47.462C163.503 47.36 163.161 47.249 162.741 47.129C162.303 47.003 161.94 46.865 161.652 46.715C161.364 46.565 161.148 46.379 161.004 46.157C160.866 45.935 160.797 45.653 160.797 45.311C160.797 44.987 160.884 44.699 161.058 44.447C161.232 44.189 161.481 43.985 161.805 43.835C162.135 43.685 162.534 43.61 163.002 43.61C163.374 43.61 163.698 43.661 163.974 43.763C164.256 43.859 164.49 43.991 164.676 44.159C164.862 44.321 165.003 44.498 165.099 44.69C165.195 44.876 165.246 45.059 165.252 45.239C165.252 45.281 165.237 45.323 165.207 45.365C165.177 45.401 165.129 45.419 165.063 45.419H164.586C164.544 45.419 164.499 45.407 164.451 45.383C164.409 45.359 164.376 45.314 164.352 45.248C164.316 45.002 164.178 44.795 163.938 44.627C163.698 44.459 163.386 44.375 163.002 44.375C162.612 44.375 162.294 44.45 162.048 44.6C161.808 44.75 161.688 44.984 161.688 45.302C161.688 45.506 161.745 45.677 161.859 45.815C161.973 45.947 162.153 46.064 162.399 46.166C162.645 46.268 162.966 46.376 163.362 46.49C163.842 46.622 164.235 46.763 164.541 46.913C164.847 47.057 165.072 47.24 165.216 47.462C165.366 47.678 165.441 47.957 165.441 48.299C165.441 48.677 165.342 49.001 165.144 49.271C164.946 49.535 164.667 49.739 164.307 49.883C163.953 50.021 163.533 50.09 163.047 50.09ZM169.034 50C168.968 50 168.917 49.982 168.881 49.946C168.845 49.904 168.827 49.853 168.827 49.793V43.916C168.827 43.85 168.845 43.799 168.881 43.763C168.917 43.721 168.968 43.7 169.034 43.7H171.077C171.695 43.7 172.193 43.793 172.571 43.979C172.949 44.165 173.225 44.441 173.399 44.807C173.573 45.167 173.663 45.611 173.669 46.139C173.675 46.409 173.678 46.646 173.678 46.85C173.678 47.054 173.675 47.288 173.669 47.552C173.657 48.104 173.564 48.563 173.39 48.929C173.222 49.289 172.952 49.559 172.58 49.739C172.214 49.913 171.728 50 171.122 50H169.034ZM169.709 49.235H171.077C171.491 49.235 171.821 49.178 172.067 49.064C172.313 48.95 172.49 48.767 172.598 48.515C172.712 48.263 172.772 47.93 172.778 47.516C172.79 47.336 172.796 47.18 172.796 47.048C172.796 46.91 172.796 46.775 172.796 46.643C172.796 46.505 172.79 46.349 172.778 46.175C172.766 45.593 172.628 45.164 172.364 44.888C172.1 44.606 171.656 44.465 171.032 44.465H169.709V49.235ZM175.239 50C175.173 50 175.122 49.982 175.086 49.946C175.05 49.904 175.032 49.853 175.032 49.793V43.916C175.032 43.85 175.05 43.799 175.086 43.763C175.122 43.721 175.173 43.7 175.239 43.7H178.956C179.022 43.7 179.073 43.721 179.109 43.763C179.145 43.799 179.163 43.85 179.163 43.916V44.258C179.163 44.324 179.145 44.375 179.109 44.411C179.073 44.447 179.022 44.465 178.956 44.465H175.896V46.436H178.758C178.824 46.436 178.875 46.457 178.911 46.499C178.947 46.535 178.965 46.586 178.965 46.652V46.985C178.965 47.045 178.947 47.096 178.911 47.138C178.875 47.174 178.824 47.192 178.758 47.192H175.896V49.235H179.028C179.094 49.235 179.145 49.253 179.181 49.289C179.217 49.325 179.235 49.376 179.235 49.442V49.793C179.235 49.853 179.217 49.904 179.181 49.946C179.145 49.982 179.094 50 179.028 50H175.239ZM53.5149 63C53.4489 63 53.3979 62.982 53.3619 62.946C53.3259 62.904 53.3079 62.853 53.3079 62.793V56.916C53.3079 56.85 53.3259 56.799 53.3619 56.763C53.3979 56.721 53.4489 56.7 53.5149 56.7H57.2319C57.2979 56.7 57.3489 56.721 57.3849 56.763C57.4209 56.799 57.4389 56.85 57.4389 56.916V57.258C57.4389 57.324 57.4209 57.375 57.3849 57.411C57.3489 57.447 57.2979 57.465 57.2319 57.465H54.1719V59.436H57.0339C57.0999 59.436 57.1509 59.457 57.1869 59.499C57.2229 59.535 57.2409 59.586 57.2409 59.652V59.985C57.2409 60.045 57.2229 60.096 57.1869 60.138C57.1509 60.174 57.0999 60.192 57.0339 60.192H54.1719V62.235H57.3039C57.3699 62.235 57.4209 62.253 57.4569 62.289C57.4929 62.325 57.5109 62.376 57.5109 62.442V62.793C57.5109 62.853 57.4929 62.904 57.4569 62.946C57.4209 62.982 57.3699 63 57.3039 63H53.5149ZM58.3879 63C58.3399 63 58.2949 62.982 58.2529 62.946C58.2169 62.91 58.1989 62.868 58.1989 62.82C58.1989 62.796 58.2019 62.775 58.2079 62.757C58.2199 62.733 58.2289 62.715 58.2349 62.703L60.2959 59.796L58.3339 56.997C58.3159 56.961 58.3069 56.922 58.3069 56.88C58.3069 56.832 58.3249 56.79 58.3609 56.754C58.3969 56.718 58.4389 56.7 58.4869 56.7H59.0269C59.0869 56.7 59.1349 56.715 59.1709 56.745C59.2069 56.769 59.2399 56.805 59.2699 56.853L60.8539 59.103L62.4289 56.853C62.4529 56.805 62.4829 56.769 62.5189 56.745C62.5609 56.715 62.6089 56.7 62.6629 56.7H63.1759C63.2239 56.7 63.2659 56.718 63.3019 56.754C63.3379 56.79 63.3559 56.832 63.3559 56.88C63.3559 56.922 63.3439 56.961 63.3199 56.997L61.3849 59.805L63.4369 62.703C63.4489 62.715 63.4579 62.733 63.4639 62.757C63.4699 62.775 63.4729 62.796 63.4729 62.82C63.4729 62.868 63.4549 62.91 63.4189 62.946C63.3829 62.982 63.3379 63 63.2839 63H62.7349C62.6809 63 62.6329 62.985 62.5909 62.955C62.5549 62.925 62.5219 62.892 62.4919 62.856L60.8179 60.516L59.1529 62.856C59.1229 62.892 59.0899 62.925 59.0539 62.955C59.0179 62.985 58.9699 63 58.9099 63H58.3879ZM66.0452 63C65.9852 63 65.9342 62.982 65.8922 62.946C65.8562 62.904 65.8382 62.853 65.8382 62.793V57.501H64.1102C64.0502 57.501 63.9992 57.483 63.9572 57.447C63.9212 57.405 63.9032 57.354 63.9032 57.294V56.916C63.9032 56.85 63.9212 56.799 63.9572 56.763C63.9992 56.721 64.0502 56.7 64.1102 56.7H68.4482C68.5142 56.7 68.5652 56.721 68.6012 56.763C68.6432 56.799 68.6642 56.85 68.6642 56.916V57.294C68.6642 57.354 68.6432 57.405 68.6012 57.447C68.5652 57.483 68.5142 57.501 68.4482 57.501H66.7292V62.793C66.7292 62.853 66.7082 62.904 66.6662 62.946C66.6302 62.982 66.5792 63 66.5132 63H66.0452ZM69.8801 63C69.8141 63 69.7631 62.982 69.7271 62.946C69.6911 62.904 69.6731 62.853 69.6731 62.793V56.916C69.6731 56.85 69.6911 56.799 69.7271 56.763C69.7631 56.721 69.8141 56.7 69.8801 56.7H73.5971C73.6631 56.7 73.7141 56.721 73.7501 56.763C73.7861 56.799 73.8041 56.85 73.8041 56.916V57.258C73.8041 57.324 73.7861 57.375 73.7501 57.411C73.7141 57.447 73.6631 57.465 73.5971 57.465H70.5371V59.436H73.3991C73.4651 59.436 73.5161 59.457 73.5521 59.499C73.5881 59.535 73.6061 59.586 73.6061 59.652V59.985C73.6061 60.045 73.5881 60.096 73.5521 60.138C73.5161 60.174 73.4651 60.192 73.3991 60.192H70.5371V62.235H73.6691C73.7351 62.235 73.7861 62.253 73.8221 62.289C73.8581 62.325 73.8761 62.376 73.8761 62.442V62.793C73.8761 62.853 73.8581 62.904 73.8221 62.946C73.7861 62.982 73.7351 63 73.6691 63H69.8801ZM75.3381 63C75.2721 63 75.2211 62.982 75.1851 62.946C75.1491 62.904 75.1311 62.853 75.1311 62.793V56.916C75.1311 56.85 75.1491 56.799 75.1851 56.763C75.2211 56.721 75.2721 56.7 75.3381 56.7H75.7521C75.8241 56.7 75.8781 56.718 75.9141 56.754C75.9501 56.784 75.9711 56.808 75.9771 56.826L78.9651 61.416V56.916C78.9651 56.85 78.9831 56.799 79.0191 56.763C79.0551 56.721 79.1061 56.7 79.1721 56.7H79.6041C79.6701 56.7 79.7211 56.721 79.7571 56.763C79.7991 56.799 79.8201 56.85 79.8201 56.916V62.784C79.8201 62.844 79.7991 62.895 79.7571 62.937C79.7211 62.979 79.6731 63 79.6131 63H79.1811C79.1151 63 79.0641 62.982 79.0281 62.946C78.9981 62.91 78.9771 62.886 78.9651 62.874L75.9861 58.329V62.793C75.9861 62.853 75.9651 62.904 75.9231 62.946C75.8871 62.982 75.8361 63 75.7701 63H75.3381ZM83.4052 63.09C82.8832 63.09 82.4452 63.012 82.0912 62.856C81.7372 62.694 81.4642 62.487 81.2722 62.235C81.0862 61.977 80.9872 61.704 80.9752 61.416C80.9752 61.368 80.9932 61.326 81.0292 61.29C81.0712 61.248 81.1192 61.227 81.1732 61.227H81.6322C81.7042 61.227 81.7582 61.245 81.7942 61.281C81.8302 61.317 81.8542 61.359 81.8662 61.407C81.8962 61.551 81.9682 61.695 82.0822 61.839C82.2022 61.977 82.3672 62.094 82.5772 62.19C82.7932 62.28 83.0692 62.325 83.4052 62.325C83.9212 62.325 84.2992 62.235 84.5392 62.055C84.7852 61.869 84.9082 61.623 84.9082 61.317C84.9082 61.107 84.8422 60.939 84.7102 60.813C84.5842 60.681 84.3892 60.564 84.1252 60.462C83.8612 60.36 83.5192 60.249 83.0992 60.129C82.6612 60.003 82.2982 59.865 82.0102 59.715C81.7222 59.565 81.5062 59.379 81.3622 59.157C81.2242 58.935 81.1552 58.653 81.1552 58.311C81.1552 57.987 81.2422 57.699 81.4162 57.447C81.5902 57.189 81.8392 56.985 82.1632 56.835C82.4932 56.685 82.8922 56.61 83.3602 56.61C83.7322 56.61 84.0562 56.661 84.3322 56.763C84.6142 56.859 84.8482 56.991 85.0342 57.159C85.2202 57.321 85.3612 57.498 85.4572 57.69C85.5532 57.876 85.6042 58.059 85.6102 58.239C85.6102 58.281 85.5952 58.323 85.5652 58.365C85.5352 58.401 85.4872 58.419 85.4212 58.419H84.9442C84.9022 58.419 84.8572 58.407 84.8092 58.383C84.7672 58.359 84.7342 58.314 84.7102 58.248C84.6742 58.002 84.5362 57.795 84.2962 57.627C84.0562 57.459 83.7442 57.375 83.3602 57.375C82.9702 57.375 82.6522 57.45 82.4062 57.6C82.1662 57.75 82.0462 57.984 82.0462 58.302C82.0462 58.506 82.1032 58.677 82.2172 58.815C82.3312 58.947 82.5112 59.064 82.7572 59.166C83.0032 59.268 83.3242 59.376 83.7202 59.49C84.2002 59.622 84.5932 59.763 84.8992 59.913C85.2052 60.057 85.4302 60.24 85.5742 60.462C85.7242 60.678 85.7992 60.957 85.7992 61.299C85.7992 61.677 85.7002 62.001 85.5022 62.271C85.3042 62.535 85.0252 62.739 84.6652 62.883C84.3112 63.021 83.8912 63.09 83.4052 63.09ZM86.4679 63C86.4199 63 86.3779 62.982 86.3419 62.946C86.3059 62.91 86.2879 62.868 86.2879 62.82C86.2879 62.79 86.2909 62.757 86.2969 62.721L88.5289 56.898C88.5529 56.838 88.5859 56.79 88.6279 56.754C88.6699 56.718 88.7329 56.7 88.8169 56.7H89.4289C89.5069 56.7 89.5669 56.718 89.6089 56.754C89.6569 56.79 89.6929 56.838 89.7169 56.898L91.9399 62.721C91.9519 62.757 91.9579 62.79 91.9579 62.82C91.9579 62.868 91.9399 62.91 91.9039 62.946C91.8679 62.982 91.8259 63 91.7779 63H91.3189C91.2469 63 91.1929 62.982 91.1569 62.946C91.1269 62.91 91.1059 62.877 91.0939 62.847L90.5989 61.569H87.6469L87.1519 62.847C87.1459 62.877 87.1249 62.91 87.0889 62.946C87.0529 62.982 86.9989 63 86.9269 63H86.4679ZM87.9079 60.795H90.3379L89.1229 57.6L87.9079 60.795ZM89.5909 56.295C89.4469 56.295 89.3239 56.271 89.2219 56.223C89.1199 56.169 89.0269 56.118 88.9429 56.07C88.8649 56.016 88.7779 55.989 88.6819 55.989C88.6159 55.989 88.5649 56.01 88.5289 56.052C88.4989 56.094 88.4689 56.139 88.4389 56.187C88.4149 56.229 88.3699 56.25 88.3039 56.25H88.0159C87.9739 56.25 87.9379 56.235 87.9079 56.205C87.8779 56.175 87.8629 56.142 87.8629 56.106C87.8629 56.016 87.8779 55.923 87.9079 55.827C87.9439 55.725 87.9949 55.632 88.0609 55.548C88.1329 55.464 88.2169 55.398 88.3129 55.35C88.4089 55.296 88.5169 55.269 88.6369 55.269C88.7869 55.269 88.9129 55.296 89.0149 55.35C89.1169 55.398 89.2099 55.449 89.2939 55.503C89.3779 55.551 89.4649 55.575 89.5549 55.575C89.6269 55.575 89.6779 55.554 89.7079 55.512C89.7379 55.464 89.7649 55.419 89.7889 55.377C89.8189 55.329 89.8669 55.305 89.9329 55.305H90.2209C90.2689 55.305 90.3049 55.32 90.3289 55.35C90.3589 55.38 90.3739 55.416 90.3739 55.458C90.3739 55.542 90.3559 55.635 90.3199 55.737C90.2839 55.833 90.2299 55.923 90.1579 56.007C90.0919 56.091 90.0109 56.16 89.9149 56.214C89.8189 56.268 89.7109 56.295 89.5909 56.295ZM95.0649 63.09C94.5549 63.09 94.1169 63.003 93.7509 62.829C93.3849 62.649 93.1029 62.376 92.9049 62.01C92.7069 61.638 92.5959 61.173 92.5719 60.615C92.5659 60.351 92.5629 60.099 92.5629 59.859C92.5629 59.613 92.5659 59.358 92.5719 59.094C92.5959 58.542 92.7099 58.083 92.9139 57.717C93.1239 57.345 93.4119 57.069 93.7779 56.889C94.1499 56.703 94.5789 56.61 95.0649 56.61C95.5569 56.61 95.9859 56.703 96.3519 56.889C96.7239 57.069 97.0149 57.345 97.2249 57.717C97.4349 58.083 97.5489 58.542 97.5669 59.094C97.5789 59.358 97.5849 59.613 97.5849 59.859C97.5849 60.099 97.5789 60.351 97.5669 60.615C97.5489 61.173 97.4379 61.638 97.2339 62.01C97.0359 62.376 96.7539 62.649 96.3879 62.829C96.0219 63.003 95.5809 63.09 95.0649 63.09ZM95.0649 62.325C95.5269 62.325 95.9019 62.187 96.1899 61.911C96.4839 61.635 96.6429 61.188 96.6669 60.57C96.6789 60.3 96.6849 60.06 96.6849 59.85C96.6849 59.634 96.6789 59.394 96.6669 59.13C96.6549 58.716 96.5769 58.38 96.4329 58.122C96.2949 57.864 96.1089 57.675 95.8749 57.555C95.6409 57.435 95.3709 57.375 95.0649 57.375C94.7709 57.375 94.5069 57.435 94.2729 57.555C94.0389 57.675 93.8499 57.864 93.7059 58.122C93.5679 58.38 93.4899 58.716 93.4719 59.13C93.4659 59.394 93.4629 59.634 93.4629 59.85C93.4629 60.06 93.4659 60.3 93.4719 60.57C93.4959 61.188 93.6549 61.635 93.9489 61.911C94.2429 62.187 94.6149 62.325 95.0649 62.325ZM101.31 63C101.244 63 101.193 62.982 101.157 62.946C101.121 62.904 101.103 62.853 101.103 62.793V56.916C101.103 56.85 101.121 56.799 101.157 56.763C101.193 56.721 101.244 56.7 101.31 56.7H103.776C104.226 56.7 104.592 56.775 104.874 56.925C105.162 57.069 105.372 57.267 105.504 57.519C105.642 57.771 105.711 58.053 105.711 58.365C105.711 58.611 105.669 58.824 105.585 59.004C105.507 59.178 105.408 59.322 105.288 59.436C105.168 59.544 105.051 59.628 104.937 59.688C105.171 59.802 105.378 59.988 105.558 60.246C105.744 60.504 105.837 60.816 105.837 61.182C105.837 61.512 105.762 61.815 105.612 62.091C105.462 62.367 105.237 62.589 104.937 62.757C104.643 62.919 104.277 63 103.839 63H101.31ZM101.985 62.271H103.722C104.112 62.271 104.412 62.166 104.622 61.956C104.832 61.746 104.937 61.488 104.937 61.182C104.937 60.864 104.832 60.603 104.622 60.399C104.412 60.189 104.112 60.084 103.722 60.084H101.985V62.271ZM101.985 59.364H103.641C104.025 59.364 104.316 59.277 104.514 59.103C104.712 58.923 104.811 58.68 104.811 58.374C104.811 58.068 104.712 57.834 104.514 57.672C104.316 57.51 104.025 57.429 103.641 57.429H101.985V59.364ZM106.621 63C106.573 63 106.531 62.982 106.495 62.946C106.459 62.91 106.441 62.868 106.441 62.82C106.441 62.79 106.444 62.757 106.45 62.721L108.682 56.898C108.706 56.838 108.739 56.79 108.781 56.754C108.823 56.718 108.886 56.7 108.97 56.7H109.582C109.66 56.7 109.72 56.718 109.762 56.754C109.81 56.79 109.846 56.838 109.87 56.898L112.093 62.721C112.105 62.757 112.111 62.79 112.111 62.82C112.111 62.868 112.093 62.91 112.057 62.946C112.021 62.982 111.979 63 111.931 63H111.472C111.4 63 111.346 62.982 111.31 62.946C111.28 62.91 111.259 62.877 111.247 62.847L110.752 61.569H107.8L107.305 62.847C107.299 62.877 107.278 62.91 107.242 62.946C107.206 62.982 107.152 63 107.08 63H106.621ZM108.061 60.795H110.491L109.276 57.6L108.061 60.795ZM113.281 63C113.215 63 113.164 62.982 113.128 62.946C113.092 62.904 113.074 62.853 113.074 62.793V56.916C113.074 56.85 113.092 56.799 113.128 56.763C113.164 56.721 113.215 56.7 113.281 56.7H113.74C113.806 56.7 113.857 56.721 113.893 56.763C113.935 56.799 113.956 56.85 113.956 56.916V59.4H117.052V56.916C117.052 56.85 117.07 56.799 117.106 56.763C117.148 56.721 117.199 56.7 117.259 56.7H117.718C117.784 56.7 117.835 56.721 117.871 56.763C117.913 56.799 117.934 56.85 117.934 56.916V62.793C117.934 62.853 117.913 62.904 117.871 62.946C117.835 62.982 117.784 63 117.718 63H117.259C117.199 63 117.148 62.982 117.106 62.946C117.07 62.904 117.052 62.853 117.052 62.793V60.21H113.956V62.793C113.956 62.853 113.935 62.904 113.893 62.946C113.857 62.982 113.806 63 113.74 63H113.281ZM119.697 63C119.631 63 119.58 62.982 119.544 62.946C119.508 62.904 119.49 62.853 119.49 62.793V56.907C119.49 56.847 119.508 56.799 119.544 56.763C119.58 56.721 119.631 56.7 119.697 56.7H120.174C120.234 56.7 120.282 56.721 120.318 56.763C120.36 56.799 120.381 56.847 120.381 56.907V62.793C120.381 62.853 120.36 62.904 120.318 62.946C120.282 62.982 120.234 63 120.174 63H119.697ZM121.527 63C121.479 63 121.437 62.982 121.401 62.946C121.365 62.91 121.347 62.868 121.347 62.82C121.347 62.79 121.35 62.757 121.356 62.721L123.588 56.898C123.612 56.838 123.645 56.79 123.687 56.754C123.729 56.718 123.792 56.7 123.876 56.7H124.488C124.566 56.7 124.626 56.718 124.668 56.754C124.716 56.79 124.752 56.838 124.776 56.898L126.999 62.721C127.011 62.757 127.017 62.79 127.017 62.82C127.017 62.868 126.999 62.91 126.963 62.946C126.927 62.982 126.885 63 126.837 63H126.378C126.306 63 126.252 62.982 126.216 62.946C126.186 62.91 126.165 62.877 126.153 62.847L125.658 61.569H122.706L122.211 62.847C122.205 62.877 122.184 62.91 122.148 62.946C122.112 62.982 122.058 63 121.986 63H121.527ZM122.967 60.795H125.397L124.182 57.6L122.967 60.795ZM128.187 63C128.121 63 128.07 62.982 128.034 62.946C127.998 62.904 127.98 62.853 127.98 62.793V56.916C127.98 56.85 127.998 56.799 128.034 56.763C128.07 56.721 128.121 56.7 128.187 56.7H128.601C128.673 56.7 128.727 56.718 128.763 56.754C128.799 56.784 128.82 56.808 128.826 56.826L131.814 61.416V56.916C131.814 56.85 131.832 56.799 131.868 56.763C131.904 56.721 131.955 56.7 132.021 56.7H132.453C132.519 56.7 132.57 56.721 132.606 56.763C132.648 56.799 132.669 56.85 132.669 56.916V62.784C132.669 62.844 132.648 62.895 132.606 62.937C132.57 62.979 132.522 63 132.462 63H132.03C131.964 63 131.913 62.982 131.877 62.946C131.847 62.91 131.826 62.886 131.814 62.874L128.835 58.329V62.793C128.835 62.853 128.814 62.904 128.772 62.946C128.736 62.982 128.685 63 128.619 63H128.187ZM133.806 63C133.758 63 133.716 62.982 133.68 62.946C133.644 62.91 133.626 62.868 133.626 62.82C133.626 62.79 133.629 62.757 133.635 62.721L135.867 56.898C135.891 56.838 135.924 56.79 135.966 56.754C136.008 56.718 136.071 56.7 136.155 56.7H136.767C136.845 56.7 136.905 56.718 136.947 56.754C136.995 56.79 137.031 56.838 137.055 56.898L139.278 62.721C139.29 62.757 139.296 62.79 139.296 62.82C139.296 62.868 139.278 62.91 139.242 62.946C139.206 62.982 139.164 63 139.116 63H138.657C138.585 63 138.531 62.982 138.495 62.946C138.465 62.91 138.444 62.877 138.432 62.847L137.937 61.569H134.985L134.49 62.847C134.484 62.877 134.463 62.91 134.427 62.946C134.391 62.982 134.337 63 134.265 63H133.806ZM135.246 60.795H137.676L136.461 57.6L135.246 60.795Z" fill="#001A35"/>
</svg>
