<svg width="193" height="70" viewBox="0 0 193 70" fill="none" xmlns="http://www.w3.org/2000/svg">
<path d="M15 35.5C10.8 35.5 6.71667 34.9167 2.75 33.75L3.55 29.75C7.71667 30.75 11.5333 31.25 15 31.25C17.3667 31.25 19.1667 30.7333 20.4 29.7C21.6333 28.6667 22.25 27.4 22.25 25.9C22.25 25 22.0333 24.2167 21.6 23.55C21.1667 22.85 20.5 22.2667 19.6 21.8C18.7333 21.3333 17.95 21 17.25 20.8C16.5833 20.5667 15.6667 20.2833 14.5 19.95C14.4 19.9167 14.3167 19.9 14.25 19.9C14.1833 19.8667 14.1 19.85 14 19.85C13.9 19.8167 13.8167 19.7833 13.75 19.75C10.65 18.95 8.11667 17.7167 6.15 16.05C4.21667 14.35 3.25 12.1667 3.25 9.5C3.25 6.43333 4.33333 4.16666 6.5 2.7C8.66667 1.23333 11.5 0.499997 15 0.499997C18.7 0.499997 22.5333 1.08333 26.5 2.25L25.4 6.25C21.2667 5.25 17.8 4.75 15 4.75C12.6667 4.75 10.95 5.2 9.85 6.1C8.78333 7 8.25 8.18333 8.25 9.65C8.25 10.55 8.5 11.3667 9 12.1C9.53333 12.8 10.2833 13.3833 11.25 13.85C12.25 14.3167 13.15 14.6833 13.95 14.95C14.75 15.1833 15.7667 15.45 17 15.75C23.8333 17.3167 27.25 20.5667 27.25 25.5C27.25 28.7667 26.1167 31.25 23.85 32.95C21.6167 34.65 18.6667 35.5 15 35.5ZM36.7598 35H32.0098V1H36.7598V35ZM56.6543 35.5C54.3876 35.5 52.3876 35.2 50.6543 34.6C48.9543 33.9667 47.571 33.1333 46.5043 32.1C45.4376 31.0333 44.571 29.7333 43.9043 28.2C43.2376 26.6333 42.771 25.0167 42.5043 23.35C42.271 21.6833 42.1543 19.8167 42.1543 17.75C42.1543 15.2167 42.371 12.9833 42.8043 11.05C43.2376 9.08333 43.971 7.28333 45.0043 5.65C46.0376 3.98333 47.5376 2.71667 49.5043 1.85C51.471 0.949997 53.8543 0.499997 56.6543 0.499997C60.3543 0.499997 64.1876 1.08333 68.1543 2.25L67.0543 6.25C62.921 5.25 59.571 4.75 57.0043 4.75C55.1043 4.75 53.4876 5.08333 52.1543 5.75C50.8543 6.38333 49.8376 7.31666 49.1043 8.55C48.4043 9.78333 47.9043 11.15 47.6043 12.65C47.3043 14.1167 47.1543 15.8167 47.1543 17.75C47.1543 22.05 47.871 25.3833 49.3043 27.75C50.771 30.0833 53.3376 31.25 57.0043 31.25C59.2376 31.25 61.371 30.7 63.4043 29.6V21.75H56.9043V17.5H68.1543V32.8C66.021 33.7 64.1043 34.3833 62.4043 34.85C60.7376 35.2833 58.821 35.5 56.6543 35.5ZM96.8367 35L94.0367 26.4H81.0367L78.1367 35H73.1367L84.8367 0.749997H90.6867L102.137 35H96.8367ZM87.6867 6.7H87.5867L82.0367 22.4H93.0367L87.6867 6.7ZM129.506 1V7.15H113.406V14.4H127.256V20.5H113.406V28.9H129.756V35H106.506V1H129.506ZM154.985 35L147.635 23H147.535L140.735 35H133.085L143.335 17.35L133.635 1H141.685L147.985 11.7H148.085L154.235 1H162.235L152.535 17.35L163.185 35H154.985ZM190.754 7.15H181.854V35H174.954V7.15H166.004V1H190.754V7.15Z" fill="white"/>
<path d="M6.11219 55.1C5.53219 55.1 5.04552 55.0133 4.65219 54.84C4.25885 54.66 3.95552 54.43 3.74219 54.15C3.53552 53.8633 3.42552 53.56 3.41219 53.24C3.41219 53.1867 3.43219 53.14 3.47219 53.1C3.51885 53.0533 3.57219 53.03 3.63219 53.03H4.14219C4.22219 53.03 4.28219 53.05 4.32219 53.09C4.36219 53.13 4.38885 53.1767 4.40219 53.23C4.43552 53.39 4.51552 53.55 4.64219 53.71C4.77552 53.8633 4.95885 53.9933 5.19219 54.1C5.43219 54.2 5.73885 54.25 6.11219 54.25C6.68552 54.25 7.10552 54.15 7.37219 53.95C7.64552 53.7433 7.78219 53.47 7.78219 53.13C7.78219 52.8967 7.70885 52.71 7.56219 52.57C7.42219 52.4233 7.20552 52.2933 6.91219 52.18C6.61885 52.0667 6.23885 51.9433 5.77219 51.81C5.28552 51.67 4.88219 51.5167 4.56219 51.35C4.24219 51.1833 4.00219 50.9767 3.84219 50.73C3.68885 50.4833 3.61219 50.17 3.61219 49.79C3.61219 49.43 3.70885 49.11 3.90219 48.83C4.09552 48.5433 4.37219 48.3167 4.73219 48.15C5.09885 47.9833 5.54219 47.9 6.06219 47.9C6.47552 47.9 6.83552 47.9567 7.14219 48.07C7.45552 48.1767 7.71552 48.3233 7.92219 48.51C8.12885 48.69 8.28552 48.8867 8.39219 49.1C8.49885 49.3067 8.55552 49.51 8.56219 49.71C8.56219 49.7567 8.54552 49.8033 8.51219 49.85C8.47885 49.89 8.42552 49.91 8.35219 49.91H7.82219C7.77552 49.91 7.72552 49.8967 7.67219 49.87C7.62552 49.8433 7.58885 49.7933 7.56219 49.72C7.52219 49.4467 7.36885 49.2167 7.10219 49.03C6.83552 48.8433 6.48885 48.75 6.06219 48.75C5.62885 48.75 5.27552 48.8333 5.00219 49C4.73552 49.1667 4.60219 49.4267 4.60219 49.78C4.60219 50.0067 4.66552 50.1967 4.79219 50.35C4.91885 50.4967 5.11885 50.6267 5.39219 50.74C5.66552 50.8533 6.02219 50.9733 6.46219 51.1C6.99552 51.2467 7.43219 51.4033 7.77219 51.57C8.11219 51.73 8.36219 51.9333 8.52219 52.18C8.68885 52.42 8.77219 52.73 8.77219 53.11C8.77219 53.53 8.66219 53.89 8.44219 54.19C8.22219 54.4833 7.91219 54.71 7.51219 54.87C7.11885 55.0233 6.65219 55.1 6.11219 55.1ZM10.3129 55C10.2396 55 10.1829 54.98 10.1429 54.94C10.1029 54.8933 10.0829 54.8367 10.0829 54.77V48.23C10.0829 48.1633 10.1029 48.11 10.1429 48.07C10.1829 48.0233 10.2396 48 10.3129 48H10.8429C10.9096 48 10.9629 48.0233 11.0029 48.07C11.0496 48.11 11.0729 48.1633 11.0729 48.23V54.77C11.0729 54.8367 11.0496 54.8933 11.0029 54.94C10.9629 54.98 10.9096 55 10.8429 55H10.3129ZM15.0673 55.1C14.4873 55.1 14.0006 55.0133 13.6073 54.84C13.2139 54.66 12.9106 54.43 12.6973 54.15C12.4906 53.8633 12.3806 53.56 12.3673 53.24C12.3673 53.1867 12.3873 53.14 12.4273 53.1C12.4739 53.0533 12.5273 53.03 12.5873 53.03H13.0973C13.1773 53.03 13.2373 53.05 13.2773 53.09C13.3173 53.13 13.3439 53.1767 13.3573 53.23C13.3906 53.39 13.4706 53.55 13.5973 53.71C13.7306 53.8633 13.9139 53.9933 14.1473 54.1C14.3873 54.2 14.6939 54.25 15.0673 54.25C15.6406 54.25 16.0606 54.15 16.3273 53.95C16.6006 53.7433 16.7373 53.47 16.7373 53.13C16.7373 52.8967 16.6639 52.71 16.5173 52.57C16.3773 52.4233 16.1606 52.2933 15.8673 52.18C15.5739 52.0667 15.1939 51.9433 14.7273 51.81C14.2406 51.67 13.8373 51.5167 13.5173 51.35C13.1973 51.1833 12.9573 50.9767 12.7973 50.73C12.6439 50.4833 12.5673 50.17 12.5673 49.79C12.5673 49.43 12.6639 49.11 12.8573 48.83C13.0506 48.5433 13.3273 48.3167 13.6873 48.15C14.0539 47.9833 14.4973 47.9 15.0173 47.9C15.4306 47.9 15.7906 47.9567 16.0973 48.07C16.4106 48.1767 16.6706 48.3233 16.8773 48.51C17.0839 48.69 17.2406 48.8867 17.3473 49.1C17.4539 49.3067 17.5106 49.51 17.5173 49.71C17.5173 49.7567 17.5006 49.8033 17.4673 49.85C17.4339 49.89 17.3806 49.91 17.3073 49.91H16.7773C16.7306 49.91 16.6806 49.8967 16.6273 49.87C16.5806 49.8433 16.5439 49.7933 16.5173 49.72C16.4773 49.4467 16.3239 49.2167 16.0573 49.03C15.7906 48.8433 15.4439 48.75 15.0173 48.75C14.5839 48.75 14.2306 48.8333 13.9573 49C13.6906 49.1667 13.5573 49.4267 13.5573 49.78C13.5573 50.0067 13.6206 50.1967 13.7473 50.35C13.8739 50.4967 14.0739 50.6267 14.3473 50.74C14.6206 50.8533 14.9773 50.9733 15.4173 51.1C15.9506 51.2467 16.3873 51.4033 16.7273 51.57C17.0673 51.73 17.3173 51.9333 17.4773 52.18C17.6439 52.42 17.7273 52.73 17.7273 53.11C17.7273 53.53 17.6173 53.89 17.3973 54.19C17.1773 54.4833 16.8673 54.71 16.4673 54.87C16.0739 55.0233 15.6073 55.1 15.0673 55.1ZM20.7198 55C20.6532 55 20.5965 54.98 20.5498 54.94C20.5098 54.8933 20.4898 54.8367 20.4898 54.77V48.89H18.5698C18.5032 48.89 18.4465 48.87 18.3998 48.83C18.3598 48.7833 18.3398 48.7267 18.3398 48.66V48.24C18.3398 48.1667 18.3598 48.11 18.3998 48.07C18.4465 48.0233 18.5032 48 18.5698 48H23.3898C23.4632 48 23.5198 48.0233 23.5598 48.07C23.6065 48.11 23.6298 48.1667 23.6298 48.24V48.66C23.6298 48.7267 23.6065 48.7833 23.5598 48.83C23.5198 48.87 23.4632 48.89 23.3898 48.89H21.4798V54.77C21.4798 54.8367 21.4565 54.8933 21.4098 54.94C21.3698 54.98 21.3132 55 21.2398 55H20.7198ZM24.9809 55C24.9075 55 24.8509 54.98 24.8109 54.94C24.7709 54.8933 24.7509 54.8367 24.7509 54.77V48.24C24.7509 48.1667 24.7709 48.11 24.8109 48.07C24.8509 48.0233 24.9075 48 24.9809 48H29.1109C29.1842 48 29.2409 48.0233 29.2809 48.07C29.3209 48.11 29.3409 48.1667 29.3409 48.24V48.62C29.3409 48.6933 29.3209 48.75 29.2809 48.79C29.2409 48.83 29.1842 48.85 29.1109 48.85H25.7109V51.04H28.8909C28.9642 51.04 29.0209 51.0633 29.0609 51.11C29.1009 51.15 29.1209 51.2067 29.1209 51.28V51.65C29.1209 51.7167 29.1009 51.7733 29.0609 51.82C29.0209 51.86 28.9642 51.88 28.8909 51.88H25.7109V54.15H29.1909C29.2642 54.15 29.3209 54.17 29.3609 54.21C29.4009 54.25 29.4209 54.3067 29.4209 54.38V54.77C29.4209 54.8367 29.4009 54.8933 29.3609 54.94C29.3209 54.98 29.2642 55 29.1909 55H24.9809ZM31.0453 55C30.9786 55 30.922 54.98 30.8753 54.94C30.8353 54.8933 30.8153 54.8367 30.8153 54.77V48.24C30.8153 48.1667 30.8353 48.11 30.8753 48.07C30.922 48.0233 30.9786 48 31.0453 48H31.5453C31.6253 48 31.6853 48.02 31.7253 48.06C31.7653 48.1 31.7886 48.1333 31.7953 48.16L33.9153 52.2L36.0453 48.16C36.0586 48.1333 36.082 48.1 36.1153 48.06C36.1553 48.02 36.2153 48 36.2953 48H36.7853C36.8586 48 36.9153 48.0233 36.9553 48.07C37.002 48.11 37.0253 48.1667 37.0253 48.24V54.77C37.0253 54.8367 37.002 54.8933 36.9553 54.94C36.9153 54.98 36.8586 55 36.7853 55H36.2953C36.2286 55 36.172 54.98 36.1253 54.94C36.0853 54.8933 36.0653 54.8367 36.0653 54.77V49.85L34.3953 53.11C34.3686 53.1767 34.3286 53.23 34.2753 53.27C34.222 53.3033 34.1553 53.32 34.0753 53.32H33.7653C33.6786 53.32 33.6086 53.3033 33.5553 53.27C33.5086 53.23 33.4686 53.1767 33.4353 53.11L31.7653 49.85V54.77C31.7653 54.8367 31.742 54.8933 31.6953 54.94C31.6553 54.98 31.602 55 31.5353 55H31.0453ZM38.2848 55C38.2314 55 38.1848 54.98 38.1448 54.94C38.1048 54.9 38.0848 54.8533 38.0848 54.8C38.0848 54.7667 38.0881 54.73 38.0948 54.69L40.5748 48.22C40.6014 48.1533 40.6381 48.1 40.6848 48.06C40.7314 48.02 40.8014 48 40.8948 48H41.5748C41.6614 48 41.7281 48.02 41.7748 48.06C41.8281 48.1 41.8681 48.1533 41.8948 48.22L44.3648 54.69C44.3781 54.73 44.3848 54.7667 44.3848 54.8C44.3848 54.8533 44.3648 54.9 44.3248 54.94C44.2848 54.98 44.2381 55 44.1848 55H43.6748C43.5948 55 43.5348 54.98 43.4948 54.94C43.4614 54.9 43.4381 54.8633 43.4248 54.83L42.8748 53.41H39.5948L39.0448 54.83C39.0381 54.8633 39.0148 54.9 38.9748 54.94C38.9348 54.98 38.8748 55 38.7948 55H38.2848ZM39.8848 52.55H42.5848L41.2348 49L39.8848 52.55ZM47.8715 55C47.7982 55 47.7415 54.98 47.7015 54.94C47.6615 54.8933 47.6415 54.8367 47.6415 54.77V48.24C47.6415 48.1667 47.6615 48.11 47.7015 48.07C47.7415 48.0233 47.7982 48 47.8715 48H50.1415C50.8282 48 51.3815 48.1033 51.8015 48.31C52.2215 48.5167 52.5282 48.8233 52.7215 49.23C52.9148 49.63 53.0148 50.1233 53.0215 50.71C53.0282 51.01 53.0315 51.2733 53.0315 51.5C53.0315 51.7267 53.0282 51.9867 53.0215 52.28C53.0082 52.8933 52.9048 53.4033 52.7115 53.81C52.5248 54.21 52.2248 54.51 51.8115 54.71C51.4048 54.9033 50.8648 55 50.1915 55H47.8715ZM48.6215 54.15H50.1415C50.6015 54.15 50.9682 54.0867 51.2415 53.96C51.5148 53.8333 51.7115 53.63 51.8315 53.35C51.9582 53.07 52.0248 52.7 52.0315 52.24C52.0448 52.04 52.0515 51.8667 52.0515 51.72C52.0515 51.5667 52.0515 51.4167 52.0515 51.27C52.0515 51.1167 52.0448 50.9433 52.0315 50.75C52.0182 50.1033 51.8648 49.6267 51.5715 49.32C51.2782 49.0067 50.7848 48.85 50.0915 48.85H48.6215V54.15ZM54.766 55C54.6927 55 54.636 54.98 54.596 54.94C54.556 54.8933 54.536 54.8367 54.536 54.77V48.24C54.536 48.1667 54.556 48.11 54.596 48.07C54.636 48.0233 54.6927 48 54.766 48H58.896C58.9693 48 59.026 48.0233 59.066 48.07C59.106 48.11 59.126 48.1667 59.126 48.24V48.62C59.126 48.6933 59.106 48.75 59.066 48.79C59.026 48.83 58.9693 48.85 58.896 48.85H55.496V51.04H58.676C58.7493 51.04 58.806 51.0633 58.846 51.11C58.886 51.15 58.906 51.2067 58.906 51.28V51.65C58.906 51.7167 58.886 51.7733 58.846 51.82C58.806 51.86 58.7493 51.88 58.676 51.88H55.496V54.15H58.976C59.0493 54.15 59.106 54.17 59.146 54.21C59.186 54.25 59.206 54.3067 59.206 54.38V54.77C59.206 54.8367 59.186 54.8933 59.146 54.94C59.106 54.98 59.0493 55 58.976 55H54.766ZM65.5916 55.1C65.005 55.1 64.505 54.99 64.0916 54.77C63.685 54.55 63.3716 54.24 63.1516 53.84C62.9383 53.44 62.8183 52.97 62.7916 52.43C62.785 52.1367 62.7816 51.8267 62.7816 51.5C62.7816 51.1667 62.785 50.85 62.7916 50.55C62.8183 50.01 62.9383 49.5433 63.1516 49.15C63.3716 48.7567 63.6883 48.45 64.1016 48.23C64.515 48.01 65.0116 47.9 65.5916 47.9C66.065 47.9 66.475 47.9667 66.8216 48.1C67.1683 48.2333 67.4516 48.4033 67.6716 48.61C67.8983 48.81 68.065 49.02 68.1716 49.24C68.285 49.46 68.345 49.6533 68.3516 49.82C68.3583 49.88 68.3416 49.93 68.3016 49.97C68.2616 50.0033 68.2083 50.02 68.1416 50.02H67.5516C67.485 50.02 67.435 50.0067 67.4016 49.98C67.375 49.9533 67.3483 49.9067 67.3216 49.84C67.2616 49.6667 67.1616 49.4967 67.0216 49.33C66.8883 49.1633 66.705 49.0267 66.4716 48.92C66.245 48.8067 65.9516 48.75 65.5916 48.75C65.065 48.75 64.6383 48.8933 64.3116 49.18C63.9916 49.4667 63.8183 49.94 63.7916 50.6C63.7716 51.1933 63.7716 51.7867 63.7916 52.38C63.8183 53.0467 63.995 53.5267 64.3216 53.82C64.6483 54.1067 65.075 54.25 65.6016 54.25C65.955 54.25 66.2683 54.1867 66.5416 54.06C66.8216 53.9267 67.0416 53.7233 67.2016 53.45C67.3616 53.1767 67.4416 52.83 67.4416 52.41V51.99H65.9416C65.875 51.99 65.8183 51.97 65.7716 51.93C65.7316 51.8833 65.7116 51.8233 65.7116 51.75V51.43C65.7116 51.3567 65.7316 51.3 65.7716 51.26C65.8183 51.2133 65.875 51.19 65.9416 51.19H68.2016C68.275 51.19 68.3316 51.2133 68.3716 51.26C68.4116 51.3 68.4316 51.3567 68.4316 51.43V52.39C68.4316 52.9367 68.3183 53.4133 68.0916 53.82C67.8716 54.2267 67.5483 54.5433 67.1216 54.77C66.695 54.99 66.185 55.1 65.5916 55.1ZM70.0883 55C70.0149 55 69.9583 54.98 69.9183 54.94C69.8783 54.8933 69.8583 54.8367 69.8583 54.77V48.24C69.8583 48.1667 69.8783 48.11 69.9183 48.07C69.9583 48.0233 70.0149 48 70.0883 48H74.2183C74.2916 48 74.3483 48.0233 74.3883 48.07C74.4283 48.11 74.4483 48.1667 74.4483 48.24V48.62C74.4483 48.6933 74.4283 48.75 74.3883 48.79C74.3483 48.83 74.2916 48.85 74.2183 48.85H70.8183V51.04H73.9983C74.0716 51.04 74.1283 51.0633 74.1683 51.11C74.2083 51.15 74.2283 51.2067 74.2283 51.28V51.65C74.2283 51.7167 74.2083 51.7733 74.1683 51.82C74.1283 51.86 74.0716 51.88 73.9983 51.88H70.8183V54.15H74.2983C74.3716 54.15 74.4283 54.17 74.4683 54.21C74.5083 54.25 74.5283 54.3067 74.5283 54.38V54.77C74.5283 54.8367 74.5083 54.8933 74.4683 54.94C74.4283 54.98 74.3716 55 74.2983 55H70.0883ZM78.1727 55.1C77.5927 55.1 77.1061 55.0133 76.7127 54.84C76.3194 54.66 76.0161 54.43 75.8027 54.15C75.5961 53.8633 75.4861 53.56 75.4727 53.24C75.4727 53.1867 75.4927 53.14 75.5327 53.1C75.5794 53.0533 75.6327 53.03 75.6927 53.03H76.2027C76.2827 53.03 76.3427 53.05 76.3827 53.09C76.4227 53.13 76.4494 53.1767 76.4627 53.23C76.4961 53.39 76.5761 53.55 76.7027 53.71C76.8361 53.8633 77.0194 53.9933 77.2527 54.1C77.4927 54.2 77.7994 54.25 78.1727 54.25C78.7461 54.25 79.1661 54.15 79.4327 53.95C79.7061 53.7433 79.8427 53.47 79.8427 53.13C79.8427 52.8967 79.7694 52.71 79.6227 52.57C79.4827 52.4233 79.2661 52.2933 78.9727 52.18C78.6794 52.0667 78.2994 51.9433 77.8327 51.81C77.3461 51.67 76.9427 51.5167 76.6227 51.35C76.3027 51.1833 76.0627 50.9767 75.9027 50.73C75.7494 50.4833 75.6727 50.17 75.6727 49.79C75.6727 49.43 75.7694 49.11 75.9627 48.83C76.1561 48.5433 76.4327 48.3167 76.7927 48.15C77.1594 47.9833 77.6027 47.9 78.1227 47.9C78.5361 47.9 78.8961 47.9567 79.2027 48.07C79.5161 48.1767 79.7761 48.3233 79.9827 48.51C80.1894 48.69 80.3461 48.8867 80.4527 49.1C80.5594 49.3067 80.6161 49.51 80.6227 49.71C80.6227 49.7567 80.6061 49.8033 80.5727 49.85C80.5394 49.89 80.4861 49.91 80.4127 49.91H79.8827C79.8361 49.91 79.7861 49.8967 79.7327 49.87C79.6861 49.8433 79.6494 49.7933 79.6227 49.72C79.5827 49.4467 79.4294 49.2167 79.1627 49.03C78.8961 48.8433 78.5494 48.75 78.1227 48.75C77.6894 48.75 77.3361 48.8333 77.0627 49C76.7961 49.1667 76.6627 49.4267 76.6627 49.78C76.6627 50.0067 76.7261 50.1967 76.8527 50.35C76.9794 50.4967 77.1794 50.6267 77.4527 50.74C77.7261 50.8533 78.0827 50.9733 78.5227 51.1C79.0561 51.2467 79.4927 51.4033 79.8327 51.57C80.1727 51.73 80.4227 51.9333 80.5827 52.18C80.7494 52.42 80.8327 52.73 80.8327 53.11C80.8327 53.53 80.7227 53.89 80.5027 54.19C80.2827 54.4833 79.9727 54.71 79.5727 54.87C79.1794 55.0233 78.7127 55.1 78.1727 55.1ZM83.8253 55C83.7586 55 83.702 54.98 83.6553 54.94C83.6153 54.8933 83.5953 54.8367 83.5953 54.77V48.89H81.6753C81.6086 48.89 81.552 48.87 81.5053 48.83C81.4653 48.7833 81.4453 48.7267 81.4453 48.66V48.24C81.4453 48.1667 81.4653 48.11 81.5053 48.07C81.552 48.0233 81.6086 48 81.6753 48H86.4953C86.5686 48 86.6253 48.0233 86.6653 48.07C86.712 48.11 86.7353 48.1667 86.7353 48.24V48.66C86.7353 48.7267 86.712 48.7833 86.6653 48.83C86.6253 48.87 86.5686 48.89 86.4953 48.89H84.5853V54.77C84.5853 54.8367 84.562 54.8933 84.5153 54.94C84.4753 54.98 84.4186 55 84.3453 55H83.8253ZM86.6441 55C86.5908 55 86.5441 54.98 86.5041 54.94C86.4641 54.9 86.4441 54.8533 86.4441 54.8C86.4441 54.7667 86.4475 54.73 86.4541 54.69L88.9341 48.22C88.9608 48.1533 88.9975 48.1 89.0441 48.06C89.0908 48.02 89.1608 48 89.2541 48H89.9341C90.0208 48 90.0875 48.02 90.1341 48.06C90.1875 48.1 90.2275 48.1533 90.2541 48.22L92.7241 54.69C92.7375 54.73 92.7441 54.7667 92.7441 54.8C92.7441 54.8533 92.7241 54.9 92.6841 54.94C92.6441 54.98 92.5975 55 92.5441 55H92.0341C91.9541 55 91.8941 54.98 91.8541 54.94C91.8208 54.9 91.7975 54.8633 91.7841 54.83L91.2341 53.41H87.9541L87.4041 54.83C87.3975 54.8633 87.3741 54.9 87.3341 54.94C87.2941 54.98 87.2341 55 87.1541 55H86.6441ZM88.2441 52.55H90.9441L89.5941 49L88.2441 52.55ZM90.1141 47.55C89.9541 47.55 89.8175 47.5233 89.7041 47.47C89.5908 47.41 89.4875 47.3533 89.3941 47.3C89.3075 47.24 89.2108 47.21 89.1041 47.21C89.0308 47.21 88.9741 47.2333 88.9341 47.28C88.9008 47.3267 88.8675 47.3767 88.8341 47.43C88.8075 47.4767 88.7575 47.5 88.6841 47.5H88.3641C88.3175 47.5 88.2775 47.4833 88.2441 47.45C88.2108 47.4167 88.1941 47.38 88.1941 47.34C88.1941 47.24 88.2108 47.1367 88.2441 47.03C88.2841 46.9167 88.3408 46.8133 88.4141 46.72C88.4941 46.6267 88.5875 46.5533 88.6941 46.5C88.8008 46.44 88.9208 46.41 89.0541 46.41C89.2208 46.41 89.3608 46.44 89.4741 46.5C89.5875 46.5533 89.6908 46.61 89.7841 46.67C89.8775 46.7233 89.9741 46.75 90.0741 46.75C90.1541 46.75 90.2108 46.7267 90.2441 46.68C90.2775 46.6267 90.3075 46.5767 90.3341 46.53C90.3675 46.4767 90.4208 46.45 90.4941 46.45H90.8141C90.8675 46.45 90.9075 46.4667 90.9341 46.5C90.9675 46.5333 90.9841 46.5733 90.9841 46.62C90.9841 46.7133 90.9641 46.8167 90.9241 46.93C90.8841 47.0367 90.8241 47.1367 90.7441 47.23C90.6708 47.3233 90.5808 47.4 90.4741 47.46C90.3675 47.52 90.2475 47.55 90.1141 47.55ZM96.1964 55.1C95.6297 55.1 95.1431 55.0033 94.7364 54.81C94.3297 54.61 94.0164 54.3067 93.7964 53.9C93.5764 53.4867 93.4531 52.97 93.4264 52.35C93.4197 52.0567 93.4164 51.7767 93.4164 51.51C93.4164 51.2367 93.4197 50.9533 93.4264 50.66C93.4531 50.0467 93.5797 49.5367 93.8064 49.13C94.0397 48.7167 94.3597 48.41 94.7664 48.21C95.1797 48.0033 95.6564 47.9 96.1964 47.9C96.7431 47.9 97.2197 48.0033 97.6264 48.21C98.0397 48.41 98.3631 48.7167 98.5964 49.13C98.8297 49.5367 98.9564 50.0467 98.9764 50.66C98.9897 50.9533 98.9964 51.2367 98.9964 51.51C98.9964 51.7767 98.9897 52.0567 98.9764 52.35C98.9564 52.97 98.8331 53.4867 98.6064 53.9C98.3864 54.3067 98.0731 54.61 97.6664 54.81C97.2597 55.0033 96.7697 55.1 96.1964 55.1ZM96.1964 54.25C96.7097 54.25 97.1264 54.0967 97.4464 53.79C97.7731 53.4833 97.9497 52.9867 97.9764 52.3C97.9897 52 97.9964 51.7333 97.9964 51.5C97.9964 51.26 97.9897 50.9933 97.9764 50.7C97.9631 50.24 97.8764 49.8667 97.7164 49.58C97.5631 49.2933 97.3564 49.0833 97.0964 48.95C96.8364 48.8167 96.5364 48.75 96.1964 48.75C95.8697 48.75 95.5764 48.8167 95.3164 48.95C95.0564 49.0833 94.8464 49.2933 94.6864 49.58C94.5331 49.8667 94.4464 50.24 94.4264 50.7C94.4197 50.9933 94.4164 51.26 94.4164 51.5C94.4164 51.7333 94.4197 52 94.4264 52.3C94.4531 52.9867 94.6297 53.4833 94.9564 53.79C95.2831 54.0967 95.6964 54.25 96.1964 54.25ZM103.135 55C103.062 55 103.005 54.98 102.965 54.94C102.925 54.8933 102.905 54.8367 102.905 54.77V48.24C102.905 48.1667 102.925 48.11 102.965 48.07C103.005 48.0233 103.062 48 103.135 48H105.405C106.092 48 106.645 48.1033 107.065 48.31C107.485 48.5167 107.792 48.8233 107.985 49.23C108.178 49.63 108.278 50.1233 108.285 50.71C108.292 51.01 108.295 51.2733 108.295 51.5C108.295 51.7267 108.292 51.9867 108.285 52.28C108.272 52.8933 108.168 53.4033 107.975 53.81C107.788 54.21 107.488 54.51 107.075 54.71C106.668 54.9033 106.128 55 105.455 55H103.135ZM103.885 54.15H105.405C105.865 54.15 106.232 54.0867 106.505 53.96C106.778 53.8333 106.975 53.63 107.095 53.35C107.222 53.07 107.288 52.7 107.295 52.24C107.308 52.04 107.315 51.8667 107.315 51.72C107.315 51.5667 107.315 51.4167 107.315 51.27C107.315 51.1167 107.308 50.9433 107.295 50.75C107.282 50.1033 107.128 49.6267 106.835 49.32C106.542 49.0067 106.048 48.85 105.355 48.85H103.885V54.15ZM110.03 55C109.956 55 109.9 54.98 109.86 54.94C109.82 54.8933 109.8 54.8367 109.8 54.77V48.24C109.8 48.1667 109.82 48.11 109.86 48.07C109.9 48.0233 109.956 48 110.03 48H114.16C114.233 48 114.29 48.0233 114.33 48.07C114.37 48.11 114.39 48.1667 114.39 48.24V48.62C114.39 48.6933 114.37 48.75 114.33 48.79C114.29 48.83 114.233 48.85 114.16 48.85H110.76V51.04H113.94C114.013 51.04 114.07 51.0633 114.11 51.11C114.15 51.15 114.17 51.2067 114.17 51.28V51.65C114.17 51.7167 114.15 51.7733 114.11 51.82C114.07 51.86 114.013 51.88 113.94 51.88H110.76V54.15H114.24C114.313 54.15 114.37 54.17 114.41 54.21C114.45 54.25 114.47 54.3067 114.47 54.38V54.77C114.47 54.8367 114.45 54.8933 114.41 54.94C114.37 54.98 114.313 55 114.24 55H110.03ZM117.582 55C117.528 55 117.482 54.98 117.442 54.94C117.402 54.9 117.382 54.8533 117.382 54.8C117.382 54.7667 117.385 54.73 117.392 54.69L119.872 48.22C119.898 48.1533 119.935 48.1 119.982 48.06C120.028 48.02 120.098 48 120.192 48H120.872C120.958 48 121.025 48.02 121.072 48.06C121.125 48.1 121.165 48.1533 121.192 48.22L123.662 54.69C123.675 54.73 123.682 54.7667 123.682 54.8C123.682 54.8533 123.662 54.9 123.622 54.94C123.582 54.98 123.535 55 123.482 55H122.972C122.892 55 122.832 54.98 122.792 54.94C122.758 54.9 122.735 54.8633 122.722 54.83L122.172 53.41H118.892L118.342 54.83C118.335 54.8633 118.312 54.9 118.272 54.94C118.232 54.98 118.172 55 118.092 55H117.582ZM119.182 52.55H121.882L120.532 49L119.182 52.55ZM125.769 55C125.702 55 125.645 54.98 125.599 54.94C125.559 54.8933 125.539 54.8367 125.539 54.77V48.89H123.619C123.552 48.89 123.495 48.87 123.449 48.83C123.409 48.7833 123.389 48.7267 123.389 48.66V48.24C123.389 48.1667 123.409 48.11 123.449 48.07C123.495 48.0233 123.552 48 123.619 48H128.439C128.512 48 128.569 48.0233 128.609 48.07C128.655 48.11 128.679 48.1667 128.679 48.24V48.66C128.679 48.7267 128.655 48.7833 128.609 48.83C128.569 48.87 128.512 48.89 128.439 48.89H126.529V54.77C126.529 54.8367 126.505 54.8933 126.459 54.94C126.419 54.98 126.362 55 126.289 55H125.769ZM130.03 55C129.956 55 129.9 54.98 129.86 54.94C129.82 54.8933 129.8 54.8367 129.8 54.77V48.23C129.8 48.1633 129.82 48.11 129.86 48.07C129.9 48.0233 129.956 48 130.03 48H130.56C130.626 48 130.68 48.0233 130.72 48.07C130.766 48.11 130.79 48.1633 130.79 48.23V54.77C130.79 54.8367 130.766 54.8933 130.72 54.94C130.68 54.98 130.626 55 130.56 55H130.03ZM134.614 55C134.514 55 134.434 54.9767 134.374 54.93C134.321 54.8833 134.277 54.82 134.244 54.74L132.014 48.31C132.001 48.27 131.994 48.2333 131.994 48.2C131.994 48.1467 132.014 48.1 132.054 48.06C132.094 48.02 132.141 48 132.194 48H132.714C132.794 48 132.854 48.0233 132.894 48.07C132.941 48.11 132.967 48.1467 132.974 48.18L134.934 53.85L136.894 48.18C136.907 48.1467 136.934 48.11 136.974 48.07C137.014 48.0233 137.074 48 137.154 48H137.674C137.727 48 137.774 48.02 137.814 48.06C137.861 48.1 137.884 48.1467 137.884 48.2C137.884 48.2333 137.877 48.27 137.864 48.31L135.624 54.74C135.597 54.82 135.554 54.8833 135.494 54.93C135.441 54.9767 135.364 55 135.264 55H134.614ZM139.307 55C139.234 55 139.177 54.98 139.137 54.94C139.097 54.8933 139.077 54.8367 139.077 54.77V48.23C139.077 48.1633 139.097 48.11 139.137 48.07C139.177 48.0233 139.234 48 139.307 48H139.837C139.904 48 139.957 48.0233 139.997 48.07C140.044 48.11 140.067 48.1633 140.067 48.23V54.77C140.067 54.8367 140.044 54.8933 139.997 54.94C139.957 54.98 139.904 55 139.837 55H139.307ZM142.041 55C141.968 55 141.911 54.98 141.871 54.94C141.831 54.8933 141.811 54.8367 141.811 54.77V48.24C141.811 48.1667 141.831 48.11 141.871 48.07C141.911 48.0233 141.968 48 142.041 48H144.311C144.998 48 145.551 48.1033 145.971 48.31C146.391 48.5167 146.698 48.8233 146.891 49.23C147.085 49.63 147.185 50.1233 147.191 50.71C147.198 51.01 147.201 51.2733 147.201 51.5C147.201 51.7267 147.198 51.9867 147.191 52.28C147.178 52.8933 147.075 53.4033 146.881 53.81C146.695 54.21 146.395 54.51 145.981 54.71C145.575 54.9033 145.035 55 144.361 55H142.041ZM142.791 54.15H144.311C144.771 54.15 145.138 54.0867 145.411 53.96C145.685 53.8333 145.881 53.63 146.001 53.35C146.128 53.07 146.195 52.7 146.201 52.24C146.215 52.04 146.221 51.8667 146.221 51.72C146.221 51.5667 146.221 51.4167 146.221 51.27C146.221 51.1167 146.215 50.9433 146.201 50.75C146.188 50.1033 146.035 49.6267 145.741 49.32C145.448 49.0067 144.955 48.85 144.261 48.85H142.791V54.15ZM148.119 55C148.065 55 148.019 54.98 147.979 54.94C147.939 54.9 147.919 54.8533 147.919 54.8C147.919 54.7667 147.922 54.73 147.929 54.69L150.409 48.22C150.435 48.1533 150.472 48.1 150.519 48.06C150.565 48.02 150.635 48 150.729 48H151.409C151.495 48 151.562 48.02 151.609 48.06C151.662 48.1 151.702 48.1533 151.729 48.22L154.199 54.69C154.212 54.73 154.219 54.7667 154.219 54.8C154.219 54.8533 154.199 54.9 154.159 54.94C154.119 54.98 154.072 55 154.019 55H153.509C153.429 55 153.369 54.98 153.329 54.94C153.295 54.9 153.272 54.8633 153.259 54.83L152.709 53.41H149.429L148.879 54.83C148.872 54.8633 148.849 54.9 148.809 54.94C148.769 54.98 148.709 55 148.629 55H148.119ZM149.719 52.55H152.419L151.069 49L149.719 52.55ZM155.518 55C155.445 55 155.388 54.98 155.348 54.94C155.308 54.8933 155.288 54.8367 155.288 54.77V48.24C155.288 48.1667 155.308 48.11 155.348 48.07C155.388 48.0233 155.445 48 155.518 48H157.788C158.475 48 159.028 48.1033 159.448 48.31C159.868 48.5167 160.175 48.8233 160.368 49.23C160.561 49.63 160.661 50.1233 160.668 50.71C160.675 51.01 160.678 51.2733 160.678 51.5C160.678 51.7267 160.675 51.9867 160.668 52.28C160.655 52.8933 160.551 53.4033 160.358 53.81C160.171 54.21 159.871 54.51 159.458 54.71C159.051 54.9033 158.511 55 157.838 55H155.518ZM156.268 54.15H157.788C158.248 54.15 158.615 54.0867 158.888 53.96C159.161 53.8333 159.358 53.63 159.478 53.35C159.605 53.07 159.671 52.7 159.678 52.24C159.691 52.04 159.698 51.8667 159.698 51.72C159.698 51.5667 159.698 51.4167 159.698 51.27C159.698 51.1167 159.691 50.9433 159.678 50.75C159.665 50.1033 159.511 49.6267 159.218 49.32C158.925 49.0067 158.431 48.85 157.738 48.85H156.268V54.15ZM162.413 55C162.339 55 162.283 54.98 162.243 54.94C162.203 54.8933 162.183 54.8367 162.183 54.77V48.24C162.183 48.1667 162.203 48.11 162.243 48.07C162.283 48.0233 162.339 48 162.413 48H166.543C166.616 48 166.673 48.0233 166.713 48.07C166.753 48.11 166.773 48.1667 166.773 48.24V48.62C166.773 48.6933 166.753 48.75 166.713 48.79C166.673 48.83 166.616 48.85 166.543 48.85H163.143V51.04H166.323C166.396 51.04 166.453 51.0633 166.493 51.11C166.533 51.15 166.553 51.2067 166.553 51.28V51.65C166.553 51.7167 166.533 51.7733 166.493 51.82C166.453 51.86 166.396 51.88 166.323 51.88H163.143V54.15H166.623C166.696 54.15 166.753 54.17 166.793 54.21C166.833 54.25 166.853 54.3067 166.853 54.38V54.77C166.853 54.8367 166.833 54.8933 166.793 54.94C166.753 54.98 166.696 55 166.623 55H162.413ZM170.497 55.1C169.917 55.1 169.43 55.0133 169.037 54.84C168.644 54.66 168.34 54.43 168.127 54.15C167.92 53.8633 167.81 53.56 167.797 53.24C167.797 53.1867 167.817 53.14 167.857 53.1C167.904 53.0533 167.957 53.03 168.017 53.03H168.527C168.607 53.03 168.667 53.05 168.707 53.09C168.747 53.13 168.774 53.1767 168.787 53.23C168.82 53.39 168.9 53.55 169.027 53.71C169.16 53.8633 169.344 53.9933 169.577 54.1C169.817 54.2 170.124 54.25 170.497 54.25C171.07 54.25 171.49 54.15 171.757 53.95C172.03 53.7433 172.167 53.47 172.167 53.13C172.167 52.8967 172.094 52.71 171.947 52.57C171.807 52.4233 171.59 52.2933 171.297 52.18C171.004 52.0667 170.624 51.9433 170.157 51.81C169.67 51.67 169.267 51.5167 168.947 51.35C168.627 51.1833 168.387 50.9767 168.227 50.73C168.074 50.4833 167.997 50.17 167.997 49.79C167.997 49.43 168.094 49.11 168.287 48.83C168.48 48.5433 168.757 48.3167 169.117 48.15C169.484 47.9833 169.927 47.9 170.447 47.9C170.86 47.9 171.22 47.9567 171.527 48.07C171.84 48.1767 172.1 48.3233 172.307 48.51C172.514 48.69 172.67 48.8867 172.777 49.1C172.884 49.3067 172.94 49.51 172.947 49.71C172.947 49.7567 172.93 49.8033 172.897 49.85C172.864 49.89 172.81 49.91 172.737 49.91H172.207C172.16 49.91 172.11 49.8967 172.057 49.87C172.01 49.8433 171.974 49.7933 171.947 49.72C171.907 49.4467 171.754 49.2167 171.487 49.03C171.22 48.8433 170.874 48.75 170.447 48.75C170.014 48.75 169.66 48.8333 169.387 49C169.12 49.1667 168.987 49.4267 168.987 49.78C168.987 50.0067 169.05 50.1967 169.177 50.35C169.304 50.4967 169.504 50.6267 169.777 50.74C170.05 50.8533 170.407 50.9733 170.847 51.1C171.38 51.2467 171.817 51.4033 172.157 51.57C172.497 51.73 172.747 51.9333 172.907 52.18C173.074 52.42 173.157 52.73 173.157 53.11C173.157 53.53 173.047 53.89 172.827 54.19C172.607 54.4833 172.297 54.71 171.897 54.87C171.504 55.0233 171.037 55.1 170.497 55.1ZM177.149 55C177.075 55 177.019 54.98 176.979 54.94C176.939 54.8933 176.919 54.8367 176.919 54.77V48.24C176.919 48.1667 176.939 48.11 176.979 48.07C177.019 48.0233 177.075 48 177.149 48H179.419C180.105 48 180.659 48.1033 181.079 48.31C181.499 48.5167 181.805 48.8233 181.999 49.23C182.192 49.63 182.292 50.1233 182.299 50.71C182.305 51.01 182.309 51.2733 182.309 51.5C182.309 51.7267 182.305 51.9867 182.299 52.28C182.285 52.8933 182.182 53.4033 181.989 53.81C181.802 54.21 181.502 54.51 181.089 54.71C180.682 54.9033 180.142 55 179.469 55H177.149ZM177.899 54.15H179.419C179.879 54.15 180.245 54.0867 180.519 53.96C180.792 53.8333 180.989 53.63 181.109 53.35C181.235 53.07 181.302 52.7 181.309 52.24C181.322 52.04 181.329 51.8667 181.329 51.72C181.329 51.5667 181.329 51.4167 181.329 51.27C181.329 51.1167 181.322 50.9433 181.309 50.75C181.295 50.1033 181.142 49.6267 180.849 49.32C180.555 49.0067 180.062 48.85 179.369 48.85H177.899V54.15ZM184.043 55C183.97 55 183.913 54.98 183.873 54.94C183.833 54.8933 183.813 54.8367 183.813 54.77V48.24C183.813 48.1667 183.833 48.11 183.873 48.07C183.913 48.0233 183.97 48 184.043 48H188.173C188.247 48 188.303 48.0233 188.343 48.07C188.383 48.11 188.403 48.1667 188.403 48.24V48.62C188.403 48.6933 188.383 48.75 188.343 48.79C188.303 48.83 188.247 48.85 188.173 48.85H184.773V51.04H187.953C188.027 51.04 188.083 51.0633 188.123 51.11C188.163 51.15 188.183 51.2067 188.183 51.28V51.65C188.183 51.7167 188.163 51.7733 188.123 51.82C188.083 51.86 188.027 51.88 187.953 51.88H184.773V54.15H188.253C188.327 54.15 188.383 54.17 188.423 54.21C188.463 54.25 188.483 54.3067 188.483 54.38V54.77C188.483 54.8367 188.463 54.8933 188.423 54.94C188.383 54.98 188.327 55 188.253 55H184.043ZM48.7943 69C48.721 69 48.6643 68.98 48.6243 68.94C48.5843 68.8933 48.5643 68.8367 48.5643 68.77V62.24C48.5643 62.1667 48.5843 62.11 48.6243 62.07C48.6643 62.0233 48.721 62 48.7943 62H52.9243C52.9977 62 53.0543 62.0233 53.0943 62.07C53.1343 62.11 53.1543 62.1667 53.1543 62.24V62.62C53.1543 62.6933 53.1343 62.75 53.0943 62.79C53.0543 62.83 52.9977 62.85 52.9243 62.85H49.5243V65.04H52.7043C52.7777 65.04 52.8343 65.0633 52.8743 65.11C52.9143 65.15 52.9343 65.2067 52.9343 65.28V65.65C52.9343 65.7167 52.9143 65.7733 52.8743 65.82C52.8343 65.86 52.7777 65.88 52.7043 65.88H49.5243V68.15H53.0043C53.0777 68.15 53.1343 68.17 53.1743 68.21C53.2143 68.25 53.2343 68.3067 53.2343 68.38V68.77C53.2343 68.8367 53.2143 68.8933 53.1743 68.94C53.1343 68.98 53.0777 69 53.0043 69H48.7943ZM54.2088 69C54.1555 69 54.1055 68.98 54.0588 68.94C54.0188 68.9 53.9988 68.8533 53.9988 68.8C53.9988 68.7733 54.0021 68.75 54.0088 68.73C54.0221 68.7033 54.0321 68.6833 54.0388 68.67L56.3288 65.44L54.1488 62.33C54.1288 62.29 54.1188 62.2467 54.1188 62.2C54.1188 62.1467 54.1388 62.1 54.1788 62.06C54.2188 62.02 54.2655 62 54.3188 62H54.9188C54.9855 62 55.0388 62.0167 55.0788 62.05C55.1188 62.0767 55.1555 62.1167 55.1888 62.17L56.9488 64.67L58.6988 62.17C58.7255 62.1167 58.7588 62.0767 58.7988 62.05C58.8455 62.0167 58.8988 62 58.9588 62H59.5288C59.5821 62 59.6288 62.02 59.6688 62.06C59.7088 62.1 59.7288 62.1467 59.7288 62.2C59.7288 62.2467 59.7155 62.29 59.6888 62.33L57.5388 65.45L59.8188 68.67C59.8321 68.6833 59.8421 68.7033 59.8488 68.73C59.8555 68.75 59.8588 68.7733 59.8588 68.8C59.8588 68.8533 59.8388 68.9 59.7988 68.94C59.7588 68.98 59.7088 69 59.6488 69H59.0388C58.9788 69 58.9255 68.9833 58.8788 68.95C58.8388 68.9167 58.8021 68.88 58.7688 68.84L56.9088 66.24L55.0588 68.84C55.0255 68.88 54.9888 68.9167 54.9488 68.95C54.9088 68.9833 54.8555 69 54.7888 69H54.2088ZM62.7169 69C62.6502 69 62.5936 68.98 62.5469 68.94C62.5069 68.8933 62.4869 68.8367 62.4869 68.77V62.89H60.5669C60.5002 62.89 60.4436 62.87 60.3969 62.83C60.3569 62.7833 60.3369 62.7267 60.3369 62.66V62.24C60.3369 62.1667 60.3569 62.11 60.3969 62.07C60.4436 62.0233 60.5002 62 60.5669 62H65.3869C65.4602 62 65.5169 62.0233 65.5569 62.07C65.6036 62.11 65.6269 62.1667 65.6269 62.24V62.66C65.6269 62.7267 65.6036 62.7833 65.5569 62.83C65.5169 62.87 65.4602 62.89 65.3869 62.89H63.4769V68.77C63.4769 68.8367 63.4536 68.8933 63.4069 68.94C63.3669 68.98 63.3102 69 63.2369 69H62.7169ZM66.9779 69C66.9046 69 66.8479 68.98 66.8079 68.94C66.7679 68.8933 66.7479 68.8367 66.7479 68.77V62.24C66.7479 62.1667 66.7679 62.11 66.8079 62.07C66.8479 62.0233 66.9046 62 66.9779 62H71.1079C71.1813 62 71.2379 62.0233 71.2779 62.07C71.3179 62.11 71.3379 62.1667 71.3379 62.24V62.62C71.3379 62.6933 71.3179 62.75 71.2779 62.79C71.2379 62.83 71.1813 62.85 71.1079 62.85H67.7079V65.04H70.8879C70.9613 65.04 71.0179 65.0633 71.0579 65.11C71.0979 65.15 71.1179 65.2067 71.1179 65.28V65.65C71.1179 65.7167 71.0979 65.7733 71.0579 65.82C71.0179 65.86 70.9613 65.88 70.8879 65.88H67.7079V68.15H71.1879C71.2613 68.15 71.3179 68.17 71.3579 68.21C71.3979 68.25 71.4179 68.3067 71.4179 68.38V68.77C71.4179 68.8367 71.3979 68.8933 71.3579 68.94C71.3179 68.98 71.2613 69 71.1879 69H66.9779ZM73.0424 69C72.969 69 72.9124 68.98 72.8724 68.94C72.8324 68.8933 72.8124 68.8367 72.8124 68.77V62.24C72.8124 62.1667 72.8324 62.11 72.8724 62.07C72.9124 62.0233 72.969 62 73.0424 62H73.5024C73.5824 62 73.6424 62.02 73.6824 62.06C73.7224 62.0933 73.7457 62.12 73.7524 62.14L77.0724 67.24V62.24C77.0724 62.1667 77.0924 62.11 77.1324 62.07C77.1724 62.0233 77.229 62 77.3024 62H77.7824C77.8557 62 77.9124 62.0233 77.9524 62.07C77.999 62.11 78.0224 62.1667 78.0224 62.24V68.76C78.0224 68.8267 77.999 68.8833 77.9524 68.93C77.9124 68.9767 77.859 69 77.7924 69H77.3124C77.239 69 77.1824 68.98 77.1424 68.94C77.109 68.9 77.0857 68.8733 77.0724 68.86L73.7624 63.81V68.77C73.7624 68.8367 73.739 68.8933 73.6924 68.94C73.6524 68.98 73.5957 69 73.5224 69H73.0424ZM82.0057 69.1C81.4257 69.1 80.9391 69.0133 80.5457 68.84C80.1524 68.66 79.8491 68.43 79.6357 68.15C79.4291 67.8633 79.3191 67.56 79.3057 67.24C79.3057 67.1867 79.3257 67.14 79.3657 67.1C79.4124 67.0533 79.4657 67.03 79.5257 67.03H80.0357C80.1157 67.03 80.1757 67.05 80.2157 67.09C80.2557 67.13 80.2824 67.1767 80.2957 67.23C80.3291 67.39 80.4091 67.55 80.5357 67.71C80.6691 67.8633 80.8524 67.9933 81.0857 68.1C81.3257 68.2 81.6324 68.25 82.0057 68.25C82.5791 68.25 82.9991 68.15 83.2657 67.95C83.5391 67.7433 83.6757 67.47 83.6757 67.13C83.6757 66.8967 83.6024 66.71 83.4557 66.57C83.3157 66.4233 83.0991 66.2933 82.8057 66.18C82.5124 66.0667 82.1324 65.9433 81.6657 65.81C81.1791 65.67 80.7757 65.5167 80.4557 65.35C80.1357 65.1833 79.8957 64.9767 79.7357 64.73C79.5824 64.4833 79.5057 64.17 79.5057 63.79C79.5057 63.43 79.6024 63.11 79.7957 62.83C79.9891 62.5433 80.2657 62.3167 80.6257 62.15C80.9924 61.9833 81.4357 61.9 81.9557 61.9C82.3691 61.9 82.7291 61.9567 83.0357 62.07C83.3491 62.1767 83.6091 62.3233 83.8157 62.51C84.0224 62.69 84.1791 62.8867 84.2857 63.1C84.3924 63.3067 84.4491 63.51 84.4557 63.71C84.4557 63.7567 84.4391 63.8033 84.4057 63.85C84.3724 63.89 84.3191 63.91 84.2457 63.91H83.7157C83.6691 63.91 83.6191 63.8967 83.5657 63.87C83.5191 63.8433 83.4824 63.7933 83.4557 63.72C83.4157 63.4467 83.2624 63.2167 82.9957 63.03C82.7291 62.8433 82.3824 62.75 81.9557 62.75C81.5224 62.75 81.1691 62.8333 80.8957 63C80.6291 63.1667 80.4957 63.4267 80.4957 63.78C80.4957 64.0067 80.5591 64.1967 80.6857 64.35C80.8124 64.4967 81.0124 64.6267 81.2857 64.74C81.5591 64.8533 81.9157 64.9733 82.3557 65.1C82.8891 65.2467 83.3257 65.4033 83.6657 65.57C84.0057 65.73 84.2557 65.9333 84.4157 66.18C84.5824 66.42 84.6657 66.73 84.6657 67.11C84.6657 67.53 84.5557 67.89 84.3357 68.19C84.1157 68.4833 83.8057 68.71 83.4057 68.87C83.0124 69.0233 82.5457 69.1 82.0057 69.1ZM85.4088 69C85.3555 69 85.3088 68.98 85.2688 68.94C85.2288 68.9 85.2088 68.8533 85.2088 68.8C85.2088 68.7667 85.2121 68.73 85.2188 68.69L87.6988 62.22C87.7255 62.1533 87.7621 62.1 87.8088 62.06C87.8555 62.02 87.9255 62 88.0188 62H88.6988C88.7855 62 88.8521 62.02 88.8988 62.06C88.9521 62.1 88.9921 62.1533 89.0188 62.22L91.4888 68.69C91.5021 68.73 91.5088 68.7667 91.5088 68.8C91.5088 68.8533 91.4888 68.9 91.4488 68.94C91.4088 68.98 91.3621 69 91.3088 69H90.7988C90.7188 69 90.6588 68.98 90.6188 68.94C90.5855 68.9 90.5621 68.8633 90.5488 68.83L89.9988 67.41H86.7188L86.1688 68.83C86.1621 68.8633 86.1388 68.9 86.0988 68.94C86.0588 68.98 85.9988 69 85.9188 69H85.4088ZM87.0088 66.55H89.7088L88.3588 63L87.0088 66.55ZM88.8788 61.55C88.7188 61.55 88.5821 61.5233 88.4688 61.47C88.3555 61.41 88.2521 61.3533 88.1588 61.3C88.0721 61.24 87.9755 61.21 87.8688 61.21C87.7955 61.21 87.7388 61.2333 87.6988 61.28C87.6655 61.3267 87.6321 61.3767 87.5988 61.43C87.5721 61.4767 87.5221 61.5 87.4488 61.5H87.1288C87.0821 61.5 87.0421 61.4833 87.0088 61.45C86.9755 61.4167 86.9588 61.38 86.9588 61.34C86.9588 61.24 86.9755 61.1367 87.0088 61.03C87.0488 60.9167 87.1055 60.8133 87.1788 60.72C87.2588 60.6267 87.3521 60.5533 87.4588 60.5C87.5655 60.44 87.6855 60.41 87.8188 60.41C87.9855 60.41 88.1255 60.44 88.2388 60.5C88.3521 60.5533 88.4555 60.61 88.5488 60.67C88.6421 60.7233 88.7388 60.75 88.8388 60.75C88.9188 60.75 88.9755 60.7267 89.0088 60.68C89.0421 60.6267 89.0721 60.5767 89.0988 60.53C89.1321 60.4767 89.1855 60.45 89.2588 60.45H89.5788C89.6321 60.45 89.6721 60.4667 89.6988 60.5C89.7321 60.5333 89.7488 60.5733 89.7488 60.62C89.7488 60.7133 89.7288 60.8167 89.6888 60.93C89.6488 61.0367 89.5888 61.1367 89.5088 61.23C89.4355 61.3233 89.3455 61.4 89.2388 61.46C89.1321 61.52 89.0121 61.55 88.8788 61.55ZM94.9611 69.1C94.3944 69.1 93.9077 69.0033 93.5011 68.81C93.0944 68.61 92.7811 68.3067 92.5611 67.9C92.3411 67.4867 92.2177 66.97 92.1911 66.35C92.1844 66.0567 92.1811 65.7767 92.1811 65.51C92.1811 65.2367 92.1844 64.9533 92.1911 64.66C92.2177 64.0467 92.3444 63.5367 92.5711 63.13C92.8044 62.7167 93.1244 62.41 93.5311 62.21C93.9444 62.0033 94.4211 61.9 94.9611 61.9C95.5077 61.9 95.9844 62.0033 96.3911 62.21C96.8044 62.41 97.1277 62.7167 97.3611 63.13C97.5944 63.5367 97.7211 64.0467 97.7411 64.66C97.7544 64.9533 97.7611 65.2367 97.7611 65.51C97.7611 65.7767 97.7544 66.0567 97.7411 66.35C97.7211 66.97 97.5977 67.4867 97.3711 67.9C97.1511 68.3067 96.8377 68.61 96.4311 68.81C96.0244 69.0033 95.5344 69.1 94.9611 69.1ZM94.9611 68.25C95.4744 68.25 95.8911 68.0967 96.2111 67.79C96.5377 67.4833 96.7144 66.9867 96.7411 66.3C96.7544 66 96.7611 65.7333 96.7611 65.5C96.7611 65.26 96.7544 64.9933 96.7411 64.7C96.7277 64.24 96.6411 63.8667 96.4811 63.58C96.3277 63.2933 96.1211 63.0833 95.8611 62.95C95.6011 62.8167 95.3011 62.75 94.9611 62.75C94.6344 62.75 94.3411 62.8167 94.0811 62.95C93.8211 63.0833 93.6111 63.2933 93.4511 63.58C93.2977 63.8667 93.2111 64.24 93.1911 64.7C93.1844 64.9933 93.1811 65.26 93.1811 65.5C93.1811 65.7333 93.1844 66 93.1911 66.3C93.2177 66.9867 93.3944 67.4833 93.7211 67.79C94.0477 68.0967 94.4611 68.25 94.9611 68.25ZM101.9 69C101.826 69 101.77 68.98 101.73 68.94C101.69 68.8933 101.67 68.8367 101.67 68.77V62.24C101.67 62.1667 101.69 62.11 101.73 62.07C101.77 62.0233 101.826 62 101.9 62H104.64C105.14 62 105.546 62.0833 105.86 62.25C106.18 62.41 106.413 62.63 106.56 62.91C106.713 63.19 106.79 63.5033 106.79 63.85C106.79 64.1233 106.743 64.36 106.65 64.56C106.563 64.7533 106.453 64.9133 106.32 65.04C106.186 65.16 106.056 65.2533 105.93 65.32C106.19 65.4467 106.42 65.6533 106.62 65.94C106.826 66.2267 106.93 66.5733 106.93 66.98C106.93 67.3467 106.846 67.6833 106.68 67.99C106.513 68.2967 106.263 68.5433 105.93 68.73C105.603 68.91 105.196 69 104.71 69H101.9ZM102.65 68.19H104.58C105.013 68.19 105.346 68.0733 105.58 67.84C105.813 67.6067 105.93 67.32 105.93 66.98C105.93 66.6267 105.813 66.3367 105.58 66.11C105.346 65.8767 105.013 65.76 104.58 65.76H102.65V68.19ZM102.65 64.96H104.49C104.916 64.96 105.24 64.8633 105.46 64.67C105.68 64.47 105.79 64.2 105.79 63.86C105.79 63.52 105.68 63.26 105.46 63.08C105.24 62.9 104.916 62.81 104.49 62.81H102.65V64.96ZM107.801 69C107.748 69 107.701 68.98 107.661 68.94C107.621 68.9 107.601 68.8533 107.601 68.8C107.601 68.7667 107.605 68.73 107.611 68.69L110.091 62.22C110.118 62.1533 110.155 62.1 110.201 62.06C110.248 62.02 110.318 62 110.411 62H111.091C111.178 62 111.245 62.02 111.291 62.06C111.345 62.1 111.385 62.1533 111.411 62.22L113.881 68.69C113.895 68.73 113.901 68.7667 113.901 68.8C113.901 68.8533 113.881 68.9 113.841 68.94C113.801 68.98 113.755 69 113.701 69H113.191C113.111 69 113.051 68.98 113.011 68.94C112.978 68.9 112.955 68.8633 112.941 68.83L112.391 67.41H109.111L108.561 68.83C108.555 68.8633 108.531 68.9 108.491 68.94C108.451 68.98 108.391 69 108.311 69H107.801ZM109.401 66.55H112.101L110.751 63L109.401 66.55ZM115.201 69C115.127 69 115.071 68.98 115.031 68.94C114.991 68.8933 114.971 68.8367 114.971 68.77V62.24C114.971 62.1667 114.991 62.11 115.031 62.07C115.071 62.0233 115.127 62 115.201 62H115.711C115.784 62 115.841 62.0233 115.881 62.07C115.927 62.11 115.951 62.1667 115.951 62.24V65H119.391V62.24C119.391 62.1667 119.411 62.11 119.451 62.07C119.497 62.0233 119.554 62 119.621 62H120.131C120.204 62 120.261 62.0233 120.301 62.07C120.347 62.11 120.371 62.1667 120.371 62.24V68.77C120.371 68.8367 120.347 68.8933 120.301 68.94C120.261 68.98 120.204 69 120.131 69H119.621C119.554 69 119.497 68.98 119.451 68.94C119.411 68.8933 119.391 68.8367 119.391 68.77V65.9H115.951V68.77C115.951 68.8367 115.927 68.8933 115.881 68.94C115.841 68.98 115.784 69 115.711 69H115.201ZM122.329 69C122.256 69 122.199 68.98 122.159 68.94C122.119 68.8933 122.099 68.8367 122.099 68.77V62.23C122.099 62.1633 122.119 62.11 122.159 62.07C122.199 62.0233 122.256 62 122.329 62H122.859C122.926 62 122.979 62.0233 123.019 62.07C123.066 62.11 123.089 62.1633 123.089 62.23V68.77C123.089 68.8367 123.066 68.8933 123.019 68.94C122.979 68.98 122.926 69 122.859 69H122.329ZM124.364 69C124.311 69 124.264 68.98 124.224 68.94C124.184 68.9 124.164 68.8533 124.164 68.8C124.164 68.7667 124.167 68.73 124.174 68.69L126.654 62.22C126.681 62.1533 126.717 62.1 126.764 62.06C126.811 62.02 126.881 62 126.974 62H127.654C127.741 62 127.807 62.02 127.854 62.06C127.907 62.1 127.947 62.1533 127.974 62.22L130.444 68.69C130.457 68.73 130.464 68.7667 130.464 68.8C130.464 68.8533 130.444 68.9 130.404 68.94C130.364 68.98 130.317 69 130.264 69H129.754C129.674 69 129.614 68.98 129.574 68.94C129.541 68.9 129.517 68.8633 129.504 68.83L128.954 67.41H125.674L125.124 68.83C125.117 68.8633 125.094 68.9 125.054 68.94C125.014 68.98 124.954 69 124.874 69H124.364ZM125.964 66.55H128.664L127.314 63L125.964 66.55ZM131.763 69C131.69 69 131.633 68.98 131.593 68.94C131.553 68.8933 131.533 68.8367 131.533 68.77V62.24C131.533 62.1667 131.553 62.11 131.593 62.07C131.633 62.0233 131.69 62 131.763 62H132.223C132.303 62 132.363 62.02 132.403 62.06C132.443 62.0933 132.466 62.12 132.473 62.14L135.793 67.24V62.24C135.793 62.1667 135.813 62.11 135.853 62.07C135.893 62.0233 135.95 62 136.023 62H136.503C136.576 62 136.633 62.0233 136.673 62.07C136.72 62.11 136.743 62.1667 136.743 62.24V68.76C136.743 68.8267 136.72 68.8833 136.673 68.93C136.633 68.9767 136.58 69 136.513 69H136.033C135.96 69 135.903 68.98 135.863 68.94C135.83 68.9 135.806 68.8733 135.793 68.86L132.483 63.81V68.77C132.483 68.8367 132.46 68.8933 132.413 68.94C132.373 68.98 132.316 69 132.243 69H131.763ZM138.006 69C137.953 69 137.906 68.98 137.866 68.94C137.826 68.9 137.806 68.8533 137.806 68.8C137.806 68.7667 137.81 68.73 137.816 68.69L140.296 62.22C140.323 62.1533 140.36 62.1 140.406 62.06C140.453 62.02 140.523 62 140.616 62H141.296C141.383 62 141.45 62.02 141.496 62.06C141.55 62.1 141.59 62.1533 141.616 62.22L144.086 68.69C144.1 68.73 144.106 68.7667 144.106 68.8C144.106 68.8533 144.086 68.9 144.046 68.94C144.006 68.98 143.96 69 143.906 69H143.396C143.316 69 143.256 68.98 143.216 68.94C143.183 68.9 143.16 68.8633 143.146 68.83L142.596 67.41H139.316L138.766 68.83C138.76 68.8633 138.736 68.9 138.696 68.94C138.656 68.98 138.596 69 138.516 69H138.006ZM139.606 66.55H142.306L140.956 63L139.606 66.55Z" fill="white"/>
</svg>
