<svg width="193" height="48" viewBox="0 0 193 48" fill="none" xmlns="http://www.w3.org/2000/svg">
<path d="M64.0162 40.7866H60.6943V35.6155H63.9836V36.3851H61.6151V37.7863H63.5178V38.5366H61.6151V39.9836H64.0162V40.7866ZM64.2355 39.5398L65.1307 39.3474C65.2377 39.8594 65.65 40.1155 66.3669 40.1155C66.6932 40.1155 66.9451 40.0511 67.1218 39.9192C67.2977 39.788 67.3846 39.6251 67.3846 39.4304C67.3846 39.2892 67.345 39.1588 67.266 39.0386C67.1854 38.9183 67.0141 38.8237 66.7521 38.7562L65.7748 38.4978C65.44 38.4101 65.1927 38.3093 65.0331 38.1975C64.8734 38.085 64.744 37.926 64.6486 37.7219C64.5525 37.5179 64.5037 37.2991 64.5037 37.0663C64.5037 36.6047 64.6742 36.2338 65.0145 35.9545C65.3539 35.6752 65.788 35.5356 66.3173 35.5356C66.7568 35.5356 67.1497 35.6333 67.4962 35.8273C67.8411 36.0213 68.0627 36.2967 68.1573 36.6536L67.2799 36.8739C67.1458 36.4821 66.8312 36.2866 66.3367 36.2866C66.0484 36.2866 65.8298 36.3463 65.6794 36.4674C65.5283 36.5892 65.4524 36.7428 65.4524 36.9306C65.4524 37.2254 65.6895 37.4325 66.1639 37.5512L67.0335 37.7708C67.5605 37.9043 67.9131 38.1021 68.0937 38.3636C68.2735 38.6258 68.3634 38.9144 68.3634 39.2294C68.3634 39.7368 68.1735 40.1372 67.7953 40.4281C67.4171 40.7206 66.9273 40.8657 66.3251 40.8673C65.8182 40.8657 65.3748 40.7586 64.9935 40.5437C64.6122 40.3288 64.3595 39.9952 64.2355 39.5398ZM71.9721 38.9905L72.8262 39.0859C72.7711 39.6034 72.5727 40.0301 72.2317 40.3637C71.8914 40.6989 71.4443 40.8657 70.8885 40.8673C70.422 40.8657 70.0422 40.7478 69.7523 40.5096C69.4601 40.2737 69.2369 39.9502 69.0796 39.5436C68.9222 39.1379 68.844 38.6894 68.844 38.1991C68.844 37.4116 69.0284 36.77 69.3981 36.2765C69.767 35.7823 70.2762 35.5356 70.9219 35.5356C71.4295 35.5356 71.8519 35.6931 72.1891 36.0096C72.5254 36.3254 72.7378 36.7769 72.8262 37.365L71.9721 37.4566C71.8147 36.6761 71.4667 36.2866 70.9296 36.2866C70.5855 36.2866 70.3173 36.448 70.1267 36.7731C69.936 37.0974 69.8407 37.5683 69.8407 38.1836C69.8407 38.8105 69.943 39.283 70.1476 39.6018C70.3514 39.9215 70.6227 40.0821 70.9606 40.0821C71.2303 40.0821 71.459 39.9742 71.6496 39.7601C71.8387 39.5452 71.9465 39.2892 71.9721 38.9905ZM75.4001 40.8673C74.7211 40.8657 74.1918 40.6081 73.8136 40.0937C73.4361 39.5778 73.247 38.9416 73.247 38.1836C73.247 37.431 73.4477 36.801 73.8492 36.2959C74.2522 35.7885 74.7832 35.5356 75.4412 35.5356C76.1062 35.5356 76.6316 35.7885 77.0168 36.2959C77.4028 36.801 77.5958 37.4349 77.5958 38.1952C77.5958 38.9928 77.3951 39.6383 76.9951 40.1302C76.5937 40.6213 76.0628 40.8657 75.4001 40.8673ZM75.4078 40.1155C75.7403 40.1155 76.0209 39.9773 76.2511 39.6996C76.4813 39.4211 76.596 38.9183 76.596 38.1874C76.596 37.5939 76.4999 37.1284 76.3108 36.7925C76.1217 36.455 75.8264 36.2866 75.4272 36.2866C74.6367 36.2866 74.2429 36.929 74.2429 38.2146C74.2429 38.8376 74.3429 39.3109 74.5452 39.6329C74.7459 39.9556 75.0335 40.1155 75.4078 40.1155ZM81.5594 40.7866H78.4135V35.6155H79.3831V39.9424H81.5594V40.7866ZM86.2089 40.7866H85.2246L84.8154 39.5553H82.8483L82.4484 40.7866H81.6617L83.3583 35.6155H84.493L86.2089 40.7866ZM84.5681 38.8097L83.8225 36.5015L83.0769 38.8097H84.5681ZM88.6743 40.7866V35.6155H90.5592C91.256 35.6155 91.8148 35.8653 92.2372 36.3642C92.6589 36.8623 92.8704 37.4775 92.8704 38.2107C92.8704 38.9424 92.6527 39.5553 92.2178 40.0487C91.7846 40.5414 91.1615 40.7866 90.3523 40.7866H88.6743ZM89.6222 40.0255H90.3903C90.8026 40.0255 91.1514 39.8687 91.4389 39.5553C91.7265 39.2426 91.8699 38.7755 91.8699 38.158C91.8699 37.6521 91.7451 37.2254 91.494 36.8747C91.2421 36.5256 90.9111 36.3502 90.4996 36.3502H89.6222V40.0255ZM97.0069 40.7866H93.685V35.6155H96.9735V36.3851H94.6058V37.7863H96.5085V38.5366H94.6058V39.9836H97.0069V40.7866ZM104.695 40.7866H103.755V36.2594L102.339 40.7866H101.856L100.432 36.2594V40.7866H99.68V35.6155H101.121L102.193 38.9455L103.246 35.6155H104.695V40.7866ZM109.105 40.7866H105.784V35.6155H109.072V36.3851H106.704V37.7863H108.607V38.5366H106.704V39.9836H109.105V40.7866ZM109.833 40.7866V35.6155H111.718C112.415 35.6155 112.974 35.8653 113.396 36.3642C113.818 36.8623 114.028 37.4775 114.028 38.2107C114.028 38.9424 113.811 39.5553 113.377 40.0487C112.943 40.5414 112.32 40.7866 111.511 40.7866H109.833ZM110.781 40.0255H111.549C111.961 40.0255 112.31 39.8687 112.598 39.5553C112.885 39.2426 113.029 38.7755 113.029 38.158C113.029 37.6521 112.904 37.2254 112.653 36.8747C112.401 36.5256 112.07 36.3502 111.658 36.3502H110.781V40.0255ZM115.765 40.7866H114.844V35.6155H115.765V40.7866ZM119.706 38.9905L120.561 39.0859C120.506 39.6034 120.308 40.0301 119.966 40.3637C119.626 40.6989 119.179 40.8657 118.624 40.8673C118.157 40.8657 117.777 40.7478 117.487 40.5096C117.195 40.2737 116.971 39.9502 116.814 39.5436C116.657 39.1379 116.579 38.6894 116.579 38.1991C116.579 37.4116 116.763 36.77 117.133 36.2765C117.502 35.7823 118.011 35.5356 118.657 35.5356C119.165 35.5356 119.586 35.6931 119.924 36.0096C120.261 36.3254 120.473 36.7769 120.561 37.365L119.706 37.4566C119.55 36.6761 119.202 36.2866 118.665 36.2866C118.321 36.2866 118.052 36.448 117.862 36.7731C117.671 37.0974 117.575 37.5683 117.575 38.1836C117.575 38.8105 117.677 39.283 117.882 39.6018C118.087 39.9215 118.358 40.0821 118.695 40.0821C118.966 40.0821 119.194 39.9742 119.385 39.7601C119.574 39.5452 119.681 39.2892 119.706 38.9905ZM122.173 40.7866H121.252V35.6155H122.173V40.7866ZM127.119 40.7866H126.224L124.282 37.483C124.253 37.4325 124.205 37.3511 124.137 37.237C124.106 37.1866 124.06 37.1067 123.999 36.9981V40.7866H123.257V35.6155H124.275L126.067 38.6607C126.08 38.6863 126.189 38.8718 126.393 39.2178V35.6155H127.119V40.7866ZM132.213 40.7866H131.229L130.82 39.5553H128.853L128.453 40.7866H127.666L129.364 35.6155H130.497L132.213 40.7866ZM130.573 38.8097L129.827 36.5015L129.082 38.8097H130.573ZM138.028 40.7866H134.706V35.6155H137.995V36.3851H135.627V37.7863H137.529V38.5366H135.627V39.9836H138.028V40.7866ZM140.165 39.5398L141.061 39.3474C141.168 39.8594 141.58 40.1155 142.297 40.1155C142.623 40.1155 142.875 40.0511 143.052 39.9192C143.228 39.788 143.314 39.6251 143.314 39.4304C143.314 39.2892 143.275 39.1588 143.196 39.0386C143.115 38.9183 142.944 38.8237 142.682 38.7562L141.705 38.4978C141.37 38.4101 141.123 38.3093 140.963 38.1975C140.803 38.085 140.674 37.926 140.578 37.7219C140.482 37.5179 140.434 37.2991 140.434 37.0663C140.434 36.6047 140.604 36.2338 140.944 35.9545C141.284 35.6752 141.718 35.5356 142.247 35.5356C142.687 35.5356 143.08 35.6333 143.426 35.8273C143.771 36.0213 143.993 36.2967 144.087 36.6536L143.21 36.8739C143.076 36.4821 142.761 36.2866 142.267 36.2866C141.978 36.2866 141.76 36.3463 141.609 36.4674C141.458 36.5892 141.382 36.7428 141.382 36.9306C141.382 37.2254 141.619 37.4325 142.094 37.5512L142.963 37.7708C143.49 37.9043 143.843 38.1021 144.023 38.3636C144.203 38.6258 144.293 38.9144 144.293 39.2294C144.293 39.7368 144.103 40.1372 143.725 40.4281C143.347 40.7206 142.857 40.8657 142.255 40.8673C141.748 40.8657 141.305 40.7586 140.923 40.5437C140.542 40.3288 140.289 39.9952 140.165 39.5398ZM149.026 40.7866H148.041L147.632 39.5553H145.665L145.265 40.7866H144.479L146.175 35.6155H147.31L149.026 40.7866ZM147.385 38.8097L146.639 36.5015L145.894 38.8097H147.385ZM153.11 35.6155V38.9377C153.11 39.3877 153.061 39.733 152.959 39.9758C152.86 40.2179 152.667 40.4273 152.382 40.6027C152.095 40.7788 151.746 40.8657 151.334 40.8673C150.918 40.8657 150.574 40.7904 150.306 40.6392C150.037 40.4879 149.844 40.2799 149.726 40.0161C149.609 39.7524 149.55 39.4149 149.55 39.006V35.6155H150.491V38.9377C150.491 39.3924 150.585 39.6911 150.774 39.8338C150.962 39.9774 151.182 40.0487 151.431 40.0487C151.719 40.0487 151.948 39.9719 152.121 39.8183C152.293 39.6655 152.379 39.3722 152.379 38.9377V35.6155H153.11ZM152.289 33.9668L152.536 34.5347L150.975 35.202L150.818 34.7954L152.289 33.9668ZM154.095 40.7866V35.6155H155.98C156.677 35.6155 157.236 35.8653 157.657 36.3642C158.08 36.8623 158.291 37.4775 158.291 38.2107C158.291 38.9424 158.074 39.5553 157.639 40.0487C157.205 40.5414 156.582 40.7866 155.773 40.7866H154.095ZM155.042 40.0255H155.811C156.223 40.0255 156.572 39.8687 156.86 39.5553C157.147 39.2426 157.291 38.7755 157.291 38.158C157.291 37.6521 157.165 37.2254 156.915 36.8747C156.663 36.5256 156.331 36.3502 155.92 36.3502H155.042V40.0255ZM162.428 40.7866H159.105V35.6155H162.395V36.3851H160.026V37.7863H161.929V38.5366H160.026V39.9836H162.428V40.7866ZM166.021 40.7866H165.1V35.6155H167.194C167.791 35.6155 168.233 35.7683 168.522 36.0717C168.81 36.3758 168.955 36.735 168.955 37.1493C168.955 37.6226 168.799 38.0051 168.486 38.2976C168.175 38.5909 167.778 38.7368 167.298 38.7368H166.021V40.7866ZM166.021 37.9376H167.111C167.396 37.9376 167.613 37.867 167.763 37.7258C167.914 37.5838 167.988 37.3961 167.988 37.161C167.988 36.9484 167.919 36.7676 167.78 36.6148C167.641 36.4635 167.39 36.389 167.029 36.389H166.021V37.9376ZM173.167 35.6155V38.9377C173.167 39.3877 173.117 39.733 173.016 39.9758C172.917 40.2179 172.723 40.4273 172.438 40.6027C172.152 40.7788 171.802 40.8657 171.391 40.8673C170.974 40.8657 170.631 40.7904 170.363 40.6392C170.094 40.4879 169.901 40.2799 169.783 40.0161C169.666 39.7524 169.607 39.4149 169.607 39.006V35.6155H170.548V38.9377C170.548 39.3924 170.641 39.6911 170.831 39.8338C171.019 39.9774 171.239 40.0487 171.488 40.0487C171.776 40.0487 172.004 39.9719 172.177 39.8183C172.35 39.6655 172.435 39.3722 172.435 38.9377V35.6155H173.167ZM172.346 33.9668L172.593 34.5347L171.032 35.202L170.874 34.7954L172.346 33.9668ZM174.178 40.7866V35.6155H176.171C176.508 35.6155 176.787 35.6504 177.01 35.7218C177.232 35.7924 177.425 35.9398 177.586 36.1648C177.749 36.3898 177.83 36.6536 177.83 36.9562C177.83 37.2425 177.747 37.4907 177.584 37.701C177.419 37.912 177.191 38.0462 176.901 38.1044C177.262 38.1681 177.533 38.3155 177.718 38.5482C177.903 38.7794 177.995 39.0549 177.995 39.3737C177.995 39.7725 177.866 40.1077 177.608 40.3792C177.348 40.6508 176.951 40.7866 176.415 40.7866H174.178ZM175.05 37.7863H176.175C176.405 37.7863 176.586 37.7165 176.719 37.5784C176.854 37.4387 176.92 37.2619 176.92 37.0469C176.92 36.8103 176.844 36.6357 176.691 36.5232C176.539 36.4107 176.362 36.3541 176.156 36.3541H175.05V37.7863ZM175.05 40.0092H176.242C176.494 40.0092 176.694 39.944 176.84 39.809C176.986 39.6763 177.058 39.4948 177.058 39.2674C177.058 39.0502 176.984 38.8725 176.836 38.7329C176.687 38.5948 176.49 38.525 176.246 38.525H175.05V40.0092ZM181.944 40.7866H178.799V35.6155H179.768V39.9424H181.944V40.7866ZM183.504 40.7866H182.583V35.6155H183.504V40.7866ZM187.446 38.9905L188.301 39.0859C188.245 39.6034 188.047 40.0301 187.705 40.3637C187.366 40.6989 186.918 40.8657 186.363 40.8673C185.896 40.8657 185.517 40.7478 185.226 40.5096C184.934 40.2737 184.71 39.9502 184.553 39.5436C184.397 39.1379 184.318 38.6894 184.318 38.1991C184.318 37.4116 184.502 36.77 184.872 36.2765C185.241 35.7823 185.751 35.5356 186.396 35.5356C186.904 35.5356 187.326 35.6931 187.663 36.0096C188 36.3254 188.212 36.7769 188.301 37.365L187.446 37.4566C187.289 36.6761 186.941 36.2866 186.404 36.2866C186.06 36.2866 185.791 36.448 185.601 36.7731C185.41 37.0974 185.314 37.5683 185.314 38.1836C185.314 38.8105 185.417 39.283 185.621 39.6018C185.826 39.9215 186.097 40.0821 186.434 40.0821C186.705 40.0821 186.933 39.9742 187.124 39.7601C187.313 39.5452 187.421 39.2892 187.446 38.9905ZM192.966 40.7866H191.98L191.571 39.5553H189.605L189.205 40.7866H188.418L190.115 35.6155H191.25L192.966 40.7866ZM191.325 38.8097L190.579 36.5015L189.834 38.8097H191.325Z" fill="white"/>
<path fill-rule="evenodd" clip-rule="evenodd" d="M75.7653 18.5197C77.9648 19.8527 79.4429 22.271 79.4429 25.0191C79.4429 29.194 76.0303 32.6108 71.859 32.6108H60.6611V19.6936V17.4273V9.1823C60.6611 7.86878 61.7307 6.7981 63.0421 6.7981H72.0714C75.6141 6.7981 78.512 9.6998 78.512 13.2462C78.512 15.4194 77.4239 17.3505 75.7653 18.5197ZM71.2126 21.205H65.2424V27.9704H71.2126C73.0712 27.9704 74.5918 26.4482 74.5918 24.5877V24.5869C74.5918 22.7264 73.0712 21.205 71.2126 21.205ZM71.318 11.2911H65.2424V16.7104H71.318C72.8069 16.7104 74.0245 15.4908 74.0245 14.0004C74.0245 12.51 72.8069 11.2911 71.318 11.2911Z" fill="white"/>
<path fill-rule="evenodd" clip-rule="evenodd" d="M127.749 32.6108H122.917V9.54692C122.917 8.03245 124.152 6.79651 125.665 6.79651H127.749V32.6108Z" fill="white"/>
<path fill-rule="evenodd" clip-rule="evenodd" d="M106.188 32.6108H101.357V9.54692C101.357 8.03245 102.591 6.79651 104.105 6.79651H106.188V16.473H115.533V6.79651C117.145 6.79651 118.753 6.79651 120.365 6.79651V32.6108H115.533V21.0583H106.188V32.6108Z" fill="white"/>
<path fill-rule="evenodd" clip-rule="evenodd" d="M155.439 32.6108H150.607V9.54692C150.607 8.03245 151.842 6.79651 153.355 6.79651C154.125 6.79651 154.893 6.79651 155.663 6.79651L164.784 23.6714V6.79651C166.395 6.79651 168.003 6.79651 169.615 6.79651V32.6108H164.784V32.5898L155.439 15.2999V32.6108Z" fill="white"/>
<path fill-rule="evenodd" clip-rule="evenodd" d="M100.717 32.6108H95.6408L94.1465 27.2109H85.1025L83.609 32.6108H78.5332L85.9008 8.86187C86.2682 7.67791 87.2835 6.88267 88.5019 6.80508L88.6995 6.7981H90.7495H92.7088L100.717 32.6108ZM92.9592 22.9188L89.6249 11.4858L86.2899 22.9188H92.9592Z" fill="white"/>
<path fill-rule="evenodd" clip-rule="evenodd" d="M150.329 32.6108H145.253L143.759 27.2109H134.716L133.221 32.6108H128.146L135.513 8.86187C135.88 7.67791 136.896 6.88267 138.114 6.80508L138.312 6.7981H140.362H142.321L150.329 32.6108ZM142.571 22.9188L139.237 11.4858L135.902 22.9188H142.571Z" fill="white"/>
<path fill-rule="evenodd" clip-rule="evenodd" d="M192.999 32.6108H187.923L186.43 27.2109H177.386L175.891 32.6108H170.815L178.183 8.86187C178.55 7.67791 179.566 6.88267 180.784 6.80508L180.982 6.7981H183.032H184.991L192.999 32.6108ZM185.242 22.9188L181.907 11.4858L178.573 22.9188H185.242Z" fill="white"/>
<path fill-rule="evenodd" clip-rule="evenodd" d="M11.0381 0.00012207H43.6645L43.6405 1.01494C43.511 6.5561 43.349 12.0965 43.084 17.6338C42.8212 23.1253 42.4523 28.6067 41.995 34.0858L41.9493 34.6328L41.461 34.8842C32.9557 39.2646 21.7461 39.2646 13.2408 34.8842L12.7533 34.6328L12.7075 34.0858C12.2503 28.6067 11.8813 23.1253 11.6186 17.6338C11.3535 12.0965 11.1915 6.5561 11.0621 1.01494L11.0381 0.00012207ZM27.3513 18.4756L31.8473 23.5504C30.8855 24.414 30.2802 25.667 30.2802 27.062C30.2802 29.6681 32.3906 31.78 34.9933 31.78C36.1837 31.78 37.2711 31.3377 38.1004 30.6084L41.0169 33.9004L41.0084 34.0028C36.8782 36.1302 32.0783 37.1877 27.2815 37.1776H27.3513V18.4756H12.651C12.3766 12.9631 12.2038 7.46463 12.0542 1.10804L16.7114 6.39628C15.6915 7.26136 15.0435 8.55316 15.0435 9.99702C15.0435 12.6023 17.1532 14.7142 19.7558 14.7142C20.985 14.7142 22.1042 14.2433 22.9436 13.4713L27.3513 18.4756H42.0516C42.3275 12.929 42.5011 7.39791 42.6507 0.991664H27.3513H12.0518H27.2513H27.3513V18.4756ZM31.8473 23.5504C32.5697 22.9018 33.4928 22.4728 34.5127 22.3688V21.1298H33.168V20.1677H34.5127V18.9659H35.4738V20.1677H36.8177V21.1298H35.4738V22.3688C37.8509 22.6101 39.7055 24.6196 39.7055 27.062C39.7055 28.4756 39.084 29.7441 38.1004 30.6084L31.8473 23.5504ZM35.156 4.32397H35.821C35.9094 4.32397 35.9814 4.39534 35.9807 4.48379L35.9621 6.63989C36.6441 6.16119 37.1983 5.58318 37.1905 4.67543C37.1828 3.82198 36.5209 3.09811 35.2808 3.05078C34.381 3.01665 33.5842 3.4294 33.5842 3.4294C33.4145 3.63035 33.4765 4.12379 33.4765 4.12379C32.4131 4.69482 31.4567 4.41707 31.4567 4.41707C31.673 3.63035 32.4744 2.70398 32.6596 2.85837C32.8441 3.01277 33.3068 2.93596 33.3068 2.93596C34.7297 2.04915 37.5842 2.14303 38.4972 3.80259C39.7257 6.03473 37.3494 7.58488 35.666 8.47945C34.5802 9.05591 33.9245 9.6735 34.0942 10.3314C34.2097 10.7775 34.5949 11.1143 35.0669 11.3835L35.0452 9.28013C35.318 9.04195 35.7086 8.86893 35.9435 8.78358L35.8698 17.1209C35.8691 17.2094 35.7978 17.2815 35.7102 17.2815H35.287C35.1994 17.2815 35.1281 17.2094 35.1273 17.1209L35.0785 12.4557C33.9741 12.0709 32.8409 11.4952 32.6999 10.4928C32.5457 9.39574 33.375 8.43445 34.2849 7.72842C34.5081 7.55541 34.7615 7.3948 35.0243 7.23343L34.9964 4.48379C34.9956 4.39534 35.0677 4.32397 35.156 4.32397ZM36.1674 12.7955C36.3031 12.8351 36.431 12.8731 36.5488 12.9088C37.561 13.2184 36.6643 13.8608 36.3325 14.3348C35.7148 15.2178 35.6683 16.5127 36.8836 16.8401C35.7993 15.9649 36.4155 15.1138 37.2308 14.4543C37.6199 14.1401 38.0082 13.7638 38.0539 13.341C38.1097 12.818 37.5951 12.472 36.9797 12.202C36.7549 12.1035 36.4736 12.0003 36.1737 11.8847L36.1674 12.7955ZM22.9436 13.4713C23.8806 12.6086 24.4689 11.3718 24.4689 9.99702C24.4689 7.55385 22.6134 5.54439 20.2363 5.30387V4.06406H21.5811V3.10199H20.2363V1.90019H19.2753V3.10199H17.9306V4.06406H19.2753V5.30387C18.3034 5.40241 17.4183 5.79654 16.7114 6.39628L22.9436 13.4713ZM20.4185 22.202H21.0835C21.1718 22.202 21.2447 22.2742 21.2439 22.3618L21.2245 24.5179C21.9066 24.04 22.4615 23.4612 22.453 22.5543C22.4452 21.7 21.7833 20.9762 20.5433 20.9288C19.6442 20.8947 18.8475 21.3075 18.8475 21.3075C18.6777 21.5084 18.739 22.0018 18.739 22.0018C17.6756 22.5729 16.72 22.2951 16.72 22.2951C16.9354 21.5084 17.7368 20.5828 17.9221 20.7364C18.1073 20.8908 18.57 20.814 18.57 20.814C19.9922 19.928 22.8475 20.0219 23.7605 21.6806C24.9882 23.9128 22.6119 25.4629 20.9285 26.3575C19.8426 26.934 19.1869 27.5523 19.3567 28.2095C19.4722 28.6556 19.8581 28.9923 20.3301 29.2615L20.3077 27.1582C20.5805 26.92 20.9711 26.747 21.2059 26.6616L21.1331 34.9998C21.1323 35.0874 21.061 35.1596 20.9726 35.1596H20.5495C20.4619 35.1596 20.3906 35.0874 20.3898 34.9998L20.341 30.3338C19.2373 29.9489 18.1042 29.3732 17.9631 28.3708C17.8089 27.2746 18.6382 26.3125 19.5473 25.6072C19.7705 25.4342 20.0248 25.2729 20.2875 25.1115L20.2588 22.3618C20.2581 22.2742 20.3309 22.202 20.4185 22.202ZM21.4299 30.6736C21.5656 30.7132 21.6942 30.7512 21.812 30.7869C22.8242 31.0972 21.9267 31.7388 21.5958 32.2129C20.9773 33.0958 20.9316 34.3915 22.1461 34.7181C21.0618 33.843 21.6787 32.9918 22.4933 32.3331C22.8824 32.0181 23.2714 31.6419 23.3164 31.219C23.373 30.6961 22.8576 30.3508 22.2422 30.0801C22.0182 29.9815 21.7361 29.8791 21.4369 29.7627L21.4299 30.6736Z" fill="white"/>
<path fill-rule="evenodd" clip-rule="evenodd" d="M43.123 40.133C42.8897 40.012 42.665 39.8816 42.4495 39.7428C40.7808 38.6635 40.6041 37.7899 40.6746 35.9465C40.7452 34.1124 41.1327 32.1494 41.7225 30.5372L41.7605 30.4325L41.8666 30.3952C43.3385 29.8777 45.1435 29.7707 46.689 29.8793C48.5507 30.0096 50.4805 30.4767 52.1329 31.3612L52.4685 31.5412L52.1601 31.7639C51.2106 32.4466 50.6758 34.6182 50.7487 35.7277C51.4664 35.9868 52.3933 36.3942 53.0018 36.7867C53.7195 37.2515 54.5968 38.0118 54.7038 38.9242C54.7146 39.0965 54.7193 39.2268 54.6867 39.4014C54.4193 40.8026 53.6226 42.5653 53.225 44.02C52.9653 44.9697 52.6677 46.2211 51.9485 46.9311C51.0269 47.8411 49.5931 47.7255 48.4251 47.5029C43.5981 46.5835 38.7548 45.7106 33.8511 45.3266C31.8174 45.1668 29.7674 45.1 27.7282 45.0923C25.6852 45.0837 23.6337 45.1357 21.5953 45.2731C16.4482 45.6199 11.3507 46.5385 6.28963 47.5029C5.12164 47.7255 3.6878 47.8411 2.76627 46.9311C2.04703 46.2211 1.74941 44.9697 1.48977 44.02C1.15727 42.8035 -0.0138273 40.1454 0.000123592 39.0871L0.0109754 38.9242C0.117157 38.0118 0.99451 37.2515 1.71298 36.7867C2.32062 36.3942 3.21967 35.9667 3.93659 35.7075C4.01177 34.5639 3.52969 32.4652 2.55468 31.7639L2.24544 31.5412L2.58103 31.3612C4.23421 30.4767 6.16408 30.0096 8.02497 29.8793C9.57119 29.7707 11.3763 29.8777 12.8481 30.3952L12.9535 30.4325L12.9923 30.5372C13.6146 32.2402 14.0122 34.335 14.0486 36.2545C14.0812 37.9691 13.7921 38.7551 12.2645 39.7428C12.0459 39.884 11.8165 40.0166 11.5786 40.14C14.8469 39.7164 18.1068 39.1872 21.3829 38.8334C23.5344 38.6015 25.6837 38.4797 27.8476 38.5029C30.0107 38.5262 32.1607 38.6915 34.3092 38.9436C36.4653 39.1965 38.6146 39.5084 40.7653 39.8095C41.5497 39.9196 42.3355 40.0298 43.123 40.133ZM19.4189 41.3379C19.2872 41.8864 19.2562 42.0486 19.3058 42.5964C19.3174 42.722 19.3205 42.6685 19.343 42.7624C19.4298 43.1255 19.5065 43.4638 19.7421 43.7625C19.8158 43.8556 20.0467 44.0371 20.1723 44.0674C20.4575 44.1372 20.5629 44.1915 20.8474 44.0705C21.076 43.9735 21.3194 43.7043 21.4348 43.4901C21.5612 43.2566 21.7232 42.4908 21.7201 42.2588L21.6023 41.3573C21.4558 40.9624 21.1814 40.3875 20.7187 40.3037C20.0754 40.1865 19.8367 40.6156 19.622 40.8763C19.5081 41.0152 19.467 41.1354 19.4189 41.3379ZM31.5446 43.8618C31.5461 43.584 31.481 43.75 31.4957 43.5134C31.4717 42.7158 31.419 41.5358 31.5019 40.7258C31.5143 40.1609 31.7507 40.1524 31.3105 40.0841C30.9075 40.0213 31.1276 40.2851 31.1307 40.8716C31.1338 41.6064 31.1485 42.5669 31.085 43.2775C31.0749 43.3924 30.9765 43.7718 31.04 43.8439C31.085 43.8944 31.4601 43.8796 31.5446 43.8618ZM41.9318 41.3387C41.9031 41.4566 41.9728 41.5862 41.9628 41.7522C41.9116 42.5366 42.0023 43.8742 41.8209 44.595C41.7023 45.0659 41.769 45.0178 42.103 45.0993L42.9246 45.1652C42.9331 45.1606 43.0873 44.9425 43.0308 44.7222C42.7394 44.7191 42.7548 44.8463 42.2495 44.7664C42.1542 44.5088 42.1681 44.574 42.2139 44.1938C42.2379 43.9921 42.1867 43.7694 42.2301 43.5887C42.2565 43.48 42.2829 43.4723 42.3146 43.3753C42.6487 43.4568 42.637 43.6298 42.7673 43.5468C42.7952 43.5297 42.9564 43.3249 42.9122 43.1193C42.6363 43.058 42.6324 43.1782 42.272 42.9959L42.3053 42.4893C42.2991 42.3046 42.2356 41.6475 42.5433 41.722C42.999 41.8337 42.9347 42.3271 43.1408 41.4659C42.6859 41.355 42.7417 41.4326 42.4828 41.4023C42.3604 41.3883 41.9597 41.2231 41.9318 41.3387ZM6.30979 45.5756C6.29196 45.6486 6.19508 45.8045 6.1509 45.8449C5.84166 46.1319 5.61767 45.5275 5.53086 45.8883C5.49444 46.0404 5.55799 45.8255 5.56497 46.1381C5.56807 46.2786 5.53629 46.4524 5.84321 46.398C6.70738 46.246 6.91742 45.2288 6.5175 44.6105C6.35706 44.3622 6.00132 44.2171 5.80833 43.989C5.38361 43.4886 5.79826 43.0293 5.86569 42.999C6.07262 42.9075 6.28033 43.1821 6.32374 42.999C6.45937 42.4326 5.73625 42.383 5.49599 42.7725C5.16117 43.3148 5.12629 44.0317 5.59984 44.522C5.7161 44.6431 6.44619 45.0054 6.30979 45.5756ZM6.99571 42.2922C6.91975 42.3861 7.18327 46.0745 7.24449 46.0745L8.03892 45.9372C8.15672 45.9038 8.23888 45.8999 8.34894 45.872C8.37141 45.7789 8.41327 45.4476 8.39932 45.3824C8.22726 45.3592 8.26523 45.4934 7.82423 45.6299C7.71418 45.6633 7.69712 45.6338 7.59714 45.6555C7.49406 45.3762 7.47468 44.6787 7.47391 44.3521C7.63434 44.2381 7.65527 44.2621 7.91569 44.3257C8.01257 44.2373 7.98932 44.3125 8.02962 44.1969C8.1451 43.8711 8.1451 43.8106 7.72967 43.8905C7.32277 43.9688 7.42043 43.8199 7.42275 43.6802L7.33905 42.6778L8.0614 42.6002C8.0769 42.5319 8.05907 42.2395 8.03272 42.1952L6.99571 42.2922ZM38.0426 40.7917C38.0464 40.9213 38.041 40.7933 38.065 40.8856C38.0891 40.9748 38.0805 40.898 38.086 40.981C38.1604 42.0913 37.9744 42.9944 37.9899 44.0402C37.9953 44.4499 37.9348 44.2644 37.9286 44.4825C38.1108 44.574 38.4006 44.5794 38.5835 44.5841C39.1672 44.6004 39.13 44.7819 39.2609 44.2381C39.3067 44.0441 39.0912 44.1729 38.9881 44.1884C38.606 44.2466 38.7719 44.2862 38.4316 44.2031C38.3123 44.1737 38.3596 44.0022 38.3758 43.8858C38.4239 43.5437 38.3107 43.089 38.5208 42.8508L38.9463 43.0277C39.0362 42.9144 39.1796 42.5762 39.0625 42.5475C38.8571 42.4978 38.6533 42.473 38.5014 42.5118C38.403 42.2449 38.4448 41.49 38.52 41.1758C38.9292 41.2658 38.6828 41.1804 39.0749 41.3783C39.2276 41.237 39.1997 41.2758 39.2609 41.0214C39.3214 40.7669 38.5564 40.8313 38.3751 40.8057C38.2557 40.7894 38.1394 40.7708 38.0426 40.7917ZM32.1382 43.4172L32.0662 43.3303C32.0631 43.328 32.0553 43.3218 32.0522 43.3202C31.9561 43.2512 31.9267 43.3482 31.9158 43.4963C31.8972 43.7431 31.8554 43.9712 32.2018 44.0557C32.2987 44.0798 32.2251 44.0286 32.5002 44.0146C32.7095 44.0037 32.8614 43.8936 32.9637 43.7159C33.2923 43.1464 33.1946 42.6126 32.8381 42.1277C32.8335 42.1223 32.8257 42.1161 32.8211 42.1107L32.7405 42.0253C32.5886 41.8787 32.3212 41.618 32.284 41.4077C32.1747 41.1509 32.3064 40.4496 32.7831 40.7281C32.9652 40.8352 32.9288 41.0221 33.059 40.479C33.1218 40.216 32.2933 39.9476 32.0212 40.6327C31.8468 41.071 31.7872 41.6878 32.0879 42.0719C32.3653 42.4264 32.5188 42.4668 32.6537 42.7531C32.9133 43.3055 32.4862 43.8245 32.1382 43.4172ZM11.4437 44.2823C11.3476 44.1783 11.2933 43.9727 11.2437 43.8369C11.2135 43.7532 11.2143 43.7268 11.198 43.6484L10.9973 42.9874C10.9074 42.6646 10.7919 42.2976 10.7524 41.9741C10.7384 41.8616 10.7144 41.722 10.6756 41.6157C10.5726 41.642 10.5415 41.6669 10.4137 41.6715C10.1067 41.6832 10.13 41.7181 10.2432 41.9601C10.6648 42.9726 11.0081 44.2388 11.3429 45.2707C11.67 45.3638 11.5879 45.0721 11.7072 44.581L11.9312 43.4987C11.9552 43.3435 11.9909 43.1705 12.0211 42.9843C12.0482 42.8159 12.0273 42.6879 12.0715 42.4939C12.1164 42.2976 12.3722 41.4605 12.2606 41.4333C11.8529 41.3333 11.8243 41.5024 11.8529 41.7895C11.8824 42.0905 11.6661 42.9742 11.6026 43.456C11.5623 43.7671 11.5313 44.0169 11.4437 44.2823ZM12.5551 44.1186L12.4737 44.3886C12.4358 44.5787 12.2397 45.017 12.2885 45.0915C12.3575 45.1419 12.5086 45.1334 12.6117 45.0923C12.7706 45.0287 12.7551 44.9293 12.7729 44.7703C12.814 44.4111 12.9054 44.1931 12.9791 43.8866C13.0946 43.8579 13.6317 43.7446 13.7433 43.7718C13.8603 43.8005 13.8967 44.0014 13.9487 44.1333C14.2424 44.8766 13.906 44.965 14.6772 44.7703L14.2036 43.7074C14.1657 43.6127 14.1672 43.5739 14.1339 43.4793C14.1091 43.4079 14.0703 43.3373 14.0417 43.2659L13.396 41.497C13.3418 41.3581 13.3325 41.4132 13.2302 41.3014L12.628 43.8005C12.5954 43.9021 12.5923 43.8742 12.5753 43.9518C12.5667 43.9913 12.5737 44.041 12.5551 44.1186ZM13.2581 42.5816C13.1876 42.8757 13.0744 43.1852 13.124 43.4195C13.262 43.4164 13.1232 43.418 13.2465 43.3986C13.3891 43.3769 13.5735 43.425 13.6278 43.2744C13.6425 43.2357 13.4131 42.5428 13.3519 42.4699C13.2999 42.518 13.2751 42.5102 13.2581 42.5816ZM28.5343 43.5631C28.6056 43.2659 28.5141 43.539 28.5133 43.1162C28.5133 42.7593 28.4963 42.3093 28.5498 41.9586C28.2537 41.8089 28.3467 41.9035 28.1072 41.85C28.0119 42.248 28.0863 42.1262 28.1173 42.3302C28.1359 42.4513 28.1778 43.0983 28.0855 43.2209C28.0189 43.3086 27.9871 43.3032 27.8763 43.3233C27.3857 43.4126 27.2082 43.1697 27.0105 42.8431C26.8858 42.6382 26.8834 42.4854 26.8237 42.2813C26.7943 42.1805 26.7827 41.6452 26.8245 41.4706C26.9966 40.7514 26.8842 41.0175 27.1043 40.7382C27.181 40.6404 27.1888 40.6047 27.3058 40.5403L27.5476 40.4503C27.8096 40.4317 28.1421 40.5636 28.356 40.6714C28.4172 40.486 28.4087 40.538 28.3862 40.3293C28.3552 40.0531 28.48 40.0989 27.9863 39.9778C27.9421 39.9678 27.5329 39.9654 27.395 40.0244C27.2128 40.102 27.0718 40.1423 26.9416 40.2959C26.7439 40.5287 26.8726 40.2633 26.7152 40.6303C26.6408 40.8026 26.4843 40.9616 26.423 41.445C26.3804 41.7755 26.3804 41.4814 26.4006 41.8639C26.4122 42.075 26.3269 42.0781 26.3975 42.2984C26.4471 42.4536 26.4114 42.5257 26.4494 42.6724C26.5091 42.9028 26.6091 43.1356 26.7362 43.335C26.9439 43.6593 27.4779 43.8734 27.8383 43.8346C27.9328 43.8238 27.9212 43.8082 28.0235 43.785C28.1336 43.7601 28.5056 43.6818 28.5343 43.5631ZM48.0678 42.4342C48.0229 42.6235 48.0887 42.7081 48.0942 42.8508C48.0887 43.5188 48.0182 44.5275 47.9748 45.1668L47.8407 45.8705C47.7965 46.1715 47.9019 46.0543 48.2864 46.1389C48.3561 45.8464 48.3119 46.0132 48.2856 45.8689L48.3336 44.543C48.5956 44.8285 48.5483 44.9425 48.6429 45.1644L48.9126 45.8115C48.97 45.9162 49.1017 46.2382 49.1947 46.2607C49.6629 46.3748 49.3652 46.0474 49.2784 45.8317C49.2459 45.7518 49.2327 45.7122 49.2009 45.6354L48.8638 44.7594C48.8018 44.605 48.8026 44.6834 48.8537 44.4685C48.8909 44.3125 48.8591 44.4956 49.0467 44.3001C49.3373 43.9975 49.3931 43.456 49.2668 43.0549C49.1823 42.7864 49.0707 42.6375 48.8157 42.5188C48.453 42.3489 48.6878 42.4264 48.3073 42.3853C48.2158 42.3752 48.0903 42.3426 48.0678 42.4342ZM48.3701 44.2505C48.7049 44.3242 48.9111 43.9494 48.9498 43.7888C49.0134 43.5235 49.0033 43.1162 48.7894 42.8865C48.6909 42.7802 48.6437 42.7756 48.4654 42.7321C48.36 42.9432 48.3724 43.9223 48.3701 44.2505ZM8.5489 42.1021C8.54502 42.7686 8.78451 44.432 8.84729 45.2172C8.85814 45.3568 8.78297 45.5733 8.78219 45.7432L9.2945 45.7013L9.24334 45.3537C9.23327 45.294 9.21234 45.2513 9.19917 45.1916L9.14723 44.8448C9.13406 44.6376 9.10616 44.3894 9.14569 44.2241C9.17514 44.1031 9.13871 44.2101 9.20071 44.1372L9.4433 44.5562C9.49291 44.6376 9.52624 44.6912 9.57584 44.7726C9.60141 44.8145 9.61149 44.83 9.63474 44.8719L10.0068 45.4026C10.1176 45.5306 10.2021 45.6261 10.4361 45.4104L9.96104 44.6997C9.91608 44.626 9.57894 43.9549 9.58514 43.9293C9.64017 43.7012 9.89051 43.7097 9.93546 43.231C9.96569 42.9067 10.0037 42.7352 9.8502 42.362C9.77425 42.1758 9.55104 41.9873 9.29992 41.9625C9.06198 41.9384 9.09531 41.9446 8.90077 41.9726C8.6543 42.0082 8.72329 41.9415 8.5489 42.1021ZM9.14956 43.7896C9.3534 43.785 9.59521 43.3288 9.59521 43.3288C9.64017 43.1402 9.60916 42.8617 9.54406 42.684C9.52468 42.6297 9.52314 42.5971 9.50454 42.5459C9.45958 42.4187 9.58436 42.5358 9.26349 42.3419C9.17979 42.2907 9.13019 42.3163 8.99068 42.2829C8.92867 42.6266 8.9992 43.0394 9.04493 43.4211C9.04106 43.5289 9.08523 43.7136 9.14956 43.7896ZM16.2397 40.763C16.1459 41.1571 16.2513 40.8825 16.2568 41.2665C16.2676 41.9943 16.3521 42.7352 16.3606 43.4894C16.3598 43.4917 16.3575 43.5002 16.3536 43.5041C16.2785 43.5088 16.3932 43.5693 16.325 43.4653C16.2118 43.2938 16.118 43.1945 16.0018 42.9354C15.7444 42.362 15.1546 41.4977 15.0182 40.9671C14.8996 40.9663 14.8477 40.9577 14.7291 40.9779C14.6105 40.9981 14.5702 41.0159 14.4904 41.0726C14.5462 41.2223 14.6718 41.3767 14.7299 41.4946C14.8175 41.6715 14.8493 44.47 14.802 44.6663C15.1136 44.8238 14.9616 44.6764 15.2678 44.6795C15.322 44.4545 15.1973 44.2598 15.1856 44.0542C15.1787 43.9246 15.2004 43.8719 15.1756 43.7361C15.1306 43.4831 15.167 43.6213 15.1601 43.3947C15.1554 43.2357 15.1182 43.2706 15.126 43.0906C15.1399 42.7686 15.0345 42.2402 15.2143 42.3341C15.3042 42.3807 15.2135 42.3163 15.26 42.3814L16.1823 44.1225C16.2699 44.2962 16.2405 44.1853 16.2994 44.4025C16.3753 44.6849 16.5055 44.5569 16.797 44.4499L16.7373 44.027C16.7319 43.9386 16.7466 43.8703 16.7404 43.7819L16.6202 41.2339C16.5931 41.0276 16.659 40.9399 16.6109 40.7529L16.2397 40.763ZM29.0055 40.0593C28.9621 40.2393 29.0047 40.1555 29.0311 40.3138C29.1218 40.86 29.114 42.6033 29.0497 43.1945C29.0272 43.4009 28.9714 43.5088 28.9699 43.7027C29.0931 43.7648 29.3093 43.8168 29.4519 43.7865C29.5573 43.7213 29.4372 43.4839 29.4473 43.2496C29.4566 43.0269 29.4171 43.1371 29.4434 42.6297C29.4558 42.3954 29.3946 42.4908 29.4605 42.2139L29.524 42.2294C29.5225 42.3938 29.8712 43.0463 29.9604 43.2333L30.1751 43.6166C30.3006 43.8346 30.4688 43.7857 30.6843 43.8191C30.6804 43.6701 30.5571 43.5289 30.4905 43.397L30.2665 42.9657C30.2247 42.8539 30.234 42.8578 30.1805 42.7476C30.0999 42.5816 29.9371 42.234 29.9325 42.0618L30.1875 41.8182C30.2944 41.6832 30.4114 41.1835 30.382 41.0035L30.1813 40.3417C30.1774 40.3363 30.172 40.3285 30.1681 40.3231C29.9906 40.0896 29.6914 40.0182 29.4047 40.0089C29.2574 40.0034 29.0365 39.9297 29.0055 40.0593ZM29.4357 40.4992C29.3946 40.6714 29.4682 41.3426 29.4481 41.5458C29.4295 41.7375 29.3806 41.8259 29.5442 41.8663C29.6387 41.8895 29.6 41.8616 29.655 41.8275C29.6573 41.8267 29.7488 41.7514 29.762 41.7382C30.1014 41.4 30.0921 40.4922 29.5054 40.3487C29.4721 40.4162 29.4558 40.4139 29.4357 40.4992ZM43.664 41.6607C43.6392 41.7623 43.6438 41.8205 43.6632 41.9043C43.7523 42.293 43.5214 44.7726 43.4144 45.218C43.557 45.2955 43.4291 45.2816 43.5888 45.3258C43.6702 45.3475 43.7027 45.3336 43.819 45.3522C44.1554 45.4049 44.5413 45.3258 44.7057 44.9953C44.8498 44.7028 44.8258 44.9875 44.8235 44.6019C44.8227 44.4894 44.863 44.2924 44.8444 44.1837L44.6452 43.6841C44.5692 43.5615 44.5065 43.5196 44.5328 43.3466C44.6684 43.3443 44.6677 43.2884 44.7312 43.1425C44.8886 42.7787 44.9196 42.4132 44.7266 42.0664C44.6243 41.8833 44.5793 41.7957 44.3522 41.7274C44.2003 41.6816 43.7051 41.4869 43.664 41.6607ZM44.0538 41.9904L43.9763 43.0107C43.9849 43.1092 43.9841 43.2263 44.0035 43.3187C44.2391 43.3551 44.4359 43.0525 44.4956 42.8019C44.5313 42.6545 44.4855 42.4753 44.46 42.3372C44.4173 42.1091 44.2856 41.9601 44.0538 41.9904ZM43.8942 45.0341C44.0066 45.0512 44.1461 45.0581 44.2236 45.0007C44.677 44.6663 44.5018 43.6073 44.029 43.4917C43.8562 43.4498 43.9275 43.6748 43.936 43.7919C43.9476 43.9487 43.812 44.7144 43.8942 45.0341ZM37.2605 40.7009C37.1009 41.0198 36.5514 42.075 36.3367 42.3178C36.2483 42.2216 36.146 42.0214 36.1003 41.895C36.0181 41.7041 35.5423 40.6629 35.5376 40.4814C35.3175 40.4278 35.2625 40.4767 35.0788 40.4364C35.0377 40.7079 35.2532 40.545 35.2167 41.244C35.1648 42.1215 35.1904 43.3288 34.9966 44.1349C35.226 44.3226 35.5097 44.2334 35.5337 44.1318C35.5694 43.9828 35.5144 43.9425 35.4958 43.8579C35.4942 43.8509 35.4919 43.8416 35.4903 43.8338C35.5136 43.2644 35.4663 42.1766 35.581 41.6979C35.7306 41.7794 36.122 42.8376 36.2181 43.0929L36.3134 43.1162C36.5909 42.6739 36.8761 42.1882 37.1838 41.7701C37.1443 42.0308 37.104 43.2519 37.0497 43.7749C36.9722 44.5212 36.8815 44.3723 37.4 44.4537C37.4938 44.2792 37.4907 44.2241 37.4504 43.9634C37.4714 43.0882 37.4202 41.8523 37.6186 41.0229C37.6674 40.8212 37.8814 40.5892 37.4613 40.6769C37.376 40.6947 37.359 40.7017 37.2605 40.7009ZM23.9506 43.8175C23.9522 43.4994 24.0692 42.7825 24.2979 42.5801C24.3746 42.5118 24.8009 42.3876 24.9489 42.3892L24.9784 43.238C25.0295 43.5607 24.7613 43.7632 25.1388 43.7842L25.9007 43.7477C26.1433 43.7113 26.2231 43.6895 26.2432 43.3947C26.2766 42.902 26.1099 43.4133 25.4225 43.4063C25.4031 43.3295 25.3457 43.1976 25.3388 43.1332C25.3233 42.9975 25.2876 42.2674 25.3302 42.2247C25.407 42.1479 25.6271 42.0377 25.8263 42.0858C25.9286 42.1114 26.0216 42.2379 25.9549 41.8228C26.0518 41.4186 25.8053 41.6095 25.7557 41.6188C25.052 41.7452 25.2799 41.5295 25.2008 40.9205C25.1078 40.2246 25.1729 40.4216 25.8441 40.5271C25.9185 40.2176 25.9557 40.2277 25.8704 39.998C25.6054 39.9398 25.1845 40.0608 24.9063 40.05C24.5536 40.036 24.6528 40.0383 24.3862 40.8732C24.1491 41.5963 23.9468 42.3085 23.7135 43.0332C23.6592 43.1658 23.629 43.2279 23.591 43.3613C23.5213 43.6057 23.2965 43.9704 23.6321 43.875C23.8173 43.8222 23.8142 43.8517 23.9506 43.8175ZM24.9078 41.9338L24.8512 40.6691L24.394 42.0432L24.9078 41.9338ZM39.8128 40.9554C39.7345 41.2805 39.8756 41.6389 39.8221 41.895C39.7081 42.4466 39.7539 43.5367 39.6818 44.1969C39.6671 44.335 39.6213 44.5484 39.6206 44.6943C39.9329 44.7703 39.8833 44.7168 40.2359 44.7757C40.5832 44.8339 40.8986 44.6081 41.0877 44.3195C41.3551 43.913 41.3249 43.8734 41.4466 43.3644C41.5163 43.0719 41.445 42.2976 41.3187 42.0098C41.2668 41.8903 41.2954 42.0106 41.2505 41.8895C41.1722 41.6816 41.2931 41.8407 41.1079 41.625L41.0567 41.5482C41.0529 41.542 41.049 41.5334 41.0451 41.528L41.0195 41.49C40.9901 41.4512 40.9645 41.4271 40.9273 41.3837C40.8529 41.2976 40.5374 41.0989 40.4847 41.0858L39.8128 40.9554ZM40.2747 41.4031C40.1708 41.521 40.0027 43.8548 40.0623 44.2908C40.0763 44.3886 40.0019 44.4817 40.3282 44.4002C40.5669 44.3405 40.6064 44.228 40.7746 44.027C40.9474 43.8206 40.9955 43.4607 41.0583 43.1697C41.1148 42.909 41.0684 42.9222 41.0552 42.7112C41.0257 42.2534 40.9505 42.0323 40.6979 41.7126C40.4987 41.4613 40.5057 41.5202 40.2747 41.4031ZM17.1233 40.7102C17.1248 40.7677 17.1977 40.9073 17.2256 41.3511C17.2651 41.9834 17.3937 43.1263 17.3403 43.6864C17.3186 43.9269 17.2984 43.9386 17.3062 44.1938C17.3085 44.2807 17.31 44.3855 17.4108 44.4033C17.6015 44.4382 17.7278 44.3894 17.8526 44.37C18.075 44.335 18.0843 44.3219 18.3114 44.1962L18.4974 44.0596C18.6175 43.9262 18.7129 43.7919 18.7702 43.6251C18.8803 43.3039 18.8648 43.5995 18.9276 43.1503C19.0275 42.4427 19.0043 42.9067 18.9857 42.1696C18.9834 42.0905 18.9849 42.0633 18.964 41.9935C18.888 41.7406 18.9462 41.8065 18.8694 41.6459C18.7229 41.3395 18.7222 41.1959 18.4044 40.9027C18.1145 40.635 17.8309 40.6699 17.5077 40.6334C17.2093 40.5993 17.3201 40.7064 17.1233 40.7102ZM17.6239 41.0004C17.5674 41.2363 17.617 41.1835 17.6123 41.3852C17.6418 42.0199 17.6534 42.6468 17.6875 43.2853C17.6883 43.4157 17.6557 43.5297 17.6844 43.6662C17.7045 43.7594 17.7092 43.7229 17.7115 43.8385C17.7146 43.9634 17.7045 43.9316 17.7324 44.0418C17.882 44.01 17.9161 44.034 18.1068 43.861C18.1533 43.8191 18.1719 43.7927 18.2223 43.7415C18.4935 43.4645 18.6168 42.7593 18.6013 42.4311C18.5951 42.307 18.592 42.3783 18.5772 42.3108C18.5625 42.241 18.5625 42.2193 18.5617 42.158C18.5586 41.9198 18.5633 42.1029 18.4982 41.8725C18.3858 41.4737 18.2362 41.3271 17.9564 41.0943C17.8611 41.0152 17.7712 40.981 17.6239 41.0004ZM45.2567 43.1216C45.1606 43.5452 45.118 44.1605 45.2451 44.6896C45.3381 45.0768 45.5218 45.4174 45.8411 45.6036C45.9473 45.6641 46.055 45.7626 46.1589 45.7874C46.41 45.8487 46.7967 45.7285 47.023 45.4825C47.3121 45.1683 47.3656 44.9472 47.4803 44.4685C47.5663 44.1093 47.554 43.9882 47.5361 43.7043C47.5245 43.5188 47.5625 43.5173 47.5098 43.3419C47.4741 43.224 47.4656 43.1286 47.4292 43.013C47.3579 42.7888 47.309 42.6305 47.1664 42.4435L46.8037 42.0967C46.1317 41.6126 45.4071 42.4963 45.2567 43.1216ZM46.2891 45.384C46.4007 45.4112 46.3131 45.3793 46.41 45.3607C46.8696 45.2707 47.0254 44.9697 47.1331 44.5181C47.2013 44.2334 47.1842 43.6174 47.1137 43.314C47.0819 43.1751 47.0424 43.0906 47.0029 42.9757C46.9331 42.7732 46.8742 42.6871 46.7177 42.5552C46.6479 42.4963 46.6533 42.48 46.5627 42.4326C46.1906 42.2371 45.845 42.5482 45.7062 42.9323C45.6125 43.1907 45.569 43.5204 45.5334 43.7912C45.5543 44.0449 45.5628 44.4863 45.669 44.7082C45.7008 44.775 45.7171 44.8114 45.7481 44.8758C45.8535 45.0969 46.0224 45.3188 46.2891 45.384ZM20.4048 43.6554C20.7071 43.7291 20.9342 43.5941 21.0713 43.3365C21.3 42.9075 21.2736 42.9432 21.2977 42.4621C21.3031 42.3465 21.3209 42.2674 21.3093 42.158C21.2961 42.047 21.2775 42.0013 21.2729 41.8833L21.1861 41.5039C21.1667 41.4364 21.162 41.445 21.1349 41.372L21.0644 41.199C20.852 40.8103 20.3854 40.6024 20.1072 40.8786C19.8514 41.1331 19.8065 41.3239 19.7383 41.6832C19.6863 41.9555 19.6894 42.3589 19.7367 42.6305C19.7972 42.9804 20.0281 43.5638 20.4048 43.6554ZM50.7634 35.9868C50.7882 36.3336 50.8208 36.6851 50.8533 37.035C47.733 35.3421 43.1013 34.9185 40.98 37.5308C41.2978 41.2378 52.4275 41.895 54.2325 39.8801C54.3426 39.7164 54.4178 39.5426 54.4534 39.3572C54.6844 38.1406 53.1451 36.817 50.7634 35.9868ZM0.481427 39.8785C0.371371 39.7156 0.296194 39.5418 0.261317 39.3572C0.0295774 38.1406 1.5696 36.817 3.95054 35.9868C3.92651 36.3336 3.89397 36.6851 3.86064 37.035C6.98098 35.3421 11.6127 34.9185 13.734 37.5308C13.417 41.2386 2.28496 41.8958 0.481427 39.8785Z" fill="white"/>
</svg>
