<svg width="151" height="29" viewBox="0 0 151 29" fill="none" xmlns="http://www.w3.org/2000/svg">
<path d="M10 28.4C6.64 28.4 3.37333 27.9333 0.2 27L0.84 23.8C4.17333 24.6 7.22667 25 10 25C11.8933 25 13.3333 24.5867 14.32 23.76C15.3067 22.9333 15.8 21.92 15.8 20.72C15.8 20 15.6267 19.3733 15.28 18.84C14.9333 18.28 14.4 17.8133 13.68 17.44C12.9867 17.0667 12.36 16.8 11.8 16.64C11.2667 16.4533 10.5333 16.2267 9.6 15.96C9.52 15.9333 9.45333 15.92 9.4 15.92C9.34667 15.8933 9.28 15.88 9.2 15.88C9.12 15.8533 9.05333 15.8267 9 15.8C6.52 15.16 4.49333 14.1733 2.92 12.84C1.37333 11.48 0.6 9.73333 0.6 7.6C0.6 5.14666 1.46667 3.33333 3.2 2.16C4.93333 0.986665 7.2 0.399998 10 0.399998C12.96 0.399998 16.0267 0.866665 19.2 1.8L18.32 5C15.0133 4.2 12.24 3.8 10 3.8C8.13333 3.8 6.76 4.16 5.88 4.88C5.02667 5.6 4.6 6.54667 4.6 7.72C4.6 8.44 4.8 9.09333 5.2 9.68C5.62667 10.24 6.22667 10.7067 7 11.08C7.8 11.4533 8.52 11.7467 9.16 11.96C9.8 12.1467 10.6133 12.36 11.6 12.6C17.0667 13.8533 19.8 16.4533 19.8 20.4C19.8 23.0133 18.8933 25 17.08 26.36C15.2933 27.72 12.9333 28.4 10 28.4ZM27.4078 28H23.6078V0.8H27.4078V28ZM43.3234 28.4C41.5101 28.4 39.9101 28.16 38.5234 27.68C37.1634 27.1733 36.0568 26.5067 35.2034 25.68C34.3501 24.8267 33.6568 23.7867 33.1234 22.56C32.5901 21.3067 32.2168 20.0133 32.0034 18.68C31.8168 17.3467 31.7234 15.8533 31.7234 14.2C31.7234 12.1733 31.8968 10.3867 32.2434 8.84C32.5901 7.26666 33.1768 5.82667 34.0034 4.52C34.8301 3.18667 36.0301 2.17333 37.6034 1.48C39.1768 0.759998 41.0834 0.399998 43.3234 0.399998C46.2834 0.399998 49.3501 0.866665 52.5234 1.8L51.6434 5C48.3368 4.2 45.6568 3.8 43.6034 3.8C42.0834 3.8 40.7901 4.06667 39.7234 4.6C38.6834 5.10666 37.8701 5.85333 37.2834 6.84C36.7234 7.82667 36.3234 8.92 36.0834 10.12C35.8434 11.2933 35.7234 12.6533 35.7234 14.2C35.7234 17.64 36.2968 20.3067 37.4434 22.2C38.6168 24.0667 40.6701 25 43.6034 25C45.3901 25 47.0968 24.56 48.7234 23.68V17.4H43.5234V14H52.5234V26.24C50.8168 26.96 49.2834 27.5067 47.9234 27.88C46.5901 28.2267 45.0568 28.4 43.3234 28.4ZM75.4694 28L73.2294 21.12H62.8294L60.5094 28H56.5094L65.8694 0.599998H70.5494L79.7094 28H75.4694ZM68.1494 5.36H68.0694L63.6294 17.92H72.4294L68.1494 5.36ZM101.605 0.8V5.72H88.725V11.52H99.805V16.4H88.725V23.12H101.805V28H83.205V0.8H101.605ZM121.988 28L116.108 18.4H116.028L110.588 28H104.468L112.668 13.88L104.908 0.8H111.348L116.388 9.36H116.468L121.388 0.8H127.788L120.028 13.88L128.548 28H121.988ZM150.603 5.72H143.483V28H137.963V5.72H130.803V0.8H150.603V5.72Z" fill="white"/>
</svg>
