<svg width="194" height="49" viewBox="0 0 194 49" fill="none" xmlns="http://www.w3.org/2000/svg">
<path d="M64.3883 41.6148H61.0664V36.4436H64.3557V37.2133H61.9872V38.6145H63.8899V39.3648H61.9872V40.8117H64.3883V41.6148V41.6148ZM64.6076 40.368L65.5028 40.1755C65.6097 40.6876 66.0221 40.9437 66.739 40.9437C67.0653 40.9437 67.3172 40.8793 67.4939 40.7474C67.6698 40.6162 67.7566 40.4533 67.7566 40.2586C67.7566 40.1173 67.7171 39.987 67.638 39.8668C67.5574 39.7465 67.3861 39.6518 67.1242 39.5843L66.1468 39.326C65.812 39.2383 65.5648 39.1374 65.4051 39.0257C65.2455 38.9132 65.116 38.7542 65.0207 38.5501C64.9246 38.346 64.8758 38.1273 64.8758 37.8945C64.8758 37.4329 65.0463 37.062 65.3865 36.7827C65.726 36.5034 66.16 36.3637 66.6894 36.3637C67.1288 36.3637 67.5218 36.4615 67.8682 36.6554C68.2131 36.8494 68.4348 37.1248 68.5293 37.4817L67.652 37.7021C67.5179 37.3103 67.2032 37.1148 66.7088 37.1148C66.4204 37.1148 66.2019 37.1745 66.0515 37.2955C65.9004 37.4173 65.8244 37.571 65.8244 37.7587C65.8244 38.0536 66.0616 38.2607 66.5359 38.3794L67.4055 38.599C67.9326 38.7324 68.2852 38.9303 68.4658 39.1917C68.6456 39.454 68.7355 39.7426 68.7355 40.0576C68.7355 40.565 68.5456 40.9654 68.1674 41.2563C67.7892 41.5488 67.2993 41.6939 66.6971 41.6955C66.1902 41.6939 65.7469 41.5868 65.3656 41.3719C64.9843 41.157 64.7316 40.8234 64.6076 40.368V40.368ZM72.3441 39.8186L73.1982 39.9141C73.1432 40.4316 72.9448 40.8583 72.6038 41.1919C72.2635 41.5271 71.8163 41.6939 71.2606 41.6955C70.794 41.6939 70.4143 41.576 70.1244 41.3378C69.8322 41.1019 69.609 40.7784 69.4516 40.3718C69.2943 39.9661 69.216 39.5176 69.216 39.0273C69.216 38.2398 69.4005 37.5981 69.7702 37.1047C70.1391 36.6104 70.6483 36.3637 71.2939 36.3637C71.8016 36.3637 72.224 36.5212 72.5611 36.8378C72.8975 37.1535 73.1099 37.6051 73.1982 38.1932L72.3441 38.2848C72.1868 37.5042 71.8388 37.1148 71.3017 37.1148C70.9576 37.1148 70.6894 37.2761 70.4987 37.6012C70.3081 37.9255 70.2127 38.3965 70.2127 39.0117C70.2127 39.6386 70.315 40.1111 70.5197 40.43C70.7235 40.7497 70.9948 40.9103 71.3327 40.9103C71.6024 40.9103 71.831 40.8024 72.0217 40.5883C72.2108 40.3734 72.3185 40.1174 72.3441 39.8186V39.8186ZM75.7722 41.6955C75.0932 41.6939 74.5639 41.4363 74.1856 40.9219C73.8082 40.406 73.6191 39.7698 73.6191 39.0117C73.6191 38.2592 73.8198 37.6291 74.2213 37.1241C74.6243 36.6166 75.1552 36.3637 75.8132 36.3637C76.4782 36.3637 77.0037 36.6166 77.3889 37.1241C77.7749 37.6291 77.9679 38.263 77.9679 39.0234C77.9679 39.821 77.7671 40.4665 77.3672 40.9584C76.9657 41.4495 76.4348 41.6939 75.7722 41.6955V41.6955ZM75.7799 40.9437C76.1124 40.9437 76.393 40.8055 76.6232 40.5278C76.8533 40.2492 76.9681 39.7465 76.9681 39.0156C76.9681 38.4221 76.8719 37.9566 76.6828 37.6206C76.4937 37.2831 76.1984 37.1148 75.7993 37.1148C75.0087 37.1148 74.615 37.7572 74.615 39.0428C74.615 39.6658 74.715 40.1391 74.9173 40.4611C75.118 40.7838 75.4056 40.9437 75.7799 40.9437V40.9437ZM81.9315 41.6148H78.7855V36.4436H79.7551V40.7706H81.9315V41.6148ZM86.581 41.6148H85.5967L85.1874 40.3835H83.2204L82.8204 41.6148H82.0338L83.7303 36.4436H84.865L86.581 41.6148ZM84.9402 39.6379L84.1946 37.3297L83.449 39.6379H84.9402V39.6379ZM89.0464 41.6148V36.4436H90.9313C91.6281 36.4436 92.1869 36.6935 92.6093 37.1923C93.0309 37.6904 93.2425 38.3057 93.2425 39.0389C93.2425 39.7705 93.0247 40.3835 92.5899 40.8769C92.1567 41.3696 91.5335 41.6148 90.7244 41.6148H89.0464ZM89.9943 40.8536H90.7624C91.1747 40.8536 91.5235 40.6969 91.811 40.3835C92.0985 40.0708 92.2419 39.6037 92.2419 38.9861C92.2419 38.4803 92.1171 38.0536 91.866 37.7029C91.6141 37.3537 91.2832 37.1784 90.8716 37.1784H89.9943V40.8536V40.8536ZM97.3789 41.6148H94.0571V36.4436H97.3456V37.2133H94.9778V38.6145H96.8806V39.3648H94.9778V40.8117H97.3789V41.6148V41.6148ZM105.067 41.6148H104.127V37.0876L102.711 41.6148H102.228L100.804 37.0876V41.6148H100.052V36.4436H101.493L102.565 39.7736L103.618 36.4436H105.067V41.6148V41.6148ZM109.477 41.6148H106.156V36.4436H109.444V37.2133H107.076V38.6145H108.979V39.3648H107.076V40.8117H109.477V41.6148V41.6148ZM110.205 41.6148V36.4436H112.09C112.787 36.4436 113.346 36.6935 113.768 37.1923C114.19 37.6904 114.401 38.3057 114.401 39.0389C114.401 39.7705 114.184 40.3835 113.749 40.8769C113.315 41.3696 112.692 41.6148 111.883 41.6148H110.205ZM111.153 40.8536H111.921C112.333 40.8536 112.682 40.6969 112.97 40.3835C113.257 40.0708 113.401 39.6037 113.401 38.9861C113.401 38.4803 113.276 38.0536 113.025 37.7029C112.773 37.3537 112.442 37.1784 112.03 37.1784H111.153V40.8536V40.8536ZM116.137 41.6148H115.216V36.4436H116.137V41.6148ZM120.079 39.8186L120.933 39.9141C120.878 40.4316 120.68 40.8583 120.338 41.1919C119.998 41.5271 119.551 41.6939 118.996 41.6955C118.529 41.6939 118.149 41.576 117.859 41.3378C117.567 41.1019 117.343 40.7784 117.186 40.3718C117.029 39.9661 116.951 39.5176 116.951 39.0273C116.951 38.2398 117.135 37.5981 117.505 37.1047C117.874 36.6104 118.383 36.3637 119.029 36.3637C119.537 36.3637 119.958 36.5212 120.296 36.8378C120.633 37.1535 120.845 37.6051 120.933 38.1932L120.079 38.2848C119.922 37.5042 119.574 37.1148 119.037 37.1148C118.693 37.1148 118.424 37.2761 118.234 37.6012C118.043 37.9255 117.947 38.3965 117.947 39.0117C117.947 39.6386 118.049 40.1111 118.254 40.43C118.459 40.7497 118.73 40.9103 119.067 40.9103C119.338 40.9103 119.566 40.8024 119.757 40.5883C119.946 40.3734 120.053 40.1174 120.079 39.8186V39.8186ZM122.545 41.6148H121.624V36.4436H122.545V41.6148ZM127.491 41.6148H126.596L124.654 38.3111C124.625 38.2607 124.577 38.1792 124.509 38.0652C124.478 38.0148 124.432 37.9348 124.371 37.8262V41.6148H123.629V36.4436H124.647L126.439 39.4889C126.453 39.5145 126.561 39.6999 126.765 40.046V36.4436H127.491V41.6148V41.6148ZM132.585 41.6148H131.601L131.192 40.3835H129.225L128.825 41.6148H128.038L129.736 36.4436H130.87L132.585 41.6148ZM130.945 39.6379L130.199 37.3297L129.454 39.6379H130.945ZM138.4 41.6148H135.078V36.4436H138.367V37.2133H135.999V38.6145H137.902V39.3648H135.999V40.8117H138.4V41.6148ZM140.537 40.368L141.433 40.1755C141.54 40.6876 141.952 40.9437 142.669 40.9437C142.995 40.9437 143.247 40.8793 143.424 40.7474C143.6 40.6162 143.686 40.4533 143.686 40.2586C143.686 40.1173 143.647 39.987 143.568 39.8668C143.487 39.7465 143.316 39.6518 143.054 39.5843L142.077 39.326C141.742 39.2383 141.495 39.1374 141.335 39.0257C141.175 38.9132 141.046 38.7542 140.951 38.5501C140.854 38.346 140.806 38.1273 140.806 37.8945C140.806 37.4329 140.976 37.062 141.316 36.7827C141.656 36.5034 142.09 36.3637 142.619 36.3637C143.059 36.3637 143.452 36.4615 143.798 36.6554C144.143 36.8494 144.365 37.1248 144.459 37.4817L143.582 37.7021C143.448 37.3103 143.133 37.1148 142.639 37.1148C142.35 37.1148 142.132 37.1745 141.981 37.2955C141.83 37.4173 141.754 37.571 141.754 37.7587C141.754 38.0536 141.991 38.2607 142.466 38.3794L143.335 38.599C143.862 38.7324 144.215 38.9303 144.395 39.1917C144.575 39.454 144.665 39.7426 144.665 40.0576C144.665 40.565 144.475 40.9654 144.097 41.2563C143.719 41.5488 143.229 41.6939 142.627 41.6955C142.12 41.6939 141.677 41.5868 141.295 41.3719C140.914 41.157 140.661 40.8234 140.537 40.368V40.368ZM149.398 41.6148H148.413L148.004 40.3835H146.037L145.637 41.6148H144.851L146.547 36.4436H147.682L149.398 41.6148V41.6148ZM147.757 39.6379L147.011 37.3297L146.266 39.6379H147.757ZM153.482 36.4436V39.7659C153.482 40.2159 153.433 40.5611 153.331 40.804C153.232 41.0461 153.039 41.2555 152.754 41.4309C152.467 41.607 152.118 41.6939 151.706 41.6955C151.29 41.6939 150.946 41.6187 150.678 41.4674C150.409 41.3161 150.216 41.1081 150.098 40.8443C149.981 40.5805 149.922 40.243 149.922 39.8342V36.4436H150.863V39.7659C150.863 40.2205 150.957 40.5193 151.146 40.662C151.334 40.8055 151.554 40.8769 151.804 40.8769C152.091 40.8769 152.32 40.8001 152.493 40.6465C152.665 40.4936 152.751 40.2004 152.751 39.7659V36.4436H153.482ZM152.662 34.7949L152.908 35.3629L151.347 36.0301L151.19 35.6235L152.662 34.7949V34.7949ZM154.467 41.6148V36.4436H156.352C157.049 36.4436 157.608 36.6935 158.029 37.1923C158.452 37.6904 158.663 38.3057 158.663 39.0389C158.663 39.7705 158.446 40.3835 158.011 40.8769C157.577 41.3696 156.955 41.6148 156.145 41.6148H154.467V41.6148ZM155.414 40.8536H156.183C156.595 40.8536 156.944 40.6969 157.232 40.3835C157.52 40.0708 157.663 39.6037 157.663 38.9861C157.663 38.4803 157.537 38.0536 157.287 37.7029C157.035 37.3537 156.703 37.1784 156.292 37.1784H155.414V40.8536ZM162.8 41.6148H159.477V36.4436H162.767V37.2133H160.398V38.6145H162.301V39.3648H160.398V40.8117H162.8V41.6148ZM166.393 41.6148H165.472V36.4436H167.566C168.163 36.4436 168.605 36.5965 168.894 36.8998C169.182 37.204 169.327 37.5632 169.327 37.9775C169.327 38.4508 169.171 38.8333 168.858 39.1258C168.547 39.4191 168.15 39.5649 167.67 39.5649H166.393V41.6148V41.6148ZM166.393 38.7658H167.484C167.768 38.7658 167.985 38.6952 168.135 38.554C168.286 38.412 168.36 38.2242 168.36 37.9892C168.36 37.7766 168.291 37.5958 168.152 37.4429C168.013 37.2917 167.763 37.2172 167.401 37.2172H166.393V38.7658V38.7658ZM173.539 36.4436V39.7659C173.539 40.2159 173.489 40.5611 173.388 40.804C173.289 41.0461 173.095 41.2555 172.81 41.4309C172.524 41.607 172.174 41.6939 171.763 41.6955C171.346 41.6939 171.003 41.6187 170.735 41.4674C170.466 41.3161 170.273 41.1081 170.155 40.8443C170.038 40.5805 169.979 40.243 169.979 39.8342V36.4436H170.92V39.7659C170.92 40.2205 171.013 40.5193 171.203 40.662C171.391 40.8055 171.611 40.8769 171.86 40.8769C172.148 40.8769 172.376 40.8001 172.549 40.6465C172.722 40.4936 172.807 40.2004 172.807 39.7659V36.4436H173.539V36.4436ZM172.718 34.7949L172.965 35.3629L171.404 36.0301L171.246 35.6235L172.718 34.7949V34.7949ZM174.55 41.6148V36.4436H176.543C176.88 36.4436 177.159 36.4785 177.382 36.5499C177.604 36.6205 177.797 36.7679 177.958 36.9929C178.121 37.2179 178.202 37.4817 178.202 37.7843C178.202 38.0706 178.119 38.3189 177.956 38.5292C177.791 38.7402 177.563 38.8744 177.273 38.9326C177.634 38.9962 177.905 39.1436 178.09 39.3764C178.275 39.6076 178.368 39.883 178.368 40.2019C178.368 40.6007 178.238 40.9359 177.98 41.2074C177.72 41.479 177.323 41.6148 176.787 41.6148H174.55V41.6148ZM175.422 38.6145H176.547C176.777 38.6145 176.958 38.5447 177.091 38.4066C177.226 38.2669 177.293 38.09 177.293 37.8751C177.293 37.6385 177.216 37.4639 177.063 37.3514C176.911 37.2389 176.734 37.1823 176.528 37.1823H175.422V38.6145ZM175.422 40.8374H176.614C176.866 40.8374 177.066 40.7722 177.212 40.6372C177.358 40.5045 177.43 40.323 177.43 40.0956C177.43 39.8784 177.356 39.7007 177.208 39.5611C177.059 39.423 176.862 39.3531 176.618 39.3531H175.422V40.8374V40.8374ZM182.316 41.6148H179.171V36.4436H180.14V40.7706H182.316V41.6148ZM183.876 41.6148H182.955V36.4436H183.876V41.6148ZM187.818 39.8186L188.673 39.9141C188.618 40.4316 188.419 40.8583 188.077 41.1919C187.738 41.5271 187.29 41.6939 186.735 41.6955C186.268 41.6939 185.889 41.576 185.598 41.3378C185.307 41.1019 185.083 40.7784 184.925 40.3718C184.769 39.9661 184.69 39.5176 184.69 39.0273C184.69 38.2398 184.874 37.5981 185.244 37.1047C185.613 36.6104 186.123 36.3637 186.768 36.3637C187.276 36.3637 187.698 36.5212 188.035 36.8378C188.372 37.1535 188.584 37.6051 188.673 38.1932L187.818 38.2848C187.661 37.5042 187.313 37.1148 186.776 37.1148C186.432 37.1148 186.163 37.2761 185.973 37.6012C185.782 37.9255 185.686 38.3965 185.686 39.0117C185.686 39.6386 185.789 40.1111 185.993 40.43C186.198 40.7497 186.469 40.9103 186.806 40.9103C187.077 40.9103 187.305 40.8024 187.496 40.5883C187.685 40.3734 187.793 40.1174 187.818 39.8186V39.8186ZM193.338 41.6148H192.352L191.943 40.3835H189.977L189.577 41.6148H188.79L190.487 36.4436H191.622L193.338 41.6148V41.6148ZM191.697 39.6379L190.951 37.3297L190.206 39.6379H191.697Z" fill="#0B3132"/>
<path fill-rule="evenodd" clip-rule="evenodd" d="M76.1354 19.3468C78.3349 20.6797 79.813 23.0981 79.813 25.8462C79.813 30.0211 76.4004 33.438 72.2291 33.438H61.0312V20.5207V18.2544V10.0092C61.0312 8.69569 62.1008 7.625 63.4122 7.625H72.4415C75.9842 7.625 78.8821 10.5267 78.8821 14.0732C78.8821 16.2464 77.794 18.1775 76.1354 19.3468V19.3468ZM71.5827 22.032H65.6126V28.7976H71.5827C73.4413 28.7976 74.962 27.2753 74.962 25.4148V25.414C74.962 23.5535 73.4413 22.032 71.5827 22.032V22.032ZM71.6882 12.118H65.6126V17.5375H71.6882C73.177 17.5375 74.3946 16.3178 74.3946 14.8274C74.3946 13.3369 73.177 12.118 71.6882 12.118V12.118Z" fill="#0B3132"/>
<path fill-rule="evenodd" clip-rule="evenodd" d="M128.123 33.4396H123.291V10.3754C123.291 8.86096 124.526 7.625 126.039 7.625H128.123V33.4396V33.4396Z" fill="#0B3132"/>
<path fill-rule="evenodd" clip-rule="evenodd" d="M106.559 33.4396H101.729V10.3754C101.729 8.86096 102.962 7.625 104.476 7.625H106.559V17.3016H115.904V7.625C117.516 7.625 119.124 7.625 120.736 7.625V33.4396H115.904V21.887H106.559V33.4396V33.4396Z" fill="#0B3132"/>
<path fill-rule="evenodd" clip-rule="evenodd" d="M155.808 33.4396H150.977V10.3754C150.977 8.86096 152.211 7.625 153.724 7.625C154.494 7.625 155.263 7.625 156.032 7.625L165.153 24.5001V7.625C166.764 7.625 168.372 7.625 169.984 7.625V33.4396H165.153V33.4186L155.808 16.1285V33.4396V33.4396Z" fill="#0B3132"/>
<path fill-rule="evenodd" clip-rule="evenodd" d="M101.088 33.438H96.0119L94.5176 28.038H85.4736L83.9801 33.438H78.9043L86.2719 9.6888C86.6393 8.50483 87.6546 7.70957 88.873 7.63198L89.0706 7.625H91.1206H93.0799L101.088 33.438V33.438ZM93.3303 23.7459L89.996 12.3128L86.661 23.7459H93.3303V23.7459Z" fill="#0B3132"/>
<path fill-rule="evenodd" clip-rule="evenodd" d="M150.701 33.438H145.625L144.131 28.038H135.088L133.593 33.438H128.518L135.885 9.6888C136.253 8.50483 137.268 7.70957 138.486 7.63198L138.684 7.625H140.734H142.693L150.701 33.438V33.438ZM142.944 23.7459L139.609 12.3128L136.274 23.7459H142.944V23.7459Z" fill="#0B3132"/>
<path fill-rule="evenodd" clip-rule="evenodd" d="M193.369 33.438H188.293L186.8 28.038H177.756L176.261 33.438H171.186L178.553 9.6888C178.921 8.50483 179.937 7.70957 181.154 7.63198L181.352 7.625H183.403H185.361L193.369 33.438V33.438ZM185.612 23.7459L182.277 12.3128L178.943 23.7459H185.612V23.7459Z" fill="#0B3132"/>
<path fill-rule="evenodd" clip-rule="evenodd" d="M11.4062 0.828125H44.0326L44.0086 1.84295C43.8792 7.38418 43.7172 12.9246 43.4521 18.462C43.1894 23.9536 42.8205 29.435 42.3632 34.9142L42.3175 35.4612L41.8292 35.7126C33.3238 40.0931 22.1143 40.0931 13.6089 35.7126L13.1214 35.4612L13.0757 34.9142C12.6184 29.435 12.2495 23.9536 11.9868 18.462C11.7217 12.9246 11.5597 7.38418 11.4303 1.84295L11.4062 0.828125V0.828125ZM27.7194 19.3038L32.2155 24.3787C31.2537 25.2423 30.6484 26.4953 30.6484 27.8903C30.6484 30.4964 32.7588 32.6083 35.3614 32.6083C36.5519 32.6083 37.6393 32.1661 38.4686 31.4368L41.3851 34.7288L41.3766 34.8312C37.2463 36.9586 32.4465 38.0161 27.6497 38.006H27.7194V19.3038H13.0191C12.7448 13.7913 12.5719 8.29272 12.4223 1.93606L17.0796 7.22436C16.0596 8.08945 15.4117 9.38126 15.4117 10.8251C15.4117 13.4305 17.5214 15.5424 20.124 15.5424C21.3532 15.5424 22.4724 15.0715 23.3118 14.2995L27.7194 19.3038H42.4198C42.6957 13.7571 42.8693 8.226 43.0189 1.81968H27.7194H12.42H27.6195H27.7194V19.3038V19.3038ZM32.2155 24.3787C32.9378 23.7301 33.8609 23.3011 34.8809 23.1971V21.958H33.5362V20.996H34.8809V19.7941H35.8419V20.996H37.1859V21.958H35.8419V23.1971C38.219 23.4384 40.0737 25.4479 40.0737 27.8903C40.0737 29.3039 39.4521 30.5725 38.4686 31.4368L32.2155 24.3787ZM35.5242 5.15202H36.1892C36.2775 5.15202 36.3496 5.2234 36.3488 5.31185L36.3302 7.46798C37.0123 6.98927 37.5664 6.41125 37.5587 5.50348C37.5509 4.65003 36.889 3.92615 35.649 3.87882C34.7491 3.84468 33.9524 4.25744 33.9524 4.25744C33.7826 4.45839 33.8446 4.95185 33.8446 4.95185C32.7813 5.52288 31.8249 5.24512 31.8249 5.24512C32.0411 4.4584 32.8425 3.53201 33.0278 3.68641C33.2122 3.84081 33.6749 3.764 33.6749 3.764C35.0979 2.87718 37.9524 2.97106 38.8654 4.63064C40.0939 6.8628 37.7176 8.41298 36.0342 9.30755C34.9483 9.88402 34.2926 10.5016 34.4624 11.1595C34.5778 11.6057 34.963 11.9424 35.435 12.2116L35.4133 10.1082C35.6862 9.87006 36.0768 9.69704 36.3116 9.61169L36.238 17.9491C36.2372 18.0376 36.1659 18.1097 36.0783 18.1097H35.6552C35.5676 18.1097 35.4963 18.0376 35.4955 17.9491L35.4467 13.2839C34.3422 12.899 33.2091 12.3233 33.0681 11.3209C32.9138 10.2239 33.7431 9.26255 34.653 8.55652C34.8762 8.3835 35.1297 8.22289 35.3924 8.06151L35.3645 5.31185C35.3637 5.2234 35.4358 5.15202 35.5242 5.15202V5.15202ZM36.5356 13.6237C36.6712 13.6633 36.7991 13.7013 36.9169 13.737C37.9292 14.0465 37.0324 14.689 36.7007 15.163C36.083 16.0459 36.0365 17.3409 37.2518 17.6683C36.1675 16.7931 36.7836 15.942 37.599 15.2825C37.9881 14.9683 38.3764 14.592 38.4221 14.1691C38.4779 13.6462 37.9633 13.3002 37.3479 13.0302C37.1231 12.9316 36.8418 12.8284 36.5418 12.7128L36.5356 13.6237V13.6237ZM23.3118 14.2995C24.2488 13.4367 24.837 12.2 24.837 10.8251C24.837 8.38195 22.9816 6.37246 20.6045 6.13194V4.89211H21.9492V3.93003H20.6045V2.72822H19.6435V3.93003H18.2987V4.89211H19.6435V6.13194C18.6715 6.23047 17.7864 6.62461 17.0796 7.22436L23.3118 14.2995V14.2995ZM20.7867 23.0303H21.4516C21.54 23.0303 21.6128 23.1024 21.6121 23.1901L21.5927 25.3462C22.2747 24.8683 22.8297 24.2895 22.8212 23.3825C22.8134 22.5283 22.1515 21.8044 20.9114 21.7571C20.0124 21.7229 19.2156 22.1357 19.2156 22.1357C19.0459 22.3367 19.1071 22.8301 19.1071 22.8301C18.0438 23.4011 17.0881 23.1234 17.0881 23.1234C17.3036 22.3367 18.105 21.4111 18.2902 21.5647C18.4755 21.7191 18.9382 21.6423 18.9382 21.6423C20.3604 20.7562 23.2157 20.8501 24.1287 22.5089C25.3563 24.7411 22.98 26.2912 21.2966 27.1858C20.2108 27.7623 19.5551 28.3806 19.7248 29.0378C19.8403 29.4839 20.2263 29.8207 20.6983 30.0899L20.6758 27.9865C20.9486 27.7483 21.3393 27.5753 21.5741 27.49L21.5012 35.8282C21.5005 35.9158 21.4292 35.988 21.3408 35.988H20.9176C20.8301 35.988 20.7587 35.9158 20.758 35.8282L20.7091 31.1621C19.6055 30.7773 18.4724 30.2016 18.3313 29.1992C18.1771 28.1029 19.0064 27.1408 19.9155 26.4355C20.1387 26.2625 20.3929 26.1012 20.6557 25.9398L20.627 23.1901C20.6262 23.1024 20.6991 23.0303 20.7867 23.0303V23.0303ZM21.7981 31.5019C21.9337 31.5415 22.0624 31.5795 22.1802 31.6152C23.1924 31.9256 22.2949 32.5672 21.9639 33.0413C21.3455 33.9242 21.2997 35.2199 22.5142 35.5465C21.4299 34.6714 22.0469 33.8202 22.8615 33.1615C23.2505 32.8465 23.6396 32.4702 23.6846 32.0474C23.7411 31.5245 23.2257 31.1792 22.6103 30.9084C22.3863 30.8099 22.1042 30.7075 21.8051 30.5911L21.7981 31.5019V31.5019Z" fill="#0B3132"/>
<path fill-rule="evenodd" clip-rule="evenodd" d="M43.4902 40.9621C43.2569 40.8411 43.0321 40.7107 42.8167 40.5718C41.148 39.4926 40.9713 38.619 41.0418 36.7755C41.1123 34.9414 41.4999 32.9785 42.0897 31.3662L42.1276 31.2615L42.2338 31.2242C43.7056 30.7067 45.5107 30.5997 47.0562 30.7083C48.9178 30.8386 50.8477 31.3057 52.5001 32.1902L52.8357 32.3702L52.5272 32.5929C51.5778 33.2756 51.043 35.4473 51.1159 36.5567C51.8336 36.8159 52.7605 37.2232 53.3689 37.6158C54.0866 38.0805 54.964 38.8409 55.0709 39.7533C55.0818 39.9255 55.0864 40.0559 55.0539 40.2305C54.7865 41.6317 53.9898 43.3944 53.5922 44.8492C53.3325 45.7988 53.0349 47.0503 52.3156 47.7602C51.3941 48.6703 49.9603 48.5547 48.7923 48.332C43.9653 47.4126 39.122 46.5398 34.2183 46.1557C32.1846 45.9959 30.1346 45.9292 28.0954 45.9214C26.0524 45.9129 24.0008 45.9649 21.9625 46.1022C16.8154 46.449 11.7179 47.3676 6.65682 48.332C5.48882 48.5547 4.05499 48.6703 3.13346 47.7602C2.41421 47.0503 2.11659 45.7988 1.85695 44.8492C1.52446 43.6326 0.35336 40.9745 0.367311 39.9162L0.378163 39.7533C0.484344 38.8409 1.3617 38.0805 2.08017 37.6158C2.6878 37.2232 3.58686 36.7957 4.30378 36.5366C4.37896 35.3929 3.89688 33.2942 2.92187 32.5929L2.61262 32.3702L2.94822 32.1902C4.6014 31.3057 6.53126 30.8386 8.39215 30.7083C9.93837 30.5997 11.7435 30.7067 13.2153 31.2242L13.3207 31.2615L13.3594 31.3662C13.9818 33.0692 14.3794 35.1641 14.4158 37.0836C14.4484 38.7982 14.1593 39.5842 12.6317 40.5718C12.4131 40.7131 12.1837 40.8457 11.9457 40.9691C15.2141 40.5455 18.474 40.0163 21.7501 39.6625C23.9016 39.4306 26.0508 39.3087 28.2148 39.332C30.3779 39.3553 32.5279 39.5205 34.6763 39.7727C36.8325 40.0256 38.9817 40.3375 41.1325 40.6386C41.9168 40.7487 42.7027 40.8589 43.4902 40.9621V40.9621ZM19.7861 42.167C19.6544 42.7156 19.6234 42.8777 19.673 43.4255C19.6846 43.5512 19.6877 43.4976 19.7102 43.5915C19.797 43.9546 19.8737 44.2929 20.1093 44.5916C20.183 44.6847 20.4139 44.8663 20.5395 44.8965C20.8247 44.9663 20.9301 45.0207 21.2145 44.8996C21.4432 44.8026 21.6865 44.5334 21.802 44.3193C21.9284 44.0857 22.0903 43.32 22.0872 43.088L21.9694 42.1864C21.8229 41.7915 21.5486 41.2166 21.0859 41.1328C20.4426 41.0156 20.2039 41.4447 19.9892 41.7054C19.8753 41.8443 19.8342 41.9645 19.7861 42.167V42.167ZM31.9117 44.6909C31.9133 44.4132 31.8482 44.5792 31.8629 44.3425C31.8389 43.545 31.7862 42.3649 31.8691 41.5549C31.8815 40.99 32.1179 40.9815 31.6777 40.9132C31.2747 40.8504 31.4948 41.1142 31.4979 41.7007C31.501 42.4355 31.5157 43.396 31.4521 44.1067C31.4421 44.2215 31.3436 44.6009 31.4072 44.6731C31.4521 44.7235 31.8273 44.7088 31.9117 44.6909V44.6909ZM42.2989 42.1678C42.2703 42.2857 42.34 42.4153 42.3299 42.5813C42.2788 43.3657 42.3695 44.7033 42.1881 45.4241C42.0695 45.8951 42.1362 45.847 42.4702 45.9284L43.2918 45.9944C43.3003 45.9897 43.4545 45.7717 43.398 45.5513C43.1065 45.5482 43.122 45.6755 42.6167 45.5956C42.5214 45.338 42.5353 45.4032 42.581 45.023C42.6051 44.8213 42.5539 44.5986 42.5973 44.4178C42.6237 44.3092 42.65 44.3014 42.6818 44.2044C43.0159 44.2859 43.0042 44.4589 43.1344 44.3759C43.1623 44.3588 43.3235 44.154 43.2794 43.9484C43.0035 43.8871 42.9996 44.0074 42.6392 43.825L42.6725 43.3184C42.6663 43.1338 42.6027 42.4766 42.9104 42.5511C43.3662 42.6628 43.3018 43.1562 43.508 42.295C43.053 42.1841 43.1089 42.2617 42.85 42.2314C42.7275 42.2175 42.3268 42.0522 42.2989 42.1678ZM6.67697 46.4048C6.65915 46.4777 6.56227 46.6337 6.51809 46.674C6.20885 46.9611 5.98486 46.3567 5.89805 46.7175C5.86162 46.8695 5.92518 46.6546 5.93215 46.9673C5.93525 47.1077 5.90347 47.2815 6.21039 47.2272C7.07457 47.0751 7.28461 46.058 6.88468 45.4396C6.72425 45.1913 6.36851 45.0463 6.17552 44.8182C5.75079 44.3177 6.16544 43.8584 6.23287 43.8281C6.43981 43.7366 6.64752 44.0113 6.69092 43.8281C6.82656 43.2618 6.10344 43.2121 5.86317 43.6016C5.52835 44.1439 5.49348 44.8608 5.96703 45.3512C6.08329 45.4722 6.81338 45.8345 6.67697 46.4048V46.4048ZM7.36289 43.1213C7.28694 43.2152 7.55045 46.9037 7.61168 46.9037L8.4061 46.7663C8.52391 46.733 8.60607 46.7291 8.71612 46.7012C8.7386 46.6081 8.78045 46.2768 8.7665 46.2116C8.59444 46.1883 8.63242 46.3226 8.19142 46.4591C8.08136 46.4925 8.06431 46.463 7.96433 46.4847C7.86124 46.2054 7.84187 45.5079 7.8411 45.1813C8.00153 45.0672 8.02246 45.0913 8.28287 45.1549C8.37975 45.0664 8.3565 45.1417 8.3968 45.0261C8.51229 44.7002 8.51229 44.6397 8.09686 44.7196C7.68996 44.798 7.78761 44.649 7.78994 44.5094L7.70624 43.5069L8.42858 43.4294C8.44408 43.3611 8.42625 43.0686 8.3999 43.0244L7.36289 43.1213V43.1213ZM38.4097 41.6208C38.4136 41.7504 38.4082 41.6224 38.4322 41.7147C38.4562 41.8039 38.4477 41.7271 38.4531 41.8101C38.5275 42.9204 38.3415 43.8235 38.357 44.8694C38.3625 45.279 38.302 45.0936 38.2958 45.3116C38.4779 45.4032 38.7678 45.4086 38.9507 45.4132C39.5343 45.4295 39.4971 45.6111 39.6281 45.0672C39.6738 44.8732 39.4584 45.002 39.3553 45.0175C38.9732 45.0757 39.1391 45.1153 38.7988 45.0323C38.6795 45.0028 38.7267 44.8313 38.743 44.715C38.7911 44.3728 38.6779 43.9181 38.8879 43.68L39.3134 43.8569C39.4034 43.7436 39.5467 43.4053 39.4297 43.3766C39.2243 43.3269 39.0205 43.3021 38.8686 43.3409C38.7701 43.074 38.812 42.3191 38.8872 42.0049C39.2964 42.0949 39.0499 42.0095 39.4421 42.2074C39.5948 42.0662 39.5669 42.105 39.6281 41.8505C39.6886 41.596 38.9236 41.6604 38.7422 41.6348C38.6229 41.6185 38.5066 41.5999 38.4097 41.6208V41.6208ZM32.5054 44.2463L32.4334 44.1594C32.4302 44.1571 32.4225 44.1509 32.4194 44.1494C32.3233 44.0803 32.2938 44.1773 32.283 44.3255C32.2644 44.5722 32.2225 44.8003 32.569 44.8849C32.6659 44.9089 32.5922 44.8577 32.8674 44.8438C33.0766 44.8329 33.2286 44.7227 33.3309 44.545C33.6595 43.9756 33.5618 43.4418 33.2053 42.9569C33.2006 42.9514 33.1929 42.9452 33.1882 42.9398L33.1076 42.8544C32.9557 42.7078 32.6883 42.4471 32.6511 42.2368C32.5419 41.98 32.6736 41.2787 33.1503 41.5572C33.3324 41.6643 33.296 41.8512 33.4262 41.3081C33.489 41.0451 32.6604 40.7767 32.3884 41.4618C32.214 41.9001 32.1543 42.5169 32.4551 42.901C32.7325 43.2556 32.886 43.2959 33.0208 43.5822C33.2805 44.1346 32.8534 44.6537 32.5054 44.2463V44.2463ZM11.8109 45.1114C11.7148 45.0075 11.6605 44.8019 11.6109 44.6661C11.5807 44.5823 11.5815 44.5559 11.5652 44.4775L11.3645 43.8165C11.2746 43.4937 11.1591 43.1268 11.1195 42.8032C11.1056 42.6907 11.0816 42.5511 11.0428 42.4448C10.9397 42.4712 10.9087 42.496 10.7809 42.5006C10.4739 42.5123 10.4972 42.5472 10.6103 42.7893C11.032 43.8018 11.3753 45.068 11.7101 46.0999C12.0372 46.193 11.955 45.9013 12.0744 45.4101L12.2984 44.3278C12.3224 44.1726 12.3581 43.9996 12.3883 43.8134C12.4154 43.645 12.3945 43.517 12.4387 43.3231C12.4836 43.1268 12.7394 42.2896 12.6278 42.2625C12.2201 42.1624 12.1914 42.3315 12.2201 42.6186C12.2496 42.9196 12.0333 43.8033 11.9698 44.2851C11.9295 44.5963 11.8985 44.8461 11.8109 45.1114ZM12.9223 44.9477L12.8409 45.2177C12.803 45.4078 12.6069 45.8462 12.6557 45.9207C12.7247 45.9711 12.8758 45.9626 12.9789 45.9214C13.1378 45.8578 13.1223 45.7585 13.1401 45.5994C13.1812 45.2402 13.2726 45.0222 13.3463 44.7157C13.4617 44.687 13.9988 44.5738 14.1105 44.6009C14.2275 44.6296 14.2639 44.8306 14.3158 44.9625C14.6096 45.7057 14.2732 45.7942 15.0444 45.5994L14.5708 44.5365C14.5329 44.4419 14.5344 44.4031 14.5011 44.3084C14.4763 44.237 14.4375 44.1664 14.4088 44.0951L13.7632 42.3261C13.709 42.1872 13.6997 42.2423 13.5974 42.1306L12.9952 44.6296C12.9626 44.7313 12.9595 44.7033 12.9425 44.7809C12.9339 44.8205 12.9409 44.8701 12.9223 44.9477ZM13.6253 43.4107C13.5547 43.7048 13.4416 44.0144 13.4912 44.2487C13.6291 44.2456 13.4904 44.2471 13.6136 44.2277C13.7563 44.206 13.9407 44.2541 13.995 44.1036C14.0097 44.0648 13.7803 43.3719 13.7191 43.299C13.6671 43.3471 13.6423 43.3394 13.6253 43.4107V43.4107ZM28.9015 44.3922C28.9728 44.095 28.8813 44.3682 28.8805 43.9453C28.8805 43.5884 28.8635 43.1384 28.917 42.7877C28.6209 42.638 28.7139 42.7326 28.4744 42.6791C28.3791 43.0771 28.4535 42.9553 28.4845 43.1594C28.5031 43.2804 28.5449 43.9275 28.4527 44.05C28.3861 44.1377 28.3543 44.1323 28.2434 44.1525C27.7528 44.2417 27.5754 43.9988 27.3777 43.6722C27.2529 43.4674 27.2506 43.3145 27.1909 43.1105C27.1615 43.0096 27.1499 42.4743 27.1917 42.2997C27.3638 41.5805 27.2514 41.8466 27.4715 41.5673C27.5482 41.4695 27.556 41.4338 27.673 41.3694L27.9148 41.2794C28.1768 41.2608 28.5093 41.3927 28.7232 41.5006C28.7844 41.3151 28.7759 41.3671 28.7534 41.1584C28.7224 40.8822 28.8472 40.928 28.3535 40.8069C28.3093 40.7968 27.9001 40.7945 27.7621 40.8535C27.58 40.9311 27.4389 40.9714 27.3087 41.125C27.1111 41.3578 27.2398 41.0924 27.0824 41.4594C27.008 41.6317 26.8515 41.7907 26.7902 42.2741C26.7476 42.6046 26.7476 42.3106 26.7678 42.6931C26.7794 42.9041 26.6941 42.9072 26.7647 43.1275C26.8143 43.2827 26.7786 43.3549 26.8166 43.5015C26.8763 43.7319 26.9762 43.9647 27.1033 44.1641C27.3111 44.4884 27.8451 44.7026 28.2055 44.6638C28.3 44.6529 28.2884 44.6374 28.3907 44.6141C28.5008 44.5893 28.8728 44.5109 28.9015 44.3922V44.3922ZM48.435 43.2633C48.39 43.4526 48.4559 43.5372 48.4613 43.68C48.4559 44.348 48.3854 45.3566 48.342 45.9959L48.2079 46.6996C48.1637 47.0007 48.2691 46.8835 48.6535 46.9681C48.7233 46.6756 48.6791 46.8424 48.6528 46.6981L48.7008 45.3721C48.9628 45.6576 48.9155 45.7717 49.0101 45.9936L49.2798 46.6407C49.3371 46.7454 49.4689 47.0674 49.5619 47.0899C50.03 47.2039 49.7324 46.8765 49.6456 46.6608C49.6131 46.5809 49.5999 46.5413 49.5681 46.4645L49.231 45.5886C49.169 45.4342 49.1697 45.5126 49.2209 45.2976C49.2581 45.1417 49.2263 45.3248 49.4139 45.1293C49.7045 44.8267 49.7603 44.2851 49.634 43.884C49.5495 43.6156 49.4379 43.4666 49.1829 43.3479C48.8202 43.178 49.055 43.2556 48.6745 43.2144C48.583 43.2044 48.4575 43.1718 48.435 43.2633V43.2633ZM48.7373 45.0796C49.0721 45.1533 49.2782 44.7786 49.317 44.618C49.3805 44.3526 49.3705 43.9453 49.1565 43.7157C49.0581 43.6094 49.0108 43.6047 48.8326 43.5613C48.7272 43.7723 48.7396 44.7514 48.7373 45.0796V45.0796ZM8.91609 42.9313C8.91221 43.5977 9.1517 45.2612 9.21448 46.0463C9.22533 46.186 9.15015 46.4025 9.14938 46.5724L9.66168 46.5305L9.61053 46.1829C9.60045 46.1232 9.57953 46.0805 9.56635 46.0207L9.51442 45.6739C9.50124 45.4668 9.47335 45.2185 9.51287 45.0532C9.54233 44.9322 9.5059 45.0393 9.5679 44.9663L9.81049 45.3853C9.86009 45.4668 9.89342 45.5203 9.94302 45.6018C9.9686 45.6437 9.97868 45.6592 10.0019 45.7011L10.374 46.2318C10.4848 46.3598 10.5693 46.4552 10.8033 46.2395L10.3282 45.5288C10.2833 45.4551 9.94612 44.784 9.95232 44.7584C10.0074 44.5303 10.2577 44.5388 10.3026 44.0601C10.3329 43.7358 10.3708 43.5644 10.2174 43.1912C10.1414 43.005 9.91822 42.8164 9.66711 42.7916C9.42917 42.7675 9.46249 42.7738 9.26796 42.8017C9.02149 42.8374 9.09047 42.7707 8.91609 42.9313ZM9.51675 44.6188C9.72059 44.6141 9.9624 44.1579 9.9624 44.1579C10.0074 43.9694 9.97635 43.6908 9.91124 43.5132C9.89187 43.4588 9.89032 43.4263 9.87172 43.375C9.82677 43.2478 9.95155 43.365 9.63068 43.171C9.54697 43.1198 9.49737 43.1454 9.35786 43.112C9.29586 43.4557 9.36639 43.8685 9.41212 44.2502C9.40824 44.3581 9.45242 44.5427 9.51675 44.6188V44.6188ZM16.6069 41.5921C16.5131 41.9862 16.6185 41.7116 16.6239 42.0956C16.6348 42.8234 16.7193 43.5644 16.7278 44.3185C16.727 44.3208 16.7247 44.3294 16.7208 44.3332C16.6456 44.3379 16.7603 44.3984 16.6921 44.2944C16.579 44.123 16.4852 44.0237 16.3689 43.7645C16.1116 43.1912 15.5218 42.3269 15.3854 41.7962C15.2668 41.7954 15.2149 41.7869 15.0963 41.807C14.9777 41.8272 14.9374 41.845 14.8576 41.9017C14.9134 42.0514 15.039 42.2058 15.0971 42.3237C15.1847 42.5006 15.2164 45.2992 15.1692 45.4955C15.4807 45.653 15.3288 45.5056 15.635 45.5087C15.6892 45.2837 15.5644 45.0889 15.5528 44.8833C15.5458 44.7538 15.5675 44.701 15.5427 44.5652C15.4978 44.3123 15.5342 44.4504 15.5272 44.2238C15.5226 44.0648 15.4854 44.0997 15.4931 43.9197C15.5071 43.5977 15.4017 43.0694 15.5815 43.1632C15.6714 43.2098 15.5807 43.1454 15.6272 43.2106L16.5495 44.9516C16.6371 45.1254 16.6077 45.0144 16.6666 45.2317C16.7425 45.5141 16.8727 45.3861 17.1641 45.279L17.1045 44.8562C17.099 44.7677 17.1138 44.6994 17.1076 44.611L16.9874 42.0631C16.9603 41.8567 17.0262 41.769 16.9781 41.582L16.6069 41.5921V41.5921ZM29.3727 40.8884C29.3293 41.0684 29.3719 40.9846 29.3983 41.1429C29.4889 41.6891 29.4812 43.4325 29.4169 44.0237C29.3944 44.23 29.3386 44.3379 29.337 44.5319C29.4603 44.5939 29.6765 44.6459 29.8191 44.6157C29.9245 44.5505 29.8044 44.3131 29.8145 44.0788C29.8238 43.8561 29.7842 43.9663 29.8106 43.4588C29.823 43.2245 29.7618 43.32 29.8276 43.043L29.8912 43.0585C29.8896 43.223 30.2384 43.8755 30.3275 44.0625L30.5422 44.4457C30.6678 44.6638 30.836 44.6149 31.0514 44.6482C31.0476 44.4993 30.9243 44.3581 30.8577 44.2262L30.6337 43.7948C30.5918 43.6831 30.6011 43.6869 30.5477 43.5768C30.4671 43.4107 30.3043 43.0631 30.2996 42.8909L30.5546 42.6473C30.6616 42.5123 30.7786 42.0126 30.7492 41.8326L30.5484 41.1708C30.5446 41.1654 30.5391 41.1576 30.5353 41.1522C30.3578 40.9187 30.0586 40.8473 29.7718 40.838C29.6246 40.8325 29.4037 40.7588 29.3727 40.8884V40.8884ZM29.8028 41.3283C29.7618 41.5006 29.8354 42.1717 29.8152 42.375C29.7966 42.5666 29.7478 42.655 29.9113 42.6954C30.0059 42.7187 29.9672 42.6907 30.0222 42.6566C30.0245 42.6558 30.116 42.5806 30.1291 42.5674C30.4686 42.2291 30.4593 41.3213 29.8726 41.1778C29.8393 41.2453 29.823 41.243 29.8028 41.3283ZM44.0312 42.4898C44.0064 42.5914 44.011 42.6496 44.0304 42.7334C44.1195 43.1221 43.8886 45.6018 43.7816 46.0471C43.9242 46.1247 43.7963 46.1107 43.956 46.155C44.0374 46.1767 44.0699 46.1627 44.1862 46.1813C44.5225 46.2341 44.9085 46.155 45.0728 45.8244C45.217 45.5319 45.193 45.8167 45.1906 45.4311C45.1899 45.3186 45.2302 45.1215 45.2116 45.0129L45.0124 44.5132C44.9364 44.3906 44.8736 44.3488 44.9 44.1757C45.0356 44.1734 45.0348 44.1175 45.0984 43.9717C45.2557 43.6078 45.2867 43.2424 45.0938 42.8956C44.9914 42.7125 44.9465 42.6248 44.7194 42.5565C44.5675 42.5107 44.0722 42.316 44.0312 42.4898V42.4898ZM44.421 42.8195L44.3435 43.8398C44.352 43.9383 44.3513 44.0555 44.3706 44.1478C44.6062 44.1843 44.8031 43.8817 44.8628 43.6311C44.8984 43.4837 44.8527 43.3044 44.8271 43.1663C44.7845 42.9382 44.6527 42.7893 44.421 42.8195V42.8195ZM44.2614 45.8632C44.3737 45.8803 44.5132 45.8873 44.5908 45.8299C45.0442 45.4955 44.869 44.4364 44.3962 44.3208C44.2234 44.2789 44.2947 44.5039 44.3032 44.6211C44.3148 44.7778 44.1792 45.5436 44.2614 45.8632V45.8632ZM37.6277 41.53C37.4681 41.8489 36.9185 42.9041 36.7039 43.1469C36.6155 43.0507 36.5132 42.8506 36.4675 42.7241C36.3853 42.5332 35.9094 41.492 35.9048 41.3105C35.6847 41.2569 35.6296 41.3058 35.446 41.2655C35.4049 41.537 35.6203 41.3741 35.5839 42.0731C35.532 42.9506 35.5576 44.1579 35.3638 44.964C35.5932 45.1518 35.8769 45.0625 35.9009 44.9609C35.9366 44.8119 35.8815 44.7716 35.8629 44.687C35.8614 44.6801 35.8591 44.6707 35.8575 44.663C35.8808 44.0935 35.8335 43.0057 35.9482 42.527C36.0978 42.6085 36.4892 43.6668 36.5853 43.922L36.6806 43.9453C36.9581 43.5031 37.2433 43.0174 37.551 42.5992C37.5115 42.8599 37.4712 44.0811 37.4169 44.604C37.3394 45.3504 37.2487 45.2014 37.7672 45.2829C37.861 45.1083 37.8579 45.0532 37.8176 44.7926C37.8385 43.9174 37.7874 42.6814 37.9858 41.852C38.0346 41.6503 38.2485 41.4183 37.8285 41.506C37.7432 41.5238 37.7262 41.5308 37.6277 41.53V41.53ZM24.3178 44.6467C24.3194 44.3286 24.4364 43.6117 24.6651 43.4092C24.7418 43.3409 25.1681 43.2168 25.3161 43.2183L25.3455 44.0671C25.3967 44.3899 25.1285 44.5924 25.506 44.6133L26.2678 44.5769C26.5104 44.5404 26.5903 44.5187 26.6104 44.2238C26.6437 43.7312 26.4771 44.2425 25.7896 44.2355C25.7703 44.1587 25.7129 44.0268 25.7059 43.9624C25.6904 43.8266 25.6548 43.0965 25.6974 43.0538C25.7741 42.977 25.9943 42.8669 26.1934 42.915C26.2957 42.9406 26.3888 43.067 26.3221 42.6519C26.419 42.2477 26.1725 42.4386 26.1229 42.4479C25.4192 42.5743 25.647 42.3587 25.568 41.7496C25.475 41.0537 25.5401 41.2507 26.2113 41.3562C26.2857 41.0467 26.3229 41.0568 26.2376 40.8271C25.9726 40.7689 25.5517 40.8899 25.2735 40.8791C24.9208 40.8651 25.02 40.8674 24.7534 41.7023C24.5162 42.4254 24.314 43.1376 24.0807 43.8623C24.0264 43.995 23.9962 44.057 23.9582 44.1905C23.8885 44.4349 23.6637 44.7995 23.9993 44.7041C24.1845 44.6513 24.1814 44.6808 24.3178 44.6467V44.6467ZM25.275 42.7629L25.2184 41.4982L24.7612 42.8723L25.275 42.7629ZM40.18 41.7845C40.1017 42.1096 40.2427 42.4681 40.1893 42.7241C40.0753 43.2757 40.121 44.3658 40.049 45.0261C40.0342 45.1642 39.9885 45.3775 39.9877 45.5234C40.3001 45.5994 40.2505 45.5459 40.6031 45.6049C40.9503 45.6631 41.2658 45.4373 41.4549 45.1487C41.7223 44.7421 41.6921 44.7025 41.8137 44.1936C41.8835 43.9011 41.8122 43.1268 41.6859 42.8389C41.6339 42.7194 41.6626 42.8397 41.6177 42.7187C41.5394 42.5107 41.6603 42.6698 41.4751 42.4541L41.4239 42.3773C41.42 42.3711 41.4162 42.3625 41.4123 42.3571L41.3867 42.3191C41.3572 42.2803 41.3317 42.2563 41.2945 42.2128C41.2201 42.1267 40.9046 41.9281 40.8519 41.9149L40.18 41.7845V41.7845ZM40.6419 42.2322C40.538 42.3501 40.3698 44.6839 40.4295 45.12C40.4435 45.2177 40.3691 45.3108 40.6954 45.2294C40.9341 45.1696 40.9736 45.0571 41.1418 44.8562C41.3146 44.6498 41.3627 44.2898 41.4255 43.9988C41.482 43.7382 41.4355 43.7513 41.4224 43.5403C41.3929 43.0825 41.3177 42.8614 41.0651 42.5418C40.8659 42.2904 40.8728 42.3494 40.6419 42.2322V42.2322ZM17.4904 41.5393C17.492 41.5968 17.5648 41.7364 17.5927 42.1802C17.6323 42.8125 17.7609 43.9554 17.7074 44.5156C17.6857 44.7561 17.6656 44.7677 17.6733 45.023C17.6757 45.1099 17.6772 45.2146 17.778 45.2325C17.9686 45.2674 18.095 45.2185 18.2198 45.1991C18.4422 45.1642 18.4515 45.151 18.6786 45.0253L18.8646 44.8888C18.9847 44.7553 19.0801 44.6211 19.1374 44.4543C19.2475 44.1331 19.232 44.4287 19.2947 43.9794C19.3947 43.2719 19.3715 43.7358 19.3529 42.9988C19.3505 42.9196 19.3521 42.8925 19.3312 42.8226C19.2552 42.5697 19.3133 42.6356 19.2366 42.475C19.0901 42.1686 19.0894 42.025 18.7716 41.7318C18.4817 41.4641 18.1981 41.499 17.8749 41.4625C17.5765 41.4284 17.6873 41.5355 17.4904 41.5393V41.5393ZM17.9911 41.8295C17.9345 42.0654 17.9841 42.0126 17.9795 42.2144C18.0089 42.849 18.0206 43.4759 18.0547 44.1144C18.0554 44.2448 18.0229 44.3588 18.0516 44.4954C18.0717 44.5885 18.0764 44.552 18.0787 44.6676C18.0818 44.7926 18.0717 44.7607 18.0996 44.8709C18.2492 44.8391 18.2833 44.8632 18.474 44.6901C18.5205 44.6482 18.5391 44.6219 18.5895 44.5707C18.8607 44.2937 18.984 43.5884 18.9685 43.2602C18.9623 43.1361 18.9592 43.2075 18.9444 43.14C18.9297 43.0701 18.9297 43.0484 18.9289 42.9871C18.9258 42.7489 18.9305 42.932 18.8654 42.7016C18.753 42.3028 18.6034 42.1562 18.3236 41.9234C18.2283 41.8443 18.1384 41.8101 17.9911 41.8295V41.8295ZM45.6239 43.9507C45.5278 44.3744 45.4852 44.9896 45.6123 45.5188C45.7053 45.9059 45.889 46.2465 46.2083 46.4327C46.3145 46.4933 46.4222 46.5918 46.526 46.6166C46.7772 46.6779 47.1639 46.5576 47.3902 46.3117C47.6793 45.9975 47.7328 45.7764 47.8475 45.2976C47.9335 44.9384 47.9211 44.8174 47.9033 44.5334C47.8917 44.348 47.9296 44.3464 47.8769 44.1711C47.8413 44.0532 47.8328 43.9577 47.7963 43.8421C47.725 43.6179 47.6762 43.4596 47.5336 43.2726L47.1709 42.9258C46.4989 42.4417 45.7742 43.3254 45.6239 43.9507ZM46.6562 46.2132C46.7679 46.2403 46.6803 46.2085 46.7772 46.1899C47.2368 46.0999 47.3925 45.7988 47.5003 45.3473C47.5685 45.0625 47.5514 44.4465 47.4809 44.1432C47.4491 44.0043 47.4096 43.9197 47.3701 43.8049C47.3003 43.6024 47.2414 43.5163 47.0848 43.3844C47.0151 43.3254 47.0205 43.3091 46.9298 43.2618C46.5578 43.0663 46.2122 43.3774 46.0734 43.7614C45.9796 44.0198 45.9362 44.3495 45.9006 44.6203C45.9215 44.874 45.93 45.3155 46.0362 45.5374C46.068 45.6041 46.0843 45.6406 46.1153 45.705C46.2207 45.9261 46.3896 46.148 46.6562 46.2132V46.2132ZM20.772 44.4845C21.0743 44.5582 21.3013 44.4232 21.4385 44.1656C21.6672 43.7366 21.6408 43.7723 21.6648 43.2912C21.6703 43.1756 21.6881 43.0965 21.6765 42.9871C21.6633 42.8762 21.6447 42.8304 21.64 42.7125L21.5532 42.3331C21.5339 42.2656 21.5292 42.2741 21.5021 42.2012L21.4316 42.0281C21.2192 41.6394 20.7526 41.4315 20.4744 41.7077C20.2186 41.9622 20.1737 42.1531 20.1054 42.5123C20.0535 42.7846 20.0566 43.1881 20.1039 43.4596C20.1643 43.8095 20.3953 44.393 20.772 44.4845V44.4845ZM51.1306 36.8159C51.1554 37.1627 51.1879 37.5142 51.2205 37.8641C48.1002 36.1711 43.4685 35.7475 41.3472 38.3599C41.6649 42.0669 52.7946 42.7241 54.5997 40.7092C54.7098 40.5455 54.7849 40.3717 54.8206 40.1862C55.0516 38.9697 53.5123 37.6461 51.1306 36.8159ZM0.848615 40.7076C0.738558 40.5447 0.663381 40.3709 0.628504 40.1862C0.396765 38.9697 1.93678 37.6461 4.31773 36.8159C4.2937 37.1627 4.26115 37.5142 4.22782 37.8641C7.34817 36.1711 11.9799 35.7475 14.1012 38.3599C13.7842 42.0677 2.65215 42.7249 0.848615 40.7076Z" fill="#0B3132"/>
</svg>
