<svg width="256" height="61" viewBox="0 0 256 61" fill="none" xmlns="http://www.w3.org/2000/svg">
<path d="M8.72056 57.6395C8.02456 57.6395 7.44056 57.5355 6.96856 57.3275C6.49656 57.1115 6.13256 56.8355 5.87656 56.4995C5.62856 56.1555 5.49656 55.7915 5.48056 55.4075C5.48056 55.3435 5.50456 55.2875 5.55256 55.2395C5.60856 55.1835 5.67256 55.1555 5.74456 55.1555H6.35656C6.45256 55.1555 6.52456 55.1795 6.57256 55.2275C6.62056 55.2755 6.65256 55.3315 6.66856 55.3955C6.70856 55.5875 6.80456 55.7795 6.95656 55.9715C7.11656 56.1555 7.33656 56.3115 7.61656 56.4395C7.90456 56.5595 8.27256 56.6195 8.72056 56.6195C9.40856 56.6195 9.91256 56.4995 10.2326 56.2595C10.5606 56.0115 10.7246 55.6835 10.7246 55.2755C10.7246 54.9955 10.6366 54.7715 10.4606 54.6035C10.2926 54.4275 10.0326 54.2715 9.68056 54.1355C9.32856 53.9995 8.87256 53.8515 8.31256 53.6915C7.72856 53.5235 7.24456 53.3395 6.86056 53.1395C6.47656 52.9395 6.18856 52.6915 5.99656 52.3955C5.81256 52.0995 5.72056 51.7235 5.72056 51.2675C5.72056 50.8355 5.83656 50.4515 6.06856 50.1155C6.30056 49.7715 6.63256 49.4995 7.06456 49.2995C7.50456 49.0995 8.03656 48.9995 8.66056 48.9995C9.15656 48.9995 9.58856 49.0675 9.95656 49.2035C10.3326 49.3315 10.6446 49.5075 10.8926 49.7315C11.1406 49.9475 11.3286 50.1835 11.4566 50.4395C11.5846 50.6875 11.6526 50.9315 11.6606 51.1715C11.6606 51.2275 11.6406 51.2835 11.6006 51.3395C11.5606 51.3875 11.4966 51.4115 11.4086 51.4115H10.7726C10.7166 51.4115 10.6566 51.3955 10.5926 51.3635C10.5366 51.3315 10.4926 51.2715 10.4606 51.1835C10.4126 50.8555 10.2286 50.5795 9.90856 50.3555C9.58856 50.1315 9.17256 50.0195 8.66056 50.0195C8.14056 50.0195 7.71656 50.1195 7.38856 50.3195C7.06856 50.5195 6.90856 50.8315 6.90856 51.2555C6.90856 51.5275 6.98456 51.7555 7.13656 51.9395C7.28856 52.1155 7.52856 52.2715 7.85656 52.4075C8.18456 52.5435 8.61256 52.6875 9.14056 52.8395C9.78056 53.0155 10.3046 53.2035 10.7126 53.4035C11.1206 53.5955 11.4206 53.8395 11.6126 54.1355C11.8126 54.4235 11.9126 54.7955 11.9126 55.2515C11.9126 55.7555 11.7806 56.1875 11.5166 56.5475C11.2526 56.8995 10.8806 57.1715 10.4006 57.3635C9.92856 57.5475 9.36856 57.6395 8.72056 57.6395ZM13.7614 57.5195C13.6734 57.5195 13.6054 57.4955 13.5574 57.4475C13.5094 57.3915 13.4854 57.3235 13.4854 57.2435V49.3955C13.4854 49.3155 13.5094 49.2515 13.5574 49.2035C13.6054 49.1475 13.6734 49.1195 13.7614 49.1195H14.3974C14.4774 49.1195 14.5414 49.1475 14.5894 49.2035C14.6454 49.2515 14.6734 49.3155 14.6734 49.3955V57.2435C14.6734 57.3235 14.6454 57.3915 14.5894 57.4475C14.5414 57.4955 14.4774 57.5195 14.3974 57.5195H13.7614ZM19.4667 57.6395C18.7707 57.6395 18.1867 57.5355 17.7147 57.3275C17.2427 57.1115 16.8787 56.8355 16.6227 56.4995C16.3747 56.1555 16.2427 55.7915 16.2267 55.4075C16.2267 55.3435 16.2507 55.2875 16.2987 55.2395C16.3547 55.1835 16.4187 55.1555 16.4907 55.1555H17.1027C17.1987 55.1555 17.2707 55.1795 17.3187 55.2275C17.3667 55.2755 17.3987 55.3315 17.4147 55.3955C17.4547 55.5875 17.5507 55.7795 17.7027 55.9715C17.8627 56.1555 18.0827 56.3115 18.3627 56.4395C18.6507 56.5595 19.0187 56.6195 19.4667 56.6195C20.1547 56.6195 20.6587 56.4995 20.9787 56.2595C21.3067 56.0115 21.4707 55.6835 21.4707 55.2755C21.4707 54.9955 21.3827 54.7715 21.2067 54.6035C21.0387 54.4275 20.7787 54.2715 20.4267 54.1355C20.0747 53.9995 19.6187 53.8515 19.0587 53.6915C18.4747 53.5235 17.9907 53.3395 17.6067 53.1395C17.2227 52.9395 16.9347 52.6915 16.7427 52.3955C16.5587 52.0995 16.4667 51.7235 16.4667 51.2675C16.4667 50.8355 16.5827 50.4515 16.8147 50.1155C17.0467 49.7715 17.3787 49.4995 17.8107 49.2995C18.2507 49.0995 18.7827 48.9995 19.4067 48.9995C19.9027 48.9995 20.3347 49.0675 20.7027 49.2035C21.0787 49.3315 21.3907 49.5075 21.6387 49.7315C21.8867 49.9475 22.0747 50.1835 22.2027 50.4395C22.3307 50.6875 22.3987 50.9315 22.4067 51.1715C22.4067 51.2275 22.3867 51.2835 22.3467 51.3395C22.3067 51.3875 22.2427 51.4115 22.1547 51.4115H21.5187C21.4627 51.4115 21.4027 51.3955 21.3387 51.3635C21.2827 51.3315 21.2387 51.2715 21.2067 51.1835C21.1587 50.8555 20.9747 50.5795 20.6547 50.3555C20.3347 50.1315 19.9187 50.0195 19.4067 50.0195C18.8867 50.0195 18.4627 50.1195 18.1347 50.3195C17.8147 50.5195 17.6547 50.8315 17.6547 51.2555C17.6547 51.5275 17.7307 51.7555 17.8827 51.9395C18.0347 52.1155 18.2747 52.2715 18.6027 52.4075C18.9307 52.5435 19.3587 52.6875 19.8867 52.8395C20.5267 53.0155 21.0507 53.2035 21.4587 53.4035C21.8667 53.5955 22.1667 53.8395 22.3587 54.1355C22.5587 54.4235 22.6587 54.7955 22.6587 55.2515C22.6587 55.7555 22.5267 56.1875 22.2627 56.5475C21.9987 56.8995 21.6267 57.1715 21.1467 57.3635C20.6747 57.5475 20.1147 57.6395 19.4667 57.6395ZM26.2498 57.5195C26.1698 57.5195 26.1018 57.4955 26.0458 57.4475C25.9978 57.3915 25.9738 57.3235 25.9738 57.2435V50.1875H23.6698C23.5898 50.1875 23.5218 50.1635 23.4658 50.1155C23.4178 50.0595 23.3938 49.9915 23.3938 49.9115V49.4075C23.3938 49.3195 23.4178 49.2515 23.4658 49.2035C23.5218 49.1475 23.5898 49.1195 23.6698 49.1195H29.4538C29.5418 49.1195 29.6098 49.1475 29.6578 49.2035C29.7138 49.2515 29.7418 49.3195 29.7418 49.4075V49.9115C29.7418 49.9915 29.7138 50.0595 29.6578 50.1155C29.6098 50.1635 29.5418 50.1875 29.4538 50.1875H27.1618V57.2435C27.1618 57.3235 27.1338 57.3915 27.0778 57.4475C27.0298 57.4955 26.9618 57.5195 26.8738 57.5195H26.2498ZM31.363 57.5195C31.275 57.5195 31.207 57.4955 31.159 57.4475C31.111 57.3915 31.087 57.3235 31.087 57.2435V49.4075C31.087 49.3195 31.111 49.2515 31.159 49.2035C31.207 49.1475 31.275 49.1195 31.363 49.1195H36.319C36.407 49.1195 36.475 49.1475 36.523 49.2035C36.571 49.2515 36.595 49.3195 36.595 49.4075V49.8635C36.595 49.9515 36.571 50.0195 36.523 50.0675C36.475 50.1155 36.407 50.1395 36.319 50.1395H32.239V52.7675H36.055C36.143 52.7675 36.211 52.7955 36.259 52.8515C36.307 52.8995 36.331 52.9675 36.331 53.0555V53.4995C36.331 53.5795 36.307 53.6475 36.259 53.7035C36.211 53.7515 36.143 53.7755 36.055 53.7755H32.239V56.4995H36.415C36.503 56.4995 36.571 56.5235 36.619 56.5715C36.667 56.6195 36.691 56.6875 36.691 56.7755V57.2435C36.691 57.3235 36.667 57.3915 36.619 57.4475C36.571 57.4955 36.503 57.5195 36.415 57.5195H31.363ZM38.6403 57.5195C38.5603 57.5195 38.4923 57.4955 38.4363 57.4475C38.3883 57.3915 38.3643 57.3235 38.3643 57.2435V49.4075C38.3643 49.3195 38.3883 49.2515 38.4363 49.2035C38.4923 49.1475 38.5603 49.1195 38.6403 49.1195H39.2403C39.3363 49.1195 39.4083 49.1435 39.4563 49.1915C39.5043 49.2395 39.5323 49.2795 39.5403 49.3115L42.0843 54.1595L44.6403 49.3115C44.6563 49.2795 44.6843 49.2395 44.7243 49.1915C44.7723 49.1435 44.8443 49.1195 44.9403 49.1195H45.5283C45.6163 49.1195 45.6843 49.1475 45.7323 49.2035C45.7883 49.2515 45.8163 49.3195 45.8163 49.4075V57.2435C45.8163 57.3235 45.7883 57.3915 45.7323 57.4475C45.6843 57.4955 45.6163 57.5195 45.5283 57.5195H44.9403C44.8603 57.5195 44.7923 57.4955 44.7363 57.4475C44.6883 57.3915 44.6643 57.3235 44.6643 57.2435V51.3395L42.6603 55.2515C42.6283 55.3315 42.5803 55.3955 42.5163 55.4435C42.4523 55.4835 42.3723 55.5035 42.2763 55.5035H41.9043C41.8003 55.5035 41.7163 55.4835 41.6523 55.4435C41.5963 55.3955 41.5483 55.3315 41.5083 55.2515L39.5043 51.3395V57.2435C39.5043 57.3235 39.4763 57.3915 39.4203 57.4475C39.3723 57.4955 39.3083 57.5195 39.2283 57.5195H38.6403ZM47.3277 57.5195C47.2637 57.5195 47.2077 57.4955 47.1597 57.4475C47.1117 57.3995 47.0877 57.3435 47.0877 57.2795C47.0877 57.2395 47.0917 57.1955 47.0997 57.1475L50.0757 49.3835C50.1077 49.3035 50.1517 49.2395 50.2077 49.1915C50.2637 49.1435 50.3477 49.1195 50.4597 49.1195H51.2757C51.3797 49.1195 51.4597 49.1435 51.5157 49.1915C51.5797 49.2395 51.6277 49.3035 51.6597 49.3835L54.6237 57.1475C54.6397 57.1955 54.6477 57.2395 54.6477 57.2795C54.6477 57.3435 54.6237 57.3995 54.5757 57.4475C54.5277 57.4955 54.4717 57.5195 54.4077 57.5195H53.7957C53.6997 57.5195 53.6277 57.4955 53.5797 57.4475C53.5397 57.3995 53.5117 57.3555 53.4957 57.3155L52.8357 55.6115H48.8997L48.2397 57.3155C48.2317 57.3555 48.2037 57.3995 48.1557 57.4475C48.1077 57.4955 48.0357 57.5195 47.9397 57.5195H47.3277ZM49.2477 54.5795H52.4877L50.8677 50.3195L49.2477 54.5795ZM58.8317 57.5195C58.7437 57.5195 58.6757 57.4955 58.6277 57.4475C58.5797 57.3915 58.5557 57.3235 58.5557 57.2435V49.4075C58.5557 49.3195 58.5797 49.2515 58.6277 49.2035C58.6757 49.1475 58.7437 49.1195 58.8317 49.1195H61.5557C62.3797 49.1195 63.0437 49.2435 63.5477 49.4915C64.0517 49.7395 64.4197 50.1075 64.6517 50.5955C64.8837 51.0755 65.0037 51.6675 65.0117 52.3715C65.0197 52.7315 65.0237 53.0475 65.0237 53.3195C65.0237 53.5915 65.0197 53.9035 65.0117 54.2555C64.9957 54.9915 64.8717 55.6035 64.6397 56.0915C64.4157 56.5715 64.0557 56.9315 63.5597 57.1715C63.0717 57.4035 62.4237 57.5195 61.6157 57.5195H58.8317ZM59.7317 56.4995H61.5557C62.1077 56.4995 62.5477 56.4235 62.8757 56.2715C63.2037 56.1195 63.4397 55.8755 63.5837 55.5395C63.7357 55.2035 63.8157 54.7595 63.8237 54.2075C63.8397 53.9675 63.8477 53.7595 63.8477 53.5835C63.8477 53.3995 63.8477 53.2195 63.8477 53.0435C63.8477 52.8595 63.8397 52.6515 63.8237 52.4195C63.8077 51.6435 63.6237 51.0715 63.2717 50.7035C62.9197 50.3275 62.3277 50.1395 61.4957 50.1395H59.7317V56.4995ZM67.1052 57.5195C67.0172 57.5195 66.9492 57.4955 66.9012 57.4475C66.8532 57.3915 66.8292 57.3235 66.8292 57.2435V49.4075C66.8292 49.3195 66.8532 49.2515 66.9012 49.2035C66.9492 49.1475 67.0172 49.1195 67.1052 49.1195H72.0612C72.1492 49.1195 72.2172 49.1475 72.2652 49.2035C72.3132 49.2515 72.3372 49.3195 72.3372 49.4075V49.8635C72.3372 49.9515 72.3132 50.0195 72.2652 50.0675C72.2172 50.1155 72.1492 50.1395 72.0612 50.1395H67.9812V52.7675H71.7972C71.8852 52.7675 71.9532 52.7955 72.0012 52.8515C72.0492 52.8995 72.0732 52.9675 72.0732 53.0555V53.4995C72.0732 53.5795 72.0492 53.6475 72.0012 53.7035C71.9532 53.7515 71.8852 53.7755 71.7972 53.7755H67.9812V56.4995H72.1572C72.2452 56.4995 72.3132 56.5235 72.3612 56.5715C72.4092 56.6195 72.4332 56.6875 72.4332 56.7755V57.2435C72.4332 57.3235 72.4092 57.3915 72.3612 57.4475C72.3132 57.4955 72.2452 57.5195 72.1572 57.5195H67.1052ZM77.3239 57.5195C77.2359 57.5195 77.1679 57.4955 77.1199 57.4475C77.0719 57.3915 77.0479 57.3235 77.0479 57.2435V49.4075C77.0479 49.3195 77.0719 49.2515 77.1199 49.2035C77.1679 49.1475 77.2359 49.1195 77.3239 49.1195H80.2519C81.1559 49.1195 81.8719 49.3315 82.3999 49.7555C82.9279 50.1795 83.1919 50.8075 83.1919 51.6395C83.1919 52.2555 83.0359 52.7595 82.7239 53.1515C82.4199 53.5355 82.0039 53.8035 81.4759 53.9555L83.3239 57.1475C83.3479 57.1955 83.3599 57.2395 83.3599 57.2795C83.3599 57.3435 83.3319 57.3995 83.2759 57.4475C83.2279 57.4955 83.1719 57.5195 83.1079 57.5195H82.5319C82.3959 57.5195 82.2959 57.4835 82.2319 57.4115C82.1679 57.3395 82.1119 57.2675 82.0639 57.1955L80.3239 54.1475H78.2239V57.2435C78.2239 57.3235 78.1959 57.3915 78.1399 57.4475C78.0919 57.4955 78.0239 57.5195 77.9359 57.5195H77.3239ZM78.2239 53.1275H80.2039C80.8039 53.1275 81.2519 53.0035 81.5479 52.7555C81.8439 52.4995 81.9919 52.1235 81.9919 51.6275C81.9919 51.1395 81.8439 50.7675 81.5479 50.5115C81.2599 50.2555 80.8119 50.1275 80.2039 50.1275H78.2239V53.1275ZM85.1872 57.5195C85.0992 57.5195 85.0312 57.4955 84.9832 57.4475C84.9352 57.3915 84.9112 57.3235 84.9112 57.2435V49.4075C84.9112 49.3195 84.9352 49.2515 84.9832 49.2035C85.0312 49.1475 85.0992 49.1195 85.1872 49.1195H90.1432C90.2312 49.1195 90.2992 49.1475 90.3472 49.2035C90.3952 49.2515 90.4192 49.3195 90.4192 49.4075V49.8635C90.4192 49.9515 90.3952 50.0195 90.3472 50.0675C90.2992 50.1155 90.2312 50.1395 90.1432 50.1395H86.0632V52.7675H89.8792C89.9672 52.7675 90.0352 52.7955 90.0832 52.8515C90.1312 52.8995 90.1552 52.9675 90.1552 53.0555V53.4995C90.1552 53.5795 90.1312 53.6475 90.0832 53.7035C90.0352 53.7515 89.9672 53.7755 89.8792 53.7755H86.0632V56.4995H90.2392C90.3272 56.4995 90.3952 56.5235 90.4432 56.5715C90.4912 56.6195 90.5152 56.6875 90.5152 56.7755V57.2435C90.5152 57.3235 90.4912 57.3915 90.4432 57.4475C90.3952 57.4955 90.3272 57.5195 90.2392 57.5195H85.1872ZM94.8885 57.6395C94.1925 57.6395 93.6085 57.5355 93.1365 57.3275C92.6645 57.1115 92.3005 56.8355 92.0445 56.4995C91.7965 56.1555 91.6645 55.7915 91.6485 55.4075C91.6485 55.3435 91.6725 55.2875 91.7205 55.2395C91.7765 55.1835 91.8405 55.1555 91.9125 55.1555H92.5245C92.6205 55.1555 92.6925 55.1795 92.7405 55.2275C92.7885 55.2755 92.8205 55.3315 92.8365 55.3955C92.8765 55.5875 92.9725 55.7795 93.1245 55.9715C93.2845 56.1555 93.5045 56.3115 93.7845 56.4395C94.0725 56.5595 94.4405 56.6195 94.8885 56.6195C95.5765 56.6195 96.0805 56.4995 96.4005 56.2595C96.7285 56.0115 96.8925 55.6835 96.8925 55.2755C96.8925 54.9955 96.8045 54.7715 96.6285 54.6035C96.4605 54.4275 96.2005 54.2715 95.8485 54.1355C95.4965 53.9995 95.0405 53.8515 94.4805 53.6915C93.8965 53.5235 93.4125 53.3395 93.0285 53.1395C92.6445 52.9395 92.3565 52.6915 92.1645 52.3955C91.9805 52.0995 91.8885 51.7235 91.8885 51.2675C91.8885 50.8355 92.0045 50.4515 92.2365 50.1155C92.4685 49.7715 92.8005 49.4995 93.2325 49.2995C93.6725 49.0995 94.2045 48.9995 94.8285 48.9995C95.3245 48.9995 95.7565 49.0675 96.1245 49.2035C96.5005 49.3315 96.8125 49.5075 97.0605 49.7315C97.3085 49.9475 97.4965 50.1835 97.6245 50.4395C97.7525 50.6875 97.8205 50.9315 97.8285 51.1715C97.8285 51.2275 97.8085 51.2835 97.7685 51.3395C97.7285 51.3875 97.6645 51.4115 97.5765 51.4115H96.9405C96.8845 51.4115 96.8245 51.3955 96.7605 51.3635C96.7045 51.3315 96.6605 51.2715 96.6285 51.1835C96.5805 50.8555 96.3965 50.5795 96.0765 50.3555C95.7565 50.1315 95.3405 50.0195 94.8285 50.0195C94.3085 50.0195 93.8845 50.1195 93.5565 50.3195C93.2365 50.5195 93.0765 50.8315 93.0765 51.2555C93.0765 51.5275 93.1525 51.7555 93.3045 51.9395C93.4565 52.1155 93.6965 52.2715 94.0245 52.4075C94.3525 52.5435 94.7805 52.6875 95.3085 52.8395C95.9485 53.0155 96.4725 53.2035 96.8805 53.4035C97.2885 53.5955 97.5885 53.8395 97.7805 54.1355C97.9805 54.4235 98.0805 54.7955 98.0805 55.2515C98.0805 55.7555 97.9485 56.1875 97.6845 56.5475C97.4205 56.8995 97.0485 57.1715 96.5685 57.3635C96.0965 57.5475 95.5365 57.6395 94.8885 57.6395ZM99.9294 57.5195C99.8414 57.5195 99.7734 57.4955 99.7254 57.4475C99.6774 57.3915 99.6534 57.3235 99.6534 57.2435V49.4075C99.6534 49.3195 99.6774 49.2515 99.7254 49.2035C99.7734 49.1475 99.8414 49.1195 99.9294 49.1195H104.885C104.973 49.1195 105.041 49.1475 105.089 49.2035C105.137 49.2515 105.161 49.3195 105.161 49.4075V49.8635C105.161 49.9515 105.137 50.0195 105.089 50.0675C105.041 50.1155 104.973 50.1395 104.885 50.1395H100.805V52.7675H104.621C104.709 52.7675 104.777 52.7955 104.825 52.8515C104.873 52.8995 104.897 52.9675 104.897 53.0555V53.4995C104.897 53.5795 104.873 53.6475 104.825 53.7035C104.777 53.7515 104.709 53.7755 104.621 53.7755H100.805V56.4995H104.981C105.069 56.4995 105.137 56.5235 105.185 56.5715C105.233 56.6195 105.257 56.6875 105.257 56.7755V57.2435C105.257 57.3235 105.233 57.3915 105.185 57.4475C105.137 57.4955 105.069 57.5195 104.981 57.5195H99.9294ZM107.207 57.5195C107.119 57.5195 107.051 57.4955 107.003 57.4475C106.955 57.3915 106.931 57.3235 106.931 57.2435V49.4075C106.931 49.3195 106.955 49.2515 107.003 49.2035C107.051 49.1475 107.119 49.1195 107.207 49.1195H110.135C111.039 49.1195 111.755 49.3315 112.283 49.7555C112.811 50.1795 113.075 50.8075 113.075 51.6395C113.075 52.2555 112.919 52.7595 112.607 53.1515C112.303 53.5355 111.887 53.8035 111.359 53.9555L113.207 57.1475C113.231 57.1955 113.243 57.2395 113.243 57.2795C113.243 57.3435 113.215 57.3995 113.159 57.4475C113.111 57.4955 113.055 57.5195 112.991 57.5195H112.415C112.279 57.5195 112.179 57.4835 112.115 57.4115C112.051 57.3395 111.995 57.2675 111.947 57.1955L110.207 54.1475H108.107V57.2435C108.107 57.3235 108.079 57.3915 108.023 57.4475C107.975 57.4955 107.907 57.5195 107.819 57.5195H107.207ZM108.107 53.1275H110.087C110.687 53.1275 111.135 53.0035 111.431 52.7555C111.727 52.4995 111.875 52.1235 111.875 51.6275C111.875 51.1395 111.727 50.7675 111.431 50.5115C111.143 50.2555 110.695 50.1275 110.087 50.1275H108.107V53.1275ZM117.032 57.5195C116.912 57.5195 116.816 57.4915 116.744 57.4355C116.68 57.3795 116.628 57.3035 116.588 57.2075L113.912 49.4915C113.896 49.4435 113.888 49.3995 113.888 49.3595C113.888 49.2955 113.912 49.2395 113.96 49.1915C114.008 49.1435 114.064 49.1195 114.128 49.1195H114.752C114.848 49.1195 114.92 49.1475 114.968 49.2035C115.024 49.2515 115.056 49.2955 115.064 49.3355L117.416 56.1395L119.768 49.3355C119.784 49.2955 119.816 49.2515 119.864 49.2035C119.912 49.1475 119.984 49.1195 120.08 49.1195H120.704C120.768 49.1195 120.824 49.1435 120.872 49.1915C120.928 49.2395 120.956 49.2955 120.956 49.3595C120.956 49.3995 120.948 49.4435 120.932 49.4915L118.244 57.2075C118.212 57.3035 118.16 57.3795 118.088 57.4355C118.024 57.4915 117.932 57.5195 117.812 57.5195H117.032ZM121.238 57.5195C121.174 57.5195 121.118 57.4955 121.07 57.4475C121.022 57.3995 120.998 57.3435 120.998 57.2795C120.998 57.2395 121.002 57.1955 121.01 57.1475L123.986 49.3835C124.018 49.3035 124.062 49.2395 124.118 49.1915C124.174 49.1435 124.258 49.1195 124.37 49.1195H125.186C125.29 49.1195 125.37 49.1435 125.426 49.1915C125.49 49.2395 125.538 49.3035 125.57 49.3835L128.534 57.1475C128.55 57.1955 128.558 57.2395 128.558 57.2795C128.558 57.3435 128.534 57.3995 128.486 57.4475C128.438 57.4955 128.382 57.5195 128.318 57.5195H127.706C127.61 57.5195 127.538 57.4955 127.49 57.4475C127.45 57.3995 127.422 57.3555 127.406 57.3155L126.746 55.6115H122.81L122.15 57.3155C122.142 57.3555 122.114 57.3995 122.066 57.4475C122.018 57.4955 121.946 57.5195 121.85 57.5195H121.238ZM123.158 54.5795H126.398L124.778 50.3195L123.158 54.5795ZM132.742 57.5195C132.654 57.5195 132.586 57.4955 132.538 57.4475C132.49 57.3915 132.466 57.3235 132.466 57.2435V49.4075C132.466 49.3195 132.49 49.2515 132.538 49.2035C132.586 49.1475 132.654 49.1195 132.742 49.1195H135.466C136.29 49.1195 136.954 49.2435 137.458 49.4915C137.962 49.7395 138.33 50.1075 138.562 50.5955C138.794 51.0755 138.914 51.6675 138.922 52.3715C138.93 52.7315 138.934 53.0475 138.934 53.3195C138.934 53.5915 138.93 53.9035 138.922 54.2555C138.906 54.9915 138.782 55.6035 138.55 56.0915C138.326 56.5715 137.966 56.9315 137.47 57.1715C136.982 57.4035 136.334 57.5195 135.526 57.5195H132.742ZM133.642 56.4995H135.466C136.018 56.4995 136.458 56.4235 136.786 56.2715C137.114 56.1195 137.35 55.8755 137.494 55.5395C137.646 55.2035 137.726 54.7595 137.734 54.2075C137.75 53.9675 137.758 53.7595 137.758 53.5835C137.758 53.3995 137.758 53.2195 137.758 53.0435C137.758 52.8595 137.75 52.6515 137.734 52.4195C137.718 51.6435 137.534 51.0715 137.182 50.7035C136.83 50.3275 136.238 50.1395 135.406 50.1395H133.642V56.4995ZM141.015 57.5195C140.927 57.5195 140.859 57.4955 140.811 57.4475C140.763 57.3915 140.739 57.3235 140.739 57.2435V49.4075C140.739 49.3195 140.763 49.2515 140.811 49.2035C140.859 49.1475 140.927 49.1195 141.015 49.1195H145.971C146.059 49.1195 146.127 49.1475 146.175 49.2035C146.223 49.2515 146.247 49.3195 146.247 49.4075V49.8635C146.247 49.9515 146.223 50.0195 146.175 50.0675C146.127 50.1155 146.059 50.1395 145.971 50.1395H141.891V52.7675H145.707C145.795 52.7675 145.863 52.7955 145.911 52.8515C145.959 52.8995 145.983 52.9675 145.983 53.0555V53.4995C145.983 53.5795 145.959 53.6475 145.911 53.7035C145.863 53.7515 145.795 53.7755 145.707 53.7755H141.891V56.4995H146.067C146.155 56.4995 146.223 56.5235 146.271 56.5715C146.319 56.6195 146.343 56.6875 146.343 56.7755V57.2435C146.343 57.3235 146.319 57.3915 146.271 57.4475C146.223 57.4955 146.155 57.5195 146.067 57.5195H141.015ZM151.234 57.5195C151.146 57.5195 151.078 57.4955 151.03 57.4475C150.982 57.3915 150.958 57.3235 150.958 57.2435V49.4075C150.958 49.3195 150.982 49.2515 151.03 49.2035C151.078 49.1475 151.146 49.1195 151.234 49.1195H156.19C156.278 49.1195 156.346 49.1475 156.394 49.2035C156.442 49.2515 156.466 49.3195 156.466 49.4075V49.8635C156.466 49.9515 156.442 50.0195 156.394 50.0675C156.346 50.1155 156.278 50.1395 156.19 50.1395H152.11V52.7675H155.926C156.014 52.7675 156.082 52.7955 156.13 52.8515C156.178 52.8995 156.202 52.9675 156.202 53.0555V53.4995C156.202 53.5795 156.178 53.6475 156.13 53.7035C156.082 53.7515 156.014 53.7755 155.926 53.7755H152.11V56.4995H156.286C156.374 56.4995 156.442 56.5235 156.49 56.5715C156.538 56.6195 156.562 56.6875 156.562 56.7755V57.2435C156.562 57.3235 156.538 57.3915 156.49 57.4475C156.442 57.4955 156.374 57.5195 156.286 57.5195H151.234ZM160.935 57.6395C160.239 57.6395 159.655 57.5355 159.183 57.3275C158.711 57.1115 158.347 56.8355 158.091 56.4995C157.843 56.1555 157.711 55.7915 157.695 55.4075C157.695 55.3435 157.719 55.2875 157.767 55.2395C157.823 55.1835 157.887 55.1555 157.959 55.1555H158.571C158.667 55.1555 158.739 55.1795 158.787 55.2275C158.835 55.2755 158.867 55.3315 158.883 55.3955C158.923 55.5875 159.019 55.7795 159.171 55.9715C159.331 56.1555 159.551 56.3115 159.831 56.4395C160.119 56.5595 160.487 56.6195 160.935 56.6195C161.623 56.6195 162.127 56.4995 162.447 56.2595C162.775 56.0115 162.939 55.6835 162.939 55.2755C162.939 54.9955 162.851 54.7715 162.675 54.6035C162.507 54.4275 162.247 54.2715 161.895 54.1355C161.543 53.9995 161.087 53.8515 160.527 53.6915C159.943 53.5235 159.459 53.3395 159.075 53.1395C158.691 52.9395 158.403 52.6915 158.211 52.3955C158.027 52.0995 157.935 51.7235 157.935 51.2675C157.935 50.8355 158.051 50.4515 158.283 50.1155C158.515 49.7715 158.847 49.4995 159.279 49.2995C159.719 49.0995 160.251 48.9995 160.875 48.9995C161.371 48.9995 161.803 49.0675 162.171 49.2035C162.547 49.3315 162.859 49.5075 163.107 49.7315C163.355 49.9475 163.543 50.1835 163.671 50.4395C163.799 50.6875 163.867 50.9315 163.875 51.1715C163.875 51.2275 163.855 51.2835 163.815 51.3395C163.775 51.3875 163.711 51.4115 163.623 51.4115H162.987C162.931 51.4115 162.871 51.3955 162.807 51.3635C162.751 51.3315 162.707 51.2715 162.675 51.1835C162.627 50.8555 162.443 50.5795 162.123 50.3555C161.803 50.1315 161.387 50.0195 160.875 50.0195C160.355 50.0195 159.931 50.1195 159.603 50.3195C159.283 50.5195 159.123 50.8315 159.123 51.2555C159.123 51.5275 159.199 51.7555 159.351 51.9395C159.503 52.1155 159.743 52.2715 160.071 52.4075C160.399 52.5435 160.827 52.6875 161.355 52.8395C161.995 53.0155 162.519 53.2035 162.927 53.4035C163.335 53.5955 163.635 53.8395 163.827 54.1355C164.027 54.4235 164.127 54.7955 164.127 55.2515C164.127 55.7555 163.995 56.1875 163.731 56.5475C163.467 56.8995 163.095 57.1715 162.615 57.3635C162.143 57.5475 161.583 57.6395 160.935 57.6395ZM165.976 57.5195C165.888 57.5195 165.82 57.4955 165.772 57.4475C165.724 57.3915 165.7 57.3235 165.7 57.2435V49.4075C165.7 49.3195 165.724 49.2515 165.772 49.2035C165.82 49.1475 165.888 49.1195 165.976 49.1195H169.024C169.616 49.1195 170.128 49.2155 170.56 49.4075C171 49.5995 171.34 49.8875 171.58 50.2715C171.82 50.6475 171.94 51.1195 171.94 51.6875C171.94 52.2555 171.82 52.7275 171.58 53.1035C171.34 53.4795 171 53.7635 170.56 53.9555C170.128 54.1475 169.616 54.2435 169.024 54.2435H166.9V57.2435C166.9 57.3235 166.872 57.3915 166.816 57.4475C166.768 57.4955 166.7 57.5195 166.612 57.5195H165.976ZM166.888 53.2355H168.964C169.556 53.2355 170 53.1035 170.296 52.8395C170.592 52.5755 170.74 52.1915 170.74 51.6875C170.74 51.1915 170.596 50.8075 170.308 50.5355C170.02 50.2635 169.572 50.1275 168.964 50.1275H166.888V53.2355ZM172.355 57.5195C172.291 57.5195 172.235 57.4955 172.187 57.4475C172.139 57.3995 172.115 57.3435 172.115 57.2795C172.115 57.2395 172.119 57.1955 172.127 57.1475L175.103 49.3835C175.135 49.3035 175.179 49.2395 175.235 49.1915C175.291 49.1435 175.375 49.1195 175.487 49.1195H176.303C176.407 49.1195 176.487 49.1435 176.543 49.1915C176.607 49.2395 176.655 49.3035 176.687 49.3835L179.651 57.1475C179.667 57.1955 179.675 57.2395 179.675 57.2795C179.675 57.3435 179.651 57.3995 179.603 57.4475C179.555 57.4955 179.499 57.5195 179.435 57.5195H178.823C178.727 57.5195 178.655 57.4955 178.607 57.4475C178.567 57.3995 178.539 57.3555 178.523 57.3155L177.863 55.6115H173.927L173.267 57.3155C173.259 57.3555 173.231 57.3995 173.183 57.4475C173.135 57.4955 173.063 57.5195 172.967 57.5195H172.355ZM174.275 54.5795H177.515L175.895 50.3195L174.275 54.5795ZM183.782 60.1595C183.558 60.1515 183.358 60.1115 183.182 60.0395C183.014 59.9675 182.89 59.8835 182.81 59.7875C182.738 59.6915 182.738 59.6115 182.81 59.5475L182.99 59.3795C183.062 59.3155 183.126 59.2995 183.182 59.3315C183.238 59.3715 183.31 59.4195 183.398 59.4755C183.486 59.5315 183.614 59.5595 183.782 59.5595C183.918 59.5595 184.03 59.5195 184.118 59.4395C184.214 59.3595 184.262 59.2515 184.262 59.1155C184.262 58.9875 184.214 58.8835 184.118 58.8035C184.03 58.7315 183.918 58.6955 183.782 58.6955C183.662 58.6955 183.562 58.7115 183.482 58.7435C183.402 58.7755 183.33 58.7955 183.266 58.8035C183.202 58.8195 183.138 58.7955 183.074 58.7315L182.87 58.5155C182.83 58.4675 182.818 58.4115 182.834 58.3475C182.858 58.2835 182.886 58.2195 182.918 58.1555L183.158 57.5915C182.574 57.5115 182.086 57.3315 181.694 57.0515C181.31 56.7635 181.018 56.3955 180.818 55.9475C180.626 55.4915 180.518 54.9715 180.494 54.3875C180.486 54.0595 180.482 53.7075 180.482 53.3315C180.482 52.9555 180.486 52.5955 180.494 52.2515C180.518 51.6035 180.654 51.0355 180.902 50.5475C181.15 50.0595 181.514 49.6795 181.994 49.4075C182.482 49.1355 183.094 48.9995 183.83 48.9995C184.382 48.9995 184.866 49.0755 185.282 49.2275C185.698 49.3795 186.042 49.5835 186.314 49.8395C186.594 50.0955 186.806 50.3835 186.95 50.7035C187.094 51.0155 187.174 51.3395 187.19 51.6755C187.198 51.7475 187.174 51.8075 187.118 51.8555C187.07 51.9035 187.01 51.9275 186.938 51.9275H186.278C186.206 51.9275 186.142 51.9075 186.086 51.8675C186.038 51.8275 186.002 51.7555 185.978 51.6515C185.842 51.0275 185.586 50.5995 185.21 50.3675C184.842 50.1355 184.378 50.0195 183.818 50.0195C183.178 50.0195 182.67 50.2035 182.294 50.5715C181.918 50.9315 181.714 51.5115 181.682 52.3115C181.658 52.9675 181.658 53.6395 181.682 54.3275C181.714 55.1275 181.918 55.7115 182.294 56.0795C182.67 56.4395 183.178 56.6195 183.818 56.6195C184.378 56.6195 184.842 56.5035 185.21 56.2715C185.586 56.0395 185.842 55.6115 185.978 54.9875C186.002 54.8835 186.038 54.8115 186.086 54.7715C186.142 54.7315 186.206 54.7115 186.278 54.7115H186.938C187.01 54.7115 187.07 54.7355 187.118 54.7835C187.174 54.8315 187.198 54.8915 187.19 54.9635C187.174 55.2995 187.094 55.6275 186.95 55.9475C186.806 56.2595 186.594 56.5435 186.314 56.7995C186.042 57.0555 185.698 57.2595 185.282 57.4115C184.866 57.5635 184.382 57.6395 183.83 57.6395L183.566 58.1915C183.614 58.1595 183.678 58.1355 183.758 58.1195C183.846 58.1035 183.926 58.0955 183.998 58.0955C184.27 58.0955 184.49 58.1875 184.658 58.3715C184.834 58.5635 184.922 58.8075 184.922 59.1035C184.922 59.3915 184.826 59.6395 184.634 59.8475C184.442 60.0635 184.158 60.1675 183.782 60.1595ZM191.81 57.6395C191.13 57.6395 190.546 57.5235 190.058 57.2915C189.57 57.0515 189.194 56.6875 188.93 56.1995C188.666 55.7035 188.518 55.0835 188.486 54.3395C188.478 53.9875 188.474 53.6515 188.474 53.3315C188.474 53.0035 188.478 52.6635 188.486 52.3115C188.518 51.5755 188.67 50.9635 188.942 50.4755C189.222 49.9795 189.606 49.6115 190.094 49.3715C190.59 49.1235 191.162 48.9995 191.81 48.9995C192.466 48.9995 193.038 49.1235 193.526 49.3715C194.022 49.6115 194.41 49.9795 194.69 50.4755C194.97 50.9635 195.122 51.5755 195.146 52.3115C195.162 52.6635 195.17 53.0035 195.17 53.3315C195.17 53.6515 195.162 53.9875 195.146 54.3395C195.122 55.0835 194.974 55.7035 194.702 56.1995C194.438 56.6875 194.062 57.0515 193.574 57.2915C193.086 57.5235 192.498 57.6395 191.81 57.6395ZM191.81 56.6195C192.426 56.6195 192.926 56.4355 193.31 56.0675C193.702 55.6995 193.914 55.1035 193.946 54.2795C193.962 53.9195 193.97 53.5995 193.97 53.3195C193.97 53.0315 193.962 52.7115 193.946 52.3595C193.93 51.8075 193.826 51.3595 193.634 51.0155C193.45 50.6715 193.202 50.4195 192.89 50.2595C192.578 50.0995 192.218 50.0195 191.81 50.0195C191.418 50.0195 191.066 50.0995 190.754 50.2595C190.442 50.4195 190.19 50.6715 189.998 51.0155C189.814 51.3595 189.71 51.8075 189.686 52.3595C189.678 52.7115 189.674 53.0315 189.674 53.3195C189.674 53.5995 189.678 53.9195 189.686 54.2795C189.718 55.1035 189.93 55.6995 190.322 56.0675C190.714 56.4355 191.21 56.6195 191.81 56.6195ZM200.136 57.5195C200.048 57.5195 199.98 57.4955 199.932 57.4475C199.884 57.3915 199.86 57.3235 199.86 57.2435V49.4075C199.86 49.3195 199.884 49.2515 199.932 49.2035C199.98 49.1475 200.048 49.1195 200.136 49.1195H203.424C204.024 49.1195 204.512 49.2195 204.888 49.4195C205.272 49.6115 205.552 49.8755 205.728 50.2115C205.912 50.5475 206.004 50.9235 206.004 51.3395C206.004 51.6675 205.948 51.9515 205.836 52.1915C205.732 52.4235 205.6 52.6155 205.44 52.7675C205.28 52.9115 205.124 53.0235 204.972 53.1035C205.284 53.2555 205.56 53.5035 205.8 53.8475C206.048 54.1915 206.172 54.6075 206.172 55.0955C206.172 55.5355 206.072 55.9395 205.872 56.3075C205.672 56.6755 205.372 56.9715 204.972 57.1955C204.58 57.4115 204.092 57.5195 203.508 57.5195H200.136ZM201.036 56.5475H203.352C203.872 56.5475 204.272 56.4075 204.552 56.1275C204.832 55.8475 204.972 55.5035 204.972 55.0955C204.972 54.6715 204.832 54.3235 204.552 54.0515C204.272 53.7715 203.872 53.6315 203.352 53.6315H201.036V56.5475ZM201.036 52.6715H203.244C203.756 52.6715 204.144 52.5555 204.408 52.3235C204.672 52.0835 204.804 51.7595 204.804 51.3515C204.804 50.9435 204.672 50.6315 204.408 50.4155C204.144 50.1995 203.756 50.0915 203.244 50.0915H201.036V52.6715ZM207.218 57.5195C207.154 57.5195 207.098 57.4955 207.05 57.4475C207.002 57.3995 206.978 57.3435 206.978 57.2795C206.978 57.2395 206.982 57.1955 206.99 57.1475L209.966 49.3835C209.998 49.3035 210.042 49.2395 210.098 49.1915C210.154 49.1435 210.238 49.1195 210.35 49.1195H211.166C211.27 49.1195 211.35 49.1435 211.406 49.1915C211.47 49.2395 211.518 49.3035 211.55 49.3835L214.514 57.1475C214.53 57.1955 214.538 57.2395 214.538 57.2795C214.538 57.3435 214.514 57.3995 214.466 57.4475C214.418 57.4955 214.362 57.5195 214.298 57.5195H213.686C213.59 57.5195 213.518 57.4955 213.47 57.4475C213.43 57.3995 213.402 57.3555 213.386 57.3155L212.726 55.6115H208.79L208.13 57.3155C208.122 57.3555 208.094 57.3995 208.046 57.4475C207.998 57.4955 207.926 57.5195 207.83 57.5195H207.218ZM209.138 54.5795H212.378L210.758 50.3195L209.138 54.5795ZM216.097 57.5195C216.009 57.5195 215.941 57.4955 215.893 57.4475C215.845 57.3915 215.821 57.3235 215.821 57.2435V49.4075C215.821 49.3195 215.845 49.2515 215.893 49.2035C215.941 49.1475 216.009 49.1195 216.097 49.1195H216.709C216.797 49.1195 216.865 49.1475 216.913 49.2035C216.969 49.2515 216.997 49.3195 216.997 49.4075V52.7195H221.125V49.4075C221.125 49.3195 221.149 49.2515 221.197 49.2035C221.253 49.1475 221.321 49.1195 221.401 49.1195H222.013C222.101 49.1195 222.169 49.1475 222.217 49.2035C222.273 49.2515 222.301 49.3195 222.301 49.4075V57.2435C222.301 57.3235 222.273 57.3915 222.217 57.4475C222.169 57.4955 222.101 57.5195 222.013 57.5195H221.401C221.321 57.5195 221.253 57.4955 221.197 57.4475C221.149 57.3915 221.125 57.3235 221.125 57.2435V53.7995H216.997V57.2435C216.997 57.3235 216.969 57.3915 216.913 57.4475C216.865 57.4955 216.797 57.5195 216.709 57.5195H216.097ZM224.652 57.5195C224.564 57.5195 224.496 57.4955 224.448 57.4475C224.4 57.3915 224.376 57.3235 224.376 57.2435V49.3955C224.376 49.3155 224.4 49.2515 224.448 49.2035C224.496 49.1475 224.564 49.1195 224.652 49.1195H225.288C225.368 49.1195 225.432 49.1475 225.48 49.2035C225.536 49.2515 225.564 49.3155 225.564 49.3955V57.2435C225.564 57.3235 225.536 57.3915 225.48 57.4475C225.432 57.4955 225.368 57.5195 225.288 57.5195H224.652ZM227.093 57.5195C227.029 57.5195 226.973 57.4955 226.925 57.4475C226.877 57.3995 226.853 57.3435 226.853 57.2795C226.853 57.2395 226.857 57.1955 226.865 57.1475L229.841 49.3835C229.873 49.3035 229.917 49.2395 229.973 49.1915C230.029 49.1435 230.113 49.1195 230.225 49.1195H231.041C231.145 49.1195 231.225 49.1435 231.281 49.1915C231.345 49.2395 231.393 49.3035 231.425 49.3835L234.389 57.1475C234.405 57.1955 234.413 57.2395 234.413 57.2795C234.413 57.3435 234.389 57.3995 234.341 57.4475C234.293 57.4955 234.237 57.5195 234.173 57.5195H233.561C233.465 57.5195 233.393 57.4955 233.345 57.4475C233.305 57.3995 233.277 57.3555 233.261 57.3155L232.601 55.6115H228.665L228.005 57.3155C227.997 57.3555 227.969 57.3995 227.921 57.4475C227.873 57.4955 227.801 57.5195 227.705 57.5195H227.093ZM229.013 54.5795H232.253L230.633 50.3195L229.013 54.5795ZM235.972 57.5195C235.884 57.5195 235.816 57.4955 235.768 57.4475C235.72 57.3915 235.696 57.3235 235.696 57.2435V49.4075C235.696 49.3195 235.72 49.2515 235.768 49.2035C235.816 49.1475 235.884 49.1195 235.972 49.1195H236.524C236.62 49.1195 236.692 49.1435 236.74 49.1915C236.788 49.2315 236.816 49.2635 236.824 49.2875L240.808 55.4075V49.4075C240.808 49.3195 240.832 49.2515 240.88 49.2035C240.928 49.1475 240.996 49.1195 241.084 49.1195H241.66C241.748 49.1195 241.816 49.1475 241.864 49.2035C241.92 49.2515 241.948 49.3195 241.948 49.4075V57.2315C241.948 57.3115 241.92 57.3795 241.864 57.4355C241.816 57.4915 241.752 57.5195 241.672 57.5195H241.096C241.008 57.5195 240.94 57.4955 240.892 57.4475C240.852 57.3995 240.824 57.3675 240.808 57.3515L236.836 51.2915V57.2435C236.836 57.3235 236.808 57.3915 236.752 57.4475C236.704 57.4955 236.636 57.5195 236.548 57.5195H235.972ZM243.464 57.5195C243.4 57.5195 243.344 57.4955 243.296 57.4475C243.248 57.3995 243.224 57.3435 243.224 57.2795C243.224 57.2395 243.228 57.1955 243.236 57.1475L246.212 49.3835C246.244 49.3035 246.288 49.2395 246.344 49.1915C246.4 49.1435 246.484 49.1195 246.596 49.1195H247.412C247.516 49.1195 247.596 49.1435 247.652 49.1915C247.716 49.2395 247.764 49.3035 247.796 49.3835L250.76 57.1475C250.776 57.1955 250.784 57.2395 250.784 57.2795C250.784 57.3435 250.76 57.3995 250.712 57.4475C250.664 57.4955 250.608 57.5195 250.544 57.5195H249.932C249.836 57.5195 249.764 57.4955 249.716 57.4475C249.676 57.3995 249.648 57.3555 249.632 57.3155L248.972 55.6115H245.036L244.376 57.3155C244.368 57.3555 244.34 57.3995 244.292 57.4475C244.244 57.4955 244.172 57.5195 244.076 57.5195H243.464ZM245.384 54.5795H248.624L247.004 50.3195L245.384 54.5795Z" fill="#0B3132"/>
<path d="M5.25 36V0.999998H18.9C21.9667 0.999998 24.5833 1.48333 26.75 2.45C28.9167 3.41667 30.5833 4.81667 31.75 6.65C32.9167 8.48333 33.5 10.6667 33.5 13.2C33.5 15.7333 32.9167 17.9167 31.75 19.75C30.5833 21.55 28.9167 22.9333 26.75 23.9C24.5833 24.8667 21.9667 25.35 18.9 25.35H8L10.25 23.05V36H5.25ZM28.65 36L19.75 23.3H25.1L34.1 36H28.65ZM10.25 23.55L8 21.1H18.75C21.95 21.1 24.3667 20.4167 26 19.05C27.6667 17.65 28.5 15.7 28.5 13.2C28.5 10.7 27.6667 8.76667 26 7.4C24.3667 6.03333 21.95 5.35 18.75 5.35H8L10.25 2.85V23.55ZM46.1281 16.1H64.1281V20.35H46.1281V16.1ZM46.5781 31.65H66.9781V36H41.5781V0.999998H66.2781V5.35H46.5781V31.65ZM85.2742 36.4C82.6076 36.4 80.0576 36 77.6242 35.2C75.1909 34.3667 73.2742 33.3 71.8742 32L73.7242 28.1C75.0576 29.2667 76.7576 30.2333 78.8242 31C80.8909 31.7667 83.0409 32.15 85.2742 32.15C87.3076 32.15 88.9576 31.9167 90.2242 31.45C91.4909 30.9833 92.4242 30.35 93.0242 29.55C93.6242 28.7167 93.9242 27.7833 93.9242 26.75C93.9242 25.55 93.5242 24.5833 92.7242 23.85C91.9576 23.1167 90.9409 22.5333 89.6742 22.1C88.4409 21.6333 87.0742 21.2333 85.5742 20.9C84.0742 20.5667 82.5576 20.1833 81.0242 19.75C79.5242 19.2833 78.1409 18.7 76.8742 18C75.6409 17.3 74.6409 16.3667 73.8742 15.2C73.1076 14 72.7242 12.4667 72.7242 10.6C72.7242 8.8 73.1909 7.15 74.1242 5.65C75.0909 4.11666 76.5576 2.9 78.5242 2C80.5242 1.06667 83.0576 0.6 86.1242 0.6C88.1576 0.6 90.1742 0.866666 92.1742 1.4C94.1742 1.93333 95.9076 2.7 97.3742 3.7L95.7242 7.7C94.2242 6.7 92.6409 5.98333 90.9742 5.55C89.3076 5.08333 87.6909 4.85 86.1242 4.85C84.1576 4.85 82.5409 5.1 81.2742 5.6C80.0076 6.1 79.0742 6.76666 78.4742 7.6C77.9076 8.43333 77.6242 9.36666 77.6242 10.4C77.6242 11.6333 78.0076 12.6167 78.7742 13.35C79.5742 14.0833 80.5909 14.6667 81.8242 15.1C83.0909 15.5333 84.4742 15.9333 85.9742 16.3C87.4742 16.6333 88.9742 17.0167 90.4742 17.45C92.0076 17.8833 93.3909 18.45 94.6242 19.15C95.8909 19.85 96.9076 20.7833 97.6742 21.95C98.4409 23.1167 98.8242 24.6167 98.8242 26.45C98.8242 28.2167 98.3409 29.8667 97.3742 31.4C96.4076 32.9 94.9076 34.1167 92.8742 35.05C90.8742 35.95 88.3409 36.4 85.2742 36.4ZM110.679 16.1H128.679V20.35H110.679V16.1ZM111.129 31.65H131.529V36H106.129V0.999998H130.829V5.35H111.129V31.65ZM139.625 36V0.999998H153.275C156.342 0.999998 158.958 1.48333 161.125 2.45C163.292 3.41667 164.958 4.81667 166.125 6.65C167.292 8.48333 167.875 10.6667 167.875 13.2C167.875 15.7333 167.292 17.9167 166.125 19.75C164.958 21.55 163.292 22.9333 161.125 23.9C158.958 24.8667 156.342 25.35 153.275 25.35H142.375L144.625 23.05V36H139.625ZM163.025 36L154.125 23.3H159.475L168.475 36H163.025ZM144.625 23.55L142.375 21.1H153.125C156.325 21.1 158.742 20.4167 160.375 19.05C162.042 17.65 162.875 15.7 162.875 13.2C162.875 10.7 162.042 8.76667 160.375 7.4C158.742 6.03333 156.325 5.35 153.125 5.35H142.375L144.625 2.85V23.55ZM170.603 0.949998H180.453L189.203 26.3L198.003 0.949998H207.403L193.703 36H184.203L170.603 0.949998ZM210.724 0.949998H220.674L230.824 21.45L240.924 0.949998H250.874V36H242.774L242.724 13.8L233.774 32.5H227.874L218.874 13.8V36H210.724V0.949998Z" fill="#0B3132"/>
</svg>
