<svg width="163" height="24" viewBox="0 0 163 24" fill="none" xmlns="http://www.w3.org/2000/svg">
<path d="M3.648 23V0.599998H12.032C13.9307 0.599998 15.5627 0.909332 16.928 1.528C18.2933 2.12533 19.3387 3 20.064 4.152C20.8107 5.28267 21.184 6.65867 21.184 8.28C21.184 9.85867 20.8107 11.224 20.064 12.376C19.3387 13.5067 18.2933 14.3813 16.928 15C15.5627 15.5973 13.9307 15.896 12.032 15.896H4.96L6.016 14.808V23H3.648ZM18.944 23L13.184 14.872H15.744L21.536 23H18.944ZM6.016 15L4.96 13.88H11.968C14.208 13.88 15.904 13.3893 17.056 12.408C18.2293 11.4267 18.816 10.0507 18.816 8.28C18.816 6.488 18.2293 5.10133 17.056 4.12C15.904 3.13867 14.208 2.648 11.968 2.648H4.96L6.016 1.528V15ZM28.885 10.616H40.725V12.632H28.885V10.616ZM29.141 20.952H42.613V23H26.773V0.599998H42.133V2.648H29.141V20.952ZM54.3553 23.192C52.6913 23.192 51.0913 22.9253 49.5553 22.392C48.0406 21.8373 46.8673 21.1333 46.0353 20.28L46.9633 18.456C47.7526 19.224 48.8086 19.8747 50.1313 20.408C51.4753 20.92 52.8833 21.176 54.3553 21.176C55.7633 21.176 56.9046 21.0053 57.7793 20.664C58.6753 20.3013 59.3259 19.8213 59.7313 19.224C60.1579 18.6267 60.3713 17.9653 60.3713 17.24C60.3713 16.3653 60.1153 15.6613 59.6033 15.128C59.1126 14.5947 58.4619 14.1787 57.6513 13.88C56.8406 13.56 55.9446 13.2827 54.9633 13.048C53.9819 12.8133 53.0006 12.568 52.0193 12.312C51.0379 12.0347 50.1313 11.672 49.2993 11.224C48.4886 10.776 47.8273 10.1893 47.3153 9.464C46.8246 8.71733 46.5793 7.74667 46.5793 6.552C46.5793 5.44267 46.8673 4.42933 47.4433 3.512C48.0406 2.57333 48.9473 1.82667 50.1633 1.272C51.3793 0.695999 52.9366 0.407999 54.8353 0.407999C56.0939 0.407999 57.3419 0.589333 58.5793 0.952C59.8166 1.29333 60.8833 1.77333 61.7793 2.392L60.9792 4.28C60.0193 3.64 58.9953 3.17067 57.9073 2.872C56.8406 2.57333 55.8059 2.424 54.8033 2.424C53.4593 2.424 52.3499 2.60533 51.4753 2.968C50.6006 3.33067 49.9499 3.82133 49.5233 4.44C49.1179 5.03733 48.9153 5.72 48.9153 6.488C48.9153 7.36267 49.1606 8.06667 49.6513 8.6C50.1633 9.13333 50.8246 9.54933 51.6353 9.848C52.4673 10.1467 53.3739 10.4133 54.3553 10.648C55.3366 10.8827 56.3073 11.1387 57.2673 11.416C58.2486 11.6933 59.1446 12.056 59.9553 12.504C60.7873 12.9307 61.4486 13.5067 61.9393 14.232C62.4513 14.9573 62.7073 15.9067 62.7073 17.08C62.7073 18.168 62.4086 19.1813 61.8113 20.12C61.2139 21.0373 60.2966 21.784 59.0593 22.36C57.8433 22.9147 56.2753 23.192 54.3553 23.192ZM69.9788 10.616H81.8188V12.632H69.9788V10.616ZM70.2348 20.952H83.7068V23H67.8668V0.599998H83.2268V2.648H70.2348V20.952ZM89.273 23V0.599998H97.657C99.5557 0.599998 101.188 0.909332 102.553 1.528C103.918 2.12533 104.964 3 105.689 4.152C106.436 5.28267 106.809 6.65867 106.809 8.28C106.809 9.85867 106.436 11.224 105.689 12.376C104.964 13.5067 103.918 14.3813 102.553 15C101.188 15.5973 99.5557 15.896 97.657 15.896H90.585L91.641 14.808V23H89.273ZM104.569 23L98.809 14.872H101.369L107.161 23H104.569ZM91.641 15L90.585 13.88H97.593C99.833 13.88 101.529 13.3893 102.681 12.408C103.854 11.4267 104.441 10.0507 104.441 8.28C104.441 6.488 103.854 5.10133 102.681 4.12C101.529 3.13867 99.833 2.648 97.593 2.648H90.585L91.641 1.528V15ZM118.126 23L108.462 0.599998H114.062L122.51 20.44H119.214L127.79 0.599998H132.942L123.246 23H118.126ZM134.812 23V0.599998H139.1L148.636 16.408H146.364L155.74 0.599998H159.996L160.06 23H155.196L155.164 8.056H156.06L148.572 20.632H146.236L138.588 8.056H139.676V23H134.812Z" fill="white"/>
</svg>
