<svg width="278" height="25" viewBox="0 0 278 25" fill="none" xmlns="http://www.w3.org/2000/svg">
<path d="M3.648 23V0.599998H12.032C13.9307 0.599998 15.5627 0.909332 16.928 1.528C18.2933 2.12533 19.3387 3 20.064 4.152C20.8107 5.28267 21.184 6.65867 21.184 8.28C21.184 9.85867 20.8107 11.224 20.064 12.376C19.3387 13.5067 18.2933 14.3813 16.928 15C15.5627 15.5973 13.9307 15.896 12.032 15.896H4.96L6.016 14.808V23H3.648ZM18.944 23L13.184 14.872H15.744L21.536 23H18.944ZM6.016 15L4.96 13.88H11.968C14.208 13.88 15.904 13.3893 17.056 12.408C18.2293 11.4267 18.816 10.0507 18.816 8.28C18.816 6.488 18.2293 5.10133 17.056 4.12C15.904 3.13867 14.208 2.648 11.968 2.648H4.96L6.016 1.528V15ZM28.885 10.616H40.725V12.632H28.885V10.616ZM29.141 20.952H42.613V23H26.773V0.599998H42.133V2.648H29.141V20.952ZM54.3553 23.192C52.6913 23.192 51.0913 22.9253 49.5553 22.392C48.0406 21.8373 46.8673 21.1333 46.0353 20.28L46.9633 18.456C47.7526 19.224 48.8086 19.8747 50.1313 20.408C51.4753 20.92 52.8833 21.176 54.3553 21.176C55.7633 21.176 56.9046 21.0053 57.7793 20.664C58.6753 20.3013 59.3259 19.8213 59.7313 19.224C60.1579 18.6267 60.3713 17.9653 60.3713 17.24C60.3713 16.3653 60.1153 15.6613 59.6033 15.128C59.1126 14.5947 58.4619 14.1787 57.6513 13.88C56.8406 13.56 55.9446 13.2827 54.9633 13.048C53.9819 12.8133 53.0006 12.568 52.0193 12.312C51.0379 12.0347 50.1313 11.672 49.2993 11.224C48.4886 10.776 47.8273 10.1893 47.3153 9.464C46.8246 8.71733 46.5793 7.74667 46.5793 6.552C46.5793 5.44267 46.8673 4.42933 47.4433 3.512C48.0406 2.57333 48.9473 1.82667 50.1633 1.272C51.3793 0.695999 52.9366 0.407999 54.8353 0.407999C56.0939 0.407999 57.3419 0.589333 58.5793 0.952C59.8166 1.29333 60.8833 1.77333 61.7793 2.392L60.9792 4.28C60.0193 3.64 58.9953 3.17067 57.9073 2.872C56.8406 2.57333 55.8059 2.424 54.8033 2.424C53.4593 2.424 52.3499 2.60533 51.4753 2.968C50.6006 3.33067 49.9499 3.82133 49.5233 4.44C49.1179 5.03733 48.9153 5.72 48.9153 6.488C48.9153 7.36267 49.1606 8.06667 49.6513 8.6C50.1633 9.13333 50.8246 9.54933 51.6353 9.848C52.4673 10.1467 53.3739 10.4133 54.3553 10.648C55.3366 10.8827 56.3073 11.1387 57.2673 11.416C58.2486 11.6933 59.1446 12.056 59.9553 12.504C60.7873 12.9307 61.4486 13.5067 61.9393 14.232C62.4513 14.9573 62.7073 15.9067 62.7073 17.08C62.7073 18.168 62.4086 19.1813 61.8113 20.12C61.2139 21.0373 60.2966 21.784 59.0593 22.36C57.8433 22.9147 56.2753 23.192 54.3553 23.192ZM69.9788 10.616H81.8188V12.632H69.9788V10.616ZM70.2348 20.952H83.7068V23H67.8668V0.599998H83.2268V2.648H70.2348V20.952ZM89.273 23V0.599998H97.657C99.5557 0.599998 101.188 0.909332 102.553 1.528C103.918 2.12533 104.964 3 105.689 4.152C106.436 5.28267 106.809 6.65867 106.809 8.28C106.809 9.85867 106.436 11.224 105.689 12.376C104.964 13.5067 103.918 14.3813 102.553 15C101.188 15.5973 99.5557 15.896 97.657 15.896H90.585L91.641 14.808V23H89.273ZM104.569 23L98.809 14.872H101.369L107.161 23H104.569ZM91.641 15L90.585 13.88H97.593C99.833 13.88 101.529 13.3893 102.681 12.408C103.854 11.4267 104.441 10.0507 104.441 8.28C104.441 6.488 103.854 5.10133 102.681 4.12C101.529 3.13867 99.833 2.648 97.593 2.648H90.585L91.641 1.528V15ZM118.126 23L108.462 0.599998H114.062L122.51 20.44H119.214L127.79 0.599998H132.942L123.246 23H118.126ZM134.812 23V0.599998H139.1L148.636 16.408H146.364L155.74 0.599998H159.996L160.06 23H155.196L155.164 8.056H156.06L148.572 20.632H146.236L138.588 8.056H139.676V23H134.812Z" fill="white"/>
<path d="M174.12 8.1C173.54 8.1 173.053 8.01333 172.66 7.84C172.267 7.66 171.963 7.43 171.75 7.15C171.543 6.86333 171.433 6.56 171.42 6.24C171.42 6.18667 171.44 6.14 171.48 6.1C171.527 6.05333 171.58 6.03 171.64 6.03H172.15C172.23 6.03 172.29 6.05 172.33 6.09C172.37 6.13 172.397 6.17667 172.41 6.23C172.443 6.39 172.523 6.55 172.65 6.71C172.783 6.86333 172.967 6.99333 173.2 7.1C173.44 7.2 173.747 7.25 174.12 7.25C174.693 7.25 175.113 7.15 175.38 6.95C175.653 6.74333 175.79 6.47 175.79 6.13C175.79 5.89667 175.717 5.71 175.57 5.57C175.43 5.42333 175.213 5.29333 174.92 5.18C174.627 5.06667 174.247 4.94333 173.78 4.81C173.293 4.67 172.89 4.51667 172.57 4.35C172.25 4.18333 172.01 3.97667 171.85 3.73C171.697 3.48333 171.62 3.17 171.62 2.79C171.62 2.43 171.717 2.11 171.91 1.83C172.103 1.54333 172.38 1.31667 172.74 1.15C173.107 0.983333 173.55 0.9 174.07 0.9C174.483 0.9 174.843 0.956666 175.15 1.07C175.463 1.17667 175.723 1.32333 175.93 1.51C176.137 1.69 176.293 1.88667 176.4 2.1C176.507 2.30667 176.563 2.51 176.57 2.71C176.57 2.75667 176.553 2.80333 176.52 2.85C176.487 2.89 176.433 2.91 176.36 2.91H175.83C175.783 2.91 175.733 2.89667 175.68 2.87C175.633 2.84333 175.597 2.79333 175.57 2.72C175.53 2.44667 175.377 2.21667 175.11 2.03C174.843 1.84333 174.497 1.75 174.07 1.75C173.637 1.75 173.283 1.83333 173.01 2C172.743 2.16667 172.61 2.42667 172.61 2.78C172.61 3.00667 172.673 3.19667 172.8 3.35C172.927 3.49667 173.127 3.62667 173.4 3.74C173.673 3.85333 174.03 3.97333 174.47 4.1C175.003 4.24667 175.44 4.40333 175.78 4.57C176.12 4.73 176.37 4.93333 176.53 5.18C176.697 5.42 176.78 5.73 176.78 6.11C176.78 6.53 176.67 6.89 176.45 7.19C176.23 7.48333 175.92 7.71 175.52 7.87C175.127 8.02333 174.66 8.1 174.12 8.1ZM178.321 8C178.247 8 178.191 7.98 178.151 7.94C178.111 7.89333 178.091 7.83667 178.091 7.77V1.23C178.091 1.16333 178.111 1.11 178.151 1.07C178.191 1.02333 178.247 1 178.321 1H178.851C178.917 1 178.971 1.02333 179.011 1.07C179.057 1.11 179.081 1.16333 179.081 1.23V7.77C179.081 7.83667 179.057 7.89333 179.011 7.94C178.971 7.98 178.917 8 178.851 8H178.321ZM183.075 8.1C182.495 8.1 182.008 8.01333 181.615 7.84C181.222 7.66 180.918 7.43 180.705 7.15C180.498 6.86333 180.388 6.56 180.375 6.24C180.375 6.18667 180.395 6.14 180.435 6.1C180.482 6.05333 180.535 6.03 180.595 6.03H181.105C181.185 6.03 181.245 6.05 181.285 6.09C181.325 6.13 181.352 6.17667 181.365 6.23C181.398 6.39 181.478 6.55 181.605 6.71C181.738 6.86333 181.922 6.99333 182.155 7.1C182.395 7.2 182.702 7.25 183.075 7.25C183.648 7.25 184.068 7.15 184.335 6.95C184.608 6.74333 184.745 6.47 184.745 6.13C184.745 5.89667 184.672 5.71 184.525 5.57C184.385 5.42333 184.168 5.29333 183.875 5.18C183.582 5.06667 183.202 4.94333 182.735 4.81C182.248 4.67 181.845 4.51667 181.525 4.35C181.205 4.18333 180.965 3.97667 180.805 3.73C180.652 3.48333 180.575 3.17 180.575 2.79C180.575 2.43 180.672 2.11 180.865 1.83C181.058 1.54333 181.335 1.31667 181.695 1.15C182.062 0.983333 182.505 0.9 183.025 0.9C183.438 0.9 183.798 0.956666 184.105 1.07C184.418 1.17667 184.678 1.32333 184.885 1.51C185.092 1.69 185.248 1.88667 185.355 2.1C185.462 2.30667 185.518 2.51 185.525 2.71C185.525 2.75667 185.508 2.80333 185.475 2.85C185.442 2.89 185.388 2.91 185.315 2.91H184.785C184.738 2.91 184.688 2.89667 184.635 2.87C184.588 2.84333 184.552 2.79333 184.525 2.72C184.485 2.44667 184.332 2.21667 184.065 2.03C183.798 1.84333 183.452 1.75 183.025 1.75C182.592 1.75 182.238 1.83333 181.965 2C181.698 2.16667 181.565 2.42667 181.565 2.78C181.565 3.00667 181.628 3.19667 181.755 3.35C181.882 3.49667 182.082 3.62667 182.355 3.74C182.628 3.85333 182.985 3.97333 183.425 4.1C183.958 4.24667 184.395 4.40333 184.735 4.57C185.075 4.73 185.325 4.93333 185.485 5.18C185.652 5.42 185.735 5.73 185.735 6.11C185.735 6.53 185.625 6.89 185.405 7.19C185.185 7.48333 184.875 7.71 184.475 7.87C184.082 8.02333 183.615 8.1 183.075 8.1ZM188.728 8C188.661 8 188.604 7.98 188.558 7.94C188.518 7.89333 188.498 7.83667 188.498 7.77V1.89H186.578C186.511 1.89 186.454 1.87 186.408 1.83C186.368 1.78333 186.348 1.72667 186.348 1.66V1.24C186.348 1.16667 186.368 1.11 186.408 1.07C186.454 1.02333 186.511 1 186.578 1H191.398C191.471 1 191.528 1.02333 191.568 1.07C191.614 1.11 191.638 1.16667 191.638 1.24V1.66C191.638 1.72667 191.614 1.78333 191.568 1.83C191.528 1.87 191.471 1.89 191.398 1.89H189.488V7.77C189.488 7.83667 189.464 7.89333 189.418 7.94C189.378 7.98 189.321 8 189.248 8H188.728ZM192.989 8C192.915 8 192.859 7.98 192.819 7.94C192.779 7.89333 192.759 7.83667 192.759 7.77V1.24C192.759 1.16667 192.779 1.11 192.819 1.07C192.859 1.02333 192.915 1 192.989 1H197.119C197.192 1 197.249 1.02333 197.289 1.07C197.329 1.11 197.349 1.16667 197.349 1.24V1.62C197.349 1.69333 197.329 1.75 197.289 1.79C197.249 1.83 197.192 1.85 197.119 1.85H193.719V4.04H196.899C196.972 4.04 197.029 4.06333 197.069 4.11C197.109 4.15 197.129 4.20667 197.129 4.28V4.65C197.129 4.71667 197.109 4.77333 197.069 4.82C197.029 4.86 196.972 4.88 196.899 4.88H193.719V7.15H197.199C197.272 7.15 197.329 7.17 197.369 7.21C197.409 7.25 197.429 7.30667 197.429 7.38V7.77C197.429 7.83667 197.409 7.89333 197.369 7.94C197.329 7.98 197.272 8 197.199 8H192.989ZM199.053 8C198.986 8 198.93 7.98 198.883 7.94C198.843 7.89333 198.823 7.83667 198.823 7.77V1.24C198.823 1.16667 198.843 1.11 198.883 1.07C198.93 1.02333 198.986 1 199.053 1H199.553C199.633 1 199.693 1.02 199.733 1.06C199.773 1.1 199.796 1.13333 199.803 1.16L201.923 5.2L204.053 1.16C204.066 1.13333 204.09 1.1 204.123 1.06C204.163 1.02 204.223 1 204.303 1H204.793C204.866 1 204.923 1.02333 204.963 1.07C205.01 1.11 205.033 1.16667 205.033 1.24V7.77C205.033 7.83667 205.01 7.89333 204.963 7.94C204.923 7.98 204.866 8 204.793 8H204.303C204.236 8 204.18 7.98 204.133 7.94C204.093 7.89333 204.073 7.83667 204.073 7.77V2.85L202.403 6.11C202.376 6.17667 202.336 6.23 202.283 6.27C202.23 6.30333 202.163 6.32 202.083 6.32H201.773C201.686 6.32 201.616 6.30333 201.563 6.27C201.516 6.23 201.476 6.17667 201.443 6.11L199.773 2.85V7.77C199.773 7.83667 199.75 7.89333 199.703 7.94C199.663 7.98 199.61 8 199.543 8H199.053ZM206.293 8C206.239 8 206.193 7.98 206.153 7.94C206.113 7.9 206.093 7.85333 206.093 7.8C206.093 7.76667 206.096 7.73 206.103 7.69L208.583 1.22C208.609 1.15333 208.646 1.1 208.693 1.06C208.739 1.02 208.809 1 208.903 1H209.583C209.669 1 209.736 1.02 209.783 1.06C209.836 1.1 209.876 1.15333 209.903 1.22L212.373 7.69C212.386 7.73 212.393 7.76667 212.393 7.8C212.393 7.85333 212.373 7.9 212.333 7.94C212.293 7.98 212.246 8 212.193 8H211.683C211.603 8 211.543 7.98 211.503 7.94C211.469 7.9 211.446 7.86333 211.433 7.83L210.883 6.41H207.603L207.053 7.83C207.046 7.86333 207.023 7.9 206.983 7.94C206.943 7.98 206.883 8 206.803 8H206.293ZM207.893 5.55H210.593L209.243 2L207.893 5.55ZM215.879 8C215.806 8 215.749 7.98 215.709 7.94C215.669 7.89333 215.649 7.83667 215.649 7.77V1.24C215.649 1.16667 215.669 1.11 215.709 1.07C215.749 1.02333 215.806 1 215.879 1H218.149C218.836 1 219.389 1.10333 219.809 1.31C220.229 1.51667 220.536 1.82333 220.729 2.23C220.923 2.63 221.023 3.12333 221.029 3.71C221.036 4.01 221.039 4.27333 221.039 4.5C221.039 4.72667 221.036 4.98667 221.029 5.28C221.016 5.89333 220.913 6.40333 220.719 6.81C220.533 7.21 220.233 7.51 219.819 7.71C219.413 7.90333 218.873 8 218.199 8H215.879ZM216.629 7.15H218.149C218.609 7.15 218.976 7.08667 219.249 6.96C219.523 6.83333 219.719 6.63 219.839 6.35C219.966 6.07 220.033 5.7 220.039 5.24C220.053 5.04 220.059 4.86667 220.059 4.72C220.059 4.56667 220.059 4.41667 220.059 4.27C220.059 4.11667 220.053 3.94333 220.039 3.75C220.026 3.10333 219.873 2.62667 219.579 2.32C219.286 2.00667 218.793 1.85 218.099 1.85H216.629V7.15ZM222.774 8C222.7 8 222.644 7.98 222.604 7.94C222.564 7.89333 222.544 7.83667 222.544 7.77V1.24C222.544 1.16667 222.564 1.11 222.604 1.07C222.644 1.02333 222.7 1 222.774 1H226.904C226.977 1 227.034 1.02333 227.074 1.07C227.114 1.11 227.134 1.16667 227.134 1.24V1.62C227.134 1.69333 227.114 1.75 227.074 1.79C227.034 1.83 226.977 1.85 226.904 1.85H223.504V4.04H226.684C226.757 4.04 226.814 4.06333 226.854 4.11C226.894 4.15 226.914 4.20667 226.914 4.28V4.65C226.914 4.71667 226.894 4.77333 226.854 4.82C226.814 4.86 226.757 4.88 226.684 4.88H223.504V7.15H226.984C227.057 7.15 227.114 7.17 227.154 7.21C227.194 7.25 227.214 7.30667 227.214 7.38V7.77C227.214 7.83667 227.194 7.89333 227.154 7.94C227.114 7.98 227.057 8 226.984 8H222.774ZM231.289 8C231.216 8 231.159 7.98 231.119 7.94C231.079 7.89333 231.059 7.83667 231.059 7.77V1.24C231.059 1.16667 231.079 1.11 231.119 1.07C231.159 1.02333 231.216 1 231.289 1H233.729C234.483 1 235.079 1.17667 235.519 1.53C235.959 1.88333 236.179 2.40667 236.179 3.1C236.179 3.61333 236.049 4.03333 235.789 4.36C235.536 4.68 235.189 4.90333 234.749 5.03L236.289 7.69C236.309 7.73 236.319 7.76667 236.319 7.8C236.319 7.85333 236.296 7.9 236.249 7.94C236.209 7.98 236.163 8 236.109 8H235.629C235.516 8 235.433 7.97 235.379 7.91C235.326 7.85 235.279 7.79 235.239 7.73L233.789 5.19H232.039V7.77C232.039 7.83667 232.016 7.89333 231.969 7.94C231.929 7.98 231.873 8 231.799 8H231.289ZM232.039 4.34H233.689C234.189 4.34 234.563 4.23667 234.809 4.03C235.056 3.81667 235.179 3.50333 235.179 3.09C235.179 2.68333 235.056 2.37333 234.809 2.16C234.569 1.94667 234.196 1.84 233.689 1.84H232.039V4.34ZM237.842 8C237.769 8 237.712 7.98 237.672 7.94C237.632 7.89333 237.612 7.83667 237.612 7.77V1.24C237.612 1.16667 237.632 1.11 237.672 1.07C237.712 1.02333 237.769 1 237.842 1H241.972C242.046 1 242.102 1.02333 242.142 1.07C242.182 1.11 242.202 1.16667 242.202 1.24V1.62C242.202 1.69333 242.182 1.75 242.142 1.79C242.102 1.83 242.046 1.85 241.972 1.85H238.572V4.04H241.752C241.826 4.04 241.882 4.06333 241.922 4.11C241.962 4.15 241.982 4.20667 241.982 4.28V4.65C241.982 4.71667 241.962 4.77333 241.922 4.82C241.882 4.86 241.826 4.88 241.752 4.88H238.572V7.15H242.052C242.126 7.15 242.182 7.17 242.222 7.21C242.262 7.25 242.282 7.30667 242.282 7.38V7.77C242.282 7.83667 242.262 7.89333 242.222 7.94C242.182 7.98 242.126 8 242.052 8H237.842ZM245.927 8.1C245.347 8.1 244.86 8.01333 244.467 7.84C244.073 7.66 243.77 7.43 243.557 7.15C243.35 6.86333 243.24 6.56 243.227 6.24C243.227 6.18667 243.247 6.14 243.287 6.1C243.333 6.05333 243.387 6.03 243.447 6.03H243.957C244.037 6.03 244.097 6.05 244.137 6.09C244.177 6.13 244.203 6.17667 244.217 6.23C244.25 6.39 244.33 6.55 244.457 6.71C244.59 6.86333 244.773 6.99333 245.007 7.1C245.247 7.2 245.553 7.25 245.927 7.25C246.5 7.25 246.92 7.15 247.187 6.95C247.46 6.74333 247.597 6.47 247.597 6.13C247.597 5.89667 247.523 5.71 247.377 5.57C247.237 5.42333 247.02 5.29333 246.727 5.18C246.433 5.06667 246.053 4.94333 245.587 4.81C245.1 4.67 244.697 4.51667 244.377 4.35C244.057 4.18333 243.817 3.97667 243.657 3.73C243.503 3.48333 243.427 3.17 243.427 2.79C243.427 2.43 243.523 2.11 243.717 1.83C243.91 1.54333 244.187 1.31667 244.547 1.15C244.913 0.983333 245.357 0.9 245.877 0.9C246.29 0.9 246.65 0.956666 246.957 1.07C247.27 1.17667 247.53 1.32333 247.737 1.51C247.943 1.69 248.1 1.88667 248.207 2.1C248.313 2.30667 248.37 2.51 248.377 2.71C248.377 2.75667 248.36 2.80333 248.327 2.85C248.293 2.89 248.24 2.91 248.167 2.91H247.637C247.59 2.91 247.54 2.89667 247.487 2.87C247.44 2.84333 247.403 2.79333 247.377 2.72C247.337 2.44667 247.183 2.21667 246.917 2.03C246.65 1.84333 246.303 1.75 245.877 1.75C245.443 1.75 245.09 1.83333 244.817 2C244.55 2.16667 244.417 2.42667 244.417 2.78C244.417 3.00667 244.48 3.19667 244.607 3.35C244.733 3.49667 244.933 3.62667 245.207 3.74C245.48 3.85333 245.837 3.97333 246.277 4.1C246.81 4.24667 247.247 4.40333 247.587 4.57C247.927 4.73 248.177 4.93333 248.337 5.18C248.503 5.42 248.587 5.73 248.587 6.11C248.587 6.53 248.477 6.89 248.257 7.19C248.037 7.48333 247.727 7.71 247.327 7.87C246.933 8.02333 246.467 8.1 245.927 8.1ZM250.127 8C250.054 8 249.997 7.98 249.957 7.94C249.917 7.89333 249.897 7.83667 249.897 7.77V1.24C249.897 1.16667 249.917 1.11 249.957 1.07C249.997 1.02333 250.054 1 250.127 1H254.257C254.331 1 254.387 1.02333 254.427 1.07C254.467 1.11 254.487 1.16667 254.487 1.24V1.62C254.487 1.69333 254.467 1.75 254.427 1.79C254.387 1.83 254.331 1.85 254.257 1.85H250.857V4.04H254.037C254.111 4.04 254.167 4.06333 254.207 4.11C254.247 4.15 254.267 4.20667 254.267 4.28V4.65C254.267 4.71667 254.247 4.77333 254.207 4.82C254.167 4.86 254.111 4.88 254.037 4.88H250.857V7.15H254.337C254.411 7.15 254.467 7.17 254.507 7.21C254.547 7.25 254.567 7.30667 254.567 7.38V7.77C254.567 7.83667 254.547 7.89333 254.507 7.94C254.467 7.98 254.411 8 254.337 8H250.127ZM256.192 8C256.118 8 256.062 7.98 256.022 7.94C255.982 7.89333 255.962 7.83667 255.962 7.77V1.24C255.962 1.16667 255.982 1.11 256.022 1.07C256.062 1.02333 256.118 1 256.192 1H258.632C259.385 1 259.982 1.17667 260.422 1.53C260.862 1.88333 261.082 2.40667 261.082 3.1C261.082 3.61333 260.952 4.03333 260.692 4.36C260.438 4.68 260.092 4.90333 259.652 5.03L261.192 7.69C261.212 7.73 261.222 7.76667 261.222 7.8C261.222 7.85333 261.198 7.9 261.152 7.94C261.112 7.98 261.065 8 261.012 8H260.532C260.418 8 260.335 7.97 260.282 7.91C260.228 7.85 260.182 7.79 260.142 7.73L258.692 5.19H256.942V7.77C256.942 7.83667 256.918 7.89333 256.872 7.94C256.832 7.98 256.775 8 256.702 8H256.192ZM256.942 4.34H258.592C259.092 4.34 259.465 4.23667 259.712 4.03C259.958 3.81667 260.082 3.50333 260.082 3.09C260.082 2.68333 259.958 2.37333 259.712 2.16C259.472 1.94667 259.098 1.84 258.592 1.84H256.942V4.34ZM264.38 8C264.28 8 264.2 7.97667 264.14 7.93C264.086 7.88333 264.043 7.82 264.01 7.74L261.78 1.31C261.766 1.27 261.76 1.23333 261.76 1.2C261.76 1.14667 261.78 1.1 261.82 1.06C261.86 1.02 261.906 1 261.96 1H262.48C262.56 1 262.62 1.02333 262.66 1.07C262.706 1.11 262.733 1.14667 262.74 1.18L264.7 6.85L266.66 1.18C266.673 1.14667 266.7 1.11 266.74 1.07C266.78 1.02333 266.84 1 266.92 1H267.44C267.493 1 267.54 1.02 267.58 1.06C267.626 1.1 267.65 1.14667 267.65 1.2C267.65 1.23333 267.643 1.27 267.63 1.31L265.39 7.74C265.363 7.82 265.32 7.88333 265.26 7.93C265.206 7.97667 265.13 8 265.03 8H264.38ZM267.884 8C267.831 8 267.784 7.98 267.744 7.94C267.704 7.9 267.684 7.85333 267.684 7.8C267.684 7.76667 267.688 7.73 267.694 7.69L270.174 1.22C270.201 1.15333 270.238 1.1 270.284 1.06C270.331 1.02 270.401 1 270.494 1H271.174C271.261 1 271.328 1.02 271.374 1.06C271.428 1.1 271.468 1.15333 271.494 1.22L273.964 7.69C273.978 7.73 273.984 7.76667 273.984 7.8C273.984 7.85333 273.964 7.9 273.924 7.94C273.884 7.98 273.838 8 273.784 8H273.274C273.194 8 273.134 7.98 273.094 7.94C273.061 7.9 273.038 7.86333 273.024 7.83L272.474 6.41H269.194L268.644 7.83C268.638 7.86333 268.614 7.9 268.574 7.94C268.534 7.98 268.474 8 268.394 8H267.884ZM269.484 5.55H272.184L270.834 2L269.484 5.55ZM172.1 22C172.027 22 171.97 21.98 171.93 21.94C171.89 21.8933 171.87 21.8367 171.87 21.77V15.24C171.87 15.1667 171.89 15.11 171.93 15.07C171.97 15.0233 172.027 15 172.1 15H174.37C175.057 15 175.61 15.1033 176.03 15.31C176.45 15.5167 176.757 15.8233 176.95 16.23C177.143 16.63 177.243 17.1233 177.25 17.71C177.257 18.01 177.26 18.2733 177.26 18.5C177.26 18.7267 177.257 18.9867 177.25 19.28C177.237 19.8933 177.133 20.4033 176.94 20.81C176.753 21.21 176.453 21.51 176.04 21.71C175.633 21.9033 175.093 22 174.42 22H172.1ZM172.85 21.15H174.37C174.83 21.15 175.197 21.0867 175.47 20.96C175.743 20.8333 175.94 20.63 176.06 20.35C176.187 20.07 176.253 19.7 176.26 19.24C176.273 19.04 176.28 18.8667 176.28 18.72C176.28 18.5667 176.28 18.4167 176.28 18.27C176.28 18.1167 176.273 17.9433 176.26 17.75C176.247 17.1033 176.093 16.6267 175.8 16.32C175.507 16.0067 175.013 15.85 174.32 15.85H172.85V21.15ZM178.995 22C178.921 22 178.865 21.98 178.825 21.94C178.785 21.8933 178.765 21.8367 178.765 21.77V15.24C178.765 15.1667 178.785 15.11 178.825 15.07C178.865 15.0233 178.921 15 178.995 15H183.125C183.198 15 183.255 15.0233 183.295 15.07C183.335 15.11 183.355 15.1667 183.355 15.24V15.62C183.355 15.6933 183.335 15.75 183.295 15.79C183.255 15.83 183.198 15.85 183.125 15.85H179.725V18.04H182.905C182.978 18.04 183.035 18.0633 183.075 18.11C183.115 18.15 183.135 18.2067 183.135 18.28V18.65C183.135 18.7167 183.115 18.7733 183.075 18.82C183.035 18.86 182.978 18.88 182.905 18.88H179.725V21.15H183.205C183.278 21.15 183.335 21.17 183.375 21.21C183.415 21.25 183.435 21.3067 183.435 21.38V21.77C183.435 21.8367 183.415 21.8933 183.375 21.94C183.335 21.98 183.278 22 183.205 22H178.995ZM187.51 22C187.437 22 187.38 21.98 187.34 21.94C187.3 21.8933 187.28 21.8367 187.28 21.77V15.24C187.28 15.1667 187.3 15.11 187.34 15.07C187.38 15.0233 187.437 15 187.51 15H191.64C191.713 15 191.77 15.0233 191.81 15.07C191.85 15.11 191.87 15.1667 191.87 15.24V15.62C191.87 15.6933 191.85 15.75 191.81 15.79C191.77 15.83 191.713 15.85 191.64 15.85H188.24V18.04H191.42C191.493 18.04 191.55 18.0633 191.59 18.11C191.63 18.15 191.65 18.2067 191.65 18.28V18.65C191.65 18.7167 191.63 18.7733 191.59 18.82C191.55 18.86 191.493 18.88 191.42 18.88H188.24V21.15H191.72C191.793 21.15 191.85 21.17 191.89 21.21C191.93 21.25 191.95 21.3067 191.95 21.38V21.77C191.95 21.8367 191.93 21.8933 191.89 21.94C191.85 21.98 191.793 22 191.72 22H187.51ZM195.595 22.1C195.015 22.1 194.528 22.0133 194.135 21.84C193.741 21.66 193.438 21.43 193.225 21.15C193.018 20.8633 192.908 20.56 192.895 20.24C192.895 20.1867 192.915 20.14 192.955 20.1C193.001 20.0533 193.055 20.03 193.115 20.03H193.625C193.705 20.03 193.765 20.05 193.805 20.09C193.845 20.13 193.871 20.1767 193.885 20.23C193.918 20.39 193.998 20.55 194.125 20.71C194.258 20.8633 194.441 20.9933 194.675 21.1C194.915 21.2 195.221 21.25 195.595 21.25C196.168 21.25 196.588 21.15 196.855 20.95C197.128 20.7433 197.265 20.47 197.265 20.13C197.265 19.8967 197.191 19.71 197.045 19.57C196.905 19.4233 196.688 19.2933 196.395 19.18C196.101 19.0667 195.721 18.9433 195.255 18.81C194.768 18.67 194.365 18.5167 194.045 18.35C193.725 18.1833 193.485 17.9767 193.325 17.73C193.171 17.4833 193.095 17.17 193.095 16.79C193.095 16.43 193.191 16.11 193.385 15.83C193.578 15.5433 193.855 15.3167 194.215 15.15C194.581 14.9833 195.025 14.9 195.545 14.9C195.958 14.9 196.318 14.9567 196.625 15.07C196.938 15.1767 197.198 15.3233 197.405 15.51C197.611 15.69 197.768 15.8867 197.875 16.1C197.981 16.3067 198.038 16.51 198.045 16.71C198.045 16.7567 198.028 16.8033 197.995 16.85C197.961 16.89 197.908 16.91 197.835 16.91H197.305C197.258 16.91 197.208 16.8967 197.155 16.87C197.108 16.8433 197.071 16.7933 197.045 16.72C197.005 16.4467 196.851 16.2167 196.585 16.03C196.318 15.8433 195.971 15.75 195.545 15.75C195.111 15.75 194.758 15.8333 194.485 16C194.218 16.1667 194.085 16.4267 194.085 16.78C194.085 17.0067 194.148 17.1967 194.275 17.35C194.401 17.4967 194.601 17.6267 194.875 17.74C195.148 17.8533 195.505 17.9733 195.945 18.1C196.478 18.2467 196.915 18.4033 197.255 18.57C197.595 18.73 197.845 18.9333 198.005 19.18C198.171 19.42 198.255 19.73 198.255 20.11C198.255 20.53 198.145 20.89 197.925 21.19C197.705 21.4833 197.395 21.71 196.995 21.87C196.601 22.0233 196.135 22.1 195.595 22.1ZM199.795 22C199.722 22 199.665 21.98 199.625 21.94C199.585 21.8933 199.565 21.8367 199.565 21.77V15.24C199.565 15.1667 199.585 15.11 199.625 15.07C199.665 15.0233 199.722 15 199.795 15H202.335C202.829 15 203.255 15.08 203.615 15.24C203.982 15.4 204.265 15.64 204.465 15.96C204.665 16.2733 204.765 16.6667 204.765 17.14C204.765 17.6133 204.665 18.0067 204.465 18.32C204.265 18.6333 203.982 18.87 203.615 19.03C203.255 19.19 202.829 19.27 202.335 19.27H200.565V21.77C200.565 21.8367 200.542 21.8933 200.495 21.94C200.455 21.98 200.399 22 200.325 22H199.795ZM200.555 18.43H202.285C202.779 18.43 203.149 18.32 203.395 18.1C203.642 17.88 203.765 17.56 203.765 17.14C203.765 16.7267 203.645 16.4067 203.405 16.18C203.165 15.9533 202.792 15.84 202.285 15.84H200.555V18.43ZM205.111 22C205.058 22 205.011 21.98 204.971 21.94C204.931 21.9 204.911 21.8533 204.911 21.8C204.911 21.7667 204.914 21.73 204.921 21.69L207.401 15.22C207.428 15.1533 207.464 15.1 207.511 15.06C207.558 15.02 207.628 15 207.721 15H208.401C208.488 15 208.554 15.02 208.601 15.06C208.654 15.1 208.694 15.1533 208.721 15.22L211.191 21.69C211.204 21.73 211.211 21.7667 211.211 21.8C211.211 21.8533 211.191 21.9 211.151 21.94C211.111 21.98 211.064 22 211.011 22H210.501C210.421 22 210.361 21.98 210.321 21.94C210.288 21.9 210.264 21.8633 210.251 21.83L209.701 20.41H206.421L205.871 21.83C205.864 21.8633 205.841 21.9 205.801 21.94C205.761 21.98 205.701 22 205.621 22H205.111ZM206.711 19.55H209.411L208.061 16L206.711 19.55ZM214.633 24.2C214.447 24.1933 214.28 24.16 214.133 24.1C213.993 24.04 213.89 23.97 213.823 23.89C213.763 23.81 213.763 23.7433 213.823 23.69L213.973 23.55C214.033 23.4967 214.087 23.4833 214.133 23.51C214.18 23.5433 214.24 23.5833 214.313 23.63C214.387 23.6767 214.493 23.7 214.633 23.7C214.747 23.7 214.84 23.6667 214.913 23.6C214.993 23.5333 215.033 23.4433 215.033 23.33C215.033 23.2233 214.993 23.1367 214.913 23.07C214.84 23.01 214.747 22.98 214.633 22.98C214.533 22.98 214.45 22.9933 214.383 23.02C214.317 23.0467 214.257 23.0633 214.203 23.07C214.15 23.0833 214.097 23.0633 214.043 23.01L213.873 22.83C213.84 22.79 213.83 22.7433 213.843 22.69C213.863 22.6367 213.887 22.5833 213.913 22.53L214.113 22.06C213.627 21.9933 213.22 21.8433 212.893 21.61C212.573 21.37 212.33 21.0633 212.163 20.69C212.003 20.31 211.913 19.8767 211.893 19.39C211.887 19.1167 211.883 18.8233 211.883 18.51C211.883 18.1967 211.887 17.8967 211.893 17.61C211.913 17.07 212.027 16.5967 212.233 16.19C212.44 15.7833 212.743 15.4667 213.143 15.24C213.55 15.0133 214.06 14.9 214.673 14.9C215.133 14.9 215.537 14.9633 215.883 15.09C216.23 15.2167 216.517 15.3867 216.743 15.6C216.977 15.8133 217.153 16.0533 217.273 16.32C217.393 16.58 217.46 16.85 217.473 17.13C217.48 17.19 217.46 17.24 217.413 17.28C217.373 17.32 217.323 17.34 217.263 17.34H216.713C216.653 17.34 216.6 17.3233 216.553 17.29C216.513 17.2567 216.483 17.1967 216.463 17.11C216.35 16.59 216.137 16.2333 215.823 16.04C215.517 15.8467 215.13 15.75 214.663 15.75C214.13 15.75 213.707 15.9033 213.393 16.21C213.08 16.51 212.91 16.9933 212.883 17.66C212.863 18.2067 212.863 18.7667 212.883 19.34C212.91 20.0067 213.08 20.4933 213.393 20.8C213.707 21.1 214.13 21.25 214.663 21.25C215.13 21.25 215.517 21.1533 215.823 20.96C216.137 20.7667 216.35 20.41 216.463 19.89C216.483 19.8033 216.513 19.7433 216.553 19.71C216.6 19.6767 216.653 19.66 216.713 19.66H217.263C217.323 19.66 217.373 19.68 217.413 19.72C217.46 19.76 217.48 19.81 217.473 19.87C217.46 20.15 217.393 20.4233 217.273 20.69C217.153 20.95 216.977 21.1867 216.743 21.4C216.517 21.6133 216.23 21.7833 215.883 21.91C215.537 22.0367 215.133 22.1 214.673 22.1L214.453 22.56C214.493 22.5333 214.547 22.5133 214.613 22.5C214.687 22.4867 214.753 22.48 214.813 22.48C215.04 22.48 215.223 22.5567 215.363 22.71C215.51 22.87 215.583 23.0733 215.583 23.32C215.583 23.56 215.503 23.7667 215.343 23.94C215.183 24.12 214.947 24.2067 214.633 24.2ZM221.323 22.1C220.757 22.1 220.27 22.0033 219.863 21.81C219.457 21.61 219.143 21.3067 218.923 20.9C218.703 20.4867 218.58 19.97 218.553 19.35C218.547 19.0567 218.543 18.7767 218.543 18.51C218.543 18.2367 218.547 17.9533 218.553 17.66C218.58 17.0467 218.707 16.5367 218.933 16.13C219.167 15.7167 219.487 15.41 219.893 15.21C220.307 15.0033 220.783 14.9 221.323 14.9C221.87 14.9 222.347 15.0033 222.753 15.21C223.167 15.41 223.49 15.7167 223.723 16.13C223.957 16.5367 224.083 17.0467 224.103 17.66C224.117 17.9533 224.123 18.2367 224.123 18.51C224.123 18.7767 224.117 19.0567 224.103 19.35C224.083 19.97 223.96 20.4867 223.733 20.9C223.513 21.3067 223.2 21.61 222.793 21.81C222.387 22.0033 221.897 22.1 221.323 22.1ZM221.323 21.25C221.837 21.25 222.253 21.0967 222.573 20.79C222.9 20.4833 223.077 19.9867 223.103 19.3C223.117 19 223.123 18.7333 223.123 18.5C223.123 18.26 223.117 17.9933 223.103 17.7C223.09 17.24 223.003 16.8667 222.843 16.58C222.69 16.2933 222.483 16.0833 222.223 15.95C221.963 15.8167 221.663 15.75 221.323 15.75C220.997 15.75 220.703 15.8167 220.443 15.95C220.183 16.0833 219.973 16.2933 219.813 16.58C219.66 16.8667 219.573 17.24 219.553 17.7C219.547 17.9933 219.543 18.26 219.543 18.5C219.543 18.7333 219.547 19 219.553 19.3C219.58 19.9867 219.757 20.4833 220.083 20.79C220.41 21.0967 220.823 21.25 221.323 21.25ZM228.262 22C228.189 22 228.132 21.98 228.092 21.94C228.052 21.8933 228.032 21.8367 228.032 21.77V15.24C228.032 15.1667 228.052 15.11 228.092 15.07C228.132 15.0233 228.189 15 228.262 15H231.002C231.502 15 231.909 15.0833 232.222 15.25C232.542 15.41 232.775 15.63 232.922 15.91C233.075 16.19 233.152 16.5033 233.152 16.85C233.152 17.1233 233.105 17.36 233.012 17.56C232.925 17.7533 232.815 17.9133 232.682 18.04C232.549 18.16 232.419 18.2533 232.292 18.32C232.552 18.4467 232.782 18.6533 232.982 18.94C233.189 19.2267 233.292 19.5733 233.292 19.98C233.292 20.3467 233.209 20.6833 233.042 20.99C232.875 21.2967 232.625 21.5433 232.292 21.73C231.965 21.91 231.559 22 231.072 22H228.262ZM229.012 21.19H230.942C231.375 21.19 231.709 21.0733 231.942 20.84C232.175 20.6067 232.292 20.32 232.292 19.98C232.292 19.6267 232.175 19.3367 231.942 19.11C231.709 18.8767 231.375 18.76 230.942 18.76H229.012V21.19ZM229.012 17.96H230.852C231.279 17.96 231.602 17.8633 231.822 17.67C232.042 17.47 232.152 17.2 232.152 16.86C232.152 16.52 232.042 16.26 231.822 16.08C231.602 15.9 231.279 15.81 230.852 15.81H229.012V17.96ZM234.164 22C234.11 22 234.064 21.98 234.024 21.94C233.984 21.9 233.964 21.8533 233.964 21.8C233.964 21.7667 233.967 21.73 233.974 21.69L236.454 15.22C236.48 15.1533 236.517 15.1 236.564 15.06C236.61 15.02 236.68 15 236.774 15H237.454C237.54 15 237.607 15.02 237.654 15.06C237.707 15.1 237.747 15.1533 237.774 15.22L240.244 21.69C240.257 21.73 240.264 21.7667 240.264 21.8C240.264 21.8533 240.244 21.9 240.204 21.94C240.164 21.98 240.117 22 240.064 22H239.554C239.474 22 239.414 21.98 239.374 21.94C239.34 21.9 239.317 21.8633 239.304 21.83L238.754 20.41H235.474L234.924 21.83C234.917 21.8633 234.894 21.9 234.854 21.94C234.814 21.98 234.754 22 234.674 22H234.164ZM235.764 19.55H238.464L237.114 16L235.764 19.55ZM241.563 22C241.49 22 241.433 21.98 241.393 21.94C241.353 21.8933 241.333 21.8367 241.333 21.77V15.24C241.333 15.1667 241.353 15.11 241.393 15.07C241.433 15.0233 241.49 15 241.563 15H242.073C242.146 15 242.203 15.0233 242.243 15.07C242.29 15.11 242.313 15.1667 242.313 15.24V18H245.753V15.24C245.753 15.1667 245.773 15.11 245.813 15.07C245.86 15.0233 245.916 15 245.983 15H246.493C246.566 15 246.623 15.0233 246.663 15.07C246.71 15.11 246.733 15.1667 246.733 15.24V21.77C246.733 21.8367 246.71 21.8933 246.663 21.94C246.623 21.98 246.566 22 246.493 22H245.983C245.916 22 245.86 21.98 245.813 21.94C245.773 21.8933 245.753 21.8367 245.753 21.77V18.9H242.313V21.77C242.313 21.8367 242.29 21.8933 242.243 21.94C242.203 21.98 242.146 22 242.073 22H241.563ZM248.692 22C248.618 22 248.562 21.98 248.522 21.94C248.482 21.8933 248.462 21.8367 248.462 21.77V15.23C248.462 15.1633 248.482 15.11 248.522 15.07C248.562 15.0233 248.618 15 248.692 15H249.222C249.288 15 249.342 15.0233 249.382 15.07C249.428 15.11 249.452 15.1633 249.452 15.23V21.77C249.452 21.8367 249.428 21.8933 249.382 21.94C249.342 21.98 249.288 22 249.222 22H248.692ZM250.726 22C250.673 22 250.626 21.98 250.586 21.94C250.546 21.9 250.526 21.8533 250.526 21.8C250.526 21.7667 250.53 21.73 250.536 21.69L253.016 15.22C253.043 15.1533 253.08 15.1 253.126 15.06C253.173 15.02 253.243 15 253.336 15H254.016C254.103 15 254.17 15.02 254.216 15.06C254.27 15.1 254.31 15.1533 254.336 15.22L256.806 21.69C256.82 21.73 256.826 21.7667 256.826 21.8C256.826 21.8533 256.806 21.9 256.766 21.94C256.726 21.98 256.68 22 256.626 22H256.116C256.036 22 255.976 21.98 255.936 21.94C255.903 21.9 255.88 21.8633 255.866 21.83L255.316 20.41H252.036L251.486 21.83C251.48 21.8633 251.456 21.9 251.416 21.94C251.376 21.98 251.316 22 251.236 22H250.726ZM252.326 19.55H255.026L253.676 16L252.326 19.55ZM258.125 22C258.052 22 257.995 21.98 257.955 21.94C257.915 21.8933 257.895 21.8367 257.895 21.77V15.24C257.895 15.1667 257.915 15.11 257.955 15.07C257.995 15.0233 258.052 15 258.125 15H258.585C258.665 15 258.725 15.02 258.765 15.06C258.805 15.0933 258.829 15.12 258.835 15.14L262.155 20.24V15.24C262.155 15.1667 262.175 15.11 262.215 15.07C262.255 15.0233 262.312 15 262.385 15H262.865C262.939 15 262.995 15.0233 263.035 15.07C263.082 15.11 263.105 15.1667 263.105 15.24V21.76C263.105 21.8267 263.082 21.8833 263.035 21.93C262.995 21.9767 262.942 22 262.875 22H262.395C262.322 22 262.265 21.98 262.225 21.94C262.192 21.9 262.169 21.8733 262.155 21.86L258.845 16.81V21.77C258.845 21.8367 258.822 21.8933 258.775 21.94C258.735 21.98 258.679 22 258.605 22H258.125ZM264.369 22C264.315 22 264.269 21.98 264.229 21.94C264.189 21.9 264.169 21.8533 264.169 21.8C264.169 21.7667 264.172 21.73 264.179 21.69L266.659 15.22C266.685 15.1533 266.722 15.1 266.769 15.06C266.815 15.02 266.885 15 266.979 15H267.659C267.745 15 267.812 15.02 267.859 15.06C267.912 15.1 267.952 15.1533 267.979 15.22L270.449 21.69C270.462 21.73 270.469 21.7667 270.469 21.8C270.469 21.8533 270.449 21.9 270.409 21.94C270.369 21.98 270.322 22 270.269 22H269.759C269.679 22 269.619 21.98 269.579 21.94C269.545 21.9 269.522 21.8633 269.509 21.83L268.959 20.41H265.679L265.129 21.83C265.122 21.8633 265.099 21.9 265.059 21.94C265.019 21.98 264.959 22 264.879 22H264.369ZM265.969 19.55H268.669L267.319 16L265.969 19.55Z" fill="white"/>
</svg>
