<svg width="133" height="33" viewBox="0 0 133 33" fill="none" xmlns="http://www.w3.org/2000/svg">
<path d="M43.8226 27.8868H41.5488V24.351H43.8003V24.8772H42.1791V25.8353H43.4815V26.3483H42.1791V27.3377H43.8226V27.8868V27.8868ZM43.9727 27.0343L44.5855 26.9027C44.6587 27.2528 44.9409 27.4279 45.4316 27.4279C45.655 27.4279 45.8274 27.3839 45.9483 27.2937C46.0688 27.204 46.1282 27.0926 46.1282 26.9595C46.1282 26.8629 46.1011 26.7738 46.047 26.6916C45.9918 26.6093 45.8746 26.5446 45.6953 26.4985L45.0263 26.3218C44.7971 26.2618 44.6279 26.1929 44.5186 26.1165C44.4093 26.0396 44.3207 25.9308 44.2555 25.7913C44.1897 25.6518 44.1563 25.5022 44.1563 25.343C44.1563 25.0274 44.273 24.7738 44.5059 24.5828C44.7382 24.3918 45.0353 24.2963 45.3977 24.2963C45.6985 24.2963 45.9674 24.3632 46.2046 24.4958C46.4406 24.6284 46.5924 24.8167 46.6571 25.0608L46.0565 25.2114C45.9648 24.9435 45.7494 24.8098 45.4109 24.8098C45.2136 24.8098 45.064 24.8507 44.9611 24.9335C44.8576 25.0167 44.8056 25.1218 44.8056 25.2502C44.8056 25.4518 44.968 25.5934 45.2926 25.6746L45.8878 25.8247C46.2486 25.916 46.49 26.0512 46.6136 26.23C46.7367 26.4093 46.7982 26.6067 46.7982 26.8221C46.7982 27.169 46.6682 27.4428 46.4093 27.6417C46.1504 27.8417 45.8152 27.9409 45.403 27.942C45.056 27.9409 44.7526 27.8677 44.4916 27.7207C44.2305 27.5738 44.0576 27.3457 43.9727 27.0343V27.0343ZM49.2682 26.6587L49.8529 26.7239C49.8152 27.0778 49.6794 27.3695 49.446 27.5977C49.2131 27.8268 48.907 27.9409 48.5266 27.942C48.2072 27.9409 47.9473 27.8603 47.7489 27.6974C47.5489 27.5361 47.3961 27.3149 47.2884 27.0369C47.1807 26.7595 47.1271 26.4528 47.1271 26.1175C47.1271 25.5791 47.2534 25.1404 47.5064 24.8029C47.7589 24.465 48.1075 24.2963 48.5494 24.2963C48.8969 24.2963 49.186 24.404 49.4168 24.6205C49.647 24.8364 49.7924 25.1451 49.8529 25.5473L49.2682 25.6099C49.1605 25.0762 48.9224 24.8098 48.5547 24.8098C48.3192 24.8098 48.1356 24.9202 48.0051 25.1425C47.8746 25.3642 47.8093 25.6862 47.8093 26.1069C47.8093 26.5356 47.8794 26.8587 48.0194 27.0767C48.1589 27.2953 48.3446 27.4051 48.5759 27.4051C48.7605 27.4051 48.917 27.3313 49.0475 27.1849C49.177 27.038 49.2507 26.8629 49.2682 26.6587V26.6587ZM51.6147 27.942C51.1499 27.9409 50.7876 27.7648 50.5287 27.413C50.2704 27.0603 50.1409 26.6252 50.1409 26.1069C50.1409 25.5923 50.2783 25.1616 50.5531 24.8162C50.829 24.4693 51.1924 24.2963 51.6428 24.2963C52.098 24.2963 52.4576 24.4693 52.7213 24.8162C52.9855 25.1616 53.1176 25.595 53.1176 26.1149C53.1176 26.6603 52.9802 27.1016 52.7065 27.438C52.4317 27.7738 52.0683 27.9409 51.6147 27.942V27.942ZM51.62 27.4279C51.8476 27.4279 52.0396 27.3335 52.1972 27.1435C52.3547 26.9531 52.4332 26.6093 52.4332 26.1096C52.4332 25.7037 52.3675 25.3854 52.238 25.1557C52.1086 24.925 51.9065 24.8098 51.6332 24.8098C51.0921 24.8098 50.8226 25.2491 50.8226 26.1282C50.8226 26.5542 50.8911 26.8778 51.0295 27.0979C51.1669 27.3186 51.3637 27.4279 51.62 27.4279V27.4279ZM55.8306 27.8868H53.6773V24.351H54.341V27.3096H55.8306V27.8868ZM59.0131 27.8868H58.3394L58.0593 27.0449H56.7128L56.4391 27.8868H55.9006L57.0619 24.351H57.8386L59.0131 27.8868ZM57.89 26.5351L57.3797 24.9568L56.8694 26.5351H57.89V26.5351ZM60.7007 27.8868V24.351H61.9909C62.4678 24.351 62.8503 24.5218 63.1394 24.8629C63.428 25.2035 63.5728 25.6242 63.5728 26.1255C63.5728 26.6258 63.4238 27.0449 63.1262 27.3823C62.8296 27.7191 62.4031 27.8868 61.8492 27.8868H60.7007ZM61.3495 27.3664H61.8752C62.1574 27.3664 62.3962 27.2592 62.593 27.0449C62.7898 26.8311 62.888 26.5117 62.888 26.0894C62.888 25.7435 62.8025 25.4518 62.6307 25.212C62.4582 24.9732 62.2317 24.8534 61.95 24.8534H61.3495V27.3664V27.3664ZM66.4042 27.8868H64.1304V24.351H66.3813V24.8772H64.7606V25.8353H66.063V26.3483H64.7606V27.3377H66.4042V27.8868V27.8868ZM71.6668 27.8868H71.0233V24.7913L70.0541 27.8868H69.7235L68.7485 24.7913V27.8868H68.2339V24.351H69.2201L69.9538 26.6279L70.6747 24.351H71.6668V27.8868V27.8868ZM74.6854 27.8868H72.4116V24.351H74.6626V24.8772H73.0419V25.8353H74.3443V26.3483H73.0419V27.3377H74.6854V27.8868V27.8868ZM75.1835 27.8868V24.351H76.4737C76.9506 24.351 77.3331 24.5218 77.6223 24.8629C77.9109 25.2035 78.0552 25.6242 78.0552 26.1255C78.0552 26.6258 77.9066 27.0449 77.609 27.3823C77.3124 27.7191 76.8859 27.8868 76.3321 27.8868H75.1835ZM75.8323 27.3664H76.3581C76.6403 27.3664 76.879 27.2592 77.0758 27.0449C77.2727 26.8311 77.3708 26.5117 77.3708 26.0894C77.3708 25.7435 77.2854 25.4518 77.1135 25.212C76.9411 24.9732 76.7146 24.8534 76.4329 24.8534H75.8323V27.3664V27.3664ZM79.2435 27.8868H78.6133V24.351H79.2435V27.8868ZM81.9417 26.6587L82.5268 26.7239C82.4891 27.0778 82.3533 27.3695 82.1194 27.5977C81.8865 27.8268 81.5804 27.9409 81.2005 27.942C80.8812 27.9409 80.6212 27.8603 80.4223 27.6974C80.2228 27.5361 80.0695 27.3149 79.9618 27.0369C79.8541 26.7595 79.8011 26.4528 79.8011 26.1175C79.8011 25.5791 79.9268 25.1404 80.1798 24.8029C80.4329 24.465 80.7814 24.2963 81.2233 24.2963C81.5708 24.2963 81.8594 24.404 82.0907 24.6205C82.321 24.8364 82.4663 25.1451 82.5268 25.5473L81.9417 25.6099C81.8345 25.0762 81.5963 24.8098 81.2287 24.8098C80.9931 24.8098 80.809 24.9202 80.679 25.1425C80.5485 25.3642 80.4828 25.6862 80.4828 26.1069C80.4828 26.5356 80.5528 26.8587 80.6928 27.0767C80.8329 27.2953 81.0186 27.4051 81.2493 27.4051C81.4345 27.4051 81.591 27.3313 81.7215 27.1849C81.8509 27.038 81.9241 26.8629 81.9417 26.6587V26.6587ZM83.6297 27.8868H82.9995V24.351H83.6297V27.8868ZM87.0154 27.8868H86.4027L85.0738 25.6279C85.0536 25.5934 85.0207 25.5377 84.974 25.4597C84.9534 25.4252 84.9215 25.3706 84.8796 25.2963V27.8868H84.3719V24.351H85.0685L86.295 26.4332C86.3045 26.4507 86.3788 26.5775 86.5183 26.8141V24.351H87.0154V27.8868V27.8868ZM90.5025 27.8868H89.8287L89.5486 27.0449H88.2022L87.9284 27.8868H87.39L88.5518 24.351H89.3279L90.5025 27.8868ZM89.3794 26.5351L88.869 24.9568L88.3592 26.5351H89.3794ZM94.4823 27.8868H92.2086V24.351H94.46V24.8772H92.8388V25.8353H94.1412V26.3483H92.8388V27.3377H94.4823V27.8868ZM95.9455 27.0343L96.5582 26.9027C96.6314 27.2528 96.9136 27.4279 97.4044 27.4279C97.6277 27.4279 97.8001 27.3839 97.9211 27.2937C98.0415 27.204 98.1009 27.0926 98.1009 26.9595C98.1009 26.8629 98.0739 26.7738 98.0197 26.6916C97.9646 26.6093 97.8473 26.5446 97.668 26.4985L96.999 26.3218C96.7699 26.2618 96.6006 26.1929 96.4913 26.1165C96.3821 26.0396 96.2935 25.9308 96.2282 25.7913C96.1624 25.6518 96.129 25.5022 96.129 25.343C96.129 25.0274 96.2457 24.7738 96.4786 24.5828C96.711 24.3918 97.0081 24.2963 97.3704 24.2963C97.6712 24.2963 97.9402 24.3632 98.1773 24.4958C98.4134 24.6284 98.5651 24.8167 98.6298 25.0608L98.0293 25.2114C97.9375 24.9435 97.7221 24.8098 97.3837 24.8098C97.1863 24.8098 97.0367 24.8507 96.9338 24.9335C96.8303 25.0167 96.7784 25.1218 96.7784 25.2502C96.7784 25.4518 96.9407 25.5934 97.2654 25.6746L97.8606 25.8247C98.2208 25.916 98.4627 26.0512 98.5858 26.23C98.7094 26.4093 98.7709 26.6067 98.7709 26.8221C98.7709 27.169 98.641 27.4428 98.3821 27.6417C98.1232 27.8417 97.7879 27.9409 97.3757 27.942C97.0288 27.9409 96.7253 27.8677 96.4643 27.7207C96.2033 27.5738 96.0303 27.3457 95.9455 27.0343V27.0343ZM102.01 27.8868H101.336L101.056 27.0449H99.7099L99.4362 27.8868H98.8977L100.059 24.351H100.836L102.01 27.8868V27.8868ZM100.887 26.5351L100.377 24.9568L99.8664 26.5351H100.887ZM104.806 24.351V26.6226C104.806 26.9303 104.772 27.1664 104.703 27.3324C104.635 27.4979 104.503 27.6412 104.307 27.7611C104.111 27.8815 103.872 27.9409 103.59 27.942C103.305 27.9409 103.07 27.8894 102.887 27.786C102.703 27.6825 102.57 27.5404 102.49 27.36C102.41 27.1796 102.369 26.9489 102.369 26.6693V24.351H103.013V26.6226C103.013 26.9335 103.078 27.1377 103.207 27.2353C103.335 27.3335 103.486 27.3823 103.657 27.3823C103.854 27.3823 104.01 27.3298 104.129 27.2247C104.247 27.1202 104.305 26.9197 104.305 26.6226V24.351H104.806ZM104.244 23.2236L104.413 23.612L103.344 24.0682L103.237 23.7902L104.244 23.2236V23.2236ZM105.48 27.8868V24.351H106.77C107.247 24.351 107.63 24.5218 107.918 24.8629C108.208 25.2035 108.352 25.6242 108.352 26.1255C108.352 26.6258 108.203 27.0449 107.906 27.3823C107.609 27.7191 107.183 27.8868 106.628 27.8868H105.48V27.8868ZM106.129 27.3664H106.655C106.937 27.3664 107.176 27.2592 107.373 27.0449C107.569 26.8311 107.668 26.5117 107.668 26.0894C107.668 25.7435 107.582 25.4518 107.41 25.212C107.238 24.9732 107.011 24.8534 106.729 24.8534H106.129V27.3664ZM111.184 27.8868H108.909V24.351H111.161V24.8772H109.54V25.8353H110.842V26.3483H109.54V27.3377H111.184V27.8868ZM113.643 27.8868H113.013V24.351H114.446C114.855 24.351 115.157 24.4555 115.355 24.6629C115.552 24.8709 115.651 25.1165 115.651 25.3998C115.651 25.7234 115.545 25.9849 115.331 26.1849C115.117 26.3855 114.846 26.4852 114.517 26.4852H113.643V27.8868V27.8868ZM113.643 25.9388H114.39C114.584 25.9388 114.733 25.8905 114.835 25.7939C114.939 25.6969 114.99 25.5685 114.99 25.4077C114.99 25.2624 114.942 25.1388 114.847 25.0343C114.752 24.9308 114.581 24.8799 114.333 24.8799H113.643V25.9388V25.9388ZM118.534 24.351V26.6226C118.534 26.9303 118.501 27.1664 118.431 27.3324C118.363 27.4979 118.23 27.6412 118.035 27.7611C117.839 27.8815 117.6 27.9409 117.319 27.942C117.033 27.9409 116.799 27.8894 116.615 27.786C116.431 27.6825 116.299 27.5404 116.218 27.36C116.138 27.1796 116.098 26.9489 116.098 26.6693V24.351H116.742V26.6226C116.742 26.9335 116.806 27.1377 116.936 27.2353C117.064 27.3335 117.215 27.3823 117.385 27.3823C117.582 27.3823 117.739 27.3298 117.857 27.2247C117.975 27.1202 118.034 26.9197 118.034 26.6226V24.351H118.534V24.351ZM117.973 23.2236L118.141 23.612L117.073 24.0682L116.965 23.7902L117.973 23.2236V23.2236ZM119.227 27.8868V24.351H120.591C120.821 24.351 121.012 24.3748 121.165 24.4236C121.317 24.4719 121.449 24.5727 121.559 24.7266C121.671 24.8804 121.727 25.0608 121.727 25.2677C121.727 25.4634 121.67 25.6332 121.558 25.777C121.445 25.9213 121.289 26.013 121.09 26.0528C121.337 26.0963 121.523 26.1971 121.65 26.3563C121.776 26.5144 121.84 26.7027 121.84 26.9207C121.84 27.1934 121.751 27.4226 121.574 27.6083C121.397 27.7939 121.124 27.8868 120.758 27.8868H119.227V27.8868ZM119.824 25.8353H120.593C120.751 25.8353 120.875 25.7876 120.966 25.6931C121.058 25.5976 121.104 25.4767 121.104 25.3297C121.104 25.1679 121.051 25.0486 120.947 24.9717C120.843 24.8947 120.721 24.856 120.58 24.856H119.824V25.8353ZM119.824 27.3552H120.64C120.812 27.3552 120.949 27.3107 121.049 27.2183C121.148 27.1276 121.198 27.0035 121.198 26.8481C121.198 26.6995 121.147 26.578 121.046 26.4825C120.944 26.3881 120.809 26.3404 120.642 26.3404H119.824V27.3552V27.3552ZM124.542 27.8868H122.39V24.351H123.053V27.3096H124.542V27.8868ZM125.61 27.8868H124.98V24.351H125.61V27.8868ZM128.309 26.6587L128.893 26.7239C128.855 27.0778 128.72 27.3695 128.486 27.5977C128.253 27.8268 127.947 27.9409 127.567 27.942C127.248 27.9409 126.988 27.8603 126.789 27.6974C126.589 27.5361 126.436 27.3149 126.328 27.0369C126.221 26.7595 126.167 26.4528 126.167 26.1175C126.167 25.5791 126.293 25.1404 126.546 24.8029C126.799 24.465 127.148 24.2963 127.59 24.2963C127.937 24.2963 128.226 24.404 128.457 24.6205C128.687 24.8364 128.833 25.1451 128.893 25.5473L128.309 25.6099C128.201 25.0762 127.963 24.8098 127.595 24.8098C127.359 24.8098 127.175 24.9202 127.045 25.1425C126.915 25.3642 126.849 25.6862 126.849 26.1069C126.849 26.5356 126.919 26.8587 127.059 27.0767C127.199 27.2953 127.385 27.4051 127.616 27.4051C127.801 27.4051 127.957 27.3313 128.088 27.1849C128.217 27.038 128.291 26.8629 128.309 26.6587V26.6587ZM132.086 27.8868H131.412L131.132 27.0449H129.786L129.512 27.8868H128.974L130.135 24.351H130.912L132.086 27.8868V27.8868ZM130.963 26.5351L130.453 24.9568L129.942 26.5351H130.963Z" fill="#A7A7A7"/>
<path fill-rule="evenodd" clip-rule="evenodd" d="M51.8639 12.6614C53.3695 13.5728 54.3812 15.2264 54.3812 17.1054C54.3812 19.9601 52.0453 22.2965 49.1902 22.2965H41.5254V13.464V11.9144V6.27673C41.5254 5.37858 42.2575 4.64648 43.1551 4.64648H49.3355C51.7605 4.64648 53.744 6.63058 53.744 9.05553C53.744 10.5415 52.9992 11.8619 51.8639 12.6614V12.6614ZM48.7477 14.4975H44.6612V19.1235H48.7477C50.0199 19.1235 51.0607 18.0826 51.0607 16.8105V16.81C51.0607 15.5378 50.0199 14.4975 48.7477 14.4975V14.4975ZM48.8199 7.71865H44.6612V11.4242H48.8199C49.839 11.4242 50.6724 10.5903 50.6724 9.57119C50.6724 8.55208 49.839 7.71865 48.8199 7.71865V7.71865Z" fill="#A7A7A7"/>
<path fill-rule="evenodd" clip-rule="evenodd" d="M87.4478 22.2965H84.1406V6.52616C84.1406 5.49061 84.9857 4.64551 86.0213 4.64551H87.4478V22.2965V22.2965Z" fill="#A7A7A7"/>
<path fill-rule="evenodd" clip-rule="evenodd" d="M72.6914 22.2965H69.3848V6.52616C69.3848 5.49061 70.2293 4.64551 71.2654 4.64551H72.6914V11.262H79.0877V4.64551C80.1912 4.64551 81.2915 4.64551 82.3949 4.64551V22.2965H79.0877V14.3973H72.6914V22.2965V22.2965Z" fill="#A7A7A7"/>
<path fill-rule="evenodd" clip-rule="evenodd" d="M106.399 22.2965H103.092V6.52616C103.092 5.49061 103.937 4.64551 104.972 4.64551C105.499 4.64551 106.026 4.64551 106.552 4.64551L112.795 16.184V4.64551C113.898 4.64551 114.999 4.64551 116.102 4.64551V22.2965H112.795V22.2822L106.399 10.4599V22.2965V22.2965Z" fill="#A7A7A7"/>
<path fill-rule="evenodd" clip-rule="evenodd" d="M68.9459 22.2965H65.4716L64.4488 18.6041H58.2583L57.236 22.2965H53.7617L58.8047 6.05763C59.0562 5.24808 59.7511 4.70431 60.5851 4.65126L60.7204 4.64648H62.1236H63.4647L68.9459 22.2965V22.2965ZM63.6361 15.6694L61.3538 7.85181L59.071 15.6694H63.6361V15.6694Z" fill="#A7A7A7"/>
<path fill-rule="evenodd" clip-rule="evenodd" d="M102.901 22.2965H99.4267L98.4039 18.6041H92.2139L91.1911 22.2965H87.7168L92.7598 6.05763C93.0113 5.24808 93.7062 4.70431 94.5402 4.65126L94.6755 4.64648H96.0786H97.4198L102.901 22.2965V22.2965ZM97.5911 15.6694L95.3089 7.85181L93.0261 15.6694H97.5911V15.6694Z" fill="#A7A7A7"/>
<path fill-rule="evenodd" clip-rule="evenodd" d="M132.108 22.2965H128.634L127.611 18.6041H121.421L120.398 22.2965H116.924L121.967 6.05763C122.218 5.24808 122.914 4.70431 123.747 4.65126L123.882 4.64648H125.286H126.627L132.108 22.2965V22.2965ZM126.799 15.6694L124.516 7.85181L122.234 15.6694H126.799V15.6694Z" fill="#A7A7A7"/>
<path fill-rule="evenodd" clip-rule="evenodd" d="M7.55859 0H29.8908L29.8744 0.693901C29.7858 4.48278 29.6749 8.27114 29.4935 12.0574C29.3136 15.8123 29.0611 19.5603 28.7481 23.3068L28.7168 23.6808L28.3826 23.8527C22.5608 26.8479 14.8881 26.8479 9.06629 23.8527L8.73261 23.6808L8.70131 23.3068C8.38831 19.5603 8.13579 15.8123 7.95594 12.0574C7.77451 8.27114 7.66363 4.48278 7.57504 0.693901L7.55859 0V0ZM18.7247 12.633L21.8022 16.103C21.1438 16.6935 20.7295 17.5502 20.7295 18.5041C20.7295 20.2861 22.1741 21.7301 23.9555 21.7301C24.7704 21.7301 25.5147 21.4277 26.0823 20.929L28.0786 23.18L28.0728 23.25C25.2457 24.7047 21.9603 25.4277 18.677 25.4208H18.7247V12.633H8.66258C8.47478 8.86372 8.35648 5.10401 8.25409 0.757563L11.4419 4.3735C10.7438 4.96502 10.3003 5.84831 10.3003 6.83559C10.3003 8.61703 11.7443 10.0611 13.5257 10.0611C14.3671 10.0611 15.1332 9.73905 15.7077 9.2112L18.7247 12.633H28.7868C28.9757 8.84038 29.0945 5.05839 29.1969 0.677987H18.7247H8.2525H18.6563H18.7247V12.633V12.633ZM21.8022 16.103C22.2966 15.6595 22.9285 15.3661 23.6266 15.2951V14.4478H22.7062V13.79H23.6266V12.9683H24.2844V13.79H25.2043V14.4478H24.2844V15.2951C25.9115 15.46 27.181 16.8341 27.181 18.5041C27.181 19.4707 26.7555 20.3381 26.0823 20.929L21.8022 16.103ZM24.0669 2.95652H24.5221C24.5826 2.95652 24.6319 3.00532 24.6314 3.0658L24.6187 4.54008C25.0855 4.21276 25.4648 3.81753 25.4595 3.19683C25.4542 2.61328 25.0011 2.11831 24.1523 2.08595C23.5364 2.06261 22.9911 2.34484 22.9911 2.34484C22.8749 2.48224 22.9173 2.81964 22.9173 2.81964C22.1895 3.2101 21.5348 3.02018 21.5348 3.02018C21.6828 2.48224 22.2314 1.84882 22.3582 1.95439C22.4844 2.05996 22.8011 2.00744 22.8011 2.00744C23.7751 1.40107 25.729 1.46526 26.3539 2.60001C27.1948 4.12628 25.5683 5.18624 24.416 5.79791C23.6728 6.19208 23.2239 6.61437 23.3401 7.06424C23.4192 7.36928 23.6828 7.59952 24.0059 7.7836L23.9911 6.3454C24.1778 6.18253 24.4452 6.06423 24.6059 6.00587L24.5555 11.7067C24.555 11.7672 24.5062 11.8165 24.4462 11.8165H24.1566C24.0966 11.8165 24.0478 11.7672 24.0473 11.7067L24.0139 8.51676C23.2579 8.25363 22.4823 7.86 22.3857 7.17458C22.2802 6.42444 22.8478 5.76714 23.4706 5.28438C23.6234 5.16608 23.7969 5.05626 23.9767 4.94592L23.9576 3.0658C23.9571 3.00532 24.0064 2.95652 24.0669 2.95652V2.95652ZM24.7592 8.74912C24.8521 8.77618 24.9396 8.80218 25.0202 8.82658C25.7131 9.03825 25.0993 9.47751 24.8722 9.80165C24.4494 10.4054 24.4176 11.2908 25.2494 11.5147C24.5072 10.9162 24.929 10.3343 25.4871 9.88335C25.7534 9.66849 26.0192 9.4112 26.0505 9.12207C26.0887 8.76451 25.7364 8.52791 25.3152 8.34329C25.1614 8.27592 24.9688 8.20535 24.7635 8.12631L24.7592 8.74912V8.74912ZM15.7077 9.2112C16.3491 8.62128 16.7518 7.77565 16.7518 6.83559C16.7518 5.16502 15.4817 3.791 13.8547 3.62655V2.7788H14.7751V2.12097H13.8547V1.29921H13.1968V2.12097H12.2764V2.7788H13.1968V3.62655C12.5316 3.69392 11.9257 3.96342 11.4419 4.3735L15.7077 9.2112V9.2112ZM13.9793 15.181H14.4345C14.495 15.181 14.5448 15.2303 14.5443 15.2903L14.5311 16.7646C14.9979 16.4378 15.3777 16.042 15.3719 15.4218C15.3666 14.8378 14.9135 14.3428 14.0647 14.3104C13.4493 14.2871 12.904 14.5693 12.904 14.5693C12.7878 14.7067 12.8297 15.0441 12.8297 15.0441C12.1019 15.4346 11.4477 15.2447 11.4477 15.2447C11.5952 14.7067 12.1438 14.0738 12.2706 14.1789C12.3974 14.2844 12.7141 14.2319 12.7141 14.2319C13.6875 13.6261 15.6419 13.6903 16.2669 14.8245C17.1072 16.3508 15.4807 17.4107 14.3284 18.0224C13.5852 18.4166 13.1363 18.8394 13.2525 19.2887C13.3316 19.5938 13.5958 19.824 13.9188 20.0081L13.9035 18.5699C14.0902 18.407 14.3576 18.2887 14.5183 18.2304L14.4685 23.9317C14.4679 23.9917 14.4191 24.041 14.3586 24.041H14.069C14.009 24.041 13.9602 23.9917 13.9597 23.9317L13.9263 20.7412C13.1708 20.4781 12.3952 20.0845 12.2987 19.3991C12.1931 18.6495 12.7607 17.9916 13.383 17.5094C13.5358 17.3911 13.7098 17.2807 13.8897 17.1704L13.87 15.2903C13.8695 15.2303 13.9194 15.181 13.9793 15.181V15.181ZM14.6716 20.9736C14.7645 21.0007 14.8525 21.0267 14.9332 21.0511C15.626 21.2633 15.0117 21.702 14.7852 22.0261C14.3618 22.6299 14.3305 23.5158 15.1618 23.7391C14.4196 23.1407 14.8419 22.5588 15.3995 22.1084C15.6658 21.893 15.9321 21.6357 15.9629 21.3466C16.0016 20.989 15.6488 20.7529 15.2276 20.5678C15.0743 20.5004 14.8812 20.4304 14.6764 20.3508L14.6716 20.9736V20.9736Z" fill="#A7A7A7"/>
<path fill-rule="evenodd" clip-rule="evenodd" d="M29.517 27.4417C29.3573 27.3589 29.2035 27.2698 29.056 27.1749C27.9138 26.4369 27.7928 25.8396 27.8411 24.5791C27.8894 23.325 28.1546 21.9828 28.5584 20.8804L28.5844 20.8088L28.657 20.7833C29.6645 20.4295 30.9 20.3562 31.9578 20.4305C33.2321 20.5196 34.5531 20.839 35.6841 21.4438L35.9138 21.5669L35.7027 21.7191C35.0528 22.186 34.6868 23.6709 34.7366 24.4295C35.2279 24.6067 35.8624 24.8852 36.2788 25.1536C36.7701 25.4714 37.3706 25.9913 37.4438 26.6152C37.4513 26.7329 37.4544 26.8221 37.4322 26.9414C37.2491 27.8995 36.7038 29.1048 36.4316 30.0995C36.2539 30.7489 36.0502 31.6046 35.5579 32.09C34.9271 32.7123 33.9457 32.6333 33.1462 32.481C29.8422 31.8523 26.527 31.2555 23.1705 30.9929C21.7785 30.8836 20.3753 30.838 18.9795 30.8327C17.5811 30.8269 16.1768 30.8624 14.7816 30.9563C11.2585 31.1935 7.76936 31.8216 4.30515 32.481C3.50568 32.6333 2.52424 32.7123 1.89347 32.09C1.40116 31.6046 1.19744 30.7489 1.01972 30.0995C0.792132 29.2677 -0.00946454 27.4502 8.45968e-05 26.7266L0.00751248 26.6152C0.080192 25.9913 0.680726 25.4714 1.17251 25.1536C1.58842 24.8852 2.20381 24.5929 2.69453 24.4157C2.74599 23.6337 2.41601 22.1987 1.74864 21.7191L1.53696 21.5669L1.76668 21.4438C2.89825 20.839 4.21921 20.5196 5.49296 20.4305C6.55132 20.3562 7.78687 20.4295 8.79431 20.7833L8.86646 20.8088L8.89298 20.8804C9.31898 22.0449 9.59113 23.4772 9.61606 24.7897C9.63835 25.9621 9.44046 26.4995 8.39483 27.1749C8.24523 27.2714 8.0882 27.3621 7.92533 27.4465C10.1625 27.1568 12.3938 26.795 14.6363 26.5531C16.1089 26.3945 17.58 26.3112 19.0612 26.3271C20.5419 26.343 22.0135 26.456 23.4841 26.6284C24.9599 26.8014 26.431 27.0146 27.9032 27.2205C28.4401 27.2958 28.978 27.3711 29.517 27.4417V27.4417ZM13.2919 28.2656C13.2018 28.6406 13.1805 28.7515 13.2145 29.1261C13.2225 29.212 13.2246 29.1754 13.24 29.2396C13.2994 29.4879 13.3519 29.7192 13.5132 29.9234C13.5636 29.9871 13.7217 30.1112 13.8076 30.1319C14.0028 30.1797 14.075 30.2168 14.2697 30.134C14.4262 30.0677 14.5928 29.8836 14.6718 29.7372C14.7583 29.5775 14.8691 29.0539 14.867 28.8953L14.7864 28.2788C14.6861 28.0088 14.4983 27.6157 14.1816 27.5584C13.7413 27.4783 13.5779 27.7717 13.4309 27.9499C13.353 28.0449 13.3248 28.1271 13.2919 28.2656V28.2656ZM21.5917 29.9913C21.5928 29.8014 21.5482 29.9149 21.5583 29.7531C21.5419 29.2078 21.5058 28.4009 21.5626 27.847C21.571 27.4608 21.7329 27.455 21.4315 27.4083C21.1557 27.3653 21.3063 27.5457 21.3084 27.9467C21.3106 28.4491 21.3206 29.1059 21.2771 29.5918C21.2702 29.6704 21.2029 29.9298 21.2464 29.9791C21.2771 30.0136 21.5339 30.0035 21.5917 29.9913V29.9913ZM28.7016 28.2661C28.682 28.3467 28.7297 28.4353 28.7228 28.5489C28.6878 29.0852 28.7499 29.9998 28.6257 30.4927C28.5446 30.8147 28.5902 30.7818 28.8188 30.8375L29.3812 30.8826C29.387 30.8794 29.4926 30.7303 29.4539 30.5797C29.2544 30.5775 29.265 30.6645 28.9191 30.6099C28.8538 30.4338 28.8634 30.4783 28.8947 30.2184C28.9111 30.0804 28.8761 29.9282 28.9058 29.8046C28.9239 29.7303 28.9419 29.725 28.9637 29.6587C29.1923 29.7144 29.1844 29.8327 29.2735 29.7759C29.2926 29.7643 29.4029 29.6242 29.3727 29.4836C29.1838 29.4417 29.1812 29.5239 28.9345 29.3993L28.9573 29.0529C28.9531 28.9266 28.9096 28.4773 29.1202 28.5282C29.4321 28.6046 29.3881 28.942 29.5292 28.3531C29.2178 28.2773 29.256 28.3303 29.0788 28.3096C28.995 28.3001 28.7207 28.1871 28.7016 28.2661ZM4.31895 31.1632C4.30674 31.2131 4.24043 31.3197 4.21019 31.3473C3.99852 31.5436 3.8452 31.1303 3.78579 31.377C3.76085 31.481 3.80435 31.334 3.80913 31.5478C3.81125 31.6439 3.7895 31.7627 3.99958 31.7256C4.59109 31.6216 4.73486 30.9261 4.46112 30.5033C4.35131 30.3335 4.1078 30.2343 3.97571 30.0783C3.68499 29.7361 3.96881 29.4221 4.01497 29.4014C4.15661 29.3388 4.29879 29.5266 4.32849 29.4014C4.42133 29.0141 3.92637 28.9802 3.76191 29.2465C3.53273 29.6173 3.50886 30.1075 3.833 30.4428C3.91258 30.5255 4.41231 30.7733 4.31895 31.1632V31.1632ZM4.78845 28.9181C4.73646 28.9823 4.91683 31.5043 4.95874 31.5043L5.50251 31.4104C5.58314 31.3876 5.63938 31.385 5.71471 31.3659C5.73009 31.3022 5.75874 31.0757 5.74919 31.0311C5.63142 31.0152 5.65742 31.107 5.35556 31.2004C5.28023 31.2232 5.26855 31.203 5.20012 31.2179C5.12956 31.0269 5.1163 30.5499 5.11577 30.3266C5.22558 30.2486 5.23991 30.2651 5.41816 30.3086C5.48447 30.2481 5.46855 30.2996 5.49614 30.2205C5.57519 29.9977 5.57519 29.9563 5.29084 30.011C5.01232 30.0645 5.07916 29.9627 5.08075 29.8672L5.02346 29.1818L5.51789 29.1287C5.5285 29.082 5.5163 28.882 5.49826 28.8518L4.78845 28.9181V28.9181ZM26.0395 27.8921C26.0422 27.9807 26.0384 27.8932 26.0549 27.9563C26.0713 28.0173 26.0655 27.9648 26.0692 28.0215C26.1201 28.7807 25.9928 29.3982 26.0034 30.1133C26.0071 30.3934 25.9658 30.2667 25.9615 30.4157C26.0862 30.4783 26.2846 30.482 26.4098 30.4852C26.8093 30.4964 26.7838 30.6205 26.8735 30.2486C26.9048 30.116 26.7573 30.2041 26.6867 30.2147C26.4252 30.2545 26.5387 30.2815 26.3058 30.2247C26.2241 30.2046 26.2565 30.0873 26.2676 30.0078C26.3005 29.7738 26.2231 29.4629 26.3668 29.3001L26.6581 29.421C26.7196 29.3436 26.8178 29.1123 26.7377 29.0926C26.5971 29.0587 26.4576 29.0417 26.3536 29.0682C26.2862 28.8857 26.3148 28.3696 26.3663 28.1547C26.6464 28.2162 26.4777 28.1579 26.7461 28.2932C26.8507 28.1966 26.8316 28.2231 26.8735 28.0491C26.9148 27.8751 26.3912 27.9192 26.2671 27.9017C26.1854 27.8905 26.1058 27.8778 26.0395 27.8921V27.8921ZM21.9981 29.6873L21.9488 29.6279C21.9466 29.6263 21.9413 29.6221 21.9392 29.621C21.8734 29.5738 21.8533 29.6401 21.8458 29.7415C21.8331 29.9102 21.8045 30.0661 22.0416 30.1239C22.1079 30.1404 22.0575 30.1054 22.2458 30.0958C22.3891 30.0884 22.4931 30.0131 22.5631 29.8916C22.788 29.5022 22.7212 29.1372 22.4772 28.8056C22.474 28.8019 22.4687 28.7977 22.4655 28.794L22.4103 28.7356C22.3063 28.6353 22.1233 28.4571 22.0978 28.3133C22.023 28.1377 22.1132 27.6581 22.4395 27.8486C22.5642 27.9218 22.5392 28.0497 22.6283 27.6783C22.6713 27.4985 22.1042 27.3149 21.918 27.7834C21.7986 28.0831 21.7578 28.5048 21.9636 28.7674C22.1535 29.0099 22.2586 29.0375 22.3509 29.2332C22.5286 29.6109 22.2363 29.9659 21.9981 29.6873V29.6873ZM7.83303 30.2789C7.76724 30.2078 7.73011 30.0672 7.69616 29.9743C7.67547 29.9171 7.676 29.899 7.66486 29.8454L7.52745 29.3934C7.46591 29.1727 7.38687 28.9218 7.35981 28.7006C7.35027 28.6237 7.33382 28.5282 7.30729 28.4555C7.23674 28.4735 7.21552 28.4905 7.12798 28.4937C6.9179 28.5017 6.93382 28.5255 7.01127 28.691C7.29987 29.3834 7.53488 30.2492 7.76406 30.9547C7.98793 31.0184 7.9317 30.8189 8.0134 30.4831L8.16672 29.743C8.18316 29.6369 8.20756 29.5186 8.22825 29.3913C8.24682 29.2762 8.2325 29.1887 8.26274 29.056C8.29351 28.9218 8.46858 28.3494 8.39218 28.3308C8.11314 28.2624 8.09351 28.3781 8.11314 28.5743C8.13329 28.7802 7.98528 29.3844 7.94178 29.7139C7.9142 29.9266 7.89297 30.0974 7.83303 30.2789ZM8.59378 30.1669L8.53807 30.3515C8.51208 30.4815 8.37786 30.7812 8.41128 30.8322C8.4585 30.8667 8.56194 30.8608 8.6325 30.8327C8.74126 30.7892 8.73065 30.7213 8.74285 30.6125C8.77096 30.3669 8.83356 30.2179 8.88396 30.0083C8.96301 29.9887 9.33065 29.9112 9.40704 29.9298C9.48715 29.9494 9.51208 30.0868 9.54763 30.177C9.74869 30.6852 9.51845 30.7457 10.0463 30.6125L9.72217 29.8858C9.69617 29.821 9.69723 29.7945 9.67442 29.7298C9.65744 29.681 9.63092 29.6327 9.61129 29.5839L9.16937 28.3743C9.13224 28.2794 9.12588 28.317 9.05585 28.2406L8.64364 29.9494C8.62136 30.0189 8.61924 29.9998 8.60757 30.0529C8.60173 30.0799 8.60651 30.1139 8.59378 30.1669ZM9.07495 29.116C9.02667 29.317 8.94921 29.5287 8.98317 29.6889C9.0776 29.6868 8.98264 29.6879 9.06699 29.6746C9.1646 29.6598 9.29086 29.6926 9.328 29.5897C9.33808 29.5632 9.18105 29.0895 9.13914 29.0396C9.10359 29.0725 9.08662 29.0672 9.07495 29.116V29.116ZM19.5312 29.7871C19.5801 29.5839 19.5174 29.7706 19.5169 29.4815C19.5169 29.2375 19.5052 28.9298 19.5419 28.69C19.3392 28.5876 19.4029 28.6523 19.2389 28.6157C19.1737 28.8879 19.2246 28.8046 19.2458 28.9441C19.2586 29.0269 19.2872 29.4693 19.2241 29.5531C19.1785 29.6131 19.1567 29.6094 19.0808 29.6232C18.745 29.6842 18.6235 29.5181 18.4883 29.2948C18.4029 29.1547 18.4013 29.0502 18.3604 28.9107C18.3403 28.8417 18.3323 28.4757 18.3609 28.3563C18.4787 27.8645 18.4018 28.0465 18.5525 27.8555C18.605 27.7887 18.6103 27.7643 18.6904 27.7202L18.8559 27.6587C19.0352 27.646 19.2628 27.7361 19.4092 27.8099C19.4511 27.6831 19.4453 27.7186 19.4299 27.5759C19.4087 27.3871 19.4941 27.4184 19.1562 27.3356C19.1259 27.3287 18.8458 27.3271 18.7514 27.3674C18.6267 27.4205 18.5302 27.4481 18.4411 27.5531C18.3058 27.7123 18.3938 27.5308 18.2861 27.7818C18.2352 27.8995 18.1281 28.0083 18.0861 28.3388C18.057 28.5648 18.057 28.3637 18.0708 28.6253C18.0787 28.7696 18.0204 28.7717 18.0686 28.9223C18.1026 29.0284 18.0782 29.0778 18.1042 29.1781C18.145 29.3356 18.2135 29.4948 18.3005 29.6311C18.4426 29.8529 18.8082 29.9993 19.0548 29.9728C19.1196 29.9653 19.1116 29.9547 19.1816 29.9388C19.257 29.9218 19.5116 29.8682 19.5312 29.7871V29.7871ZM32.9016 29.0152C32.8709 29.1446 32.9159 29.2025 32.9197 29.3001C32.9159 29.7568 32.8677 30.4465 32.838 30.8836L32.7462 31.3648C32.7159 31.5706 32.7881 31.4905 33.0512 31.5484C33.099 31.3484 33.0687 31.4624 33.0507 31.3637L33.0836 30.4571C33.2629 30.6523 33.2305 30.7303 33.2953 30.882L33.4799 31.3245C33.5191 31.3961 33.6093 31.6163 33.673 31.6317C33.9934 31.7096 33.7897 31.4858 33.7303 31.3383C33.708 31.2836 33.699 31.2566 33.6772 31.2041L33.4465 30.6051C33.404 30.4996 33.4045 30.5531 33.4396 30.4062C33.465 30.2996 33.4433 30.4247 33.5717 30.2911C33.7706 30.0842 33.8088 29.7139 33.7223 29.4396C33.6645 29.256 33.5881 29.1542 33.4136 29.073C33.1653 28.9568 33.326 29.0099 33.0655 28.9818C33.0029 28.9749 32.917 28.9526 32.9016 29.0152V29.0152ZM33.1085 30.2571C33.3377 30.3075 33.4788 30.0513 33.5053 29.9415C33.5488 29.76 33.5419 29.4815 33.3955 29.3245C33.3281 29.2518 33.2958 29.2486 33.1738 29.2189C33.1016 29.3632 33.1101 30.0327 33.1085 30.2571V30.2571ZM5.85158 28.7881C5.84893 29.2438 6.01285 30.3812 6.05583 30.9181C6.06325 31.0136 6.0118 31.1616 6.01127 31.2778L6.36193 31.2492L6.32692 31.0115C6.32002 30.9706 6.3057 30.9415 6.29668 30.9006L6.26113 30.6635C6.25211 30.5218 6.23302 30.3521 6.26007 30.2391C6.28023 30.1563 6.2553 30.2295 6.29774 30.1797L6.46379 30.4661C6.49774 30.5218 6.52055 30.5584 6.5545 30.6141C6.57201 30.6428 6.57891 30.6534 6.59482 30.682L6.84947 31.0449C6.92533 31.1324 6.98315 31.1977 7.14337 31.0502L6.81817 30.5643C6.7874 30.5139 6.55663 30.055 6.56087 30.0375C6.59854 29.8815 6.76989 29.8873 6.80066 29.56C6.82135 29.3383 6.84734 29.221 6.7423 28.9659C6.69031 28.8385 6.53753 28.7096 6.36564 28.6926C6.20278 28.6762 6.22559 28.6804 6.09243 28.6995C5.92373 28.7239 5.97095 28.6783 5.85158 28.7881ZM6.26273 29.942C6.40225 29.9388 6.56777 29.6269 6.56777 29.6269C6.59854 29.498 6.57731 29.3075 6.53275 29.186C6.51949 29.1489 6.51843 29.1266 6.5057 29.0916C6.47493 29.0046 6.56034 29.0847 6.34071 28.9521C6.28341 28.917 6.24946 28.9346 6.15397 28.9117C6.11153 29.1468 6.15981 29.429 6.19111 29.69C6.18846 29.7637 6.21869 29.89 6.26273 29.942V29.942ZM11.1158 27.8725C11.0516 28.142 11.1238 27.9542 11.1275 28.2168C11.1349 28.7144 11.1927 29.221 11.1986 29.7367C11.198 29.7383 11.1964 29.7441 11.1938 29.7468C11.1423 29.7499 11.2208 29.7913 11.1742 29.7202C11.0967 29.603 11.0325 29.5351 10.9529 29.3579C10.7768 28.9659 10.3731 28.3749 10.2797 28.012C10.1986 28.0115 10.163 28.0056 10.0818 28.0194C10.0007 28.0332 9.97309 28.0454 9.91845 28.0842C9.95665 28.1865 10.0426 28.2921 10.0824 28.3727C10.1423 28.4937 10.1641 30.4072 10.1317 30.5415C10.345 30.6492 10.241 30.5484 10.4506 30.5505C10.4877 30.3966 10.4023 30.2635 10.3943 30.1229C10.3895 30.0343 10.4044 29.9982 10.3874 29.9054C10.3567 29.7324 10.3816 29.8269 10.3768 29.672C10.3736 29.5632 10.3482 29.5871 10.3535 29.464C10.363 29.2438 10.2909 28.8826 10.4139 28.9468C10.4755 28.9786 10.4134 28.9346 10.4452 28.9791L11.0765 30.1696C11.1365 30.2884 11.1163 30.2125 11.1567 30.3611C11.2086 30.5542 11.2978 30.4667 11.4972 30.3935L11.4564 30.1043C11.4527 30.0438 11.4628 29.9972 11.4585 29.9367L11.3763 28.1945C11.3577 28.0534 11.4028 27.9934 11.3699 27.8656L11.1158 27.8725V27.8725ZM19.8538 27.3913C19.8241 27.5144 19.8533 27.4571 19.8713 27.5653C19.9334 27.9388 19.9281 29.1308 19.884 29.5351C19.8686 29.6762 19.8304 29.7499 19.8294 29.8826C19.9137 29.925 20.0618 29.9606 20.1594 29.9399C20.2315 29.8953 20.1493 29.733 20.1562 29.5728C20.1625 29.4205 20.1355 29.4958 20.1535 29.1489C20.162 28.9887 20.1201 29.0539 20.1652 28.8645L20.2087 28.8751C20.2076 28.9876 20.4464 29.4338 20.5074 29.5616L20.6543 29.8237C20.7403 29.9728 20.8554 29.9393 21.0029 29.9621C21.0002 29.8603 20.9159 29.7637 20.8702 29.6735L20.7169 29.3786C20.6883 29.3022 20.6946 29.3048 20.658 29.2295C20.6029 29.116 20.4915 28.8783 20.4883 28.7605L20.6628 28.594C20.736 28.5017 20.8161 28.16 20.796 28.0369L20.6586 27.5844C20.6559 27.5807 20.6522 27.5754 20.6496 27.5717C20.5281 27.412 20.3233 27.3632 20.127 27.3568C20.0262 27.3531 19.875 27.3027 19.8538 27.3913V27.3913ZM20.1482 27.6921C20.1201 27.8099 20.1705 28.2688 20.1567 28.4078C20.144 28.5388 20.1106 28.5993 20.2225 28.6269C20.2872 28.6428 20.2607 28.6237 20.2984 28.6003C20.3 28.5998 20.3626 28.5483 20.3716 28.5393C20.6039 28.308 20.5976 27.6873 20.196 27.5892C20.1732 27.6353 20.162 27.6337 20.1482 27.6921ZM29.8873 28.4863C29.8703 28.5558 29.8735 28.5956 29.8867 28.6529C29.9478 28.9186 29.7897 30.6141 29.7165 30.9186C29.8141 30.9717 29.7265 30.9622 29.8358 30.9924C29.8915 31.0072 29.9138 30.9977 29.9934 31.0104C30.2236 31.0465 30.4878 30.9924 30.6003 30.7664C30.699 30.5664 30.6825 30.7611 30.6809 30.4974C30.6804 30.4205 30.708 30.2858 30.6952 30.2115L30.5589 29.8698C30.5069 29.786 30.4639 29.7574 30.482 29.6391C30.5748 29.6375 30.5743 29.5993 30.6178 29.4995C30.7255 29.2507 30.7467 29.0009 30.6146 28.7637C30.5446 28.6385 30.5138 28.5786 30.3584 28.5319C30.2544 28.5006 29.9154 28.3674 29.8873 28.4863V28.4863ZM30.1541 28.7117L30.1011 29.4094C30.1069 29.4767 30.1064 29.5568 30.1196 29.62C30.2809 29.6449 30.4157 29.438 30.4565 29.2666C30.4809 29.1659 30.4496 29.0433 30.4321 28.9489C30.4029 28.7929 30.3127 28.691 30.1541 28.7117V28.7117ZM30.0448 30.7929C30.1218 30.8046 30.2173 30.8094 30.2703 30.7701C30.5807 30.5415 30.4608 29.8173 30.1372 29.7383C30.0188 29.7096 30.0677 29.8635 30.0735 29.9436C30.0814 30.0507 29.9886 30.5743 30.0448 30.7929V30.7929ZM25.5042 27.83C25.3949 28.0481 25.0188 28.7696 24.8719 28.9356C24.8114 28.8698 24.7414 28.733 24.7101 28.6465C24.6538 28.516 24.3281 27.804 24.3249 27.6799C24.1742 27.6433 24.1366 27.6767 24.0108 27.6491C23.9827 27.8348 24.1302 27.7234 24.1053 28.2014C24.0697 28.8014 24.0872 29.6269 23.9546 30.1781C24.1116 30.3064 24.3058 30.2454 24.3223 30.1759C24.3467 30.0741 24.309 30.0465 24.2963 29.9887C24.2952 29.9839 24.2936 29.9775 24.2925 29.9722C24.3085 29.5828 24.2761 28.8391 24.3546 28.5117C24.457 28.5674 24.7249 29.2911 24.7907 29.4656L24.8559 29.4815C25.0459 29.1791 25.2411 28.847 25.4517 28.5611C25.4247 28.7393 25.3971 29.5743 25.3599 29.9319C25.3069 30.4423 25.2448 30.3404 25.5997 30.3961C25.6639 30.2767 25.6618 30.2391 25.6342 30.0608C25.6485 29.4624 25.6135 28.6173 25.7493 28.0502C25.7827 27.9123 25.9292 27.7536 25.6416 27.8136C25.5833 27.8258 25.5716 27.8306 25.5042 27.83V27.83ZM16.3938 29.9611C16.3949 29.7436 16.475 29.2534 16.6315 29.1149C16.684 29.0682 16.9758 28.9834 17.0771 28.9844L17.0973 29.5648C17.1323 29.7855 16.9487 29.9239 17.2071 29.9383L17.7286 29.9133C17.8946 29.8884 17.9493 29.8735 17.9631 29.672C17.9859 29.3351 17.8718 29.6847 17.4013 29.6799C17.388 29.6274 17.3487 29.5372 17.344 29.4932C17.3334 29.4003 17.309 28.9011 17.3381 28.872C17.3906 28.8194 17.5413 28.7441 17.6777 28.777C17.7477 28.7945 17.8113 28.881 17.7657 28.5971C17.832 28.3208 17.6633 28.4513 17.6294 28.4576C17.1477 28.5441 17.3036 28.3966 17.2495 27.9802C17.1859 27.5043 17.2304 27.6391 17.6899 27.7112C17.7408 27.4995 17.7662 27.5064 17.7079 27.3494C17.5265 27.3096 17.2384 27.3924 17.0479 27.3849C16.8066 27.3754 16.8745 27.377 16.692 27.9478C16.5296 28.4422 16.3912 28.9292 16.2315 29.4247C16.1944 29.5155 16.1737 29.5579 16.1477 29.6491C16.0999 29.8163 15.9461 30.0656 16.1758 30.0003C16.3026 29.9643 16.3005 29.9844 16.3938 29.9611V29.9611ZM17.049 28.673L17.0103 27.8083L16.6973 28.7478L17.049 28.673ZM27.2512 28.004C27.1976 28.2263 27.2942 28.4714 27.2576 28.6465C27.1796 29.0237 27.2109 29.769 27.1615 30.2205C27.1515 30.3149 27.1202 30.4608 27.1196 30.5606C27.3334 30.6125 27.2995 30.5759 27.5408 30.6163C27.7785 30.656 27.9944 30.5017 28.1239 30.3043C28.3069 30.0263 28.2862 29.9993 28.3695 29.6513C28.4172 29.4513 28.3684 28.9218 28.282 28.725C28.2464 28.6433 28.2661 28.7255 28.2353 28.6428C28.1817 28.5006 28.2645 28.6094 28.1377 28.4619L28.1027 28.4094C28.1 28.4051 28.0974 28.3993 28.0947 28.3956L28.0772 28.3696C28.057 28.343 28.0395 28.3266 28.0141 28.2969C27.9631 28.238 27.7472 28.1022 27.7111 28.0932L27.2512 28.004V28.004ZM27.5674 28.3101C27.4963 28.3908 27.3812 29.9865 27.422 30.2847C27.4316 30.3515 27.3806 30.4152 27.604 30.3595C27.7674 30.3186 27.7944 30.2417 27.9096 30.1043C28.0279 29.9632 28.0607 29.7171 28.1037 29.5181C28.1424 29.3399 28.1106 29.3489 28.1016 29.2046C28.0814 28.8916 28.03 28.7404 27.857 28.5218C27.7207 28.3499 27.7255 28.3903 27.5674 28.3101V28.3101ZM11.7206 27.8364C11.7216 27.8757 11.7715 27.9712 11.7906 28.2746C11.8177 28.707 11.9057 29.4884 11.8691 29.8714C11.8543 30.0359 11.8405 30.0438 11.8458 30.2184C11.8474 30.2778 11.8484 30.3494 11.9174 30.3616C12.0479 30.3855 12.1344 30.3521 12.2198 30.3388C12.372 30.3149 12.3784 30.3059 12.5339 30.22L12.6612 30.1266C12.7434 30.0354 12.8087 29.9436 12.8479 29.8295C12.9232 29.6099 12.9126 29.812 12.9556 29.5049C13.024 29.021 13.0081 29.3383 12.9954 28.8343C12.9938 28.7802 12.9949 28.7616 12.9805 28.7139C12.9286 28.5409 12.9683 28.586 12.9158 28.4762C12.8156 28.2666 12.815 28.1685 12.5975 27.968C12.3991 27.7849 12.2049 27.8088 11.9837 27.7839C11.7795 27.7605 11.8553 27.8337 11.7206 27.8364V27.8364ZM12.0633 28.0348C12.0246 28.1961 12.0585 28.16 12.0553 28.2979C12.0755 28.7319 12.0835 29.1606 12.1068 29.5972C12.1073 29.6863 12.085 29.7643 12.1047 29.8576C12.1185 29.9213 12.1216 29.8964 12.1232 29.9754C12.1254 30.0608 12.1185 30.0391 12.1376 30.1144C12.24 30.0927 12.2633 30.1091 12.3938 29.9908C12.4256 29.9621 12.4384 29.9441 12.4728 29.9091C12.6585 29.7197 12.7429 29.2375 12.7323 29.0131C12.728 28.9282 12.7259 28.977 12.7158 28.9308C12.7057 28.8831 12.7057 28.8682 12.7052 28.8263C12.7031 28.6635 12.7063 28.7887 12.6617 28.6311C12.5848 28.3584 12.4824 28.2582 12.2909 28.099C12.2256 28.0449 12.1641 28.0215 12.0633 28.0348V28.0348ZM30.9775 29.4852C30.9117 29.7749 30.8825 30.1956 30.9695 30.5574C31.0332 30.8221 31.1589 31.055 31.3775 31.1823C31.4502 31.2237 31.5239 31.2911 31.595 31.308C31.7669 31.35 32.0316 31.2677 32.1865 31.0996C32.3844 30.8847 32.421 30.7335 32.4995 30.4062C32.5584 30.1606 32.5499 30.0778 32.5377 29.8836C32.5297 29.7568 32.5557 29.7558 32.5197 29.6359C32.4953 29.5552 32.4894 29.49 32.4645 29.411C32.4157 29.2576 32.3823 29.1494 32.2846 29.0216L32.0364 28.7844C31.5764 28.4534 31.0804 29.0576 30.9775 29.4852ZM31.6841 31.0322C31.7605 31.0507 31.7006 31.029 31.7669 31.0163C32.0815 30.9547 32.1881 30.7489 32.2618 30.4401C32.3085 30.2454 32.2968 29.8242 32.2486 29.6168C32.2268 29.5218 32.1998 29.464 32.1727 29.3855C32.125 29.247 32.0846 29.1881 31.9775 29.0979C31.9297 29.0576 31.9334 29.0465 31.8714 29.0141C31.6167 28.8804 31.3801 29.0932 31.2852 29.3558C31.221 29.5324 31.1913 29.7579 31.1669 29.943C31.1812 30.1165 31.187 30.4184 31.2597 30.5701C31.2815 30.6157 31.2926 30.6407 31.3138 30.6847C31.386 30.8359 31.5016 30.9876 31.6841 31.0322V31.0322ZM13.9668 29.8502C14.1736 29.9006 14.3291 29.8083 14.423 29.6322C14.5795 29.3388 14.5615 29.3632 14.5779 29.0343C14.5816 28.9552 14.5938 28.9011 14.5859 28.8263C14.5768 28.7505 14.5641 28.7192 14.5609 28.6385L14.5015 28.3791C14.4882 28.333 14.4851 28.3388 14.4665 28.2889L14.4182 28.1706C14.2729 27.9048 13.9535 27.7627 13.763 27.9515C13.588 28.1255 13.5572 28.256 13.5105 28.5017C13.475 28.6879 13.4771 28.9637 13.5095 29.1494C13.5508 29.3887 13.7089 29.7876 13.9668 29.8502V29.8502ZM34.7467 24.6067C34.7637 24.8438 34.786 25.0841 34.8083 25.3234C32.6724 24.1658 29.5021 23.8762 28.0501 25.6624C28.2676 28.1971 35.8857 28.6465 37.1213 27.2688C37.1966 27.1568 37.2481 27.038 37.2725 26.9112C37.4306 26.0794 36.377 25.1743 34.7467 24.6067ZM0.329529 27.2677C0.254197 27.1563 0.20274 27.0375 0.178867 26.9112C0.0202452 26.0794 1.07436 25.1743 2.70408 24.6067C2.68764 24.8438 2.66536 25.0841 2.64254 25.3234C4.77837 24.1658 7.94868 23.8762 9.40068 25.6624C9.1837 28.1977 1.56402 28.647 0.329529 27.2677Z" fill="#A7A7A7"/>
</svg>
