<svg width="189" height="47" viewBox="0 0 189 47" fill="none" xmlns="http://www.w3.org/2000/svg">
<path d="M62.4164 39.7641H59.1777V34.7226H62.3846V35.473H60.0754V36.8391H61.9305V37.5705H60.0754V38.9813H62.4164V39.7641ZM62.6302 38.5486L63.503 38.361C63.6072 38.8602 64.0092 39.1098 64.7082 39.1098C65.0263 39.1098 65.2719 39.0471 65.4442 38.9185C65.6157 38.7906 65.7003 38.6318 65.7003 38.4419C65.7003 38.3043 65.6618 38.1772 65.5847 38.0599C65.5061 37.9427 65.3391 37.8504 65.0837 37.7846L64.1309 37.5327C63.8045 37.4472 63.5634 37.3489 63.4078 37.24C63.2521 37.1303 63.1259 36.9752 63.033 36.7763C62.9393 36.5774 62.8917 36.364 62.8917 36.1371C62.8917 35.6871 63.0579 35.3255 63.3896 35.0532C63.7206 34.7809 64.1437 34.6447 64.6598 34.6447C65.0883 34.6447 65.4714 34.74 65.8091 34.9291C66.1454 35.1182 66.3615 35.3868 66.4537 35.7347L65.5983 35.9495C65.4676 35.5675 65.1608 35.3769 64.6787 35.3769C64.3976 35.3769 64.1845 35.4352 64.038 35.5532C63.8906 35.6719 63.8165 35.8217 63.8165 36.0047C63.8165 36.2922 64.0478 36.4942 64.5102 36.6099L65.358 36.8239C65.8719 36.954 66.2157 37.1469 66.3917 37.4019C66.567 37.6575 66.6547 37.9389 66.6547 38.246C66.6547 38.7407 66.4696 39.131 66.1008 39.4147C65.7321 39.6998 65.2545 39.8413 64.6674 39.8428C64.1732 39.8413 63.741 39.7369 63.3692 39.5274C62.9974 39.3179 62.7511 38.9926 62.6302 38.5486ZM70.1729 38.013L71.0056 38.1061C70.952 38.6106 70.7585 39.0266 70.426 39.3519C70.0943 39.6787 69.6583 39.8413 69.1165 39.8428C68.6617 39.8413 68.2914 39.7263 68.0088 39.4941C67.7239 39.2642 67.5063 38.9487 67.3529 38.5524C67.1995 38.1568 67.1232 37.7195 67.1232 37.2415C67.1232 36.4737 67.303 35.8482 67.6635 35.3671C68.0231 34.8852 68.5196 34.6447 69.149 34.6447C69.644 34.6447 70.0558 34.7983 70.3845 35.1069C70.7124 35.4147 70.9195 35.855 71.0056 36.4283L70.1729 36.5176C70.0195 35.7566 69.6802 35.3769 69.1566 35.3769C68.8211 35.3769 68.5596 35.5343 68.3738 35.8512C68.1879 36.1674 68.0949 36.6265 68.0949 37.2264C68.0949 37.8376 68.1947 38.2982 68.3942 38.6091C68.5929 38.9207 68.8574 39.0773 69.1868 39.0773C69.4498 39.0773 69.6727 38.9722 69.8586 38.7634C70.0429 38.5539 70.148 38.3043 70.1729 38.013ZM73.5151 39.8428C72.8531 39.8413 72.337 39.5902 71.9683 39.0887C71.6003 38.5856 71.4159 37.9654 71.4159 37.2264C71.4159 36.4926 71.6116 35.8784 72.003 35.386C72.396 34.8913 72.9136 34.6447 73.5551 34.6447C74.2034 34.6447 74.7158 34.8913 75.0913 35.386C75.4676 35.8784 75.6558 36.4964 75.6558 37.2377C75.6558 38.0153 75.4601 38.6446 75.0702 39.1242C74.6787 39.603 74.1611 39.8413 73.5151 39.8428ZM73.5226 39.1098C73.8468 39.1098 74.1203 38.9752 74.3447 38.7044C74.5692 38.4328 74.681 37.9427 74.681 37.2301C74.681 36.6515 74.5873 36.1976 74.4029 35.8701C74.2186 35.5411 73.9307 35.3769 73.5415 35.3769C72.7708 35.3769 72.3869 36.0032 72.3869 37.2566C72.3869 37.864 72.4844 38.3254 72.6816 38.6393C72.8773 38.954 73.1576 39.1098 73.5226 39.1098ZM79.5201 39.7641H76.453V34.7226H77.3982V38.9412H79.5201V39.7641ZM84.0531 39.7641H83.0934L82.6945 38.5637H80.7767L80.3868 39.7641H79.6198L81.2739 34.7226H82.3801L84.0531 39.7641ZM82.4534 37.8368L81.7265 35.5864L80.9996 37.8368H82.4534ZM86.4567 39.7641V34.7226H88.2944C88.9737 34.7226 89.5186 34.9662 89.9304 35.4526C90.3414 35.9382 90.5477 36.538 90.5477 37.2528C90.5477 37.9661 90.3354 38.5637 89.9115 39.0448C89.4891 39.5251 88.8816 39.7641 88.0927 39.7641H86.4567ZM87.3809 39.0221H88.1297C88.5317 39.0221 88.8717 38.8693 89.1521 38.5637C89.4324 38.2589 89.5722 37.8035 89.5722 37.2014C89.5722 36.7082 89.4506 36.2922 89.2057 35.9503C88.9601 35.6099 88.6375 35.4389 88.2363 35.4389H87.3809V39.0221ZM94.5805 39.7641H91.3419V34.7226H94.548V35.473H92.2396V36.8391H94.0947V37.5705H92.2396V38.9813H94.5805V39.7641ZM102.076 39.7641H101.16V35.3504L99.7793 39.7641H99.3085L97.9197 35.3504V39.7641H97.1867V34.7226H98.5914L99.6365 37.9692L100.663 34.7226H102.076V39.7641ZM106.376 39.7641H103.137V34.7226H106.343V35.473H104.035V36.8391H105.89V37.5705H104.035V38.9813H106.376V39.7641ZM107.085 39.7641V34.7226H108.923C109.602 34.7226 110.147 34.9662 110.559 35.4526C110.97 35.9382 111.176 36.538 111.176 37.2528C111.176 37.9661 110.964 38.5637 110.54 39.0448C110.118 39.5251 109.51 39.7641 108.721 39.7641H107.085ZM108.01 39.0221H108.758C109.16 39.0221 109.5 38.8693 109.781 38.5637C110.061 38.2589 110.201 37.8035 110.201 37.2014C110.201 36.7082 110.079 36.2922 109.834 35.9503C109.589 35.6099 109.266 35.4389 108.865 35.4389H108.01V39.0221ZM112.868 39.7641H111.971V34.7226H112.868V39.7641ZM116.711 38.013L117.545 38.1061C117.491 38.6106 117.298 39.0266 116.965 39.3519C116.633 39.6787 116.197 39.8413 115.656 39.8428C115.201 39.8413 114.831 39.7263 114.547 39.4941C114.263 39.2642 114.045 38.9487 113.891 38.5524C113.738 38.1568 113.662 37.7195 113.662 37.2415C113.662 36.4737 113.842 35.8482 114.202 35.3671C114.562 34.8852 115.059 34.6447 115.688 34.6447C116.183 34.6447 116.594 34.7983 116.924 35.1069C117.252 35.4147 117.459 35.855 117.545 36.4283L116.711 36.5176C116.559 35.7566 116.22 35.3769 115.696 35.3769C115.36 35.3769 115.098 35.5343 114.913 35.8512C114.727 36.1674 114.633 36.6265 114.633 37.2264C114.633 37.8376 114.733 38.2982 114.933 38.6091C115.132 38.9207 115.397 39.0773 115.725 39.0773C115.989 39.0773 116.212 38.9722 116.398 38.7634C116.582 38.5539 116.686 38.3043 116.711 38.013ZM119.116 39.7641H118.218V34.7226H119.116V39.7641ZM123.938 39.7641H123.066L121.173 36.5433C121.144 36.4942 121.097 36.4147 121.031 36.3035C121.001 36.2544 120.956 36.1765 120.896 36.0706V39.7641H120.173V34.7226H121.165L122.912 37.6916C122.926 37.7165 123.032 37.8973 123.23 38.2347V34.7226H123.938V39.7641ZM128.905 39.7641H127.945L127.546 38.5637H125.629L125.239 39.7641H124.472L126.127 34.7226H127.232L128.905 39.7641ZM127.305 37.8368L126.578 35.5864L125.852 37.8368H127.305ZM134.574 39.7641H131.335V34.7226H134.542V35.473H132.233V36.8391H134.088V37.5705H132.233V38.9813H134.574V39.7641ZM136.658 38.5486L137.531 38.361C137.635 38.8602 138.037 39.1098 138.736 39.1098C139.054 39.1098 139.299 39.0471 139.472 38.9185C139.643 38.7906 139.728 38.6318 139.728 38.4419C139.728 38.3043 139.689 38.1772 139.612 38.0599C139.534 37.9427 139.367 37.8504 139.111 37.7846L138.158 37.5327C137.832 37.4472 137.591 37.3489 137.435 37.24C137.28 37.1303 137.153 36.9752 137.061 36.7763C136.967 36.5774 136.919 36.364 136.919 36.1371C136.919 35.6871 137.085 35.3255 137.417 35.0532C137.748 34.7809 138.171 34.6447 138.687 34.6447C139.116 34.6447 139.499 34.74 139.837 34.9291C140.173 35.1182 140.389 35.3868 140.481 35.7347L139.626 35.9495C139.495 35.5675 139.188 35.3769 138.706 35.3769C138.425 35.3769 138.212 35.4352 138.066 35.5532C137.918 35.6719 137.844 35.8217 137.844 36.0047C137.844 36.2922 138.075 36.4942 138.538 36.6099L139.386 36.8239C139.899 36.954 140.243 37.1469 140.419 37.4019C140.595 37.6575 140.682 37.9389 140.682 38.246C140.682 38.7407 140.497 39.131 140.128 39.4147C139.76 39.6998 139.282 39.8413 138.695 39.8428C138.201 39.8413 137.769 39.7369 137.397 39.5274C137.025 39.3179 136.779 38.9926 136.658 38.5486ZM145.296 39.7641H144.337L143.938 38.5637H142.02L141.63 39.7641H140.863L142.517 34.7226H143.623L145.296 39.7641ZM143.696 37.8368L142.97 35.5864L142.243 37.8368H143.696ZM149.278 34.7226V37.9616C149.278 38.4003 149.23 38.7369 149.131 38.9737C149.034 39.2097 148.846 39.4139 148.568 39.5849C148.288 39.7566 147.948 39.8413 147.546 39.8428C147.141 39.8413 146.806 39.7679 146.544 39.6204C146.282 39.4729 146.094 39.2702 145.979 39.013C145.865 38.7558 145.808 38.4268 145.808 38.0282V34.7226H146.725V37.9616C146.725 38.4049 146.816 38.6961 147.001 38.8353C147.184 38.9752 147.398 39.0448 147.642 39.0448C147.922 39.0448 148.145 38.9699 148.313 38.8201C148.482 38.6711 148.565 38.3852 148.565 37.9616V34.7226H149.278ZM148.478 33.1152L148.718 33.6689L147.197 34.3194L147.043 33.9231L148.478 33.1152ZM150.239 39.7641V34.7226H152.076C152.756 34.7226 153.301 34.9662 153.712 35.4526C154.123 35.9382 154.329 36.538 154.329 37.2528C154.329 37.9661 154.117 38.5637 153.693 39.0448C153.27 39.5251 152.664 39.7641 151.874 39.7641H150.239ZM151.162 39.0221H151.912C152.313 39.0221 152.654 38.8693 152.934 38.5637C153.214 38.2589 153.354 37.8035 153.354 37.2014C153.354 36.7082 153.232 36.2922 152.988 35.9503C152.742 35.6099 152.419 35.4389 152.017 35.4389H151.162V39.0221ZM158.363 39.7641H155.123V34.7226H158.33V35.473H156.021V36.8391H157.876V37.5705H156.021V38.9813H158.363V39.7641ZM161.866 39.7641H160.968V34.7226H163.009C163.591 34.7226 164.022 34.8716 164.304 35.1674C164.584 35.4639 164.726 35.8141 164.726 36.2181C164.726 36.6795 164.574 37.0524 164.269 37.3376C163.966 37.6235 163.579 37.7657 163.111 37.7657H161.866V39.7641ZM161.866 36.9866H162.929C163.206 36.9866 163.418 36.9177 163.564 36.7801C163.711 36.6417 163.783 36.4586 163.783 36.2294C163.783 36.0221 163.716 35.8459 163.581 35.6969C163.445 35.5494 163.201 35.4768 162.848 35.4768H161.866V36.9866ZM168.833 34.7226V37.9616C168.833 38.4003 168.784 38.7369 168.685 38.9737C168.588 39.2097 168.4 39.4139 168.121 39.5849C167.843 39.7566 167.502 39.8413 167.101 39.8428C166.694 39.8413 166.36 39.7679 166.099 39.6204C165.836 39.4729 165.648 39.2702 165.533 39.013C165.419 38.7558 165.362 38.4268 165.362 38.0282V34.7226H166.279V37.9616C166.279 38.4049 166.37 38.6961 166.555 38.8353C166.738 38.9752 166.953 39.0448 167.196 39.0448C167.476 39.0448 167.699 38.9699 167.868 38.8201C168.036 38.6711 168.119 38.3852 168.119 37.9616V34.7226H168.833ZM168.032 33.1152L168.273 33.6689L166.751 34.3194L166.597 33.9231L168.032 33.1152ZM169.819 39.7641V34.7226H171.761C172.09 34.7226 172.362 34.7567 172.579 34.8263C172.796 34.8951 172.984 35.0388 173.141 35.2582C173.3 35.4775 173.379 35.7347 173.379 36.0297C173.379 36.3088 173.298 36.5509 173.139 36.7559C172.978 36.9616 172.756 37.0925 172.473 37.1492C172.825 37.2112 173.089 37.355 173.27 37.5819C173.45 37.8073 173.54 38.0758 173.54 38.3867C173.54 38.7755 173.414 39.1023 173.162 39.367C172.909 39.6318 172.522 39.7641 171.999 39.7641H169.819ZM170.669 36.8391H171.765C171.99 36.8391 172.166 36.771 172.296 36.6364C172.427 36.5002 172.492 36.3277 172.492 36.1182C172.492 35.8875 172.417 35.7173 172.268 35.6076C172.12 35.4979 171.947 35.4427 171.746 35.4427H170.669V36.8391ZM170.669 39.0062H171.831C172.076 39.0062 172.271 38.9427 172.413 38.8111C172.556 38.6817 172.627 38.5047 172.627 38.2831C172.627 38.0713 172.554 37.8981 172.41 37.7619C172.265 37.6273 172.073 37.5592 171.835 37.5592H170.669V39.0062ZM177.39 39.7641H174.324V34.7226H175.268V38.9412H177.39V39.7641ZM178.91 39.7641H178.013V34.7226H178.91V39.7641ZM182.754 38.013L183.587 38.1061C183.533 38.6106 183.34 39.0266 183.007 39.3519C182.676 39.6787 182.239 39.8413 181.698 39.8428C181.243 39.8413 180.873 39.7263 180.589 39.4941C180.305 39.2642 180.087 38.9487 179.934 38.5524C179.781 38.1568 179.705 37.7195 179.705 37.2415C179.705 36.4737 179.884 35.8482 180.244 35.3671C180.604 34.8852 181.101 34.6447 181.73 34.6447C182.225 34.6447 182.636 34.7983 182.966 35.1069C183.294 35.4147 183.501 35.855 183.587 36.4283L182.754 36.5176C182.601 35.7566 182.262 35.3769 181.738 35.3769C181.402 35.3769 181.14 35.5343 180.955 35.8512C180.769 36.1674 180.676 36.6265 180.676 37.2264C180.676 37.8376 180.775 38.2982 180.975 38.6091C181.174 38.9207 181.439 39.0773 181.767 39.0773C182.031 39.0773 182.254 38.9722 182.44 38.7634C182.624 38.5539 182.729 38.3043 182.754 38.013ZM188.135 39.7641H187.175L186.776 38.5637H184.859L184.469 39.7641H183.702L185.356 34.7226H186.462L188.135 39.7641ZM186.535 37.8368L185.809 35.5864L185.082 37.8368H186.535Z" fill="white"/>
<path fill-rule="evenodd" clip-rule="evenodd" d="M73.8683 18.0554C76.0128 19.3549 77.4538 21.7127 77.4538 24.3919C77.4538 28.4622 74.1267 31.7935 70.0599 31.7935H59.1426V19.1999V16.9904V8.95191C59.1426 7.6713 60.1853 6.62744 61.4639 6.62744H70.267C73.7209 6.62744 76.5462 9.45644 76.5462 12.914C76.5462 15.0328 75.4853 16.9155 73.8683 18.0554ZM69.4297 20.6734H63.6091V27.2693H69.4297C71.2417 27.2693 72.7243 25.7853 72.7243 23.9714V23.9706C72.7243 22.1567 71.2417 20.6734 69.4297 20.6734ZM69.5325 11.0079H63.6091V16.2914H69.5325C70.9841 16.2914 72.1711 15.1024 72.1711 13.6493C72.1711 12.1962 70.9841 11.0079 69.5325 11.0079Z" fill="white"/>
<path fill-rule="evenodd" clip-rule="evenodd" d="M124.554 31.7935H119.844V9.30749C119.844 7.83096 121.047 6.62598 122.522 6.62598H124.554V31.7935Z" fill="white"/>
<path fill-rule="evenodd" clip-rule="evenodd" d="M103.53 31.7935H98.8203V9.30749C98.8203 7.83096 100.023 6.62598 101.499 6.62598H103.53V16.06H112.641V6.62598C114.213 6.62598 115.78 6.62598 117.351 6.62598V31.7935H112.641V20.5305H103.53V31.7935Z" fill="white"/>
<path fill-rule="evenodd" clip-rule="evenodd" d="M151.545 31.7935H146.834V9.30749C146.834 7.83096 148.038 6.62598 149.513 6.62598C150.263 6.62598 151.013 6.62598 151.763 6.62598L160.655 23.0781V6.62598C162.226 6.62598 163.793 6.62598 165.365 6.62598V31.7935H160.655V31.7731L151.545 14.9163V31.7935Z" fill="white"/>
<path fill-rule="evenodd" clip-rule="evenodd" d="M98.196 31.7935H93.2474L91.7905 26.5288H82.9731L81.517 31.7935H76.5684L83.7514 8.63951C84.1096 7.48522 85.0994 6.70989 86.2873 6.63425L86.48 6.62744H88.4786H90.3888L98.196 31.7935ZM90.6329 22.3443L87.3822 11.1977L84.1307 22.3443H90.6329Z" fill="white"/>
<path fill-rule="evenodd" clip-rule="evenodd" d="M146.565 31.7935H141.617L140.16 26.5288H131.343L129.886 31.7935H124.938L132.121 8.63951C132.479 7.48522 133.469 6.70989 134.656 6.63425L134.849 6.62744H136.848H138.758L146.565 31.7935ZM139.002 22.3443L135.751 11.1977L132.5 22.3443H139.002Z" fill="white"/>
<path fill-rule="evenodd" clip-rule="evenodd" d="M188.165 31.7935H183.216L181.76 26.5288H172.943L171.486 31.7935H166.537L173.72 8.63951C174.078 7.48522 175.069 6.70989 176.256 6.63425L176.449 6.62744H178.448H180.358L188.165 31.7935ZM180.602 22.3443L177.351 11.1977L174.1 22.3443H180.602Z" fill="white"/>
<path fill-rule="evenodd" clip-rule="evenodd" d="M10.7637 0H42.5727L42.5493 0.989392C42.4231 6.39173 42.2651 11.7933 42.0067 17.1919C41.7506 22.5458 41.3909 27.8899 40.9451 33.2317L40.9005 33.765L40.4244 34.0101C32.1321 38.2808 21.2035 38.2808 12.9112 34.0101L12.4359 33.765L12.3913 33.2317C11.9455 27.8899 11.5858 22.5458 11.3296 17.1919C11.0712 11.7933 10.9133 6.39173 10.7871 0.989392L10.7637 0ZM26.6682 18.0126L31.0516 22.9603C30.1138 23.8022 29.5237 25.0238 29.5237 26.3839C29.5237 28.9247 31.5813 30.9836 34.1187 30.9836C35.2793 30.9836 36.3395 30.5525 37.148 29.8415L39.9914 33.0509L39.9831 33.1508C35.9564 35.2249 31.2768 36.2559 26.6002 36.246H26.6682V18.0126H12.3361C12.0686 12.6382 11.9001 7.2775 11.7543 1.08016L16.2949 6.23591C15.3005 7.07932 14.6688 8.33875 14.6688 9.74645C14.6688 12.2865 16.7256 14.3455 19.263 14.3455C20.4614 14.3455 21.5526 13.8863 22.3709 13.1337L26.6682 18.0126H41.0002C41.2692 12.605 41.4385 7.21245 41.5843 0.9667H26.6682H11.752H26.5707H26.6682V18.0126ZM31.0516 22.9603C31.7558 22.3279 32.6558 21.9097 33.6502 21.8083V20.6003H32.3392V19.6623H33.6502V18.4906H34.5872V19.6623H35.8974V20.6003H34.5872V21.8083C36.9047 22.0435 38.7129 24.0027 38.7129 26.3839C38.7129 27.7621 38.1069 28.9988 37.148 29.8415L31.0516 22.9603ZM34.2774 4.21552H34.9257C35.0118 4.21552 35.0821 4.28511 35.0814 4.37134L35.0632 6.47342C35.7282 6.00671 36.2685 5.44318 36.2609 4.55817C36.2533 3.72611 35.608 3.02037 34.399 2.97423C33.5217 2.94095 32.745 3.34336 32.745 3.34336C32.5795 3.53928 32.6399 4.02036 32.6399 4.02036C31.6032 4.57708 30.6708 4.30629 30.6708 4.30629C30.8816 3.53928 31.6629 2.63612 31.8435 2.78664C32.0233 2.93717 32.4744 2.86228 32.4744 2.86228C33.8618 1.9977 36.6448 2.08922 37.5349 3.7072C38.7326 5.88342 36.4158 7.39474 34.7746 8.26689C33.7159 8.82891 33.0767 9.43103 33.2422 10.0725C33.3547 10.5074 33.7303 10.8357 34.1905 11.0982L34.1693 9.04752C34.4353 8.8153 34.8161 8.64661 35.0451 8.56341L34.9733 16.6919C34.9726 16.7781 34.903 16.8485 34.8176 16.8485H34.4051C34.3197 16.8485 34.2502 16.7781 34.2494 16.6919L34.2018 12.1435C33.125 11.7683 32.0203 11.2071 31.8828 10.2298C31.7324 9.16022 32.5409 8.22302 33.428 7.53468C33.6457 7.366 33.8928 7.20942 34.1489 7.05209L34.1217 4.37134C34.121 4.28511 34.1912 4.21552 34.2774 4.21552ZM35.2635 12.4748C35.3957 12.5134 35.5204 12.5505 35.6352 12.5853C36.6221 12.8871 35.7478 13.5134 35.4244 13.9756C34.8222 14.8364 34.7768 16.0988 35.9617 16.4181C34.9045 15.5648 35.5053 14.735 36.3002 14.0921C36.6795 13.7857 37.0581 13.4189 37.1027 13.0066C37.1571 12.4968 36.6553 12.1594 36.0554 11.8962C35.8362 11.8001 35.5619 11.6995 35.2695 11.5868L35.2635 12.4748ZM22.3709 13.1337C23.2845 12.2926 23.858 11.0868 23.858 9.74645C23.858 7.36449 22.049 5.40536 19.7315 5.17087V3.96212H21.0425V3.02416H19.7315V1.85247H18.7945V3.02416H17.4835V3.96212H18.7945V5.17087C17.847 5.26694 16.984 5.6512 16.2949 6.23591L22.3709 13.1337ZM19.9091 21.6457H20.5574C20.6435 21.6457 20.7146 21.716 20.7138 21.8015L20.6949 23.9036C21.3599 23.4376 21.9009 22.8733 21.8926 21.9891C21.885 21.1563 21.2397 20.4505 20.0307 20.4044C19.1542 20.3711 18.3774 20.7735 18.3774 20.7735C18.2119 20.9694 18.2716 21.4505 18.2716 21.4505C17.2349 22.0072 16.3032 21.7364 16.3032 21.7364C16.5133 20.9694 17.2946 20.067 17.4752 20.2168C17.6558 20.3673 18.1069 20.2924 18.1069 20.2924C19.4935 19.4286 22.2772 19.5201 23.1673 21.1373C24.3643 23.3136 22.0475 24.8249 20.4063 25.697C19.3476 26.2591 18.7084 26.8619 18.8739 27.5026C18.9864 27.9375 19.3627 28.2658 19.8229 28.5283L19.801 26.4777C20.067 26.2454 20.4478 26.0768 20.6768 25.9936L20.6058 34.1228C20.605 34.2083 20.5355 34.2786 20.4493 34.2786H20.0368C19.9514 34.2786 19.8819 34.2083 19.8811 34.1228L19.8335 29.5737C18.7575 29.1985 17.6528 28.6372 17.5152 27.6599C17.3649 26.5911 18.1734 25.6532 19.0597 24.9656C19.2774 24.7969 19.5252 24.6396 19.7814 24.4822L19.7534 21.8015C19.7527 21.716 19.8237 21.6457 19.9091 21.6457ZM20.8952 29.905C21.0274 29.9436 21.1528 29.9806 21.2677 30.0154C22.2545 30.318 21.3795 30.9436 21.0569 31.4057C20.4539 32.2665 20.4093 33.5298 21.5934 33.8482C20.5362 32.995 21.1377 32.1652 21.9319 31.523C22.3112 31.2159 22.6905 30.849 22.7344 30.4368C22.7895 29.9269 22.287 29.5903 21.6871 29.3263C21.4687 29.2303 21.1936 29.1304 20.902 29.017L20.8952 29.905Z" fill="white"/>
<path fill-rule="evenodd" clip-rule="evenodd" d="M42.0426 39.127C41.8152 39.009 41.5961 38.8819 41.386 38.7465C39.7591 37.6943 39.5868 36.8426 39.6556 35.0454C39.7244 33.2572 40.1022 31.3434 40.6772 29.7716L40.7142 29.6695L40.8178 29.6332C42.2527 29.1287 44.0126 29.0243 45.5193 29.1302C47.3343 29.2572 49.2158 29.7126 50.8268 30.5749L51.154 30.7504L50.8533 30.9675C49.9276 31.6332 49.4062 33.7504 49.4773 34.832C50.177 35.0847 51.0807 35.4818 51.6739 35.8646C52.3736 36.3177 53.229 37.0589 53.3333 37.9485C53.3438 38.1164 53.3484 38.2435 53.3166 38.4137C53.0559 39.7798 52.2792 41.4984 51.8915 42.9166C51.6384 43.8425 51.3482 45.0626 50.647 45.7547C49.7485 46.642 48.3506 46.5293 47.2119 46.3122C42.5058 45.4159 37.7839 44.5649 33.003 44.1904C31.0203 44.0346 29.0216 43.9696 27.0336 43.962C25.0417 43.9537 23.0416 44.0044 21.0542 44.1383C16.0361 44.4764 11.0663 45.372 6.13206 46.3122C4.99332 46.5293 3.59541 46.642 2.69697 45.7547C1.99574 45.0626 1.70558 43.8425 1.45244 42.9166C1.12828 41.7306 -0.0134808 39.1391 0.000120496 38.1073L0.0107004 37.9485C0.114222 37.0589 0.969594 36.3177 1.67006 35.8646C2.26248 35.4818 3.13901 35.065 3.83797 34.8124C3.91126 33.6974 3.44126 31.6513 2.49068 30.9675L2.18918 30.7504L2.51637 30.5749C4.12813 29.7126 6.00965 29.2572 7.82392 29.1302C9.3314 29.0243 11.0913 29.1287 12.5262 29.6332L12.629 29.6695L12.6668 29.7716C13.2735 31.4319 13.6612 33.4743 13.6967 35.3457C13.7284 37.0173 13.4466 37.7836 11.9572 38.7465C11.7441 38.8842 11.5205 39.0135 11.2885 39.1338C14.475 38.7208 17.6532 38.2049 20.8472 37.86C22.9448 37.6338 25.0402 37.5151 27.1499 37.5378C29.2589 37.5604 31.355 37.7216 33.4496 37.9674C35.5518 38.214 37.6471 38.5181 39.744 38.8116C40.5087 38.919 41.2749 39.0264 42.0426 39.127ZM18.9324 40.3017C18.804 40.8365 18.7738 40.9946 18.8221 41.5286C18.8334 41.6512 18.8365 41.599 18.8584 41.6905C18.943 42.0445 19.0178 42.3743 19.2475 42.6655C19.3193 42.7563 19.5445 42.9333 19.6669 42.9628C19.945 43.0309 20.0477 43.0838 20.3251 42.9658C20.548 42.8713 20.7852 42.6088 20.8978 42.4C21.021 42.1723 21.1789 41.4257 21.1759 41.1996L21.061 40.3206C20.9182 39.9356 20.6507 39.3751 20.1996 39.2934C19.5725 39.1792 19.3397 39.5975 19.1304 39.8516C19.0193 39.987 18.9793 40.1043 18.9324 40.3017ZM30.7543 42.7623C30.7558 42.4915 30.6923 42.6534 30.7067 42.4227C30.6832 41.6451 30.6319 40.4946 30.7127 39.7049C30.7248 39.1542 30.9553 39.1459 30.5261 39.0793C30.1331 39.0181 30.3477 39.2752 30.3508 39.8471C30.3538 40.5634 30.3681 41.4999 30.3062 42.1927C30.2964 42.3047 30.2004 42.6746 30.2624 42.7449C30.3062 42.7941 30.6719 42.7797 30.7543 42.7623ZM40.8812 40.3025C40.8533 40.4174 40.9213 40.5438 40.9115 40.7056C40.8616 41.4704 40.95 42.7744 40.7732 43.4772C40.6576 43.9363 40.7225 43.8894 41.0482 43.9688L41.8492 44.0331C41.8575 44.0286 42.0079 43.816 41.9527 43.6012C41.6686 43.5982 41.6837 43.7222 41.191 43.6443C41.0981 43.3932 41.1117 43.4567 41.1563 43.0861C41.1797 42.8894 41.1298 42.6723 41.1721 42.4961C41.1978 42.3902 41.2235 42.3826 41.2545 42.2881C41.5802 42.3675 41.5689 42.5362 41.6958 42.4552C41.723 42.4386 41.8802 42.2389 41.8371 42.0384C41.5681 41.9787 41.5643 42.0959 41.213 41.9182L41.2454 41.4242C41.2394 41.2442 41.1774 40.6035 41.4774 40.6761C41.9217 40.7851 41.859 41.2661 42.06 40.4265C41.6165 40.3183 41.6709 40.394 41.4185 40.3645C41.2991 40.3509 40.9084 40.1898 40.8812 40.3025ZM6.15171 44.4333C6.13433 44.5044 6.03987 44.6564 5.9968 44.6957C5.69531 44.9756 5.47693 44.3864 5.3923 44.7381C5.35678 44.8864 5.41875 44.6768 5.42555 44.9817C5.42857 45.1186 5.39759 45.288 5.69682 45.2351C6.53934 45.0868 6.74412 44.0951 6.35421 43.4923C6.1978 43.2502 5.85097 43.1088 5.66282 42.8864C5.24873 42.3985 5.65299 41.9507 5.71873 41.9212C5.92049 41.8319 6.12299 42.0997 6.16531 41.9212C6.29754 41.369 5.59254 41.3206 5.35829 41.7003C5.03186 42.2291 4.99786 42.928 5.45955 43.406C5.5729 43.524 6.2847 43.8773 6.15171 44.4333ZM6.82044 41.2321C6.74639 41.3236 7.0033 44.9196 7.063 44.9196L7.83752 44.7858C7.95237 44.7532 8.03247 44.7494 8.13977 44.7222C8.16168 44.6314 8.20249 44.3084 8.18889 44.2449C8.02114 44.2222 8.05816 44.3531 7.62821 44.4862C7.52091 44.5187 7.50428 44.49 7.40681 44.5112C7.30631 44.2389 7.28742 43.5588 7.28666 43.2404C7.44308 43.1292 7.46348 43.1526 7.71737 43.2147C7.81183 43.1284 7.78916 43.2018 7.82845 43.0891C7.94104 42.7714 7.94104 42.7124 7.53602 42.7903C7.13932 42.8667 7.23452 42.7215 7.23679 42.5853L7.15519 41.608L7.85943 41.5324C7.87455 41.4658 7.85716 41.1807 7.83147 41.1375L6.82044 41.2321ZM37.0895 39.7692C37.0933 39.8955 37.088 39.7707 37.1114 39.8607C37.1348 39.9477 37.1265 39.8728 37.1318 39.9537C37.2043 41.0362 37.023 41.9167 37.0381 42.9363C37.0434 43.3357 36.9844 43.1549 36.9784 43.3675C37.156 43.4567 37.4386 43.462 37.6169 43.4666C38.1859 43.4824 38.1496 43.6594 38.2773 43.1292C38.3219 42.9401 38.1118 43.0657 38.0113 43.0808C37.6388 43.1375 37.8005 43.1761 37.4688 43.0952C37.3524 43.0664 37.3985 42.8992 37.4144 42.7858C37.4612 42.4522 37.3509 42.0089 37.5557 41.7767L37.9705 41.9492C38.0582 41.8387 38.198 41.509 38.0839 41.481C37.8836 41.4326 37.6849 41.4083 37.5368 41.4462C37.4408 41.186 37.4816 40.45 37.5549 40.1436C37.9539 40.2314 37.7136 40.1481 38.096 40.341C38.2448 40.2034 38.2176 40.2412 38.2773 39.9931C38.3363 39.745 37.5905 39.8078 37.4136 39.7828C37.2973 39.7669 37.1839 39.7488 37.0895 39.7692ZM31.3331 42.3289L31.2628 42.2442C31.2598 42.2419 31.2522 42.2359 31.2492 42.2344C31.1555 42.167 31.1268 42.2616 31.1162 42.4061C31.0981 42.6466 31.0573 42.869 31.395 42.9514C31.4895 42.9749 31.4177 42.925 31.686 42.9113C31.89 42.9008 32.0381 42.7933 32.1378 42.6201C32.4582 42.0649 32.363 41.5445 32.0154 41.0717C32.0109 41.0664 32.0033 41.0604 31.9988 41.0551L31.9202 40.9719C31.7721 40.8289 31.5114 40.5748 31.4751 40.3698C31.3686 40.1194 31.4971 39.4356 31.9618 39.7072C32.1393 39.8115 32.1038 39.9938 32.2308 39.4643C32.292 39.2079 31.4842 38.9462 31.219 39.6141C31.049 40.0415 30.9908 40.6429 31.284 41.0173C31.5545 41.363 31.7041 41.4023 31.8356 41.6814C32.0887 42.22 31.6724 42.726 31.3331 42.3289ZM11.157 43.1723C11.0633 43.071 11.0104 42.8705 10.9621 42.7381C10.9326 42.6564 10.9333 42.6307 10.9175 42.5543L10.7218 41.9098C10.6341 41.5952 10.5215 41.2374 10.483 40.922C10.4694 40.8123 10.446 40.6761 10.4082 40.5725C10.3077 40.5982 10.2774 40.6224 10.1528 40.627C9.85354 40.6383 9.87621 40.6723 9.98653 40.9083C10.3976 41.8955 10.7323 43.13 11.0588 44.136C11.3776 44.2268 11.2975 43.9423 11.4139 43.4635L11.6323 42.4083C11.6557 42.257 11.6905 42.0884 11.7199 41.9068C11.7464 41.7427 11.726 41.6179 11.7691 41.4288C11.8129 41.2374 12.0622 40.4212 11.9534 40.3947C11.556 40.2972 11.528 40.4621 11.556 40.7419C11.5847 41.0354 11.3739 41.897 11.3119 42.3667C11.2726 42.67 11.2424 42.9136 11.157 43.1723ZM12.2406 43.0127L12.1612 43.2759C12.1242 43.4613 11.933 43.8886 11.9806 43.9613C12.0479 44.0104 12.1952 44.0021 12.2957 43.962C12.4506 43.9 12.4355 43.8032 12.4529 43.6481C12.493 43.2979 12.5821 43.0853 12.6539 42.7865C12.7665 42.7586 13.2901 42.6481 13.399 42.6746C13.5131 42.7026 13.5486 42.8985 13.5992 43.0271C13.8856 43.7517 13.5576 43.838 14.3095 43.6481L13.8478 42.6118C13.8108 42.5195 13.8123 42.4817 13.7798 42.3894C13.7556 42.3198 13.7178 42.251 13.6899 42.1814L13.0604 40.4568C13.0075 40.3214 12.9985 40.3751 12.8987 40.2662L12.3116 42.7026C12.2799 42.8017 12.2768 42.7744 12.2602 42.8501C12.2519 42.8887 12.2587 42.9371 12.2406 43.0127ZM12.9259 41.5142C12.8572 41.8009 12.7468 42.1027 12.7952 42.3312C12.9297 42.3282 12.7945 42.3297 12.9146 42.3108C13.0536 42.2896 13.2335 42.3365 13.2864 42.1897C13.3007 42.1519 13.0771 41.4764 13.0174 41.4053C12.9667 41.4522 12.9426 41.4447 12.9259 41.5142ZM27.8194 42.4711C27.8889 42.1814 27.7998 42.4477 27.799 42.0354C27.799 41.6875 27.7824 41.2487 27.8345 40.9068C27.5459 40.7608 27.6365 40.8531 27.403 40.8009C27.3101 41.189 27.3826 41.0702 27.4129 41.2692C27.431 41.3872 27.4718 42.018 27.3819 42.1375C27.3169 42.223 27.2859 42.2177 27.1779 42.2374C26.6996 42.3244 26.5265 42.0876 26.3338 41.7692C26.2122 41.5695 26.2099 41.4204 26.1517 41.2215C26.123 41.1232 26.1117 40.6012 26.1525 40.4311C26.3202 39.7299 26.2107 39.9893 26.4253 39.717C26.5001 39.6217 26.5076 39.5869 26.6217 39.5241L26.8575 39.4364C27.1129 39.4182 27.4371 39.5468 27.6456 39.6519C27.7053 39.4712 27.697 39.5218 27.6751 39.3184C27.6449 39.0491 27.7665 39.0937 27.2852 38.9757C27.2421 38.9659 26.8431 38.9636 26.7086 39.0211C26.5311 39.0967 26.3935 39.1361 26.2666 39.2858C26.0739 39.5128 26.1993 39.2541 26.0459 39.6118C25.9734 39.7798 25.8208 39.9348 25.7611 40.4061C25.7195 40.7283 25.7195 40.4416 25.7392 40.8146C25.7505 41.0203 25.6674 41.0233 25.7361 41.2381C25.7845 41.3894 25.7497 41.4598 25.7868 41.6027C25.8449 41.8274 25.9424 42.0543 26.0663 42.2487C26.2688 42.5649 26.7895 42.7737 27.1408 42.7359C27.233 42.7253 27.2217 42.7101 27.3214 42.6874C27.4287 42.6632 27.7914 42.5868 27.8194 42.4711ZM46.8636 41.3705C46.8197 41.5551 46.884 41.6375 46.8892 41.7767C46.884 42.428 46.8152 43.4113 46.7729 44.0346L46.6422 44.7207C46.5991 45.0142 46.7018 44.9 47.0766 44.9824C47.1446 44.6972 47.1016 44.8599 47.0759 44.7192L47.1227 43.4265C47.3781 43.7048 47.332 43.816 47.4242 44.0324L47.6872 44.6632C47.7431 44.7653 47.8716 45.0792 47.9622 45.1012C48.4186 45.2124 48.1285 44.8932 48.0438 44.6829C48.0121 44.605 47.9993 44.5664 47.9683 44.4915L47.6396 43.6375C47.5791 43.487 47.5799 43.5634 47.6298 43.3539C47.666 43.2018 47.6351 43.3803 47.8179 43.1897C48.1013 42.8947 48.1557 42.3667 48.0325 41.9757C47.9501 41.7139 47.8413 41.5687 47.5927 41.453C47.2391 41.2873 47.4681 41.363 47.097 41.3229C47.0079 41.313 46.8855 41.2813 46.8636 41.3705ZM47.1583 43.1413C47.4847 43.2132 47.6857 42.8478 47.7235 42.6912C47.7854 42.4325 47.7756 42.0354 47.567 41.8115C47.4711 41.7079 47.425 41.7034 47.2512 41.661C47.1484 41.8667 47.1605 42.8213 47.1583 43.1413ZM8.33472 41.0468C8.33095 41.6965 8.56443 43.3183 8.62564 44.0838C8.63622 44.2199 8.56292 44.431 8.56217 44.5966L9.06164 44.5558L9.01177 44.2169C9.00195 44.1587 8.98154 44.1171 8.9687 44.0588L8.91807 43.7207C8.90522 43.5188 8.87802 43.2767 8.91656 43.1156C8.94527 42.9976 8.90976 43.102 8.97021 43.0309L9.20672 43.4393C9.25508 43.5188 9.28757 43.5709 9.33593 43.6504C9.36087 43.6912 9.37069 43.7063 9.39336 43.7472L9.75606 44.2646C9.86412 44.3894 9.94648 44.4824 10.1747 44.2721L9.71148 43.5793C9.66765 43.5074 9.33895 42.8531 9.345 42.8281C9.39865 42.6058 9.64272 42.6141 9.68655 42.1474C9.71602 41.8312 9.75304 41.664 9.60343 41.3002C9.52937 41.1186 9.31175 40.9348 9.06693 40.9106C8.83495 40.8872 8.86744 40.8932 8.67778 40.9205C8.43749 40.9552 8.50474 40.8902 8.33472 41.0468ZM8.92034 42.692C9.11907 42.6875 9.35482 42.2427 9.35482 42.2427C9.39865 42.0589 9.36842 41.7873 9.30495 41.6141C9.28606 41.5611 9.28455 41.5294 9.26642 41.4794C9.22259 41.3554 9.34424 41.4696 9.03141 41.2805C8.9498 41.2306 8.90145 41.2555 8.76543 41.223C8.70498 41.5581 8.77375 41.9605 8.81833 42.3327C8.81455 42.4378 8.85762 42.6179 8.92034 42.692ZM15.8328 39.7412C15.7414 40.1255 15.8442 39.8577 15.8495 40.2321C15.86 40.9416 15.9424 41.664 15.9507 42.3993C15.95 42.4015 15.9477 42.4098 15.9439 42.4136C15.8706 42.4182 15.9825 42.4772 15.916 42.3758C15.8056 42.2086 15.7142 42.1118 15.6009 41.8592C15.35 41.3002 14.775 40.4575 14.642 39.9401C14.5264 39.9394 14.4757 39.9311 14.3601 39.9507C14.2445 39.9704 14.2052 39.9878 14.1274 40.043C14.1818 40.189 14.3042 40.3395 14.3609 40.4545C14.4463 40.627 14.4772 43.3554 14.4311 43.5467C14.7349 43.7003 14.5868 43.5566 14.8853 43.5596C14.9382 43.3402 14.8165 43.1504 14.8052 42.9499C14.7984 42.8236 14.8195 42.7722 14.7954 42.6398C14.7515 42.3932 14.787 42.5278 14.7802 42.307C14.7757 42.1519 14.7394 42.1859 14.747 42.0105C14.7606 41.6965 14.6578 41.1814 14.8331 41.2729C14.9208 41.3183 14.8324 41.2555 14.8777 41.3191L15.7769 43.0165C15.8623 43.1859 15.8336 43.0778 15.891 43.2896C15.9651 43.5649 16.092 43.4401 16.3761 43.3357L16.318 42.9234C16.3127 42.8372 16.327 42.7706 16.321 42.6844L16.2039 40.2003C16.1774 39.9991 16.2416 39.9137 16.1948 39.7314L15.8328 39.7412ZM28.2788 39.0551C28.2365 39.2306 28.2781 39.1489 28.3038 39.3032C28.3922 39.8358 28.3846 41.5354 28.3219 42.1118C28.3 42.313 28.2456 42.4182 28.2441 42.6073C28.3642 42.6678 28.575 42.7185 28.7141 42.689C28.8168 42.6254 28.6997 42.394 28.7095 42.1655C28.7186 41.9484 28.6801 42.0558 28.7058 41.5611C28.7178 41.3327 28.6582 41.4257 28.7224 41.1557L28.7843 41.1708C28.7828 41.3312 29.1229 41.9673 29.2098 42.1496L29.4191 42.5233C29.5415 42.7359 29.7055 42.6882 29.9155 42.7207C29.9117 42.5755 29.7916 42.4378 29.7266 42.3092L29.5082 41.8887C29.4674 41.7797 29.4765 41.7835 29.4244 41.6761C29.3458 41.5142 29.1871 41.1754 29.1826 41.0074L29.4312 40.7699C29.5354 40.6383 29.6495 40.1512 29.6208 39.9757L29.4251 39.3305C29.4213 39.3252 29.416 39.3176 29.4123 39.3123C29.2392 39.0846 28.9476 39.015 28.668 39.006C28.5244 39.0007 28.3091 38.9288 28.2788 39.0551ZM28.6982 39.484C28.6582 39.6519 28.7299 40.3062 28.7103 40.5044C28.6922 40.6913 28.6446 40.7775 28.804 40.8168C28.8962 40.8395 28.8584 40.8123 28.912 40.779C28.9143 40.7782 29.0035 40.7049 29.0163 40.692C29.3473 40.3622 29.3382 39.4772 28.7662 39.3373C28.7337 39.4031 28.7178 39.4008 28.6982 39.484ZM42.5701 40.6164C42.5459 40.7155 42.5504 40.7722 42.5693 40.8539C42.6562 41.2329 42.431 43.6504 42.3267 44.0845C42.4658 44.1602 42.3411 44.1466 42.4968 44.1897C42.5761 44.2109 42.6078 44.1973 42.7212 44.2154C43.0491 44.2668 43.4254 44.1897 43.5856 43.8675C43.7262 43.5823 43.7028 43.8599 43.7005 43.484C43.6997 43.3743 43.739 43.1821 43.7209 43.0762L43.5267 42.5891C43.4526 42.4696 43.3914 42.4288 43.4171 42.2601C43.5494 42.2578 43.5486 42.2033 43.6106 42.0611C43.764 41.7064 43.7942 41.3501 43.606 41.012C43.5063 40.8335 43.4625 40.748 43.2411 40.6814C43.093 40.6368 42.6101 40.4469 42.5701 40.6164ZM42.9501 40.9379L42.8746 41.9325C42.8829 42.0286 42.8821 42.1428 42.901 42.2328C43.1307 42.2684 43.3227 41.9734 43.3809 41.7291C43.4156 41.5853 43.371 41.4106 43.3461 41.276C43.3045 41.0536 43.1761 40.9084 42.9501 40.9379ZM42.7945 43.9053C42.9041 43.9219 43.0401 43.9287 43.1156 43.8728C43.5577 43.5467 43.3869 42.5142 42.926 42.4015C42.7575 42.3607 42.827 42.58 42.8353 42.6943C42.8466 42.847 42.7144 43.5936 42.7945 43.9053ZM36.327 39.6807C36.1714 39.9916 35.6356 41.0203 35.4263 41.2571C35.3402 41.1633 35.2404 40.9681 35.1959 40.8448C35.1158 40.6587 34.6518 39.6436 34.6473 39.4666C34.4327 39.4144 34.379 39.4621 34.1999 39.4227C34.1599 39.6875 34.37 39.5286 34.3344 40.2102C34.2838 41.0657 34.3088 42.2427 34.1198 43.0286C34.3435 43.2116 34.6201 43.1247 34.6435 43.0256C34.6783 42.8803 34.6246 42.841 34.6065 42.7586C34.605 42.7517 34.6027 42.7427 34.6012 42.7351C34.6239 42.1799 34.5778 41.1194 34.6896 40.6527C34.8354 40.7321 35.217 41.7639 35.3107 42.0127L35.4037 42.0354C35.6742 41.6043 35.9523 41.1307 36.2522 40.723C36.2137 40.9772 36.1744 42.1678 36.1215 42.6776C36.0459 43.4053 35.9575 43.2601 36.4631 43.3395C36.5545 43.1693 36.5515 43.1156 36.5122 42.8614C36.5326 42.0082 36.4827 40.8032 36.6761 39.9946C36.7238 39.7979 36.9323 39.5718 36.5228 39.6572C36.4396 39.6746 36.423 39.6814 36.327 39.6807ZM23.3506 42.7192C23.3521 42.4091 23.4662 41.7102 23.6891 41.5127C23.7639 41.4462 24.1795 41.3251 24.3239 41.3267L24.3526 42.1542C24.4024 42.4688 24.141 42.6663 24.509 42.6867L25.2518 42.6511C25.4883 42.6156 25.5661 42.5944 25.5858 42.307C25.6183 41.8266 25.4558 42.3251 24.7855 42.3183C24.7667 42.2434 24.7107 42.1148 24.7039 42.0521C24.6888 41.9197 24.6541 41.2079 24.6956 41.1663C24.7704 41.0914 24.985 40.984 25.1792 41.0309C25.279 41.0559 25.3697 41.1791 25.3047 40.7745C25.3991 40.3804 25.1588 40.5664 25.1105 40.5755C24.4244 40.6988 24.6465 40.4885 24.5694 39.8947C24.4788 39.2162 24.5422 39.4084 25.1966 39.5112C25.2692 39.2094 25.3054 39.2193 25.2223 38.9954C24.9639 38.9386 24.5536 39.0566 24.2823 39.046C23.9385 39.0324 24.0352 39.0347 23.7753 39.8486C23.544 40.5536 23.3468 41.248 23.1194 41.9545C23.0665 42.0838 23.037 42.1443 23 42.2744C22.932 42.5127 22.7129 42.8682 23.04 42.7752C23.2206 42.7238 23.2176 42.7525 23.3506 42.7192ZM24.2838 40.8826L24.2286 39.6497L23.7828 40.9893L24.2838 40.8826ZM38.8153 39.9288C38.739 40.2457 38.8765 40.5952 38.8244 40.8448C38.7133 41.3826 38.7579 42.4454 38.6876 43.0891C38.6733 43.2238 38.6287 43.4318 38.6279 43.574C38.9325 43.6481 38.8841 43.5959 39.2279 43.6534C39.5664 43.7101 39.874 43.49 40.0583 43.2086C40.319 42.8123 40.2896 42.7737 40.4082 42.2775C40.4762 41.9923 40.4067 41.2374 40.2835 40.9568C40.2329 40.8403 40.2609 40.9575 40.217 40.8395C40.1407 40.6368 40.2586 40.7919 40.078 40.5816L40.0281 40.5067C40.0243 40.5006 40.0206 40.4923 40.0168 40.487L39.9918 40.45C39.9631 40.4121 39.9382 40.3887 39.9019 40.3463C39.8294 40.2624 39.5219 40.0687 39.4705 40.0559L38.8153 39.9288ZM39.2657 40.3652C39.1644 40.4802 39.0005 42.7555 39.0586 43.1806C39.0723 43.2759 38.9997 43.3667 39.3178 43.2873C39.5506 43.229 39.5891 43.1194 39.7531 42.9234C39.9216 42.7222 39.9684 42.3713 40.0296 42.0876C40.0848 41.8335 40.0395 41.8463 40.0266 41.6406C39.9979 41.1943 39.9246 40.9787 39.6783 40.6671C39.4841 40.422 39.4909 40.4795 39.2657 40.3652ZM16.6943 39.6898C16.6958 39.7457 16.7668 39.8819 16.794 40.3146C16.8325 40.931 16.958 42.0452 16.9058 42.5914C16.8847 42.8259 16.865 42.8372 16.8726 43.0861C16.8749 43.1708 16.8764 43.2729 16.9746 43.2903C17.1605 43.3243 17.2837 43.2767 17.4053 43.2578C17.6222 43.2238 17.6312 43.2109 17.8526 43.0884L18.034 42.9552C18.1511 42.8251 18.2441 42.6943 18.3 42.5316C18.4073 42.2185 18.3922 42.5067 18.4534 42.0687C18.5508 41.3788 18.5282 41.8312 18.51 41.1126C18.5078 41.0354 18.5093 41.009 18.4889 40.9409C18.4148 40.6943 18.4715 40.7586 18.3967 40.602C18.2539 40.3032 18.2531 40.1633 17.9433 39.8774C17.6607 39.6164 17.3841 39.6504 17.069 39.6149C16.7781 39.5816 16.8862 39.686 16.6943 39.6898ZM17.1824 39.9727C17.1272 40.2026 17.1756 40.1512 17.1711 40.3478C17.1998 40.9666 17.2111 41.5778 17.2444 42.2003C17.2451 42.3274 17.2134 42.4386 17.2413 42.5717C17.261 42.6625 17.2655 42.6269 17.2678 42.7396C17.2708 42.8614 17.261 42.8304 17.2882 42.9378C17.434 42.9068 17.4673 42.9303 17.6532 42.7616C17.6985 42.7207 17.7166 42.695 17.7657 42.6451C18.0302 42.3751 18.1504 41.6875 18.1352 41.3675C18.1292 41.2465 18.1262 41.3161 18.1118 41.2503C18.0975 41.1822 18.0975 41.161 18.0967 41.1012C18.0937 40.869 18.0982 41.0475 18.0347 40.8229C17.9252 40.4341 17.7793 40.2911 17.5066 40.0642C17.4136 39.987 17.326 39.9537 17.1824 39.9727ZM44.1229 42.0407C44.0292 42.4537 43.9876 43.0536 44.1115 43.5694C44.2022 43.9469 44.3813 44.279 44.6926 44.4605C44.7962 44.5195 44.9012 44.6156 45.0024 44.6398C45.2473 44.6995 45.6243 44.5823 45.845 44.3425C46.1268 44.0361 46.1789 43.8206 46.2908 43.3539C46.3747 43.0036 46.3626 42.8856 46.3452 42.6088C46.3339 42.428 46.3709 42.4265 46.3195 42.2555C46.2847 42.1406 46.2764 42.0475 46.2409 41.9348C46.1714 41.7162 46.1238 41.5619 45.9848 41.3796L45.6311 41.0415C44.976 40.5695 44.2695 41.431 44.1229 42.0407ZM45.1294 44.2464C45.2382 44.2729 45.1528 44.2419 45.2473 44.2237C45.6954 44.136 45.8472 43.8425 45.9523 43.4023C46.0188 43.1247 46.0021 42.5241 45.9334 42.2283C45.9024 42.0929 45.8639 42.0105 45.8253 41.8985C45.7573 41.7011 45.6999 41.6171 45.5472 41.4885C45.4792 41.431 45.4845 41.4152 45.3961 41.369C45.0334 41.1784 44.6964 41.4817 44.5612 41.8561C44.4697 42.108 44.4274 42.4295 44.3926 42.6935C44.413 42.9408 44.4214 43.3713 44.5249 43.5876C44.5559 43.6526 44.5717 43.6882 44.6019 43.751C44.7047 43.9666 44.8694 44.1829 45.1294 44.2464ZM19.8936 42.5611C20.1883 42.633 20.4097 42.5014 20.5434 42.2502C20.7664 41.8319 20.7407 41.8667 20.7641 41.3977C20.7694 41.285 20.7868 41.2079 20.7754 41.1012C20.7626 40.9931 20.7444 40.9484 20.7399 40.8335L20.6553 40.4636C20.6364 40.3978 20.6318 40.4061 20.6054 40.335L20.5366 40.1663C20.3296 39.7873 19.8747 39.5846 19.6034 39.8539C19.3541 40.102 19.3103 40.2881 19.2438 40.6383C19.1931 40.9038 19.1961 41.2971 19.2422 41.5619C19.3012 41.903 19.5264 42.4719 19.8936 42.5611ZM49.4916 35.0847C49.5158 35.4228 49.5476 35.7655 49.5793 36.1066C46.5371 34.4561 42.0215 34.0431 39.9533 36.59C40.2631 40.2041 51.114 40.8448 52.8738 38.8804C52.9811 38.7208 53.0544 38.5514 53.0892 38.3706C53.3144 37.1845 51.8137 35.8941 49.4916 35.0847ZM0.469366 38.8789C0.362067 38.72 0.288773 38.5506 0.25477 38.3706C0.0288364 37.1845 1.53027 35.8941 3.85157 35.0847C3.82814 35.4228 3.79641 35.7655 3.76392 36.1066C6.80608 34.4561 11.3217 34.0431 13.3899 36.59C13.0808 40.2049 2.22772 40.8456 0.469366 38.8789Z" fill="white"/>
</svg>
